<svg xmlns="http://www.w3.org/2000/svg" version="1.1" xmlns:xlink="http://www.w3.org/1999/xlink" width="512" height="512" x="0" y="0" viewBox="0 0 512 512" style="enable-background:new 0 0 512 512" xml:space="preserve" class=""><g><linearGradient id="a" x1="256" x2="256" y1="0" y2="512" gradientUnits="userSpaceOnUse"><stop offset="0" stop-color="#01f1fe"></stop><stop offset="1" stop-color="#4fadfe"></stop></linearGradient><path fill="url(#a)" fill-rule="evenodd" d="M256 512C114.841 512-.001 397.159-.001 256S114.841 0 256 0s256.001 114.841 256.001 256S397.159 512 256 512zm138.483-147.371h.002V188.456a5.732 5.732 0 0 0-5.725-5.725h-67.423a13.237 13.237 0 0 1-12.366-8.509l-12.468-32.575h-81.004l-12.469 32.576a13.242 13.242 0 0 1-12.367 8.508h-67.422a5.732 5.732 0 0 0-5.725 5.725V364.63a5.732 5.732 0 0 0 5.725 5.725h265.517a5.733 5.733 0 0 0 5.725-5.726zm-5.723-208.38c17.759 0 32.206 14.447 32.207 32.206V364.63c0 17.759-14.448 32.207-32.207 32.207H123.241c-17.76 0-32.208-14.449-32.208-32.208V188.457c0-17.759 14.449-32.207 32.208-32.207h58.312l12.469-32.576a13.242 13.242 0 0 1 12.367-8.508h99.223a13.239 13.239 0 0 1 12.367 8.509l12.468 32.575h58.313zM256 323.904c-31.182 0-56.552-25.368-56.552-56.552S224.818 210.8 256 210.8s56.552 25.368 56.552 56.552-25.369 56.552-56.552 56.552zm83.035-56.552c0 45.785-37.249 83.035-83.035 83.035-45.785 0-83.035-37.249-83.035-83.035s37.249-83.035 83.035-83.035c45.786.001 83.035 37.25 83.035 83.035z" clip-rule="evenodd" opacity="1" data-original="url(#a)" class=""></path></g></svg>