<svg xmlns="http://www.w3.org/2000/svg" version="1.1" xmlns:xlink="http://www.w3.org/1999/xlink" width="25" height="25" x="0" y="0" viewBox="0 0 58 58" style="enable-background:new 0 0 512 512" xml:space="preserve" class=""><g><g fill="none" fill-rule="evenodd"><path fill="#90bae1" d="M47.4 8H52a4 4 0 0 1 4 4v38H2V12a4 4 0 0 1 4-4z" opacity="1" data-original="#90bae1" class=""></path><path fill="#b0d3f0" d="M52.95 8.12C41.54 8.83 2 13.77 2 48V12a4 4 0 0 1 4-4h46c.32-.001.64.039.95.12z" opacity="1" data-original="#b0d3f0"></path><path fill="#547580" d="M7 5v33c0 2.76 7.61 5 17 5 1.967 0 3.933-.1 5.89-.3L41 14.86V5zM52 58H6a6 6 0 0 1-6-6v-3a1 1 0 0 1 1-1h56a1 1 0 0 1 1 1v3a6 6 0 0 1-6 6z" opacity="1" data-original="#547580"></path><path fill="#3f5c6c" d="M19 48h20v2a3 3 0 0 1-3 3H22a3 3 0 0 1-3-3zM15 53h-3a1 1 0 0 1 0-2h3a1 1 0 0 1 0 2z" opacity="1" data-original="#3f5c6c"></path><circle cx="4" cy="52" r="1" fill="#65ddb9" opacity="1" data-original="#65ddb9"></circle><circle cx="8" cy="52" r="1" fill="#65ddb9" opacity="1" data-original="#65ddb9"></circle><ellipse cx="24" cy="5" fill="#95a5a5" rx="17" ry="5" opacity="1" data-original="#95a5a5"></ellipse><path fill="#3f5c6c" d="M21 29c.002.983.095 1.964.28 2.93C13.18 31.55 7 29.49 7 27V16c0 2.69 7.25 4.89 16.32 4.99A14.9 14.9 0 0 0 21 29z" opacity="1" data-original="#3f5c6c"></path><path fill="#46b29d" d="M51 29c-.003 8.283-6.717 14.997-15 15a14.842 14.842 0 0 1-6.11-1.3 15.035 15.035 0 0 1-8.61-10.77A15.733 15.733 0 0 1 21 29c0-8.284 6.716-15 15-15s15 6.716 15 15z" opacity="1" data-original="#46b29d" class=""></path><path fill="#ffffff" d="m47.707 28.293-3-3a1 1 0 0 0-1.414 0l-3 3a1 1 0 0 0 1.414 1.414L43 28.414V29a7 7 0 1 1-7-7 6.926 6.926 0 0 1 4.375 1.535 1 1 0 1 0 1.251-1.56A9 9 0 1 0 45 29v-.586l1.293 1.293a1 1 0 0 0 1.414-1.414z" opacity="1" data-original="#ffffff" class=""></path></g></g></svg>