<svg xmlns="http://www.w3.org/2000/svg" version="1.1" xmlns:xlink="http://www.w3.org/1999/xlink" width="25" height="25" x="0" y="0" viewBox="0 0 512 512" style="enable-background:new 0 0 512 512" xml:space="preserve" class=""><g><path fill="#e27f86" d="m434.28 85.683-139.162-20h-78.236l-139.162 20v230.404h356.56z" opacity="1" data-original="#e27f86"></path><path fill="#e6989e" d="m55.5 120.616 62.718 14.396-20.175 161.41-54.003 7.661zM456.5 120.616l-62.718 14.396 20.175 161.41 54.003 7.661z" opacity="1" data-original="#e6989e"></path><path fill="#efcb83" d="M479.437 342.341H33.169l4.182-45.919h437.904z" opacity="1" data-original="#efcb83"></path><path fill="#fbf0dc" d="M377.528 476.316H134.472C49.824 476.316 7.5 404.061 7.5 399.923v-27.84c0-11.334 497-11.334 497 0v27.84c0 4.138-42.324 76.393-126.972 76.393z" opacity="1" data-original="#fbf0dc"></path><path fill="#e27f86" d="m347.45 476.316-45.837-104.233L256 352.212l-45.613 19.871-45.837 104.233z" opacity="1" data-original="#e27f86"></path><path fill="#ffe07d" d="M49.824 476.316v-44.068c0-23.375-18.949-32.324-42.324-32.324v68.901a7.491 7.491 0 0 0 7.491 7.491z" opacity="1" data-original="#ffe07d"></path><path fill="#fff0af" d="M134.472 476.316v-44.068c0-23.375-18.949-32.324-42.324-32.324s-42.324 8.949-42.324 32.324v44.068z" opacity="1" data-original="#fff0af"></path><path fill="#ffe07d" d="M462.176 476.316v-44.068c0-23.375 18.949-32.324 42.324-32.324v68.901a7.491 7.491 0 0 1-7.491 7.491z" opacity="1" data-original="#ffe07d"></path><path fill="#fff0af" d="M377.528 476.316v-44.068c0-23.375 18.949-32.324 42.324-32.324s42.324 8.949 42.324 32.324v44.068z" opacity="1" data-original="#fff0af"></path><path fill="#ffc250" d="M152.199 65.683h64.683s-29.413 73.242-140.817 73.242L51.127 341.737 7.5 332.342V154.531zM359.801 65.683h-64.683s29.413 73.242 140.817 73.242l24.938 202.812 43.627-9.396v-177.81z" opacity="1" data-original="#ffc250"></path><path fill="#ffe07d" d="M7.5 154.531c116.977 0 159.591-118.847 159.591-118.847h-152.1A7.491 7.491 0 0 0 7.5 43.175v111.356zM497.009 35.683h-152.1S387.523 154.53 504.5 154.53V43.175a7.491 7.491 0 0 0-7.491-7.492z" opacity="1" data-original="#ffe07d"></path><path fill="#ffffff" d="M229.806 189.1v22.785s.157 9 26.194 9 26.194-9 26.194-9V189.1z" opacity="1" data-original="#ffffff"></path><path fill="#e9edf1" d="M214.613 158.516v23.369s.249 9 41.387 9 41.387-9 41.387-9v-23.369z" opacity="1" data-original="#e9edf1"></path><path fill="#ffffff" d="m256 102.563-58.722 29.49v19.832s.353 9 58.722 9 58.722-9 58.722-9v-19.832z" opacity="1" data-original="#ffffff"></path><path fill="#f5deb2" d="M7.5 332.342h497v39.742H7.5z" opacity="1" data-original="#f5deb2"></path><path d="M347.454 483.818c-.056 0-.111 0-.167-.002H164.712c-.11.003-.222.003-.333 0H14.991C6.725 483.816 0 477.091 0 468.824v-68.901a7.5 7.5 0 0 1 7.5-7.5c19.529 0 34.132 5.834 42.324 16.314 8.191-10.48 22.794-16.314 42.324-16.314 31.198 0 49.824 14.888 49.824 39.824v36.575h17.68l39.244-89.239H90.744a7.5 7.5 0 0 1 0-15h119.479c.112-.003.226-.003.338 0h90.879c.113-.003.225-.003.338 0h43.132c4.143 0 7.5 3.358 7.5 7.5s-3.357 7.5-7.5 7.5h-31.806l39.243 89.235h17.682v-36.571c0-24.937 18.626-39.824 49.823-39.824 19.529 0 34.133 5.834 42.324 16.314 8.191-10.48 22.795-16.314 42.324-16.314a7.5 7.5 0 0 1 7.5 7.5v68.901c0 8.266-6.725 14.991-14.991 14.991H347.621a4.65 4.65 0 0 1-.167.003zM15 407.775v61.049h27.324v-36.577c0-17.348-13.538-23.107-27.324-24.472zm77.148-.352c-15.886 0-34.824 4.307-34.824 24.824v36.576l69.648-.001v-36.575c0-20.517-18.937-24.824-34.824-24.824zm123.135-27.84-39.244 89.238 159.921-.003-39.242-89.235zm204.569 27.84c-15.886 0-34.823 4.307-34.823 24.824v36.57l69.647-.001v-36.569c0-20.517-18.938-24.824-34.824-24.824zm77.149.352c-13.786 1.365-27.325 7.124-27.325 24.472v36.569h27.333zm-75.745-28.192h-36.173c-4.143 0-7.5-3.358-7.5-7.5s3.357-7.5 7.5-7.5h36.173a7.5 7.5 0 0 1 0 15zm39.058-39.74-.11-.001H7.5a7.5 7.5 0 0 1-7.5-7.5V43.175c0-8.266 6.725-14.991 14.991-14.991h152.1a7.498 7.498 0 0 1 7.06 10.032c-.227.633-3.083 8.478-9.12 19.969h181.938c-6.037-11.491-8.893-19.335-9.119-19.969a7.5 7.5 0 0 1 14.117-5.069c.104.288 10.672 29.135 34.904 57.477 15.394 18.004 32.543 31.741 51.319 41.148a7.47 7.47 0 0 1 2.023.994c17.558 8.454 36.519 13.168 56.786 14.096V43.175l-111.917.009c-4.143 0-7.5-3.358-7.5-7.5s3.357-7.5 7.5-7.5h111.926c8.267 0 14.991 6.725 14.991 14.991v289.167a7.5 7.5 0 0 1-7.5 7.5h-44.075l-.11.001zm6.624-15.001H497V161.869c-18.16-.787-35.563-4.441-51.979-10.849l18.201 144.348c.01.07.019.141.026.212zm-406.757 0H451.82l-2.638-20.92h-35.126a7.849 7.849 0 0 1-.217 0H62.819zm-45.181 0h30.062L66.98 151.021c-16.417 6.407-33.825 10.061-51.985 10.848zm405.578-35.92h26.712l-17.979-142.583c-9.552-.251-18.485-1.042-26.838-2.266zm-314.035 0H405.46l-18.466-147.735c-32.042-7.316-54.036-21.063-68.137-33.198-16.091-13.846-24.733-27.759-28.449-34.806H263.5v24.754l54.589 27.414a7.5 7.5 0 0 1 4.134 6.702v19.832c0 .098-.002.196-.006.294-.197 5.027-4.498 8.856-12.781 11.38a62.564 62.564 0 0 1-4.548 1.185v17.141l-.003.208c-.059 2.113-1.129 7.434-9.788 11.177-1.586.686-3.387 1.303-5.402 1.852v16.764l-.001.131c-.067 3.84-2.695 16.369-33.693 16.369s-33.626-12.529-33.693-16.369l-.001-.131v-16.765c-2.015-.548-3.816-1.166-5.402-1.851-8.659-3.743-9.729-9.063-9.788-11.177a7.144 7.144 0 0 1-.003-.207v-17.141a62.43 62.43 0 0 1-4.548-1.185c-8.284-2.524-12.584-6.353-12.781-11.381a7.196 7.196 0 0 1-.006-.293v-19.832a7.5 7.5 0 0 1 4.134-6.702L248.5 97.937V73.183h-26.909c-3.716 7.047-12.359 20.96-28.449 34.806-14.101 12.134-36.095 25.881-68.137 33.198l-6.329 50.629a7.495 7.495 0 0 1-8.372 6.512 7.5 7.5 0 0 1-6.512-8.372l5.735-45.882c-8.353 1.223-17.286 2.014-26.838 2.266L64.71 288.922h26.716l7.595-60.453a7.5 7.5 0 0 1 14.882 1.87zm130.763-78.789c1.353.935 5.994 3.253 18.694 3.253s17.342-2.318 18.694-3.253v-12.511c-5.484.509-11.723.764-18.694.764s-13.21-.255-18.694-.764zm-15.193-30.961c2.607 1.342 10.873 4.213 33.887 4.213 23.015 0 31.281-2.871 33.888-4.213v-12.165c-9.264.917-20.585 1.378-33.888 1.378s-24.624-.461-33.887-1.378zm-17.335-30.704c3.87 1.582 16.188 4.918 51.222 4.918 35.035 0 47.353-3.336 51.223-4.918V136.68L256 110.956l-51.222 25.724zM14.991 43.183l.003 103.677c20.267-.927 39.233-5.643 56.792-14.096a7.462 7.462 0 0 1 2.024-.994c18.776-9.408 35.926-23.144 51.319-41.148 15.518-18.149 25.433-36.508 30.584-47.439zm381.05 84.675c3.408.65 6.885 1.213 10.423 1.686-11.176-8.321-21.657-18.197-31.338-29.577-7.846-9.223-14.319-18.415-19.545-26.783h-47.724c4.278 6.496 11.167 15.278 21.428 23.985 17.788 15.095 39.585 25.248 65.103 30.366a7.41 7.41 0 0 1 1.653.323zM156.419 73.183c-5.225 8.368-11.699 17.561-19.544 26.783-9.66 11.355-20.116 21.212-31.265 29.522 59.327-8.111 87.563-39.714 98.532-56.306h-47.723z" fill="#000000" opacity="1" data-original="#000000" class=""></path></g></svg>