<svg xmlns="http://www.w3.org/2000/svg" version="1.1" xmlns:xlink="http://www.w3.org/1999/xlink" width="25" height="25" x="0" y="0" viewBox="0 0 512 512" style="enable-background:new 0 0 512 512" xml:space="preserve" class=""><g><g fill-rule="evenodd" clip-rule="evenodd"><path fill="#d8ecfe" d="M395.097 79.282c7.806 0 14.134-6.328 14.134-14.134s-6.328-14.134-14.134-14.134h-48.638c-24.278 0-43.961 19.747-43.961 44.017l-.054 306.805c0 4.93-9.41 7.167-13.09 7.167H30.133c-7.806 0-14.134 6.328-14.134 14.134s6.328 14.134 14.134 14.134h259.221c20.051 0 41.358-13.694 41.358-35.435l-.002-306.805c0-8.633 7.116-15.749 15.749-15.749z" opacity="1" data-original="#d8ecfe"></path><path fill="#c4e2ff" d="M395.097 79.282c7.806 0 14.134-6.328 14.134-14.134 0-6.542-4.445-12.044-10.479-13.656.311 1.166.479 2.391.479 3.655 0 7.806-6.328 14.134-14.134 14.134h-48.638c-8.633 0-15.749 7.116-15.749 15.749l.001 306.805c0 21.741-21.307 35.435-41.358 35.435H20.132c-1.264 0-2.489-.167-3.655-.478 1.611 6.034 7.114 10.479 13.656 10.479h259.221c20.051 0 41.358-13.694 41.358-35.435l-.002-306.805c0-8.633 7.116-15.749 15.749-15.749z" opacity="1" data-original="#c4e2ff"></path><path fill="#9facba" d="M395.097 79.283c7.806 0 14.134-6.328 14.134-14.134s-6.328-14.134-14.134-14.134H353.93v28.268z" opacity="1" data-original="#9facba"></path><path fill="#8d9ca8" d="M395.097 79.283c7.806 0 14.134-6.328 14.134-14.134 0-6.542-4.445-12.044-10.479-13.656.311 1.166.479 2.391.479 3.655 0 7.806-6.328 14.134-14.134 14.134H353.93v10.001z" opacity="1" data-original="#8d9ca8"></path><circle cx="316.103" cy="419.174" r="41.812" fill="#9facba" transform="rotate(-45 316.05 419.264)" opacity="1" data-original="#9facba"></circle><circle cx="316.103" cy="419.175" r="19.493" fill="#eceff1" transform="rotate(-67.48 316.25 419.11)" opacity="1" data-original="#eceff1"></circle><path fill="#e3a76f" d="M141.227 254.129H29.405c-3.497 0-6.349 2.852-6.349 6.349v109.87c0 4.572 3.729 8.301 8.301 8.301h107.918c4.572 0 8.301-3.729 8.301-8.301v-109.87c0-3.497-2.852-6.349-6.349-6.349z" opacity="1" data-original="#e3a76f"></path><path fill="#c48958" d="M141.227 254.129h-15.744c3.497 0 6.349 2.852 6.349 6.349v109.87c0 4.572-3.729 8.301-8.301 8.301h15.744c4.572 0 8.302-3.729 8.302-8.301v-109.87c0-3.497-2.853-6.349-6.35-6.349z" opacity="1" data-original="#c48958"></path><path fill="#f2d1a5" d="M106.162 254.129H64.47v42.338c0 4.663 3.803 8.466 8.466 8.466h24.761c4.663 0 8.465-3.803 8.465-8.466z" opacity="1" data-original="#f2d1a5"></path><path fill="#ecba78" d="M106.162 254.129h-9.357v42.338c0 4.663-3.803 8.466-8.466 8.466h9.356c4.663 0 8.466-3.803 8.466-8.466v-42.338z" opacity="1" data-original="#ecba78"></path><path fill="#e3a76f" d="M265.754 254.129H153.931c-3.497 0-6.349 2.852-6.349 6.349v109.87c0 4.572 3.729 8.301 8.301 8.301h107.918c4.572 0 8.301-3.729 8.301-8.301v-109.87c.001-3.497-2.851-6.349-6.348-6.349z" opacity="1" data-original="#e3a76f"></path><path fill="#c48958" d="M265.754 254.129H250.01c3.497 0 6.349 2.852 6.349 6.349v109.87c0 4.572-3.729 8.301-8.301 8.301h15.744c4.572 0 8.302-3.729 8.302-8.301v-109.87c-.001-3.497-2.853-6.349-6.35-6.349z" opacity="1" data-original="#c48958"></path><path fill="#f2d1a5" d="M230.688 254.129h-41.692v42.338c0 4.663 3.803 8.466 8.466 8.466h24.761c4.663 0 8.465-3.803 8.465-8.466z" opacity="1" data-original="#f2d1a5"></path><path fill="#ecba78" d="M230.688 254.129h-9.357v42.338c0 4.663-3.803 8.466-8.466 8.466h9.357c4.663 0 8.466-3.803 8.466-8.466z" opacity="1" data-original="#ecba78"></path><path fill="#e3a76f" d="M203.394 129.606H91.572c-3.497 0-6.349 2.852-6.349 6.349v109.87c0 4.572 3.729 8.301 8.301 8.301h107.918c4.572 0 8.301-3.729 8.301-8.301v-109.87c0-3.497-2.852-6.349-6.349-6.349z" opacity="1" data-original="#e3a76f"></path><path fill="#c48958" d="M203.394 129.606H187.65c3.497 0 6.349 2.852 6.349 6.349v109.87c0 4.572-3.729 8.301-8.301 8.301h15.744c4.572 0 8.302-3.729 8.302-8.301v-109.87c0-3.497-2.853-6.349-6.35-6.349z" opacity="1" data-original="#c48958"></path><path fill="#f2d1a5" d="M168.329 129.606h-41.692v42.338c0 4.663 3.803 8.466 8.466 8.466h24.761c4.663 0 8.465-3.803 8.465-8.466z" opacity="1" data-original="#f2d1a5"></path><path fill="#ecba78" d="M168.329 129.606h-9.357v42.338c0 4.663-3.803 8.466-8.466 8.466h9.357c4.663 0 8.466-3.803 8.466-8.466z" opacity="1" data-original="#ecba78"></path><path fill="#a79ba7" d="M397.69 290.535a89.882 89.882 0 0 1-15.169 16.699l41.246 40.431 15.702-16.182z" opacity="1" data-original="#a79ba7"></path><path fill="#837683" d="M397.969 290.257c-.811 2.66-2.323 4.682-4.49 6.021l40.973 40.703 5.018-5.498z" opacity="1" data-original="#837683"></path><path fill="#f1ba84" d="m475.996 400.145 17.721-18.263c3.113-3.207 3.034-8.377-.173-11.489l-49.083-47.629c-3.207-3.113-8.378-3.034-11.49.172l-17.721 18.263c-3.112 3.207-3.034 8.378.173 11.49l49.083 47.628c3.208 3.112 8.378 3.035 11.49-.172z" opacity="1" data-original="#f1ba84" class=""></path><path fill="#e3a76f" d="m437.2 322.763 49.083 47.629c3.206 3.112 3.285 8.282.173 11.489l-17.721 18.263a8.046 8.046 0 0 1-2.201 1.608c3.082 1.532 6.945.986 9.462-1.608l17.721-18.263c3.112-3.207 3.033-8.377-.173-11.489l-49.083-47.628c-2.532-2.458-6.288-2.926-9.289-1.436.729.362 1.415.84 2.028 1.435z" opacity="1" data-original="#e3a76f"></path><ellipse cx="330.711" cy="245.54" fill="#8ac9fe" rx="89.38" ry="89.379" transform="rotate(-9.25 330.911 246.018)" opacity="1" data-original="#8ac9fe"></ellipse><path fill="#60b7ff" d="M330.711 156.161c49.363 0 89.38 40.016 89.38 89.38 0 49.362-40.017 89.379-89.38 89.379-1.455 0-2.901-.038-4.339-.106 47.347-2.263 85.041-41.365 85.041-89.273s-37.693-87.01-85.041-89.273a90.53 90.53 0 0 1 4.339-.107z" opacity="1" data-original="#60b7ff"></path><circle cx="330.711" cy="245.54" r="64.18" fill="#eceff1" opacity="1" data-original="#eceff1"></circle><path fill="#d1d1d6" d="M330.711 181.361a65.6 65.6 0 0 1 4.339.149c-33.422 2.232-59.841 30.044-59.841 64.031s26.42 61.799 59.841 64.03c-1.434.096-2.88.149-4.339.149-35.446 0-64.18-28.734-64.18-64.179.001-35.446 28.735-64.18 64.18-64.18z" opacity="1" data-original="#d1d1d6"></path><path d="M330.709 189.36c30.981 0 56.177 25.201 56.177 56.181 0 30.976-25.196 56.176-56.177 56.176s-56.181-25.201-56.181-56.176c0-30.98 25.2-56.181 56.181-56.181zm0 128.357c39.802 0 72.18-32.379 72.18-72.175 0-39.801-32.378-72.18-72.18-72.18-39.801 0-72.18 32.378-72.18 72.18 0 39.796 32.379 72.175 72.18 72.175zm157.257 58.591-17.717 18.263c-.033.038-.141.038-.169 0l-49.093-47.624c-.028-.038-.038-.141 0-.179l17.721-18.263c.019-.024.061-.033.089-.033.033 0 .071.009.089.028l49.079 47.629c.043.038.043.141.001.179zm-171.867-6.943c-1.911 0-3.789.118-5.648.329l.009-28.9a97.217 97.217 0 0 0 12.247 1.793v27.224a50.226 50.226 0 0 0-6.608-.446zm33.819 49.808c0 18.644-15.17 33.814-33.819 33.814-18.639 0-33.809-15.17-33.809-33.814s15.17-33.809 33.809-33.809c18.648 0 33.819 15.166 33.819 33.809zm-85.821-48.824a.31.31 0 0 1-.296.301h-107.92c-.155 0-.306-.146-.306-.301V262.124h25.422v42.809a8 8 0 0 0 8.002 7.997h41.689a8 8 0 0 0 8.002-7.997v-27.535c5.22 15.043 14.041 28.425 25.408 39.11v53.841zm-124.817.301H31.356a.31.31 0 0 1-.297-.301V262.124h25.408v42.809a8 8 0 0 0 8.002 7.997h41.698c4.41 0 8.002-3.582 8.002-7.997v-42.809h25.408v108.225a.316.316 0 0 1-.297.301zM72.466 262.124v34.807H98.17v-34.807zm20.852-16.3v-108.22h25.412v42.804c0 4.42 3.587 8.002 7.997 8.002h41.703a8.001 8.001 0 0 0 8.002-8.002v-42.804h25.408v108.22a.313.313 0 0 1-.301.301H93.619a.32.32 0 0 1-.301-.301zm41.411-108.221v34.803h25.7v-34.803zm62.267 124.521v34.807h25.695v-34.807zm133.713-97.965c-44.87 0-81.382 36.507-81.382 81.382 0 44.871 36.511 81.377 81.382 81.377s81.377-36.507 81.377-81.377c0-44.875-36.506-81.382-81.377-81.382zm-20.211-69.13c0-19.68 15.853-35.716 35.429-36.003v12.271c-12.85.282-23.219 10.817-23.219 23.732v53.461a96.698 96.698 0 0 0-12.219 1.789zm90.73-29.879c0 3.379-2.749 6.133-6.129 6.133H361.93V59.012h33.169c3.38 0 6.129 2.754 6.129 6.138zm19.42 258.996-4.561 4.698-15.759-15.293a102.23 102.23 0 0 0 4.42-4.834zM30.128 429.27c-3.379 0-6.128-2.749-6.128-6.133s2.749-6.133 6.128-6.133h236.219c-.028.72-.056 1.445-.056 2.17 0 3.46.358 6.834 1.026 10.096zm468.979-64.621-49.078-47.629c-3.078-2.994-7.131-4.608-11.471-4.542a16.19 16.19 0 0 0-5.762 1.163L414.209 295.6a96.898 96.898 0 0 0 13.881-50.058c0-51.004-39.411-92.966-89.384-97.051V95.029c0-4.198 3.554-7.747 7.752-7.747h48.641c12.2 0 22.132-9.927 22.132-22.132s-9.931-22.137-22.132-22.137h-48.641c-28.651 0-51.959 23.337-51.959 52.016l-.009 60.121c-35.81 14.403-61.161 49.493-61.161 90.391 0 .193.009.386.009.584h-15.509c0-.099.01-.198.01-.301V129.602a7.993 7.993 0 0 0-7.997-7.997H85.32a7.994 7.994 0 0 0-8.002 7.997v116.222c0 .104.009.202.009.301h-54.27a7.997 7.997 0 0 0-7.997 8.002v116.222c0 8.986 7.31 16.3 16.295 16.3H139.28c3.027 0 5.869-.828 8.298-2.278a16.151 16.151 0 0 0 8.303 2.278h107.92c8.985 0 16.3-7.315 16.3-16.3v-41.642a97.383 97.383 0 0 0 14.356 7.206l-.009 38.408c-11.231 5.446-20.117 14.996-24.711 26.683H30.128c-12.2 0-22.127 9.927-22.127 22.132s9.927 22.136 22.127 22.136H273.7c8.778 14.215 24.499 23.713 42.4 23.713 27.469 0 49.817-22.344 49.817-49.813 0-19.331-11.08-36.106-27.21-44.362v-32.223c18.423-1.506 35.391-8.152 49.493-18.507l17.75 17.222c-2.109 5.799-.81 12.558 3.902 17.124l49.078 47.629a16.072 16.072 0 0 0 11.231 4.547c4.208 0 8.421-1.638 11.569-4.891h.009l17.717-18.262c6.194-6.378 6.033-16.606-.349-22.8zm-171.509 54.524c0-6.336-5.159-11.489-11.499-11.489-6.331 0-11.489 5.154-11.489 11.489 0 6.34 5.159 11.494 11.489 11.494 6.34.001 11.499-5.153 11.499-11.494zm-38.992 0c0 15.161 12.332 27.493 27.493 27.493s27.502-12.332 27.502-27.493-12.341-27.493-27.502-27.493-27.493 12.333-27.493 27.493z" fill="#000000" opacity="1" data-original="#000000" class=""></path></g></g></svg>