<svg xmlns="http://www.w3.org/2000/svg" version="1.1" xmlns:xlink="http://www.w3.org/1999/xlink" width="512" height="512" x="0" y="0" viewBox="0 0 682.667 682.667" style="enable-background:new 0 0 512 512" xml:space="preserve" class=""><g><defs><clipPath id="a" clipPathUnits="userSpaceOnUse"><path d="M0 512h512V0H0Z" fill="#000000" opacity="1" data-original="#000000" class=""></path></clipPath></defs><g clip-path="url(#a)" transform="matrix(1.33333 0 0 -1.33333 0 682.667)"><path d="M0 0h-83.953v34.019c0 10.019 8.122 18.141 18.141 18.141h47.67C-8.122 52.16 0 44.038 0 34.019Z" style="fill-opacity:1;fill-rule:nonzero;stroke:none" transform="translate(180.963 419.92)" fill="#355f7f" data-original="#355f7f" class=""></path><path d="M0 0h-30c10.02 0 18.142-8.122 18.142-18.142V-52.16h30v34.018C18.142-8.122 10.02 0 0 0" style="fill-opacity:1;fill-rule:nonzero;stroke:none" transform="translate(162.821 472.08)" fill="#305972" data-original="#305972"></path><path d="M0 0v58.571c0 16.048-11.165 29.933-26.839 33.378l-41.962 9.222a11.393 11.393 0 0 0-8.945 11.126v34.698h-32.275v-34.698c0-5.349-3.722-9.977-8.946-11.126l-41.962-9.222c-15.674-3.445-26.839-17.33-26.839-33.378V0z" style="fill-opacity:1;fill-rule:nonzero;stroke:none" transform="translate(225.37 237.174)" fill="#82aee3" data-original="#82aee3"></path><path d="m0 0-41.961 9.222a11.392 11.392 0 0 0-8.947 11.126v34.697h-23.637V8.862c0-5.349 3.722-9.978 8.946-11.126l41.962-9.222C-7.964-14.931 3.201-28.817 3.201-44.864v-47.085h23.638v58.571C26.839-17.331 15.674-3.445 0 0" style="fill-opacity:1;fill-rule:nonzero;stroke:none" transform="translate(213.531 329.123)" fill="#528fd8" data-original="#528fd8" class=""></path><path d="m0 0 25.499 25.501c-1.184 1.806-16.861 3.958-16.861 6.242V66.44h-32.276V31.743c0-2.284-.677-4.436-1.861-6.242z" style="fill-opacity:1;fill-rule:nonzero;stroke:none" transform="translate(138.986 317.728)" fill="#ffcebf" data-original="#ffcebf"></path><path d="M0 0a11.411 11.411 0 0 0-.706 3.931l-.001.009v34.698h-23.637V-7.546c0-5.349 3.722-9.978 8.947-11.126l.15-.033L1.155-2.301A11.553 11.553 0 0 0 0 0" style="fill-opacity:1;fill-rule:nonzero;stroke:none" transform="translate(163.33 345.53)" fill="#ffb09e" data-original="#ffb09e"></path><path d="M0 0v-24.639c0-23.183 18.794-41.977 41.977-41.977 23.182 0 41.976 18.794 41.976 41.977V0L63.566 8.853a29.317 29.317 0 0 1-18.311 1.664z" style="fill-opacity:1;fill-rule:nonzero;stroke:none" transform="translate(97.01 423.587)" fill="#ffcebf" data-original="#ffcebf"></path><path d="M0 0v-35.839c.202-2.147 1.114-14.065-7.573-24.05-10.727-12.327-26.601-10.805-28.04-10.642 3.162-2.131 8.497-5.137 15.695-6.528 0 0 3.996-.756 7.941-.756C11.207-77.815 30-59.022 30-35.839V-11.2L9.613-2.347A29.16 29.16 0 0 1 0 0" style="fill-opacity:1;fill-rule:nonzero;stroke:none" transform="translate(150.963 434.787)" fill="#ffb09e" data-original="#ffb09e"></path><path d="M0 0v207.877h467V0c0-5.523-4.478-10-10-10H10C4.478-10 0-5.523 0 0" style="fill-opacity:1;fill-rule:nonzero;stroke:none" transform="translate(22.5 10)" fill="#eaf6ff" data-original="#eaf6ff" class=""></path><path d="M0 0h-445.602c-8.284 0-15 6.716-15 15v30.377c0 8.285 6.716 15 15 15H0c8.284 0 15-6.715 15-15V15C15 6.716 8.284 0 0 0" style="fill-opacity:1;fill-rule:nonzero;stroke:none" transform="translate(468.102 204.52)" fill="#355f7f" data-original="#355f7f" class=""></path><path d="M0 0h-115.359c-8.592 0-15.556 6.964-15.556 15.556v70.773c0 8.59 6.964 15.555 15.556 15.555H0c8.591 0 15.555-6.965 15.555-15.555V15.556C15.555 6.964 8.591 0 0 0" style="fill-opacity:1;fill-rule:nonzero;stroke:none" transform="translate(272.372 7.5)" fill="#c59191" data-original="#c59191"></path><path d="M0 0h-30c8.591 0 15.555-6.964 15.555-15.556v-70.773c0-8.591-6.964-15.555-15.555-15.555H0c8.591 0 15.555 6.964 15.555 15.555v70.773C15.555-6.964 8.591 0 0 0" style="fill-opacity:1;fill-rule:nonzero;stroke:none" transform="translate(272.372 109.384)" fill="#b98080" data-original="#b98080"></path><path d="M0 0v119.168a40 40 0 0 0 25.145 37.14l37.283 14.913A20 20 0 0 1 75 189.791v16.459h52.821v-16.459a20 20 0 0 1 12.573-18.57l37.283-14.913a40.001 40.001 0 0 0 25.144-37.14V0c0-10.355-8.394-18.75-18.75-18.75-10.355 0-18.75 8.395-18.75 18.75v11.25H37.5V0c0-10.355-8.395-18.75-18.75-18.75S0-10.355 0 0" style="fill-opacity:1;fill-rule:nonzero;stroke:none" transform="translate(301.679 201.46)" fill="#f58a97" data-original="#f58a97"></path><path d="M0 0v107.918a40 40 0 0 1-25.145 37.14l-37.283 14.913A20 20 0 0 0-75 178.541V195h-26.089v-31.459a20 20 0 0 1 12.571-18.57l37.285-14.913a40.001 40.001 0 0 0 25.144-37.14V0z" style="fill-opacity:1;fill-rule:nonzero;stroke:none" transform="translate(504.5 212.71)" fill="#f07281" data-original="#f07281"></path><path d="M0 0v-16.459a20.002 20.002 0 0 0-12.572-18.57 164.227 164.227 0 0 1 41.075-4.687c14.68.187 27.211 2.32 36.891 4.687-7.594 3.038-27.573 10.392-27.573 18.57L52.821 0Z" style="fill-opacity:1;fill-rule:nonzero;stroke:none" transform="translate(376.679 407.71)" fill="#ffcebf" data-original="#ffcebf"></path><path d="M0 0a164.087 164.087 0 0 1 36.866 4.687c-.831.332-1.624.725-2.388 1.156-6.247 3.52-10.188 10.24-10.184 17.413v16.459h-26.09V8.256C-1.796 5.345-1.154 2.544 0 0" style="fill-opacity:1;fill-rule:nonzero;stroke:none" transform="translate(405.206 367.996)" fill="#ffb09e" data-original="#ffb09e"></path><path d="M0 0c10.355 0 18.75 8.395 18.75 18.75V30h-37.5V18.75C-18.75 8.395-10.355 0 0 0" style="fill-opacity:1;fill-rule:nonzero;stroke:none" transform="translate(320.429 182.71)" fill="#ffcebf" data-original="#ffcebf"></path><path d="M0 0c10.355 0 16.049-6.158 16.049 4.198L18.75 15h-37.5V3.75c0-7.696 4.637-14.309 11.269-17.198C-5.189-14.446-2.659 0 0 0" style="fill-opacity:1;fill-rule:nonzero;stroke:none" transform="translate(485.75 197.71)" fill="#ffcebf" data-original="#ffcebf"></path><path d="M0 0c0-.742-.055-1.471-.139-2.19l.003-.002A18.872 18.872 0 0 1 7.339-3.75c7.119 0 13.312 3.968 16.487 9.812A18.672 18.672 0 0 1 26.089 15v11.25H0Z" style="fill-opacity:1;fill-rule:nonzero;stroke:none" transform="translate(478.411 186.46)" fill="#ffb09e" data-original="#ffb09e"></path><path d="M0 0h-97.821l-15 160.211v30H15v-30z" style="fill-opacity:1;fill-rule:nonzero;stroke:none" transform="translate(452 22.5)" fill="#82aee3" data-original="#82aee3"></path><path d="M0 0v-30l-15-160.211h30L30-30V0Z" style="fill-opacity:1;fill-rule:nonzero;stroke:none" transform="translate(437 212.71)" fill="#528fd8" data-original="#528fd8" class=""></path><path d="M339.179 197.711H467v90H339.179Z" style="fill-opacity:1;fill-rule:nonzero;stroke:none" fill="#f58a97" data-original="#f58a97"></path><path d="M0 0h-47.853a8.03 8.03 0 0 0-8.029 8.029C-55.882 20.164-46.045 30-33.911 30h19.97c12.133 0 21.97-9.836 21.97-21.971A8.029 8.029 0 0 0 0 0" style="fill-opacity:1;fill-rule:nonzero;stroke:none" transform="translate(458.97 7.5)" fill="#554e56" data-original="#554e56"></path><path d="M0 0h-19.969c-1.726 0-3.404-.206-5.015-.582 9.715-2.27 16.955-10.981 16.955-21.389A8.03 8.03 0 0 0-16.059-30h30a8.03 8.03 0 0 1 8.03 8.029C21.971-9.836 12.134 0 0 0" style="fill-opacity:1;fill-rule:nonzero;stroke:none" transform="translate(445.03 37.5)" fill="#433f43" data-original="#433f43"></path><path d="M0 0h-47.852a8.03 8.03 0 0 0-8.029 8.029C-55.881 20.164-46.044 30-33.91 30h19.969c12.134 0 21.97-9.836 21.97-21.971A8.029 8.029 0 0 0 0 0" style="fill-opacity:1;fill-rule:nonzero;stroke:none" transform="translate(395.06 7.5)" fill="#554e56" data-original="#554e56"></path><path d="M0 0h-19.969c-1.726 0-3.403-.206-5.015-.582 9.715-2.27 16.955-10.981 16.955-21.389A8.03 8.03 0 0 0-16.058-30h30a8.03 8.03 0 0 1 8.029 8.029C21.971-9.836 12.135 0 0 0" style="fill-opacity:1;fill-rule:nonzero;stroke:none" transform="translate(381.118 37.5)" fill="#433f43" data-original="#433f43"></path><path d="M0 0c-23.523 0-42.593 19.07-42.593 42.593v43.402c0 13.807 11.194 25 25 25h35.187c13.806 0 25-11.193 25-25V42.593C42.594 19.07 23.523 0 0 0" style="fill-opacity:1;fill-rule:nonzero;stroke:none" transform="translate(403.089 393.505)" fill="#ffcebf" data-original="#ffcebf"></path><path d="M0 0h-30C-16.193 0-5-11.193-5-25v-43.401c.217-2.016 1.357-14.53-7.751-24.5-7.681-8.407-19.721-11.801-31.253-8.918 3.515-2.727 9.464-6.536 17.628-8.264a42.22 42.22 0 0 1 8.782-.912h.001C5.931-110.995 25-91.925 25-68.401V-25C25-11.193 13.807 0 0 0" style="fill-opacity:1;fill-rule:nonzero;stroke:none" transform="translate(420.683 504.5)" fill="#ffb09e" data-original="#ffb09e"></path><path d="M0 0h-35.187c-13.806 0-25-11.193-25-25v-18.5l5.769-13.742A26.523 26.523 0 0 1-29.962-73.5h24.736a26.523 26.523 0 0 1 24.457 16.258L25-43.5V-25C25-11.193 13.807 0 0 0" style="fill-opacity:1;fill-rule:nonzero;stroke:none" transform="translate(420.683 504.5)" fill="#355f7f" data-original="#355f7f" class=""></path><path d="M0 0h-30C-16.193 0-5-11.193-5-25v-43.401c.072-.677.248-2.539.106-5.087a26.517 26.517 0 0 1 24.125 16.246L25-43.5V-25C25-11.193 13.807 0 0 0" style="fill-opacity:1;fill-rule:nonzero;stroke:none" transform="translate(420.683 504.5)" fill="#305972" data-original="#305972"></path><path d="m0 0 29.893 29.893L9.744 19.321c-2.995.658-5.49 17.462-7.08 19.887L-22.84 13.704-9.136 0A6.462 6.462 0 0 1 0 0" style="fill-opacity:1;fill-rule:nonzero;stroke:none" transform="translate(161.826 304.024)" fill="#eaf6ff" data-original="#eaf6ff" class=""></path><path d="M0 0a11.376 11.376 0 0 0-2.103 2.395l-.001.001-16.406-16.407 29.959-6.585L25.125-6.92 4.977-2.492c-.354.078-.699.175-1.038.283C2.747-1.828 1.509-1.298 0 0" style="fill-opacity:1;fill-rule:nonzero;stroke:none" transform="translate(166.594 340.837)" fill="#d8ecfe" data-original="#d8ecfe"></path><path d="m0 0 29.893-29.893a6.46 6.46 0 0 1 9.135 0l13.704 13.705L27.229 9.315a11.377 11.377 0 0 0-7.081-4.887Z" style="fill-opacity:1;fill-rule:nonzero;stroke:none" transform="translate(86.254 333.917)" fill="#eaf6ff" data-original="#eaf6ff" class=""></path><path d="M0 0c0-4.442-3.613-8.056-8.055-8.056h-115.359c-4.442 0-8.056 3.614-8.056 8.056v70.773c0 4.442 3.614 8.056 8.056 8.056H-8.055c4.442 0 8.055-3.614 8.055-8.056Zm-90.629 121.482c0 1.378 1.121 2.5 2.5 2.5h44.789c1.379 0 2.5-1.122 2.5-2.5V93.829h-49.789Zm82.574-27.653H-25.84v27.653c0 9.649-7.85 17.5-17.5 17.5h-44.789c-9.649 0-17.5-7.851-17.5-17.5V93.829h-17.785c-12.713 0-23.056-10.343-23.056-23.056V0c0-12.713 10.343-23.056 23.056-23.056H-8.055C4.658-23.056 15-12.713 15 0v70.773C15 83.486 4.658 93.829-8.055 93.829M122.662 377.95c-17.955 0-32.794 13.556-34.843 30.969a33.949 33.949 0 0 1 22.475-8.475h24.736c8.471 0 16.394 3.12 22.475 8.475-2.048-17.413-16.888-30.969-34.843-30.969m1.997-25.511c-8.282-.11-16.578.45-24.787 1.659a27.458 27.458 0 0 1 3.824 12.591 49.815 49.815 0 0 1 18.966-3.739 49.822 49.822 0 0 1 18.968 3.74 27.448 27.448 0 0 1 3.818-12.581 156.556 156.556 0 0 0-20.789-1.67m-37.09 104.005c0 9.65 7.851 17.5 17.5 17.5h35.187c9.649 0 17.5-7.85 17.5-17.5v-16.99l-5.184-12.349a18.981 18.981 0 0 0-17.542-11.661h-24.736a18.982 18.982 0 0 0-17.541 11.661l-5.184 12.349zM51.252 182.155c.894-7.225-3.118-15.001-11.249-15.001-8.191 0-11.985 7.731-11.25 15.001zM80.723 6.944h19.968c7.98 0 14.471-6.491 14.471-14.47a.53.53 0 0 0-.529-.53H66.781a.53.53 0 0 0-.529.53c0 7.979 6.491 14.47 14.471 14.47m-14.47 160.21h112.82v-7.15l-12.934-138.1c-1.342.086-20.051.04-21.506.04a29.283 29.283 0 0 1-14.471-3.812v105.99a7.5 7.5 0 0 1-15 0V18.132a29.283 29.283 0 0 1-14.471 3.812c-2.502 0-19.549.056-21.503-.04l-12.935 138.1zM178.544-8.056h-47.853a.53.53 0 0 0-.529.53c0 7.979 6.491 14.47 14.471 14.47h19.97c7.979 0 14.47-6.491 14.47-14.47a.53.53 0 0 0-.529-.53m15.529 190.211h22.5c.892-7.227-3.117-15.001-11.25-15.001-8.179 0-11.997 7.73-11.25 15.001m-241.63 67.189h-187.77v23.35c0 12.427 8.81 23.38 20.952 26.046l17.801 3.915 26.99-26.989a13.87 13.87 0 0 1 9.872-4.089c3.729 0 7.234 1.452 9.871 4.089l8.401 8.4 8.4-8.4a13.87 13.87 0 0 1 9.871-4.089c3.73 0 7.235 1.452 9.872 4.089l26.989 26.989 17.803-3.916c12.139-2.665 20.948-13.618 20.948-26.045zm-124.872 58.623a18.58 18.58 0 0 1 5.125 1.963l15.257-15.257-7.666-7.666-19.473 19.473zm-3.488 67.925v18.682l39.453 9.169a21.963 21.963 0 0 0 13.626-1.239l15.874-6.893v-19.719c0-19.01-15.466-34.476-34.476-34.476-19.011 0-34.477 15.466-34.477 34.476m0 54.991c0 5.867 4.773 10.641 10.642 10.641h47.67c5.868 0 10.641-4.774 10.641-10.641v-18.919l-9.899 4.299c-7.191 3.123-15.36 3.866-22.996 2.091l-36.058-8.38zm51.162-108.917-16.685-16.686-16.689 16.688c.354 1.435.552 2.923.552 4.447v2.717a49.23 49.23 0 0 1 16.137-2.716c5.648 0 11.073.964 16.133 2.715v-2.716c0-1.524.199-3.013.552-4.449m21.059-15.486-19.472-19.473-7.666 7.666 15.256 15.255a18.506 18.506 0 0 1 5.11-1.958zm327.769-54a7.5 7.5 0 0 1 7.5 7.5v37.594c0 19.528-11.717 36.839-29.855 44.104l-37.285 14.909a12.446 12.446 0 0 0-7.86 11.607v8.02c9.942 9.16 16.183 22.277 16.183 36.829v43.401c0 17.921-14.579 32.5-32.5 32.5h-35.187c-17.921 0-32.5-14.579-32.5-32.5v-43.401c0-14.552 6.243-27.67 16.184-36.83v-8.019c0-5.139-3.084-9.695-7.854-11.606l-37.294-14.911c-18.134-7.263-29.852-24.574-29.852-44.103v-48.23h-46.31v23.35c0 19.417-13.765 36.533-32.728 40.695l-41.971 9.233a3.904 3.904 0 0 0-3.051 3.793v11.062c11.181 9.078 18.343 22.923 18.343 38.415v54.991c0 14.138-11.503 25.641-25.641 25.641h-47.67c-14.139 0-25.642-11.503-25.642-25.641v-54.991c0-15.49 7.16-29.334 18.34-38.413v-11.064a3.89 3.89 0 0 0-3.061-3.796l-41.957-9.229c-18.966-4.163-32.732-21.278-32.732-40.696v-23.35h-7.6c-12.406 0-22.5-10.093-22.5-22.5v-30.38c0-9.777 6.271-18.113 15-21.21v-190.81a7.5 7.5 0 0 1 15 0v189.52h184a7.5 7.5 0 0 1 7.5 7.5 7.5 7.5 0 0 1-7.5 7.5h-191.5c-4.135 0-7.5 3.365-7.5 7.5v30.38c0 4.136 3.365 7.5 7.5 7.5h271.68c0-.019-.003-45.357 0-45.38h-44.377a7.5 7.5 0 0 1-7.5-7.5 7.5 7.5 0 0 1 7.5-7.5h44.758c2.037-12.325 13.228-21.81 25.869-21.81 4.187 0 8.146.991 11.662 2.742L64.57 17.105C56.557 11.833 51.252 2.763 51.252-7.526c0-8.563 6.967-15.53 15.529-15.53h47.852c2.94 0 5.682.837 8.029 2.263a15.41 15.41 0 0 1 8.029-2.263h47.853c8.562 0 15.529 6.967 15.529 15.53 0 10.289-5.304 19.358-13.317 24.631l12.903 137.775a26.06 26.06 0 0 1 7.914-2.449V-15.556a7.5 7.5 0 0 1 15 0v170.248c8.861 4.221 15 13.262 15 23.712v46.54a7.5 7.5 0 0 1-15 0v-27.789h-22.5v67.5a7.5 7.5 0 0 1-15 0v-82.501H66.253l-.001 82.501a7.5 7.5 0 0 1-7.5 7.5 7.5 7.5 0 0 1-7.5-7.5v-67.5H28.753v100.419c0 13.362 8.018 25.208 20.425 30.176l35.12 14.042a171.775 171.775 0 0 1 40.553-4.352 171.771 171.771 0 0 1 36.181 4.352l35.113-14.04c12.41-4.971 20.428-16.816 20.428-30.178V259.98a7.5 7.5 0 0 1 7.5-7.5" style="fill-opacity:1;fill-rule:nonzero;stroke:none" transform="translate(280.427 23.056)" fill="#000000" data-original="#000000" class=""></path></g></g></svg>