<svg xmlns="http://www.w3.org/2000/svg" version="1.1" xmlns:xlink="http://www.w3.org/1999/xlink" width="25" height="25" x="0" y="0" viewBox="0 0 512 512" style="enable-background:new 0 0 512 512" xml:space="preserve" class=""><g><g fill-rule="evenodd" clip-rule="evenodd"><path fill="#8d9ca8" d="M132.237 143.232h86.397c2.754 0 5-2.246 5-5V78.933c0-2.754-2.246-5-5-5h-86.397a5.01 5.01 0 0 0-5 5v59.299c0 2.754 2.246 5 5 5z" opacity="1" data-original="#8d9ca8"></path><path fill="#8192a5" d="M208.634 143.232h10c2.754 0 5-2.246 5-5V78.933c0-2.754-2.246-5-5-5h-10c2.754 0 5 2.246 5 5v59.299c0 2.754-2.246 5-5 5z" opacity="1" data-original="#8192a5"></path><path fill="#9facba" d="m175.436 135.443 156.759 82.333c1.688.886 2.675 2.52 2.675 4.426v222.416H175.436z" opacity="1" data-original="#9facba"></path><path fill="#8d9ca8" d="m175.436 135.443 156.759 82.333c1.688.886 2.675 2.52 2.675 4.426v222.416h-10V232.203c0-1.906-.988-3.54-2.675-4.426l-146.759-77.081z" opacity="1" data-original="#8d9ca8"></path><path fill="#9facba" d="M175.435 135.443 18.676 217.777c-1.687.886-2.675 2.52-2.675 4.426v222.416h159.434z" opacity="1" data-original="#9facba"></path><path fill="#8d9ca8" d="M175.435 135.443 18.676 217.777c-1.687.886-2.675 2.52-2.675 4.426v222.416h10V232.203c0-1.906.988-3.54 2.675-4.426l146.759-77.081z" opacity="1" data-original="#8d9ca8"></path><path fill="#8192a5" d="M94.277 100.99h162.318c2.754 0 5 2.246 5 5v338.629H89.277V105.99c0-2.754 2.246-5 5-5z" opacity="1" data-original="#8192a5"></path><path fill="#65788e" d="M246.594 100.99h10c2.754 0 5 2.246 5 5v338.629h-10V105.99c0-2.754-2.246-5-5-5z" opacity="1" data-original="#65788e"></path><path fill="#d8ecfe" d="M120.341 184.116H230.53c2.754 0 5 2.246 5 5v33.048c0 2.754-2.246 5-5 5H120.341a5.01 5.01 0 0 1-5-5v-33.048c0-2.755 2.246-5 5-5z" opacity="1" data-original="#d8ecfe"></path><path fill="#c4e2ff" d="M120.341 184.116h5a5.01 5.01 0 0 0-5 5v33.048c0 2.754 2.246 5 5 5h-5a5.01 5.01 0 0 1-5-5v-33.048c0-2.755 2.246-5 5-5z" opacity="1" data-original="#c4e2ff"></path><path fill="#eceff1" d="M151.574 346.76h48.007c2.754 0 5 2.246 5 5v92.859h-58.006V351.76a5.008 5.008 0 0 1 4.999-5z" opacity="1" data-original="#eceff1"></path><path fill="#65788e" d="M94.277 100.99h162.318c2.754 0 5 2.246 5 5v43.166H89.277V105.99c0-2.754 2.246-5 5-5z" opacity="1" data-original="#65788e"></path><path fill="#5b6c80" d="M246.594 100.99h10c2.754 0 5 2.246 5 5v43.166h-10V105.99c0-2.754-2.246-5-5-5z" opacity="1" data-original="#5b6c80"></path><circle cx="391.78" cy="386.498" r="104.22" fill="#ffc338" transform="rotate(-45 391.739 386.6)" opacity="1" data-original="#ffc338"></circle><path fill="#f5b829" d="M391.779 282.278c57.559 0 104.22 46.661 104.22 104.22s-46.661 104.22-104.22 104.22c-3.006 0-5.98-.135-8.922-.384 53.381-4.527 95.297-49.283 95.297-103.836s-41.917-99.308-95.297-103.836c2.942-.249 5.916-.384 8.922-.384z" opacity="1" data-original="#f5b829"></path><path fill="#242222" d="M393.168 374.23c-22.73-3.732-23.191-13.104-23.36-16.634-.499-10.219 7.861-15.792 15.843-17.599 10.718-2.433 23.977.932 29.437 13.937a7.997 7.997 0 0 0 10.473 4.279c4.067-1.708 5.987-6.401 4.279-10.473-6.02-14.337-17.877-21.633-30.058-23.76v-7.432c0-4.42-3.582-8.002-8.002-8.002s-8.002 3.582-8.002 8.002v7.498c-.56.108-1.115.221-1.666.348-17.712 4.015-29.07 17.67-28.279 33.979.569 11.777 7.409 26.825 36.747 31.644 22.009 3.615 25.733 11.433 26.509 17.844.471 3.916-.428 7.126-2.758 9.819-4.029 4.664-12.421 7.818-21.383 8.03-10.355.236-23.596-4.086-26.834-17.109a8.004 8.004 0 0 0-9.701-5.827 7.997 7.997 0 0 0-5.832 9.696c3.789 15.184 16.611 25.925 33.198 28.599v7.38c0 4.42 3.582 8.002 8.002 8.002s8.002-3.582 8.002-8.002v-7.258c11.038-1.511 20.729-6.185 26.66-13.043 5.291-6.124 7.55-13.805 6.529-22.216-3.123-25.682-30.734-30.215-39.804-31.702zm94.834 8.27c0 53.056-43.162 96.223-96.223 96.223s-96.223-43.167-96.223-96.223c0-53.061 43.162-96.223 96.223-96.223s96.223 43.162 96.223 96.223zm-196.611 50.118a111.628 111.628 0 0 1-11.833-50.119c0-37.716 18.701-71.14 47.314-91.497v-70.985l-57.283-30.086v242.687zm-94.811-81.857h-42.009v81.857h42.009zm-99.301 81.857V153.157H253.59v279.461h-41.011v-86.856c0-6.067-4.928-11.005-11-11.005h-52.011c-6.058 0-11 4.938-11 11.005v86.856zm-73.281 0h57.283V189.932l-57.283 30.086zm73.281-327.626v32.162H253.59v-32.162zm37.961-15.999h80.389V77.932H135.24zM504.001 382.5c0 61.877-50.34 112.221-112.222 112.221-37.18 0-70.18-18.178-90.607-46.099h-40.413c-.009 0-.009-.005-.009-.005H89.277L16 448.622a8.026 8.026 0 0 1-5.662-2.344 8.019 8.019 0 0 1-2.339-5.658V216.996c0-4.104 2.259-7.837 5.893-9.738l67.389-35.396V96.99a7.996 7.996 0 0 1 7.997-7.997h29.964v-16.06c0-6.062 4.928-11 11-11h90.386c6.072 0 11 4.937 11 11v16.06h29.964a7.996 7.996 0 0 1 7.997 7.997v74.872l67.388 35.396a10.97 10.97 0 0 1 5.893 9.738v64.513c14.789-7.192 31.39-11.235 48.909-11.235 61.882-.001 112.222 50.344 112.222 112.226zM115.34 243.689a7.997 7.997 0 0 0-7.997 8.002v27.276c0 4.42 3.577 8.002 7.997 8.002s8.002-3.582 8.002-8.002v-27.276a8.002 8.002 0 0 0-8.002-8.002zm90.141 0a8.001 8.001 0 0 0-8.002 8.002v27.276c0 4.42 3.582 8.002 8.002 8.002s7.997-3.582 7.997-8.002v-27.276a7.997 7.997 0 0 0-7.997-8.002zm30.049 0a8.001 8.001 0 0 0-8.002 8.002v27.276c0 4.42 3.582 8.002 8.002 8.002s8.002-3.582 8.002-8.002v-27.276a8.002 8.002 0 0 0-8.002-8.002zm-60.088 0a7.999 7.999 0 0 0-8.002 8.002v27.276a7.998 7.998 0 0 0 8.002 8.002c4.41 0 7.997-3.582 7.997-8.002v-27.276c0-4.42-3.587-8.002-7.997-8.002zm-30.054 0a7.997 7.997 0 0 0-7.997 8.002v27.276c0 4.42 3.577 8.002 7.997 8.002s8.002-3.582 8.002-8.002v-27.276a8.001 8.001 0 0 0-8.002-8.002zm-22.047-28.528h104.187v-27.046H123.341zm-15.998 8.001a7.997 7.997 0 0 0 7.997 8.002h120.19a8.001 8.001 0 0 0 8.002-8.002v-43.044a8.001 8.001 0 0 0-8.002-8.002H115.34a7.997 7.997 0 0 0-7.997 8.002zm264.498-26.895c-49.351 0-89.501-40.145-89.501-89.497 0-49.347 40.15-89.492 89.501-89.492 15.208 0 30.247 3.892 43.477 11.263a8.006 8.006 0 0 1 3.102 10.882 8 8 0 0 1-10.883 3.097c-10.859-6.048-23.195-9.244-35.697-9.244-40.531 0-73.503 32.972-73.503 73.493 0 40.526 32.972 73.498 73.503 73.498 40.517 0 73.488-32.972 73.488-73.498 0-3.455-.249-6.961-.739-10.425-.621-4.373 2.429-8.421 6.797-9.042 4.373-.617 8.435 2.424 9.051 6.801.593 4.198.889 8.463.889 12.666.002 49.353-40.138 89.498-89.485 89.498zm50.227-127.41-5.738-15.255a8.004 8.004 0 0 0-15.41 1.671l-5.422 37.382-4.297-8.759a7.983 7.983 0 0 0-8.181-4.41 7.978 7.978 0 0 0-6.83 6.312l-4.928 23.774-10.732-43.44a8 8 0 0 0-6.251-5.935 8.013 8.013 0 0 0-8.021 3.191l-39.792 55.442a7.994 7.994 0 0 0 1.831 11.16 8.016 8.016 0 0 0 11.174-1.831l29.677-41.36 15.029 60.818a7.995 7.995 0 0 0 7.762 6.077h.15a8.001 8.001 0 0 0 7.686-6.373l7.343-35.424 5.399 11.014a7.994 7.994 0 0 0 8.421 4.382 8.009 8.009 0 0 0 6.679-6.754l4.702-32.416A8 8 0 0 0 425.3 89.45l31.616-36.121a8 8 0 0 0 7.141 5.752c4.41.315 8.223-3.027 8.529-7.432l1.393-20.291a8 8 0 0 0-9.023-8.477l-20.159 2.641c-4.377.574-7.47 4.589-6.891 8.971.532 4.104 4.123 7.107 8.152 6.957z" opacity="1" data-original="#242222" class=""></path></g></g></svg>