<svg width="20" height="20" viewBox="0 0 20 20" fill="none" xmlns="http://www.w3.org/2000/svg">
<path d="M15.7516 9.4328L13.172 12.0124C13.221 11.0859 13.0201 10.2033 12.9135 9.87787L14.5052 8.18645C15.0358 7.62264 16.053 6.63868 14.5574 5.14306C13.311 3.89671 12.3261 4.88166 11.7633 5.44448C11.2942 5.9135 10.4031 6.80464 9.56182 7.74563C9.06361 8.84209 9.32174 9.38163 9.92884 10.2701C10.2954 10.668 9.80027 12.3929 8.55392 11.1465C7.21888 9.21114 7.87192 7.27519 8.36532 6.54914L10.5668 4.24799C11.3172 3.49755 13.4871 1.74644 15.683 4.01742C17.879 6.2884 16.6437 8.57391 15.7516 9.4328Z" fill="currentColor"/>
<path d="M4.24837 10.5671L6.82798 7.98753C6.77892 8.91402 6.97984 9.79659 7.08643 10.1221L5.49471 11.8135C4.96414 12.3773 3.94695 13.3613 5.44257 14.8569C6.68892 16.1032 7.67386 15.1183 8.23668 14.5555C8.7057 14.0864 9.59684 13.1953 10.4381 12.2543C10.9363 11.1578 10.6782 10.6183 10.0711 9.7298C9.70453 9.33195 10.3241 7.73144 11.446 8.85342C12.7811 10.7888 12.128 12.7247 11.6346 13.4508L9.43318 15.752C8.68274 16.5024 6.51286 18.2535 4.31692 15.9825C2.12099 13.7115 3.35625 11.426 4.24837 10.5671Z" fill="currentColor"/>
</svg>