<svg xmlns="http://www.w3.org/2000/svg" version="1.1" xmlns:xlink="http://www.w3.org/1999/xlink" width="25" height="25" x="0" y="0" viewBox="0 0 682.667 682.667" style="enable-background:new 0 0 512 512" xml:space="preserve" class=""><g><defs><clipPath id="a" clipPathUnits="userSpaceOnUse"><path d="M0 512h512V0H0Z" fill="#000000" opacity="1" data-original="#000000"></path></clipPath></defs><g clip-path="url(#a)" transform="matrix(1.33333 0 0 -1.33333 0 682.667)"><path d="M0 0c-35.444-41.555-56.83-95.443-56.83-154.328 0-131.424 106.539-237.963 237.963-237.963 4.335 0 8.65.113 12.933.351l52.92 52.92v109.427l-89.472 39.91v158.952z" style="fill-opacity:1;fill-rule:nonzero;stroke:none" transform="translate(74.872 399.791)" fill="#5877d1" data-original="#5877d1"></path><path d="M0 0c15.101 31.254 23.564 66.327 23.564 103.36 0 58.265-20.953 111.648-55.726 153.017l-205.846-29.42V68.005l89.472-39.91z" style="fill-opacity:1;fill-rule:nonzero;stroke:none" transform="translate(470.394 142.103)" fill="#5877d1" data-original="#5877d1"></path><path d="M0 0c0 61.503 20.982 118.104 56.175 163.042l-62.406 12.176C-41.676 133.663-63.062 79.774-63.062 20.89c0-103.538 66.132-191.616 158.454-224.338C37.105-154.9 0-81.787 0 0" style="fill-opacity:1;fill-rule:nonzero;stroke:none" transform="translate(81.104 224.573)" fill="#385ac4" data-original="#385ac4"></path><path d="M0 0c-36.693-75.998-112.608-129.494-201.456-134.252l-6.183 15.007c-3.964 9.623-.737 20.679 7.69 26.692a22.287 22.287 0 0 1 9.382 18.186c-.496 4.314 2.133 14.148-6.038 22.863l-11.653 12.427c-7.153 7.627-8.051 19.208-2.157 27.848l3.127 4.582c8.371 12.283 2.632 29.159-11.477 33.793l-33.834 11.106a13.297 13.297 0 0 0-7.359 5.966l-23.204 39.913c-5.046 8.701-17.556 8.867-22.841.3l-5.553-9.001a13.314 13.314 0 0 0-11.323-6.327c-8.745 0-15.09 8.259-12.902 16.68l12.015 45.992a13.315 13.315 0 0 0 6.791 8.485l24.483 12.602c5.518 2.829 8.199 9.002 6.905 14.729a25.789 25.789 0 0 1-20.829 19.828c-12.499 2.609-20.504 2.048-30.521 8.133l-35.526 21.562a41.086 41.086 0 0 0-18.125 23.636l-4.934 16.938v.01c43.65 51.175 108.593 83.625 181.133 83.625 73.149 0 138.588-33.008 182.227-84.946l-9.671-17.195a23.226 23.226 0 0 0-18.383-11.767 23.21 23.21 0 0 1-18.599-12.159l-8.856-16.504a23.223 23.223 0 0 0-22.12-12.179c-5.53.369-6.571.547-9.206.547a43.091 43.091 0 0 1-31.749-13.955c-16.169-17.653-8.397-36.39-21.707-54.075l-20.189-26.939c-4.696-6.276-3.354-15.183 2.994-19.786l17.495-12.686a14.07 14.07 0 0 1 11.777-2.219c23.903 5.959 25.446 7.236 31.295 7.236a27.12 27.12 0 0 0 19.342-8.103c14.668-14.905 30.669-3.175 45.859-11.271 13.449-7.252 14.797-7.552 17.794-9.878z" style="fill-opacity:1;fill-rule:nonzero;stroke:none" transform="translate(470.394 142.103)" fill="#71d5b4" data-original="#71d5b4"></path><path d="M0 0c-48.581-12.255-91.218-39.44-122.744-76.401v-.01l4.933-16.938a41.09 41.09 0 0 1 18.125-23.636l14.843-9.009C-64.497-88.34-35.275-56.201 0-32.329Z" style="fill-opacity:1;fill-rule:nonzero;stroke:none" transform="translate(197.617 476.202)" fill="#31c695" data-original="#31c695"></path><path d="M0 0c-29.992.109-53.28-25.902-51.494-55.842 1.824-30.556 22.119-58.068 36.627-74.027 7.86-8.646 21.465-8.672 29.327-.027 15.204 16.719 36.783 46.141 36.783 78.462C51.243-23.091 28.318-.103 0 0" style="fill-opacity:1;fill-rule:nonzero;stroke:none" transform="translate(185.977 504.5)" fill="#f98797" data-original="#f98797" class=""></path><path d="M0 0c-29.992.109-53.28-25.903-51.493-55.842 1.824-30.556 22.118-58.068 36.626-74.027 7.86-8.646 21.465-8.672 29.327-.027 15.204 16.718 36.783 46.141 36.783 78.462C51.243-23.092 28.318-.104 0 0" style="fill-opacity:1;fill-rule:nonzero;stroke:none" transform="translate(374.566 246.96)" fill="#f98797" data-original="#f98797" class=""></path><path d="M0 0c0 20.757 8.123 39.605 21.342 53.582a51.668 51.668 0 0 1-10.321 1.075c-29.992.109-53.28-25.903-51.493-55.842 1.824-30.556 22.118-58.067 36.626-74.026 7.86-8.647 21.465-8.673 29.327-.028a196.187 196.187 0 0 1 8.93 10.541C13.65-50.68 0-26.935 0 0" style="fill-opacity:1;fill-rule:nonzero;stroke:none" transform="translate(174.956 449.842)" fill="#e35b70" data-original="#e35b70"></path><path d="M0 0c0 20.757 8.123 39.605 21.342 53.582a51.668 51.668 0 0 1-10.321 1.075c-29.992.109-53.28-25.903-51.493-55.842 1.824-30.556 22.118-58.067 36.626-74.026 7.86-8.647 21.465-8.673 29.327-.028a195.727 195.727 0 0 1 8.93 10.541C13.65-50.68 0-26.935 0 0" style="fill-opacity:1;fill-rule:nonzero;stroke:none" transform="translate(363.545 192.302)" fill="#e35b70" data-original="#e35b70"></path><path d="M0 0c0-10.399-8.43-18.83-18.83-18.83-10.399 0-18.829 8.431-18.829 18.83s8.43 18.83 18.829 18.83C-8.43 18.83 0 10.399 0 0" style="fill-opacity:1;fill-rule:nonzero;stroke:none" transform="translate(204.615 453.065)" fill="#e8e7f9" data-original="#e8e7f9"></path><path d="M0 0c0-10.399-8.43-18.83-18.83-18.83-10.399 0-18.829 8.431-18.829 18.83s8.43 18.83 18.829 18.83C-8.43 18.83 0 10.399 0 0" style="fill-opacity:1;fill-rule:nonzero;stroke:none" transform="translate(393.204 195.525)" fill="#e8e7f9" data-original="#e8e7f9"></path><path d="M0 0c0-10.399-8.431-18.83-18.83-18.83S-37.659-10.399-37.659 0s8.43 18.83 18.829 18.83C-8.431 18.83 0 10.399 0 0Z" style="stroke-width:15;stroke-linecap:round;stroke-linejoin:round;stroke-miterlimit:10;stroke-dasharray:none;stroke-opacity:1" transform="translate(204.615 453.065)" fill="none" stroke="#000000" stroke-width="15" stroke-linecap="round" stroke-linejoin="round" stroke-miterlimit="10" stroke-dasharray="none" stroke-opacity="" data-original="#000000"></path><path d="M0 0c0-10.399-8.43-18.83-18.83-18.83-10.399 0-18.829 8.431-18.829 18.83s8.43 18.83 18.829 18.83C-8.43 18.83 0 10.399 0 0Z" style="stroke-width:15;stroke-linecap:round;stroke-linejoin:round;stroke-miterlimit:10;stroke-dasharray:none;stroke-opacity:1" transform="translate(393.204 195.525)" fill="none" stroke="#000000" stroke-width="15" stroke-linecap="round" stroke-linejoin="round" stroke-miterlimit="10" stroke-dasharray="none" stroke-opacity="" data-original="#000000"></path><path d="M0 0c41.06-33.696 93.593-53.926 150.854-53.926 4.334 0 8.649.113 12.932.351l-6.182 15.008c-3.964 9.622-.738 20.678 7.69 26.691a22.287 22.287 0 0 1 9.382 18.187c-.497 4.313 2.133 14.147-6.038 22.862L156.984 41.6c-7.152 7.628-8.05 19.209-2.157 27.847l3.128 4.583c8.37 12.283 2.632 29.158-11.477 33.793l-33.834 11.106a13.292 13.292 0 0 0-7.36 5.966l-23.203 39.913c-5.047 8.701-17.557 8.866-22.842.299l-5.552-9a13.316 13.316 0 0 0-11.323-6.327c-8.746 0-15.091 8.259-12.902 16.679l12.015 45.994a13.31 13.31 0 0 0 6.791 8.484l24.483 12.603c5.518 2.828 8.198 9.001 6.904 14.728a25.788 25.788 0 0 1-20.828 19.828c-12.499 2.61-20.505 2.049-30.521 8.133l-35.527 21.562a41.086 41.086 0 0 0-18.125 23.636l-4.933 16.938c-35.445-41.554-56.83-95.443-56.83-154.328 0-63.361 24.768-120.932 65.145-163.575" style="stroke-width:15;stroke-linecap:round;stroke-linejoin:round;stroke-miterlimit:10;stroke-dasharray:none;stroke-opacity:1" transform="translate(105.151 61.426)" fill="none" stroke="#000000" stroke-width="15" stroke-linecap="round" stroke-linejoin="round" stroke-miterlimit="10" stroke-dasharray="none" stroke-opacity="" data-original="#000000"></path><path d="M0 0c-29.992.109-53.28-25.902-51.493-55.842 1.824-30.556 22.118-58.068 36.626-74.027 7.86-8.646 21.465-8.672 29.327-.027 15.204 16.719 36.783 46.141 36.783 78.462C51.243-23.091 28.319-.103 0 0Z" style="stroke-width:15;stroke-linecap:round;stroke-linejoin:round;stroke-miterlimit:10;stroke-dasharray:none;stroke-opacity:1" transform="translate(185.976 504.5)" fill="none" stroke="#000000" stroke-width="15" stroke-linecap="round" stroke-linejoin="round" stroke-miterlimit="10" stroke-dasharray="none" stroke-opacity="" data-original="#000000"></path><path d="m0 0-9.671-17.196a23.225 23.225 0 0 0-18.383-11.766 23.212 23.212 0 0 1-18.599-12.159l-8.856-16.504a23.223 23.223 0 0 0-22.119-12.18c-5.53.37-6.572.548-9.207.548a43.093 43.093 0 0 1-31.749-13.955c-16.168-17.653-8.396-36.39-21.706-54.075l-20.189-26.939c-4.696-6.275-3.354-15.183 2.994-19.787l17.495-12.685a14.068 14.068 0 0 1 11.776-2.219 899.089 899.089 0 0 1 13.692 3.522c4.068 24.575 24.954 43.968 50.856 43.874 28.319-.103 51.243-23.091 51.243-51.434 0-5.976-.741-11.852-2.04-17.568.176-.13.355-.266.54-.41l46.085-35.444c15.101 31.253 23.565 66.326 23.565 103.36C55.727-94.752 34.773-41.369 0 0Z" style="stroke-width:15;stroke-linecap:round;stroke-linejoin:round;stroke-miterlimit:10;stroke-dasharray:none;stroke-opacity:1" transform="translate(438.231 398.48)" fill="none" stroke="#000000" stroke-width="15" stroke-linecap="round" stroke-linejoin="round" stroke-miterlimit="10" stroke-dasharray="none" stroke-opacity="" data-original="#000000"></path><path d="M0 0c-29.338 12.937-61.78 20.125-95.903 20.125-9.33 0-18.532-.546-27.581-1.59a51.2 51.2 0 0 0 8.796-28.771c0-32.321-21.581-61.743-36.784-78.462-7.862-8.644-21.466-8.619-29.327.028-14.508 15.959-34.803 43.47-36.626 74.026-.028.467-.032.929-.048 1.393A239.172 239.172 0 0 1-277.036-63.5v-.01l4.933-16.938a41.09 41.09 0 0 1 18.125-23.636l35.527-21.562c10.016-6.085 18.022-5.524 30.521-8.134a25.784 25.784 0 0 0 20.828-19.827c1.294-5.728-1.386-11.9-6.904-14.729l-24.483-12.602a13.314 13.314 0 0 1-6.791-8.485l-12.015-45.993c-2.188-8.42 4.156-16.679 12.902-16.679 4.562 0 8.867 2.353 11.323 6.326l5.552 9.001c5.286 8.567 17.795 8.402 22.842-.299l23.203-39.914a13.296 13.296 0 0 1 7.36-5.966l33.834-11.106c14.109-4.634 19.847-21.509 11.477-33.792l-3.128-4.583c-5.893-8.639-4.995-20.22 2.158-27.847l11.653-12.428c8.171-8.714 5.541-18.549 6.038-22.862a22.284 22.284 0 0 0-9.382-18.186c-8.428-6.014-11.654-17.069-7.69-26.692l6.182-15.008c88.849 4.759 164.764 58.255 201.456 134.253L72.4-285.754c-.185.144-.364.279-.54.41-5.725-25.198-22.35-47.267-34.743-60.894-7.861-8.645-21.467-8.619-29.326.027-14.508 15.959-34.803 43.471-36.627 74.027a53.628 53.628 0 0 0 .637 11.968 899.089 899.089 0 0 0-13.692-3.522 14.065 14.065 0 0 0-11.776 2.219l-17.495 12.685c-6.348 4.604-7.69 13.511-2.993 19.787l20.188 26.939c13.31 17.685 5.538 36.421 21.706 54.074A43.09 43.09 0 0 0-.512-134.079c2.635 0 3.677-.177 9.207-.547a23.223 23.223 0 0 1 22.119 12.18l8.856 16.504a23.209 23.209 0 0 0 18.6 12.158 23.225 23.225 0 0 1 18.382 11.767l9.671 17.196A239.055 239.055 0 0 1 27.856-14.57" style="stroke-width:15;stroke-linecap:round;stroke-linejoin:round;stroke-miterlimit:10;stroke-dasharray:none;stroke-opacity:1" transform="translate(351.908 463.301)" fill="none" stroke="#000000" stroke-width="15" stroke-linecap="round" stroke-linejoin="round" stroke-miterlimit="10" stroke-dasharray="none" stroke-opacity="" data-original="#000000"></path><path d="M0 0c-29.992.109-53.28-25.902-51.493-55.841 1.824-30.556 22.118-58.068 36.626-74.028 7.86-8.646 21.465-8.672 29.327-.027 15.204 16.719 36.783 46.141 36.783 78.462C51.243-23.091 28.318-.103 0 0Z" style="stroke-width:15;stroke-linecap:round;stroke-linejoin:round;stroke-miterlimit:10;stroke-dasharray:none;stroke-opacity:1" transform="translate(374.566 246.959)" fill="none" stroke="#000000" stroke-width="15" stroke-linecap="round" stroke-linejoin="round" stroke-miterlimit="10" stroke-dasharray="none" stroke-opacity="" data-original="#000000"></path></g></g></svg>