<svg xmlns="http://www.w3.org/2000/svg" version="1.1" xmlns:xlink="http://www.w3.org/1999/xlink" width="25" height="25" x="0" y="0" viewBox="0 0 512 512" style="enable-background:new 0 0 512 512" xml:space="preserve" class=""><g><path d="M256 86.4c51.2 0 98.133 21.333 132.267 54.4l49.067-49.067C391.467 45.867 327.467 17.067 256 17.067c-70.4 0-134.4 28.8-181.333 74.667l49.067 49.067C157.867 106.667 204.8 86.4 256 86.4z" style="" fill="#f8b64c" data-original="#f8b64c" class=""></path><path d="M123.733 140.8 74.667 91.733C28.8 138.667 0 202.667 0 273.067s28.8 134.4 74.667 181.333l49.067-49.067c-34.133-34.133-54.4-81.067-54.4-132.267-.001-51.199 20.266-98.133 54.399-132.266z" style="" fill="#54c0eb" data-original="#54c0eb" class=""></path><path d="M437.333 91.733 388.267 140.8c34.133 34.133 54.4 81.067 54.4 132.267s-21.333 98.133-54.4 132.267l49.067 49.067C483.2 408.533 512 344.533 512 273.067c0-70.4-28.8-134.4-74.667-181.334z" style="" fill="#f1543f" data-original="#f1543f" class=""></path><path d="m388.267 140.8-46.933 46.933c-22.4-21.333-52.267-35.2-85.333-35.2s-64 13.867-85.333 35.2L123.733 140.8C157.867 106.667 204.8 86.4 256 86.4s98.133 20.267 132.267 54.4z" style="" fill="#ffd15c" data-original="#ffd15c" class=""></path><path d="m170.667 358.4-46.933 46.933c-34.133-34.133-54.4-81.067-54.4-132.267s21.333-98.133 54.4-132.267l46.933 46.933c-21.333 21.333-35.2 52.267-35.2 85.333-1.067 33.068 12.8 64.002 35.2 85.335z" style="" fill="#84dbff" data-original="#84dbff" class=""></path><path d="M442.667 273.067c0 51.2-21.333 98.133-54.4 132.267L341.333 358.4c21.333-22.4 35.2-52.267 35.2-85.333s-13.867-64-35.2-85.333l46.933-46.933c34.134 34.132 54.401 81.066 54.401 132.266z" style="" fill="#ff7058" data-original="#ff7058" class=""></path><path d="M420.267 171.733 281.6 277.333c-2.133 12.8-12.8 21.333-25.6 21.333-14.933 0-26.667-11.733-26.667-26.667s11.733-26.667 26.667-26.667c3.2 0 5.333 0 8.533 1.067l155.734-74.666z" style="" fill="#40596b" data-original="#40596b" class=""></path><path d="M347.733 494.933H164.267c-22.4 0-40.533-18.133-40.533-40.533 0-22.4 18.133-40.533 40.533-40.533h182.4c22.4 0 40.533 18.133 40.533 40.533 1.067 22.4-17.067 40.533-39.467 40.533z" style="" fill="#cdd6e0" data-original="#cdd6e0"></path><circle cx="256" cy="273.07" r="10.667" style="" fill="#ffffff" data-original="#ffffff"></circle></g></svg>