<svg width="1em" height="1em" viewBox="0 0 20 20" fill="none" xmlns="http://www.w3.org/2000/svg">
<path d="M16.25 12.5H12.5V11.25H16.25V12.5Z" fill="currentColor"/>
<path d="M18.75 17.5H15V16.25H18.75V17.5Z" fill="currentColor"/>
<path d="M17.5 15H13.75V13.75H17.5V15Z" fill="currentColor"/>
<path d="M10.627 12.5C10.6226 11.9726 10.4819 11.4554 10.2187 10.9984C9.95541 10.5414 9.57849 10.1602 9.12449 9.89187L13.7501 1.875L12.6689 1.25L7.93324 9.45375C7.35205 9.32391 6.74759 9.34187 6.17513 9.50598C5.60268 9.67008 5.0805 9.9751 4.65637 10.3931C2.31637 12.65 2.49762 17.9263 2.50637 18.15C2.51283 18.3114 2.58152 18.464 2.69804 18.5759C2.81455 18.6877 2.96985 18.7501 3.13137 18.75H12.5007C12.6319 18.75 12.7598 18.7087 12.8662 18.632C12.9726 18.5553 13.0522 18.4471 13.0937 18.3226C13.1352 18.1982 13.1364 18.0639 13.0973 17.9386C13.0582 17.8134 12.9807 17.7037 12.8757 17.625C10.6632 15.965 10.627 12.5337 10.627 12.5ZM7.45637 10.6231C7.9566 10.6286 8.43545 10.8268 8.7933 11.1764C9.15115 11.5259 9.36044 12 9.37762 12.5C9.37762 12.5238 9.37887 12.63 9.38824 12.7931L5.70074 11.1531C5.94364 10.9528 6.22394 10.8028 6.52534 10.7118C6.82673 10.6209 7.14321 10.5907 7.45637 10.6231ZM9.65637 17.5C9.1568 16.9913 8.83836 16.3325 8.75012 15.625H7.50012C7.54488 16.2902 7.75266 16.9341 8.10512 17.5H6.71574C6.45871 16.6889 6.30233 15.8493 6.25012 15H5.00012C5.04042 15.8467 5.17992 16.6858 5.41574 17.5H3.75012C3.76949 16.3525 3.93137 13.8175 4.87699 12.1544L9.58512 14.2481C9.81132 15.4227 10.2936 16.533 10.9976 17.5H9.65637Z" fill="currentColor"/>
</svg>