
<svg width="14" height="14" viewBox="0 0 14 14" fill="none" xmlns="http://www.w3.org/2000/svg">
<circle cx="7" cy="7" r="7" fill="#FF6C6C"/>
<circle cx="7" cy="7" r="6.5" stroke="black" stroke-opacity="0.16"/>
<path d="M8.03597 8.48475C8.03597 8.25482 7.95829 8.07255 7.80294 7.93796C7.65096 7.80056 7.39092 7.67438 7.0228 7.55941C6.65468 7.44444 6.33722 7.33088 6.07042 7.21872C5.80361 7.10375 5.57396 6.97336 5.38146 6.82755C5.19233 6.67893 5.04374 6.50508 4.93566 6.30599C4.83097 6.1069 4.77862 5.86996 4.77862 5.59516C4.77862 5.12128 4.96099 4.73291 5.32573 4.43007C5.69048 4.12723 6.17511 3.95058 6.77964 3.90011V3H7.59017V3.91272C8.18794 3.98283 8.65569 4.19033 8.99341 4.53523C9.33114 4.87732 9.5 5.32177 9.5 5.86856H8.03597C8.03597 5.53207 7.95154 5.28111 7.78267 5.11567C7.61719 4.94742 7.39429 4.8633 7.11398 4.8633C6.83705 4.8633 6.62259 4.9292 6.47062 5.06099C6.31864 5.18998 6.24265 5.36944 6.24265 5.59937C6.24265 5.81248 6.31695 5.98353 6.46555 6.11251C6.61415 6.2415 6.8894 6.37329 7.29129 6.50789C7.69656 6.64248 8.02921 6.77007 8.28926 6.89064C8.54931 7.00841 8.76883 7.14301 8.94782 7.29443C9.12682 7.44304 9.26359 7.61409 9.35816 7.80757C9.45272 7.99825 9.5 8.22117 9.5 8.47634C9.5 8.95303 9.32101 9.33999 8.96302 9.63722C8.60503 9.93445 8.11196 10.1097 7.48379 10.163V11H6.67832V10.1672C5.98598 10.1055 5.449 9.90221 5.06738 9.55731C4.68913 9.2096 4.5 8.74833 4.5 8.1735H5.96403C5.96403 8.50719 6.0586 8.76376 6.24772 8.94322C6.44022 9.11987 6.71547 9.2082 7.07345 9.2082C7.37065 9.2082 7.60537 9.14371 7.77761 9.01472C7.94985 8.88293 8.03597 8.70627 8.03597 8.48475Z" fill="black" fill-opacity="0.9"/>
</svg>
