<svg xmlns="http://www.w3.org/2000/svg" version="1.1" xmlns:xlink="http://www.w3.org/1999/xlink" width="512" height="512" x="0" y="0" viewBox="0 0 64 64" style="enable-background:new 0 0 512 512" xml:space="preserve" class=""><g><path fill="#75b1f2" d="M40 62h-6v-.8c0-2.96 1.05-5.72 2.82-7.89 1.21-1.47 2.75-2.66 4.52-3.46L43 54l5-2 5 2 1.66-4.15C59.05 51.82 62 56.22 62 61.2v.8h-6z" opacity="1" data-original="#75b1f2" class=""></path><path fill="#5d9cec" d="M54.66 49.85 53 54l-5-2 4-3c.93.19 1.82.48 2.66.85zM48 52l-5 2-1.66-4.15c.84-.37 1.73-.66 2.66-.85z" opacity="1" data-original="#5d9cec"></path><path fill="#ff826e" d="M24 62H2v-.8c0-2.96 1.05-5.72 2.82-7.89A12.498 12.498 0 0 1 12 49v3c0 1.1.9 2 2 2h4c1.1 0 2-.9 2-2v-3a12.498 12.498 0 0 1 7.18 4.31C28.95 55.48 30 58.24 30 61.2v.8z" opacity="1" data-original="#ff826e"></path><path fill="#b4dd7f" d="M40.54 40.5a5.998 5.998 0 0 0 4.52 5.32L44.33 48H29c-1.3-1.96-2-4.25-2-6.61V35c0-2.03-.67-3.9-1.81-5.4l.01-.01c.04-.02.08-.03.12-.05L28 34l4-3 4 3 .43-.72c.14.24.3.45.5.65l.51.51C36.57 34.96 36 35.91 36 37c0 .83.34 1.58.88 2.12S38.17 40 39 40h1.5z" opacity="1" data-original="#b4dd7f" class=""></path><path fill="#a0d468" d="M37.41 29.06a3.162 3.162 0 0 0-.98 4.22L36 34l-4-3 4.67-2.8h.01c.27.28.58.53.9.75zM32 31l-4 3-2.68-4.46c.75-.31 1.43-.76 2-1.35l.01.01z" opacity="1" data-original="#a0d468"></path><path fill="#75b1f2" d="M7.23 29.08A8.926 8.926 0 0 0 5 35v6.39c0 2.36-.7 4.65-2 6.61H1V33c0-.83.34-1.58.88-2.12S3.17 30 4 30c1.17 0 2.28-.33 3.22-.92z" opacity="1" data-original="#75b1f2" class=""></path><path fill="#fcd770" d="m29 48-.1.31a8.351 8.351 0 0 1-2.74 3.9A12.498 12.498 0 0 0 20 49l-1.24-3.71c.28-.16.55-.34.81-.54l.01-.01a8.994 8.994 0 0 0 3.37-6.93l.02-2.78a2.996 2.996 0 0 0-3-3.03H12c-1.66 0-3 1.34-3 3v2.59a9.19 9.19 0 0 0 3.45 7.17l.02.01c.24.19.5.37.77.52L12 49c-2.38.48-4.49 1.62-6.16 3.21a8.351 8.351 0 0 1-2.74-3.9L3 48c1.3-1.96 2-4.25 2-6.61V35c0-2.27.84-4.34 2.23-5.92a8.958 8.958 0 0 1 6.31-3.07c.15-.01.3-.01.46-.01h4c2.94 0 5.55 1.41 7.19 3.6A8.886 8.886 0 0 1 27 35v6.39c0 2.36.7 4.65 2 6.61z" opacity="1" data-original="#fcd770" class=""></path><path fill="#656d78" d="m59.79 32.85-.54 2.16-.01.01A2.93 2.93 0 0 0 57 34h-1v-.08c0-1.06-.86-1.92-1.92-1.92H49.1c-1.79 0-3.4-.95-4.28-2.41l-3.17 1.58A2.997 2.997 0 0 0 40 33.85V34h-1c-.57 0-1.11.16-1.56.44l-.51-.51c-.2-.2-.36-.41-.5-.65a3.162 3.162 0 0 1 .98-4.22l.17-.11L39 28l-.66-1.32c-.22-.45-.34-.94-.34-1.44 0-.22.02-.44.55-1.81.12-.17.25-.33.4-.48a3.21 3.21 0 0 1 2.29-.95c1.23 0 2.46.05 3.68.16 5.63.84 7.58 1.34 9.5 1.98l.72.24c.11.04.22.07.32.12A7.094 7.094 0 0 1 60 31v.12c0 .59-.07 1.17-.21 1.73zM23 13c-.72 0-1.37.25-1.89.67l-.44-.67-.27-.4a2.395 2.395 0 0 1 .66-3.31L23 8l-.45-.45A1.88 1.88 0 0 1 22 6.23c0-.51.2-.98.55-1.31.16-.17.36-.31.58-.4L27.6 2.6c.92-.4 1.92-.6 2.92-.6.98 0 1.94.19 2.85.57l7.46 3.11c.36.15.69.33 1 .55 1.34.95 2.17 2.52 2.17 4.21 0 1.02-.3 2.01-.87 2.86l-.24.37c-.52-.42-1.17-.67-1.89-.67h-1.18c-.4-1.17-1.51-2-2.82-2-.54 0-1.04.14-1.47.38l-.68-.17a6.365 6.365 0 0 1-3.77-2.66h-.01L27 11c-1.31 0-2.42.83-2.82 2h-.01z" opacity="1" data-original="#656d78" class=""></path><path fill="#b27946" d="m44.16 15.99.38 4.51c.05.58.18 1.14.38 1.66-1.22-.11-2.45-.16-3.68-.16-.9 0-1.7.36-2.29.95-.15.15-.28.31-.4.48l-.1-.07c.56-.83.92-1.8 1.01-2.86l.12-1.5H41c.83 0 1.58-.34 2.12-.88S44 16.83 44 16z" opacity="1" data-original="#b27946" class=""></path><path fill="#b27946" d="m48 9-2.52 1.89c-.93.7-1.48 1.79-1.48 2.96 0 .1 0 .2.01.3l.15 1.84L44 16c0-.94-.43-1.78-1.11-2.33l.24-.37c.57-.85.87-1.84.87-2.86 0-1.69-.83-3.26-2.17-4.21A9.979 9.979 0 0 1 50 2h2c5.52 0 10 4.48 10 10v3c0 .66-.15 1.31-.45 1.89l-.1.22c-.28.56-.28 1.22 0 1.78l.1.22c.3.58.45 1.23.45 1.89s-.15 1.31-.45 1.89l-.1.22c-.28.56-.28 1.22 0 1.78l.06.14a4.593 4.593 0 0 1-.86 5.32L60 31a7.094 7.094 0 0 0-4.54-6.5v-.01a5.97 5.97 0 0 0 2-3.99l.53-6.42c.01-.05.01-.11.01-.16 0-1.06-.86-1.92-1.92-1.92h-.84c-2.71 0-5.32-1.08-7.24-3zM22 6.23c0 .49.2.97.55 1.32L23 8l-1.94 1.29a2.395 2.395 0 0 0-.66 3.31l.27.4h-.81c-.25-.77-.82-1.41-1.59-1.74L13 9l-5.27 2.26c-.77.33-1.34.97-1.59 1.74H5c-.87 0-1.66.37-2.21.97l-.65-3.26A7.28 7.28 0 0 1 9.28 2h7.44c2.38 0 4.5 1.14 5.82 2.91l.01.01c-.35.33-.55.8-.55 1.31z" opacity="1" data-original="#b27946" class=""></path><path fill="#f0d0b4" d="M50.94 45.82 52 49l-4 3-4-3 .33-1 .73-2.18c.47.12.96.18 1.46.18h2.96c.5 0 .99-.06 1.46-.18zM57 34c.9 0 1.7.39 2.24 1.02a2.974 2.974 0 0 1-.12 4.1c-.54.54-1.29.88-2.12.88h-1.5l.49-5.92c.01-.02.01-.05.01-.08zM40.01 34.15 40.5 40H39c-.83 0-1.58-.34-2.12-.88S36 37.83 36 37c0-1.09.57-2.04 1.44-2.56.45-.28.99-.44 1.56-.44h1c0 .05 0 .1.01.15z" opacity="1" data-original="#f0d0b4" class=""></path><path fill="#f0d0b4" d="M55.46 40.5a5.998 5.998 0 0 1-5.98 5.5h-2.96a5.998 5.998 0 0 1-5.98-5.5l-.04-.5-.49-5.85C40 34.1 40 34.05 40 34v-.15c0-1.14.64-2.17 1.65-2.68l3.17-1.58A5.001 5.001 0 0 0 49.1 32h4.98c1.06 0 1.92.86 1.92 1.92V34s0 .06-.01.08L55.5 40zM55.46 24.49v.01c-.1-.05-.21-.08-.32-.12l-.72-.24c-1.92-.64-3.87-1.14-9.5-1.98-.2-.52-.33-1.08-.38-1.66l-.38-4.51-.15-1.84c-.01-.1-.01-.2-.01-.3 0-1.17.55-2.26 1.48-2.96L48 9c1.92 1.92 4.53 3 7.24 3h.84c1.06 0 1.92.86 1.92 1.92 0 .05 0 .11-.01.16l-.53 6.42c-.13 1.59-.88 3-2 3.99zM35.19 25.75c.3.94.81 1.77 1.49 2.44-.01.01-.01.01 0 .01h-.01L32 31l-4.67-2.8-.01-.01c.67-.66 1.19-1.5 1.49-2.44.54.16 1.12.25 1.71.25h2.96c.59 0 1.17-.09 1.71-.25zM42.89 13.67c.68.55 1.11 1.39 1.11 2.33 0 .83-.34 1.58-.88 2.12S41.83 19 41 19h-1.42l.38-4.58c.03-.14.04-.28.04-.42 0-.35-.06-.69-.18-1H41c.72 0 1.37.25 1.89.67z" opacity="1" data-original="#f0d0b4" class=""></path><path fill="#f0d0b4" d="M37 17c-1.66 0-3-1.34-3-3 0-1.12.62-2.1 1.53-2.62l-.68-.17a6.365 6.365 0 0 1-3.77-2.66h-.01L27 11c1.66 0 3 1.34 3 3s-1.34 3-3 3c-1.52 0-2.77-1.12-2.96-2.58l.38 4.58.12 1.5a5.994 5.994 0 0 0 4.27 5.25c.54.16 1.12.25 1.71.25h2.96a6.008 6.008 0 0 0 5.98-5.5l.12-1.5.38-4.58A2.973 2.973 0 0 1 37 17zM20 49v3c0 1.1-.9 2-2 2h-4c-1.1 0-2-.9-2-2v-3l1.24-3.71c.83.47 1.77.72 2.75.72h.04c.96-.01 1.9-.26 2.73-.72z" opacity="1" data-original="#f0d0b4" class=""></path><path fill="#f0d0b4" d="M24 14c0 .14.01.28.04.42l.38 4.58H23c-.35 0-.69-.06-1-.18-.43-.14-.81-.39-1.12-.7-.54-.54-.88-1.29-.88-2.12 0-.94.43-1.78 1.11-2.33.52-.42 1.17-.67 1.89-.67h1.18c-.12.31-.18.65-.18 1zM19.97 32c1.67 0 3.02 1.36 3 3.03l-.02 2.78a8.994 8.994 0 0 1-3.37 6.93l-.01.01c-.26.2-.53.38-.81.54-.83.46-1.77.71-2.73.72h-.04c-.98 0-1.92-.25-2.75-.72-.27-.15-.53-.33-.77-.52l-.02-.01A9.19 9.19 0 0 1 9 37.59V35c0-1.66 1.34-3 3-3zM19.86 13c.09.28.14.58.14.88 0 .08 0 .16-.01.24L19.58 19l-.12 1.5a6.004 6.004 0 0 1-5.92 5.5h-1.02a6 6 0 0 1-5.98-5.5L6.42 19l-.41-4.88C6 14.04 6 13.96 6 13.88a2.848 2.848 0 0 1 1.73-2.62L13 9l5.27 2.26c.77.33 1.34.97 1.59 1.74z" opacity="1" data-original="#f0d0b4" class=""></path><path fill="#f0d0b4" d="M6.42 19H5c-.83 0-1.58-.34-2.12-.88S2 16.83 2 16c0-.79.3-1.5.79-2.03.55-.6 1.34-.97 2.21-.97h1.14a2.893 2.893 0 0 0-.13 1.12z" opacity="1" data-original="#f0d0b4" class=""></path><path fill="#69d6f4" d="M39.82 13c.12.31.18.65.18 1l-.04.42A2.973 2.973 0 0 1 37 17c-1.66 0-3-1.34-3-3 0-1.12.62-2.1 1.53-2.62.43-.24.93-.38 1.47-.38 1.31 0 2.42.83 2.82 2zM27 11c1.66 0 3 1.34 3 3s-1.34 3-3 3c-1.52 0-2.77-1.12-2.96-2.58L24 14c0-.35.06-.69.18-1 .4-1.17 1.51-2 2.82-2z" opacity="1" data-original="#69d6f4"></path><path d="M28.211 20.658C28.933 22.103 30.385 23 32 23s3.067-.897 3.789-2.342l.105-.211-1.789-.895-.105.212c-.381.762-1.147 1.236-2 1.236s-1.619-.474-2-1.236l-.105-.211-1.789.895zM16.789 20.658l.105-.211-1.789-.895-.105.212c-.381.762-1.147 1.236-2 1.236s-1.619-.474-2-1.236l-.105-.211-1.789.895.105.21C9.933 22.103 11.385 23 13 23s3.067-.897 3.789-2.342z" fill="#000000" opacity="1" data-original="#000000" class=""></path><path d="M62.447 17.341A5.257 5.257 0 0 0 63 15v-3c0-6.065-4.935-11-11-11h-2a11.01 11.01 0 0 0-8.416 3.944c-.125-.062-.243-.135-.373-.189l-7.46-3.108a8.429 8.429 0 0 0-6.541.033l-4.47 1.916A8.204 8.204 0 0 0 16.721 1H9.279C4.714 1 1 4.714 1 9.279c0 .547.055 1.094.161 1.624l.563 2.814A3.97 3.97 0 0 0 1 16c0 2.206 1.794 4 4 4h.497l.048.581c.203 2.441 1.679 4.52 3.733 5.607a10.038 10.038 0 0 0-2.649 2.076A5.08 5.08 0 0 1 4 29c-2.206 0-4 1.794-4 4v16h2.31a9.269 9.269 0 0 0 2.114 3.265A13.417 13.417 0 0 0 1 61.198V63h62v-1.802c0-6.188-4.268-11.584-10.23-13.051l-.57-1.712c2.198-.941 3.843-2.979 4.2-5.436h.6c2.206 0 4-1.794 4-4 0-.815-.248-1.572-.668-2.205l.427-1.704c.135-.543.201-1.1.222-1.658l.374-.375A5.57 5.57 0 0 0 63 27.089c0-.867-.205-1.734-.592-2.509l-.066-.132c-.14-.28-.14-.615 0-.895l.105-.211c.362-.724.553-1.534.553-2.342s-.191-1.618-.553-2.342l-.105-.21c-.14-.28-.14-.615 0-.895zM27.998 3.518a6.428 6.428 0 0 1 4.983-.025l7.46 3.108a4.146 4.146 0 0 1 2.106 5.71A4.008 4.008 0 0 0 41 12h-.556c-.694-1.19-1.97-2-3.444-2a3.98 3.98 0 0 0-1.575.325l-.332-.083A5.396 5.396 0 0 1 31 5h-2c0 1.137.277 2.214.743 3.188l-3.076 1.845a3.983 3.983 0 0 0-3.111 1.966H23a3.97 3.97 0 0 0-1.58.328l-.187-.28a1.388 1.388 0 0 1 .384-1.924l2.952-1.968-1.316-1.318a.861.861 0 0 1 .269-1.401zm19.942 6.776A11.152 11.152 0 0 0 55.242 13h.838c.507 0 .92.413.917.997l-.535 6.418a4.96 4.96 0 0 1-1.289 2.922l-.44-.147a42.827 42.827 0 0 0-1.939-.591 4.213 4.213 0 0 0 1.994-1.942l.105-.211-1.789-.895-.104.213c-.381.762-1.147 1.236-2 1.236s-1.619-.474-2-1.236l-.105-.211-1.789.895.105.21c.156.312.352.593.57.851a43.369 43.369 0 0 0-2.097-.269 5.001 5.001 0 0 1-.146-.825l-.529-6.349a2.704 2.704 0 0 1 1.068-2.374zm10.878 22.312-.187.749A3.97 3.97 0 0 0 57 33h-.163a2.914 2.914 0 0 0-2.757-2h-4.981a4.01 4.01 0 0 1-3.922-3.216l-.196-.98-1.961.393.196.98c.066.332.159.652.276.959l-2.288 1.144A3.955 3.955 0 0 0 39.099 33H39c-.471 0-.918.097-1.338.247l-.029-.029A2.145 2.145 0 0 1 37 31.691c0-.724.359-1.396.962-1.797l2.327-1.552-1.053-2.106a2.238 2.238 0 0 1 2-3.236c4.381 0 8.709.703 12.865 2.088l.721.24a6.102 6.102 0 0 1 3.996 7.278zM30.992 61a13.415 13.415 0 0 0-3.416-8.735A9.265 9.265 0 0 0 29.69 49h11.133c-4.61 2.131-7.737 6.765-7.815 12zm12.787-10.917 2.198 1.649-2.42.968-.913-2.282c.369-.13.748-.242 1.135-.335zM43.613 47H29.558A10.866 10.866 0 0 1 28 41.395V35.25l4-3 3.588 2.691A3.962 3.962 0 0 0 35 37c0 2.206 1.794 4 4 4h.601c.357 2.456 2.001 4.495 4.2 5.436zm-9.976-35.149A3.966 3.966 0 0 0 33.142 13h-2.284a3.995 3.995 0 0 0-1.524-2.234l1.51-.906a7.34 7.34 0 0 0 2.793 1.991zM39.08 35l.334 4H39c-1.103 0-2-.897-2-2s.897-2 2-2zm-12.354-5.066c.25-.154.489-.32.716-.502l2.768 1.661-1.923 1.442zM30.858 15h2.284c.447 1.72 1.999 3 3.858 3 .608 0 1.179-.147 1.696-.391l-.234 2.806C38.247 22.986 36.06 25 33.479 25H30.52c-2.58 0-4.768-2.014-4.982-4.585l-.234-2.806A3.958 3.958 0 0 0 27 18c1.859 0 3.411-1.28 3.858-3zm-.337 12h2.959c.376 0 .745-.037 1.107-.096.168.358.365.7.589 1.025L32 29.834l-3.166-1.9c.224-.325.425-.666.594-1.028.357.057.721.094 1.093.094zm4.755 3.2c-.18.469-.276.973-.276 1.491 0 .113.024.222.033.334l-1.243-.932zm2.171-3.07.264.527-.08.053a5.124 5.124 0 0 1-1.126-1.415c.195-.095.385-.198.569-.31.072.398.193.785.373 1.145zm3.007-6.549.049-.581H41c.916 0 1.751-.322 2.427-.842l.118 1.422c.014.167.051.33.077.495A42.124 42.124 0 0 0 41.236 21c-.291 0-.575.03-.849.086.027-.167.053-.334.067-.505zM43 16c0 1.103-.897 2-2 2h-.331l.327-3.917h-.004c0-.028.008-.055.008-.083 1.103 0 2 .897 2 2zm-4.017-1.83A1.996 1.996 0 0 1 37 16c-1.103 0-2-.897-2-2s.897-2 2-2a2 2 0 0 1 1.998 1.984zM27 12c1.103 0 2 .897 2 2s-.897 2-2 2a1.996 1.996 0 0 1-1.983-1.83l-.016-.187A2.002 2.002 0 0 1 27 12zm-3.992 2.083h-.004L23.331 18H23c-1.103 0-2-.897-2-2s.897-2 2-2c0 .028.008.055.008.083zm-2.554 6.498.049-.581H21a3.96 3.96 0 0 0 1.001-.142c.321.084.652.142.999.142h.497l.048.581c.21 2.525 1.783 4.662 3.949 5.715a5.057 5.057 0 0 1-2.035 2.067 9.968 9.968 0 0 0-7.128-3.347 6.962 6.962 0 0 0 2.123-4.435zM9.279 3h7.441c1.758 0 3.387.713 4.57 1.975a2.865 2.865 0 0 0 .188 2.838l-.97.646a3.36 3.36 0 0 0-1.419 2.101 3.707 3.707 0 0 0-.425-.22L13 7.912l-5.664 2.427A3.84 3.84 0 0 0 5.501 12H5c-.538 0-1.05.11-1.519.303l-.359-1.795A6.286 6.286 0 0 1 9.279 3zM5 18c-1.103 0-2-.897-2-2s.897-2 2-2h.005c.002.068.002.136.009.201L5.331 18zm2.538 2.415-.532-6.383a1.85 1.85 0 0 1 1.117-1.855L13 10.088l4.877 2.09a1.85 1.85 0 0 1 1.117 1.853l-.532 6.383C18.247 22.986 16.06 25 13.479 25h-.959c-2.58 0-4.767-2.014-4.982-4.585zM4 41.395c0 1.985-.541 3.91-1.558 5.605H2V33c0-1.103.897-2 2-2 .292 0 .582-.025.87-.061A9.932 9.932 0 0 0 4 35zm.101 6.74A12.867 12.867 0 0 0 6 41.395V35c0-4.411 3.589-8 8-8h4c4.411 0 8 3.589 8 8v6.395c0 2.39.655 4.709 1.899 6.74a7.305 7.305 0 0 1-1.76 2.743 13.357 13.357 0 0 0-5.37-2.73l-.82-2.459c.083-.06.174-.106.254-.171a9.948 9.948 0 0 0 3.747-7.697L24 33.01l-2-.021-.049 4.811a7.957 7.957 0 0 1-3.008 6.164 4.773 4.773 0 0 1-2.925 1.041 4.659 4.659 0 0 1-2.947-1.029A8.14 8.14 0 0 1 10 37.587V35c0-1.103.897-2 2-2v-2c-2.206 0-4 1.794-4 4v2.587c0 3.11 1.393 6.008 3.844 7.969.065.052.139.088.205.137l-.818 2.455a13.36 13.36 0 0 0-5.369 2.73 7.283 7.283 0 0 1-1.761-2.743zM13 49.163l.839-2.518c.685.234 1.407.36 2.138.36h.06a6.762 6.762 0 0 0 2.121-.371L19 49.163V52c0 .551-.448 1-1 1h-4c-.552 0-1-.449-1-1zm-2 1.133V52c0 1.654 1.346 3 3 3h4c1.654 0 3-1.346 3-3v-1.704c4.638 1.466 7.905 5.77 7.991 10.704H25v-4h-2v4H9v-4H7v4H3.002c.086-4.935 3.36-9.238 7.998-10.704zM60.998 61H57v-4h-2v4H41v-4h-2v4h-3.991c.072-4.118 2.361-7.795 5.813-9.752l1.622 4.052L48 53.077l5.557 2.223 1.622-4.053c3.452 1.958 5.748 5.634 5.819 9.753zm-7.642-10.582-.913 2.282-2.42-.968 2.198-1.649c.387.093.766.204 1.135.335zm-2.532-1.785L48 50.75l-2.824-2.118.56-1.682c.259.03.52.05.785.05h2.959c.265 0 .526-.02.784-.049zm3.638-8.218C54.247 42.986 52.06 45 49.479 45H46.52c-2.58 0-4.768-2.014-4.982-4.585l-.529-6.349a2.66 2.66 0 0 1-.009-.22c0-.757.421-1.438 1.099-1.777l2.413-1.207A6.007 6.007 0 0 0 49.099 33h4.981c.507 0 .92.413.917.997zM57 39h-.414l.334-4H57c1.103 0 2 .897 2 2s-.897 2-2 2zm4-24c0 .5-.118 1-.342 1.447l-.105.211c-.42.84-.42 1.843 0 2.683l.105.21a3.245 3.245 0 0 1 0 2.896l-.105.211c-.42.84-.42 1.843-.001 2.682l.066.133c.25.5.382 1.058.382 1.616 0 .562-.141 1.097-.382 1.587a8.078 8.078 0 0 0-3.543-4.472 6.966 6.966 0 0 0 1.38-3.623l.535-6.41A2.923 2.923 0 0 0 56.08 11h-.838A9.17 9.17 0 0 1 49 8.559V5h-2v3.5l-2.031 1.523a6.112 6.112 0 0 0-1.763-3.912A9.017 9.017 0 0 1 50 3h2c4.963 0 9 4.038 9 9z" fill="#000000" opacity="1" data-original="#000000" class=""></path><path d="M49 41h-4v2h4c2.206 0 4-1.794 4-4h-2c0 1.103-.897 2-2 2zM16 43a4.212 4.212 0 0 0 3.789-2.342l.105-.211-1.789-.895-.105.212c-.381.762-1.147 1.236-2 1.236s-1.619-.474-2-1.236l-.105-.211-1.789.895.105.21A4.212 4.212 0 0 0 16 43zM14.042 31.231l1.939-.485 1.002 3.999-1.94.486zM18.04 31.23l1.94-.486 1.002 3.999-1.94.486z" fill="#000000" opacity="1" data-original="#000000" class=""></path></g></svg>