<svg xmlns="http://www.w3.org/2000/svg" version="1.1" xmlns:xlink="http://www.w3.org/1999/xlink" width="25" height="25" x="0" y="0" viewBox="0 0 682.667 682.667" style="enable-background:new 0 0 512 512" xml:space="preserve" class=""><g><defs><clipPath id="a" clipPathUnits="userSpaceOnUse"><path d="M0 512h512V0H0Z" fill="#000000" opacity="1" data-original="#000000"></path></clipPath></defs><g clip-path="url(#a)" transform="matrix(1.33333 0 0 -1.33333 0 682.667)"><path d="m0 0 15.083-105.59c.426-2.981-2.13-5.537-5.111-5.111l-95.058 13.58a16.57 16.57 0 0 1-15.597-6.46l-57.614-76.824c-1.807-2.409-5.421-2.409-7.228 0l-57.614 76.824a16.568 16.568 0 0 1-15.596 6.46l-95.059-13.58c-2.981-.426-5.537 2.13-5.11 5.111L-323.821 0l.004 132.542-15.088 105.624c-.426 2.981 2.13 5.537 5.111 5.11l95.059-13.58a16.568 16.568 0 0 1 15.596 6.46l57.614 76.824c1.807 2.41 5.421 2.41 7.228 0l57.614-76.823a16.566 16.566 0 0 1 15.596-6.461l95.059 13.58c2.981.427 5.537-2.129 5.111-5.11L-.005 132.542Z" style="fill-opacity:1;fill-rule:nonzero;stroke:none" transform="translate(417.911 189.712)" fill="#fedf30" data-original="#fedf30"></path><path d="M0 0v-2.321l.333-2.331 8.13-56.916c.781-5.467-3.905-10.154-9.372-9.372l-65.775 9.396a16.566 16.566 0 0 1-15.596-6.46l-39.866-53.158c-3.313-4.418-9.94-4.418-13.253 0l-39.866 53.158a16.566 16.566 0 0 1-15.596 6.46l-65.776-9.396c-5.467-.782-10.152 3.905-9.371 9.372l8.13 56.916.333 2.331v137.218l-.333 2.332-8.13 56.915c-.782 5.467 3.904 10.153 9.371 9.372l65.775-9.397a16.566 16.566 0 0 1 15.596 6.461l39.867 53.157c3.313 4.418 9.94 4.418 13.253 0l39.866-53.157a16.566 16.566 0 0 1 15.596-6.461l65.775 9.397c5.467.781 10.153-3.905 9.372-9.372l-8.13-56.915L0 134.897v-2.355z" style="fill-opacity:1;fill-rule:nonzero;stroke:none" transform="translate(384.773 189.712)" fill="#fe950d" data-original="#fe950d"></path><path d="M0 0a16.568 16.568 0 0 1 15.596-6.46l22.996 3.285a16.565 16.565 0 0 0-15.549 6.466l-57.614 76.823c-1.807 2.41-5.421 2.41-7.228 0l-9.141-12.189Z" style="fill-opacity:1;fill-rule:nonzero;stroke:none" transform="translate(294.185 422.579)" fill="#fec526" data-original="#fec526"></path><path d="M0 0a16.568 16.568 0 0 1-15.596-6.46l-49.895-69.365 8.048-10.733c1.807-2.409 5.421-2.409 7.228 0L7.399-9.733a16.564 16.564 0 0 0 15.243 6.499z" style="fill-opacity:1;fill-rule:nonzero;stroke:none" transform="translate(309.83 95.865)" fill="#fec526" data-original="#fec526"></path><path d="m0 0-.005 132.542 15.088 105.624c.426 2.981-2.13 5.537-5.111 5.11l-23.016-3.288c2.969.408 5.508-2.14 5.084-5.113l-15.041-102.333L-22.996 0l15.083-102.317c.416-2.913-2.016-5.412-4.909-5.127l22.794-3.257c2.981-.426 5.537 2.13 5.111 5.111z" style="fill-opacity:1;fill-rule:nonzero;stroke:none" transform="translate(417.911 189.712)" fill="#fec526" data-original="#fec526"></path><path d="M0 0a16.57 16.57 0 0 1 15.597-6.46L37.88-3.276a16.556 16.556 0 0 0-14.855 6.541L-16.84 56.422c-3.314 4.418-9.94 4.418-13.254 0l-6.11-8.147z" style="fill-opacity:1;fill-rule:nonzero;stroke:none" transform="translate(279.467 387.028)" fill="#fa6f0c" data-original="#fa6f0c"></path><path d="M0 0a16.566 16.566 0 0 1-15.596-6.461l-36.205-48.275 6.081-8.111c3.314-4.418 9.941-4.418 13.254 0L7.4-9.688A16.56 16.56 0 0 0 21.692-3.1z" style="fill-opacity:1;fill-rule:nonzero;stroke:none" transform="translate(295.093 131.397)" fill="#fa6f0c" data-original="#fa6f0c"></path><path d="m0 0-8.13 56.916-.333 2.331v137.219l.333 2.331L0 255.712c.781 5.468-3.905 10.153-9.372 9.373l-22.603-3.23c5.282.488 9.71-4.082 8.95-9.407l-8.101-53.651-.333-2.331V59.247l.333-2.331 8.13-53.687c.735-5.149-3.378-9.601-8.425-9.451l22.049-3.15C-3.905-10.153.781-5.467 0 0" style="fill-opacity:1;fill-rule:nonzero;stroke:none" transform="translate(393.236 128.144)" fill="#fa6f0c" data-original="#fa6f0c"></path><path d="M0 0h-463.807c-13.651 0-21.444 15.587-13.253 26.509l26.093 34.792a8.286 8.286 0 0 1 0 9.94l-26.093 34.793c-8.191 10.922-.398 26.508 13.253 26.508H0c13.651 0 21.444-15.586 13.253-26.508l-26.092-34.793a8.283 8.283 0 0 1 0-9.94l26.092-34.792C21.444 15.587 13.651 0 0 0" style="fill-opacity:1;fill-rule:nonzero;stroke:none" transform="translate(487.903 189.712)" fill="#8ac9fe" data-original="#8ac9fe"></path><path d="M0 0a8.283 8.283 0 0 0 0 9.94l26.093 34.793c8.191 10.922.398 26.508-13.254 26.508h-23c13.652 0 21.445-15.586 13.254-26.508L-23 9.94A8.283 8.283 0 0 1-23 0L3.093-34.792c8.191-10.922.398-26.509-13.254-26.509h23c13.652 0 21.445 15.587 13.254 26.509z" style="fill-opacity:1;fill-rule:nonzero;stroke:none" transform="translate(475.064 251.013)" fill="#60b7ff" data-original="#60b7ff"></path><path d="M0 0h-124.05c-13.652 0-21.445 15.587-13.254 26.509l26.093 34.792a8.283 8.283 0 0 1 0 9.94l-26.093 34.793c-8.191 10.922-.398 26.508 13.254 26.508h463.806c13.652 0 21.445-15.586 13.254-26.508l-26.093-34.793a8.283 8.283 0 0 1 0-9.94l26.093-34.792C361.201 15.587 353.408 0 339.756 0H35" style="stroke-width:15;stroke-linecap:round;stroke-linejoin:round;stroke-miterlimit:10;stroke-dasharray:none;stroke-opacity:1" transform="translate(148.147 189.712)" fill="none" stroke="#000000" stroke-width="15" stroke-linecap="round" stroke-linejoin="round" stroke-miterlimit="10" stroke-dasharray="none" stroke-opacity="" data-original="#000000"></path><path d="M0 0h-27.667v-65.666H0" style="stroke-width:15;stroke-linecap:round;stroke-linejoin:round;stroke-miterlimit:10;stroke-dasharray:none;stroke-opacity:1" transform="translate(116.214 288.85)" fill="none" stroke="#000000" stroke-width="15" stroke-linecap="round" stroke-linejoin="round" stroke-miterlimit="10" stroke-dasharray="none" stroke-opacity="" data-original="#000000"></path><path d="M0 0h-25.627" style="stroke-width:15;stroke-linecap:round;stroke-linejoin:round;stroke-miterlimit:10;stroke-dasharray:none;stroke-opacity:1" transform="translate(114.174 256.017)" fill="none" stroke="#000000" stroke-width="15" stroke-linecap="round" stroke-linejoin="round" stroke-miterlimit="10" stroke-dasharray="none" stroke-opacity="" data-original="#000000"></path><path d="m0 0 24.883 65.338c.509 1.243 2.268 1.244 2.779.003L52.319 0" style="stroke-width:15;stroke-linecap:round;stroke-linejoin:round;stroke-miterlimit:10;stroke-dasharray:none;stroke-opacity:1" transform="translate(371.134 222.848)" fill="none" stroke="#000000" stroke-width="15" stroke-linecap="round" stroke-linejoin="round" stroke-miterlimit="10" stroke-dasharray="none" stroke-opacity="" data-original="#000000"></path><path d="M0 0h36.924" style="stroke-width:15;stroke-linecap:round;stroke-linejoin:round;stroke-miterlimit:10;stroke-dasharray:none;stroke-opacity:1" transform="translate(378.894 239.12)" fill="none" stroke="#000000" stroke-width="15" stroke-linecap="round" stroke-linejoin="round" stroke-miterlimit="10" stroke-dasharray="none" stroke-opacity="" data-original="#000000"></path><path d="m0 0 46.617-66.271" style="stroke-width:15;stroke-linecap:round;stroke-linejoin:round;stroke-miterlimit:10;stroke-dasharray:none;stroke-opacity:1" transform="translate(152.694 289.118)" fill="none" stroke="#000000" stroke-width="15" stroke-linecap="round" stroke-linejoin="round" stroke-miterlimit="10" stroke-dasharray="none" stroke-opacity="" data-original="#000000"></path><path d="m0 0-46.683-66.271" style="stroke-width:15;stroke-linecap:round;stroke-linejoin:round;stroke-miterlimit:10;stroke-dasharray:none;stroke-opacity:1" transform="translate(196.03 289.118)" fill="none" stroke="#000000" stroke-width="15" stroke-linecap="round" stroke-linejoin="round" stroke-miterlimit="10" stroke-dasharray="none" stroke-opacity="" data-original="#000000"></path><path d="M0 0h36.596" style="stroke-width:15;stroke-linecap:round;stroke-linejoin:round;stroke-miterlimit:10;stroke-dasharray:none;stroke-opacity:1" transform="translate(232.444 289.118)" fill="none" stroke="#000000" stroke-width="15" stroke-linecap="round" stroke-linejoin="round" stroke-miterlimit="10" stroke-dasharray="none" stroke-opacity="" data-original="#000000"></path><path d="M0 0v-64.155" style="stroke-width:15;stroke-linecap:round;stroke-linejoin:round;stroke-miterlimit:10;stroke-dasharray:none;stroke-opacity:1" transform="translate(250.668 287.003)" fill="none" stroke="#000000" stroke-width="15" stroke-linecap="round" stroke-linejoin="round" stroke-miterlimit="10" stroke-dasharray="none" stroke-opacity="" data-original="#000000"></path><path d="m0 0 27.836-31.63" style="stroke-width:15;stroke-linecap:round;stroke-linejoin:round;stroke-miterlimit:10;stroke-dasharray:none;stroke-opacity:1" transform="translate(310.164 254.478)" fill="none" stroke="#000000" stroke-width="15" stroke-linecap="round" stroke-linejoin="round" stroke-miterlimit="10" stroke-dasharray="none" stroke-opacity="" data-original="#000000"></path><path d="M0 0v-66.271" style="stroke-width:15;stroke-linecap:round;stroke-linejoin:round;stroke-miterlimit:10;stroke-dasharray:none;stroke-opacity:1" transform="translate(302.174 289.118)" fill="none" stroke="#000000" stroke-width="15" stroke-linecap="round" stroke-linejoin="round" stroke-miterlimit="10" stroke-dasharray="none" stroke-opacity="" data-original="#000000"></path><path d="M0 0c0-9.512-8.34-17.224-18.197-17.224-4.888 0-17.486-.075-17.486-.075S-35.762-4.795-35.762 0c0 3.938-.044 17.223-.044 17.223h17.609C-8.34 17.223 0 9.512 0 0Z" style="stroke-width:15;stroke-linecap:round;stroke-linejoin:round;stroke-miterlimit:10;stroke-dasharray:none;stroke-opacity:1" transform="translate(338 271.896)" fill="none" stroke="#000000" stroke-width="15" stroke-linecap="round" stroke-linejoin="round" stroke-miterlimit="10" stroke-dasharray="none" stroke-opacity="" data-original="#000000"></path><path d="m0 0-12.557 1.794c-2.981.427-5.537-2.129-5.111-5.11L-2.58-108.94" style="stroke-width:15;stroke-linecap:round;stroke-linejoin:round;stroke-miterlimit:10;stroke-dasharray:none;stroke-opacity:1" transform="translate(96.674 431.195)" fill="none" stroke="#000000" stroke-width="15" stroke-linecap="round" stroke-linejoin="round" stroke-miterlimit="10" stroke-dasharray="none" stroke-opacity="" data-original="#000000"></path><path d="m0 0 15.088 105.624c.426 2.981-2.13 5.537-5.111 5.11l-95.059-13.58a16.567 16.567 0 0 0-15.596 6.461l-57.614 76.823c-1.807 2.41-5.42 2.41-7.228 0l-57.614-76.824a16.568 16.568 0 0 0-15.596-6.46l-47.501 6.786" style="stroke-width:15;stroke-linecap:round;stroke-linejoin:round;stroke-miterlimit:10;stroke-dasharray:none;stroke-opacity:1" transform="translate(417.906 322.254)" fill="none" stroke="#000000" stroke-width="15" stroke-linecap="round" stroke-linejoin="round" stroke-miterlimit="10" stroke-dasharray="none" stroke-opacity="" data-original="#000000"></path><path d="m0 0-15.083-105.59c-.426-2.981 2.129-5.537 5.11-5.111l95.059 13.58a16.57 16.57 0 0 0 15.597-6.46l57.613-76.824c1.808-2.409 5.421-2.409 7.228 0l57.615 76.824a16.568 16.568 0 0 0 15.596 6.46l95.058-13.58c2.981-.426 5.537 2.13 5.111 5.111L323.821 0" style="stroke-width:15;stroke-linecap:round;stroke-linejoin:round;stroke-miterlimit:10;stroke-dasharray:none;stroke-opacity:1" transform="translate(94.09 189.712)" fill="none" stroke="#000000" stroke-width="15" stroke-linecap="round" stroke-linejoin="round" stroke-miterlimit="10" stroke-dasharray="none" stroke-opacity="" data-original="#000000"></path><path d="M0 0v2.355l.333 2.332 8.13 56.915c.781 5.467-3.904 10.153-9.371 9.372l-65.776-9.397a16.567 16.567 0 0 0-15.596 6.461l-39.866 53.157c-3.313 4.418-9.94 4.418-13.253 0l-39.866-53.157a16.567 16.567 0 0 0-15.596-6.461l-65.775 9.397c-5.467.781-10.153-3.905-9.372-9.372l8.13-56.915.333-2.332V0" style="stroke-width:15;stroke-linecap:round;stroke-linejoin:round;stroke-miterlimit:10;stroke-dasharray:none;stroke-opacity:1" transform="translate(384.772 322.254)" fill="none" stroke="#000000" stroke-width="15" stroke-linecap="round" stroke-linejoin="round" stroke-miterlimit="10" stroke-dasharray="none" stroke-opacity="" data-original="#000000"></path><path d="M0 0v-2.321l-.333-2.331-8.13-56.916c-.781-5.467 3.904-10.154 9.371-9.372l65.776 9.396a16.566 16.566 0 0 0 15.596-6.46l39.865-53.158c3.314-4.418 9.94-4.418 13.254 0l39.866 53.158a16.566 16.566 0 0 0 15.596 6.46l65.775-9.396c5.467-.782 10.153 3.905 9.372 9.372l-8.13 56.916-.333 2.331V0" style="stroke-width:15;stroke-linecap:round;stroke-linejoin:round;stroke-miterlimit:10;stroke-dasharray:none;stroke-opacity:1" transform="translate(127.228 189.712)" fill="none" stroke="#000000" stroke-width="15" stroke-linecap="round" stroke-linejoin="round" stroke-miterlimit="10" stroke-dasharray="none" stroke-opacity="" data-original="#000000"></path></g></g></svg>