<svg xmlns="http://www.w3.org/2000/svg" version="1.1" xmlns:xlink="http://www.w3.org/1999/xlink" width="25" height="25" x="0" y="0" viewBox="0 0 512 512" style="enable-background:new 0 0 512 512" xml:space="preserve" class=""><g><path fill="#c4e2ff" d="M485.35 512H26.65c-5.523 0-10-4.477-10-10V332.018h478.7V502c0 5.523-4.478 10-10 10z" opacity="1" data-original="#c4e2ff" class=""></path><path fill="#b3dafe" d="M462.049 332.018V502c0 5.523-4.477 10-10 10h33.301c5.523 0 10-4.477 10-10V332.018z" opacity="1" data-original="#b3dafe"></path><path fill="#ffe177" d="M378.872.019C323.608 1.059 278.38 45.867 276.854 101.12c-.598 21.649 5.421 41.856 16.177 58.752l-6.406 28.498c-1.34 5.962 3.986 11.289 9.948 9.948l28.498-6.406c16.896 10.756 37.103 16.775 58.751 16.177 55.253-1.526 100.06-46.753 101.102-102.017C486.037 47.01 437.934-1.093 378.872.019z" opacity="1" data-original="#ffe177" class=""></path><path fill="#ffd15b" d="M422.601 8.705c22.875 19.658 37.367 48.797 37.367 81.324 0 59.198-47.989 107.187-107.187 107.187-7.88 0-15.559-.858-22.955-2.472 15.881 8.961 34.34 13.888 53.997 13.345 55.253-1.526 100.06-46.753 101.102-102.017.818-43.489-25.048-81.034-62.324-97.367z" opacity="1" data-original="#ffd15b" class=""></path><path fill="#fd8087" d="m222.618 223.647-28.675-6.493v.002H99.521v-.002l-28.677 6.493c-25.606 5.798-43.786 28.553-43.786 54.808v40.262h239.346v-40.262c0-26.254-18.18-49.01-43.786-54.808z" opacity="1" data-original="#fd8087"></path><path fill="#d8ecfe" d="m167.925 308.72 26.018-91.564-23.276-5.271h-47.871l-23.275 5.271 26.017 91.564 21.193 13.936z" opacity="1" data-original="#d8ecfe"></path><path fill="#fe646f" d="m222.618 223.647-7.169-1.623c12.196 10.411 19.735 25.851 19.735 42.75v53.943h31.22v-40.262c0-26.254-18.18-49.01-43.786-54.808z" opacity="1" data-original="#fe646f"></path><path fill="#f6a96c" d="M146.731 235.82c-13.219 0-23.935-10.716-23.935-23.935v-25.496h47.87v25.496c0 13.219-10.716 23.935-23.935 23.935z" opacity="1" data-original="#f6a96c"></path><path fill="#fed2a4" d="M90.884 62.062v36.567l-9.049 21.275 9.049 21.275v2.659c0 30.844 25.004 55.847 55.847 55.847 30.844 0 55.847-25.004 55.847-55.847V62.062z" opacity="1" data-original="#fed2a4"></path><path fill="#ffbd86" d="M175.522 62.062v81.777c0 26.165-17.996 48.119-42.284 54.18a55.564 55.564 0 0 0 13.493 1.667c30.844 0 55.847-25.004 55.847-55.847v-2.659l7.929-21.275-7.929-21.275V62.062z" opacity="1" data-original="#ffbd86"></path><path fill="#7a6d79" d="M69.609 119.904h12.226l9.049-21.275s56.588-.629 81.827-22.471c2.016-1.745 5.111-1.078 6.251 1.333 3.064 6.479 9.949 16.937 23.616 21.138l15.957 21.275h5.319V77.122C223.854 34.529 189.325 0 146.731 0c-42.593 0-77.122 34.529-77.122 77.122z" opacity="1" data-original="#7a6d79"></path><path fill="#685e68" d="M146.731 0c-5.946 0-11.726.695-17.286 1.969 34.266 7.851 59.836 38.506 59.836 75.153V91.26a36.495 36.495 0 0 0 13.297 7.368l15.957 21.275h5.319V77.122C223.854 34.529 189.325 0 146.731 0z" opacity="1" data-original="#685e68"></path><path fill="#f6a96c" d="M213.217 141.179h-10.638v-42.55h10.638c11.75 0 21.275 9.525 21.275 21.275 0 11.75-9.526 21.275-21.275 21.275zM80.246 141.179h10.638v-42.55H80.246c-11.75 0-21.275 9.525-21.275 21.275 0 11.75 9.525 21.275 21.275 21.275z" opacity="1" data-original="#f6a96c"></path><circle cx="380.878" cy="104.065" r="72.846" fill="#eaf6ff" opacity="1" data-original="#eaf6ff"></circle><path fill="#fd4755" d="M79.711 326.218a7.5 7.5 0 0 1-7.5-7.5v-34.166c0-4.143 3.358-7.5 7.5-7.5s7.5 3.357 7.5 7.5v34.166a7.5 7.5 0 0 1-7.5 7.5zM213.751 326.218a7.5 7.5 0 0 1-7.5-7.5v-34.166c0-4.143 3.358-7.5 7.5-7.5s7.5 3.357 7.5 7.5v34.166a7.5 7.5 0 0 1-7.5 7.5z" opacity="1" data-original="#fd4755"></path><path fill="#60b7ff" d="M380.878 152.15a7.5 7.5 0 0 1-7.5-7.5V96.78c0-4.143 3.358-7.5 7.5-7.5s7.5 3.357 7.5 7.5v47.87a7.5 7.5 0 0 1-7.5 7.5z" opacity="1" data-original="#60b7ff"></path><circle cx="380.878" cy="63.48" r="7.5" fill="#60b7ff" opacity="1" data-original="#60b7ff"></circle><path fill="#eaf6ff" d="M503.675 342.018H8.325A8.325 8.325 0 0 1 0 333.693v-16.65a8.325 8.325 0 0 1 8.325-8.325h495.35a8.325 8.325 0 0 1 8.325 8.325v16.65a8.325 8.325 0 0 1-8.325 8.325z" opacity="1" data-original="#eaf6ff"></path><path fill="#d8ecfe" d="M503.675 308.717h-33.301a8.325 8.325 0 0 1 8.325 8.325v16.65a8.325 8.325 0 0 1-8.325 8.325h33.301a8.325 8.325 0 0 0 8.325-8.325v-16.65a8.325 8.325 0 0 0-8.325-8.325z" opacity="1" data-original="#d8ecfe"></path></g></svg>