<svg xmlns="http://www.w3.org/2000/svg" version="1.1" xmlns:xlink="http://www.w3.org/1999/xlink" width="25" height="25" x="0" y="0" viewBox="0 0 512 512" style="enable-background:new 0 0 512 512" xml:space="preserve" class=""><g><path fill="#fb6771" d="M297.922 139.036c-.032 0-.064-.036-.1-.036h-83.65c-.033 0-.065.033-.1.036C202.722 139.875 194 149.8 194 161.38V251h124v-89.62c0-11.58-8.722-21.505-20.078-22.344z" opacity="1" data-original="#fb6771"></path><path fill="#7ce5e9" d="m263.16 159.04 9.98 48.28-17.19 13.53-17.19-13.53 10.02-48.29z" opacity="1" data-original="#7ce5e9"></path><path fill="#53d8d8" d="M268.79 139.45v.56l-5.61 19.03h-.02l-14.38-.01h-.01L243.16 140v-.55z" opacity="1" data-original="#53d8d8"></path><path fill="#494b53" d="M110.18 223.47h35.19v28.9h-35.19z" opacity="1" data-original="#494b53"></path><path fill="#9be147" d="M457.25 244.36c-.47.72-18.91 29.13-10.52 74.1a84.8 84.8 0 0 0-10.49 11.1c-1.56-13.46-5.5-23.66-10.59-31.39 0 0 1.28-40.32 31.6-53.81z" opacity="1" data-original="#9be147"></path><path fill="#c6e02d" d="M436.24 329.56a95.085 95.085 0 0 0-17.62 37.8s-.05-3.86-.51-10.03c-1.59-21.83-8.17-72.57-34.97-83.26 0 0 26.73.11 42.51 24.1 5.09 7.73 9.03 17.93 10.59 31.39z" opacity="1" data-original="#c6e02d"></path><ellipse cx="255.97" cy="86.15" fill="#ffd8b7" rx="37.83" ry="37.77" opacity="1" data-original="#ffd8b7" class=""></ellipse><path fill="#ffd8b7" d="m18.865 251 .245 32H351v-32z" opacity="1" data-original="#ffd8b7" class=""></path><path fill="#c79a83" d="M335.25 282.86v179.23H34.88V282.86z" opacity="1" data-original="#c79a83"></path><path fill="#cae6ee" d="M278.84 356.85v33.08H224a43.18 43.18 0 0 1-77.87 0H91.29v-33.08h54.84a43.172 43.172 0 0 1 77.87 0z" opacity="1" data-original="#cae6ee"></path><path fill="#3090fc" d="m454.14 404.37-7.76 59.25h-50.72l-7.76-59.25z" opacity="1" data-original="#3090fc"></path><path fill="#50dd5a" d="M436.24 329.56a84.8 84.8 0 0 1 10.49-11.1c10.98-9.7 25.93-17.83 46.26-22.1 0 0-51.82 28.7-49.55 90.02h-27.18a87.424 87.424 0 0 1 2.36-19.02 95.085 95.085 0 0 1 17.62-37.8z" opacity="1" data-original="#50dd5a"></path><path fill="#81c83d" d="M418.11 357.33c.46 6.17.51 10.03.51 10.03a87.424 87.424 0 0 0-2.36 19.02h-13.53c-3.49-43.63-29.7-64.59-29.7-64.59 26.14 3.25 39.42 24.03 44.85 35.56z" opacity="1" data-original="#81c83d"></path><path fill="#43a2ff" d="M378 386h86v19h-86z" opacity="1" data-original="#43a2ff"></path><path fill="#e0b699" d="M48.865 251h-30l.245 32 29.999-.14z" opacity="1" data-original="#e0b699"></path><path fill="#b2826d" d="M34.88 282.86v179.23h30V283z" opacity="1" data-original="#b2826d"></path><path fill="#1581d1" d="M417.983 405h-30l7.677 58.62h30z" opacity="1" data-original="#1581d1"></path><path fill="#3093d6" d="M378 386h30v19h-30z" opacity="1" data-original="#3093d6"></path><path fill="#db4d65" d="M214.175 139c-.033 0-.065.033-.1.036C202.722 139.875 194 149.8 194 161.38V251h30v-89.62c0-11.583 8.722-21.5 20.078-22.344.032 0 .064-.036.1-.036z" opacity="1" data-original="#db4d65"></path><path fill="#7d8696" d="M193.745 224.135c.281-.033.557-.085.833-.135h-2.418a12.255 12.255 0 0 0 1.585.135z" opacity="1" data-original="#7d8696"></path><path fill="#7d8696" d="M192.16 129H63.39A12.539 12.539 0 0 0 51 141.73v70.09A12.081 12.081 0 0 0 63.39 224h128.77a12.255 12.255 0 0 0 1.585.135A12.531 12.531 0 0 0 205 211.82v-70.09A12.917 12.917 0 0 0 192.16 129z" opacity="1" data-original="#7d8696"></path><path fill="#fff655" d="M127.76 167.14a9.325 9.325 0 1 1-9.32 9.33 9.325 9.325 0 0 1 9.32-9.33z" opacity="1" data-original="#fff655"></path><path fill="#61687a" d="M81 211.82v-70.09A12.539 12.539 0 0 1 93.39 129h-30A12.539 12.539 0 0 0 51 141.73v70.09A12.081 12.081 0 0 0 63.39 224h30A12.081 12.081 0 0 1 81 211.82z" opacity="1" data-original="#61687a"></path><g fill="#284268"><path d="M351.13 245H324v-83.62c0-15.4-12.239-28.38-27.64-28.38h-80.78a25.546 25.546 0 0 0-6.381.846A18.964 18.964 0 0 0 192.16 123H63.39A18.519 18.519 0 0 0 45 141.73v70.09A18.053 18.053 0 0 0 63.39 230H104v15H19.01a6.325 6.325 0 0 0-6 6.3l.1 31.606a6.1 6.1 0 0 0 6 6.1H29V462.09a5.823 5.823 0 0 0 5.88 5.91h300.37a5.715 5.715 0 0 0 5.75-5.91V289h10.13a6.013 6.013 0 0 0 5.87-6.14v-31.49c0-3.313-2.557-6.37-5.87-6.37zm-90.2-100-2.237 7.812-5.437-.116-2.235-7.7zm-7.269 20.033h4.61l8.241 39.863-10.563 8.314-10.56-8.31zM200 228.562a18.3 18.3 0 0 0 11-16.742v-66.027a14.433 14.433 0 0 1 4.58-.793h22.931l4.084 14.078-9.71 46.91a6.092 6.092 0 0 0 2.164 5.99l17.19 13.559a5.988 5.988 0 0 0 7.422.021l17.19-13.527a6 6 0 0 0 2.165-5.927l-9.667-46.994 4.093-14.11h22.918c8.784 0 15.64 7.6 15.64 16.38V245H200zM63.39 218a6.052 6.052 0 0 1-6.39-6.18v-70.09a6.509 6.509 0 0 1 6.39-6.73h128.77a6.891 6.891 0 0 1 6.84 6.73v70.09a6.8 6.8 0 0 1-5.95 6.591c-.051.006-.149-.223-.2-.216-.187.026-.451-.195-.691-.195zM188 230v15h-37v-15zm-49 0v15h-23v-15zm206 47H106.511a6 6 0 1 0 0 12H329v167H41V289h32.459a6 6 0 0 0 0-12H25.091l-.062-20H345z" fill="#284268" opacity="1" data-original="#284268" class=""></path><path d="M91.29 396h51.234a49.174 49.174 0 0 0 85.083 0h51.233a6.2 6.2 0 0 0 6.16-6.07v-33.08a6.014 6.014 0 0 0-6.16-5.85h-51.232a49.165 49.165 0 0 0-85.084 0H91.29a6.13 6.13 0 0 0-6.29 5.85v33.08a6.314 6.314 0 0 0 6.29 6.07zM97 363h49.13a6.068 6.068 0 0 0 5.409-3.479 37.137 37.137 0 0 1 67.05.016A6.053 6.053 0 0 0 224 363h49v21h-49a5.969 5.969 0 0 0-5.411 3.372 37.2 37.2 0 0 1-67.05.006A5.974 5.974 0 0 0 146.13 384H97zM255.97 129.92a43.77 43.77 0 1 0-43.83-43.77 43.85 43.85 0 0 0 43.83 43.77zm0-75.54a31.77 31.77 0 1 1-31.83 31.77 31.836 31.836 0 0 1 31.83-31.77zM63 324.69a6 6 0 0 0-6 6v68.59a6 6 0 0 0 12 0v-68.59a6 6 0 0 0-6-6zM63 300.37a6 6 0 0 0-6 6v5.65a6 6 0 0 0 12 0v-5.65a6 6 0 0 0-6-6zM127.76 161.14a15.325 15.325 0 1 0 15.32 15.33 15.342 15.342 0 0 0-15.32-15.33zm0 18.65a3.325 3.325 0 1 1 3.32-3.32 3.323 3.323 0 0 1-3.32 3.32zM491.76 290.488c-16.809 3.53-30.074 9.625-40.558 16.925-3.773-36.6 10.9-59.5 11.053-59.73a6 6 0 0 0-7.429-8.811c-13.956 6.2-24.472 18.467-30.41 35.467a88.4 88.4 0 0 0-2.794 9.823 58.543 58.543 0 0 0-11.4-8.357A61.6 61.6 0 0 0 383.161 268h-.024a6.033 6.033 0 0 0-2.223 11.627c15.256 6.083 23.076 29.081 26.95 47.294.505 2.372.954 4.73 1.358 7.042a58.012 58.012 0 0 0-35.447-18.127 5.992 5.992 0 0 0-6.269 3.623 5.73 5.73 0 0 0 1.781 6.829c.229.183 21.65 17.712 26.735 53.712h-17.978a6.372 6.372 0 0 0-6.044 6.379v18.987a5.736 5.736 0 0 0 6.044 5.634h4.607l7.066 53.421a6.336 6.336 0 0 0 5.947 5.579h50.716a6.336 6.336 0 0 0 5.947-5.579L459.393 411H464a5.7 5.7 0 0 0 6-5.634v-18.987a6.336 6.336 0 0 0-6-6.379h-14.589c.446-21 7.9-40.65 22.231-57.582a98.2 98.2 0 0 1 24.257-20.9 5.949 5.949 0 0 0-4.139-11.027zm-49.322-25.757a122.831 122.831 0 0 0-2.16 51.584l-.3.29a71.691 71.691 0 0 0-8.2-19.947c.444-4.931 2.43-19.649 10.66-31.927zM406.056 287.3c13.224 8.082 21.249 21.75 23.912 40.645a94.371 94.371 0 0 0-7.644 12.091 225.336 225.336 0 0 0-2.683-15.426q-4.911-23.185-13.585-37.31zm-13.992 47.617c10.436 7 16.771 17.34 20.185 24.466.236 3.565.328 5.987.36 7.138A116.038 116.038 0 0 0 410.533 380h-2.409a111.75 111.75 0 0 0-16.06-45.079zM441.126 458h-40.208l-6.162-47h52.532zM458 392v7h-74v-7zm4.8-77.711C446.6 333.258 437.888 356 437.394 380H422.58a99.478 99.478 0 0 1 8.173-30.154 79.568 79.568 0 0 1 32.726-36.346l-.679.789z" fill="#284268" opacity="1" data-original="#284268" class=""></path></g></g></svg>