<svg xmlns="http://www.w3.org/2000/svg" version="1.1" xmlns:xlink="http://www.w3.org/1999/xlink" width="25" height="25" x="0" y="0" viewBox="0 0 64 64" style="enable-background:new 0 0 512 512" xml:space="preserve" class=""><g><g data-name="Layer 20"><path fill="#c2c3c5" d="M2 2h60v30H2z" opacity="1" data-original="#c2c3c5"></path><path fill="#dcdddf" d="M5 25a4 4 0 0 0 4 4h53V2H5z" opacity="1" data-original="#dcdddf" class=""></path><path fill="#77787c" d="M2 2v4l60-.001V2z" opacity="1" data-original="#77787c"></path><path fill="#9a9b9f" d="M5 2v4l57-.001V2z" opacity="1" data-original="#9a9b9f"></path><path fill="#ffffff" d="M7 10h25v6H7zM7 20h6v8H7z" opacity="1" data-original="#ffffff" class=""></path><g fill="#5a5b5d"><path d="M16 19h16v2H16zM16 23h9v2h-9zM16 27h9v2h-9z" fill="#5a5b5d" opacity="1" data-original="#5a5b5d"></path></g><path fill="#409272" d="M50 2h4v4h-4z" opacity="1" data-original="#409272"></path><path fill="#f5b94c" d="M54 2h4v4h-4z" opacity="1" data-original="#f5b94c"></path><path fill="#dd4334" d="M58 2h4v4h-4z" opacity="1" data-original="#dd4334"></path><path fill="#bc9834" d="M55.75 28a7.807 7.807 0 0 1-.86 2.06l1.6 1.6-2.83 2.83-1.6-1.6a7.807 7.807 0 0 1-2.06.86V36h-4v-2.25a7.807 7.807 0 0 1-2.06-.86l-1.6 1.6-2.83-2.83 1.6-1.6a7.807 7.807 0 0 1-.86-2.06H38v-4h2.25a7.807 7.807 0 0 1 .86-2.06l-1.6-1.6 2.83-2.83 1.6 1.6a7.807 7.807 0 0 1 2.06-.86V16h4v2.25a7.807 7.807 0 0 1 2.06.86l1.6-1.6 2.83 2.83-1.6 1.6a7.807 7.807 0 0 1 .86 2.06H58v4z" opacity="1" data-original="#bc9834"></path><path fill="#e7b541" d="M58 28v-4h-2.25a7.807 7.807 0 0 0-.86-2.06l1.6-1.6-2.83-2.83-1.6 1.6a7.807 7.807 0 0 0-2.06-.86V16h-2v20h2v-2.25a7.807 7.807 0 0 0 2.06-.86l1.6 1.6 2.83-2.83-1.6-1.6a7.807 7.807 0 0 0 .86-2.06z" opacity="1" data-original="#e7b541" class=""></path><circle cx="48" cy="26" r="4" fill="#c2c3c5" opacity="1" data-original="#c2c3c5"></circle><path fill="#dcdddf" d="M48 22v8a4 4 0 0 0 0-8z" opacity="1" data-original="#dcdddf" class=""></path><path fill="#bc9834" d="M57.78 53a9.055 9.055 0 0 1-1.16 2.79l1.57 1.57-2.83 2.83-1.57-1.57A9.055 9.055 0 0 1 51 59.78V62h-4v-2.22a9.055 9.055 0 0 1-2.79-1.16l-1.57 1.57-2.83-2.83 1.57-1.57A9.055 9.055 0 0 1 40.22 53H38v-4h2.22a9.055 9.055 0 0 1 1.16-2.79l-1.57-1.57 2.83-2.83 1.57 1.57A9.055 9.055 0 0 1 47 42.22V40h4v2.22a9.055 9.055 0 0 1 2.79 1.16l1.57-1.57 2.83 2.83-1.57 1.57A9.055 9.055 0 0 1 57.78 49H60v4z" opacity="1" data-original="#bc9834"></path><path fill="#e7b541" d="M60 53v-4h-2.22a9.055 9.055 0 0 0-1.16-2.79l1.57-1.57-2.83-2.83-1.57 1.57A9.055 9.055 0 0 0 51 42.22V40h-2v22h2v-2.22a9.055 9.055 0 0 0 2.79-1.16l1.57 1.57 2.83-2.83-1.57-1.57A9.055 9.055 0 0 0 57.78 53z" opacity="1" data-original="#e7b541" class=""></path><circle cx="49" cy="51" r="4" fill="#c2c3c5" opacity="1" data-original="#c2c3c5"></circle><path fill="#dcdddf" d="M53 51a4 4 0 0 0-4-4v8a4 4 0 0 0 4-4z" opacity="1" data-original="#dcdddf" class=""></path><path fill="#bc9834" d="M30.78 49a9.055 9.055 0 0 1-1.16 2.79l1.57 1.57-2.83 2.83-1.57-1.57A9.055 9.055 0 0 1 24 55.78V58h-4v-2.22a9.055 9.055 0 0 1-2.79-1.16l-1.57 1.57-2.83-2.83 1.57-1.57A9.055 9.055 0 0 1 13.22 49H11v-4h2.22a9.055 9.055 0 0 1 1.16-2.79l-1.57-1.57 2.83-2.83 1.57 1.57A9.055 9.055 0 0 1 20 38.22V36h4v2.22a9.055 9.055 0 0 1 2.79 1.16l1.57-1.57 2.83 2.83-1.57 1.57A9.055 9.055 0 0 1 30.78 45H33v4z" opacity="1" data-original="#bc9834"></path><path fill="#e7b541" d="M33 49v-4h-2.22a9.055 9.055 0 0 0-1.16-2.79l1.57-1.57-2.83-2.83-1.57 1.57A9.055 9.055 0 0 0 24 38.22V36h-2v22h2v-2.22a9.055 9.055 0 0 0 2.79-1.16l1.57 1.57 2.83-2.83-1.57-1.57A9.055 9.055 0 0 0 30.78 49z" opacity="1" data-original="#e7b541" class=""></path><circle cx="22" cy="47" r="4" fill="#c2c3c5" opacity="1" data-original="#c2c3c5"></circle><path fill="#dcdddf" d="M26 47a4 4 0 0 0-4-4v8a4 4 0 0 0 4-4z" opacity="1" data-original="#dcdddf" class=""></path></g></g></svg>