
<svg width="14" height="14" viewBox="0 0 14 14" fill="none" xmlns="http://www.w3.org/2000/svg">
<circle cx="7" cy="7" r="7" fill="#FF9D9D"/>
<circle cx="7" cy="7" r="6.5" stroke="black" stroke-opacity="0.16"/>
<path d="M8.56325 3C8.04396 3 7.5908 3.27879 7.39008 3.8084C7.81146 4.1705 8.10317 4.73079 8.10317 5.49048C8.10317 6.30159 7.73579 7.04293 7.35397 7.52051C7.96222 7.76021 8.91416 8.2405 9.18623 8.97732C10.1445 8.92199 11 8.72109 11 8.15027V7.96231C11 7.43901 10.1237 6.92684 9.34854 6.65587C9.31331 6.64384 9.0915 6.5879 9.23128 6.13888C9.59519 5.7431 9.84502 5.10251 9.84502 4.47576C9.84502 3.51006 9.26854 3 8.56296 3H8.56325ZM6.09069 3.93051C5.33976 3.93051 4.69166 4.46433 4.69166 5.49048C4.69166 6.16114 4.9978 6.84564 5.38655 7.26668C5.53818 7.68742 5.26294 7.98697 5.20604 8.00952C4.42017 8.30907 3.5 8.85011 3.5 9.39085V9.59776C3.5 10.3343 4.84906 10.5 6.09935 10.5C7.35109 10.5 8.68975 10.3343 8.68975 9.59776V9.39085C8.68975 8.83387 7.76323 8.29764 6.93866 8.00922C6.90111 7.99629 6.66399 7.73464 6.81244 7.25736H6.80349C7.1905 6.83631 7.52553 6.15843 7.52553 5.49048C7.52553 4.46433 6.84075 3.93051 6.09011 3.93051H6.09069Z" fill="black" fill-opacity="0.9"/>
</svg>
