<svg xmlns="http://www.w3.org/2000/svg" version="1.1" xmlns:xlink="http://www.w3.org/1999/xlink" width="25" height="25" x="0" y="0" viewBox="0 0 512.004 512.004" style="enable-background:new 0 0 512 512" xml:space="preserve" class=""><g><path d="M79.894 85.612c-8.315 5.06-17.731 17.475-19.927 26.872-1.794 7.68-1.198 16.57 2.98 23.433 5.059 8.307 15.695 15.955 24.705 18.771 12.818 4.008 30.079 3.476 42.592-1.52 9.66-3.857 17.434-9.068 22.34-18.459 5.119-9.798 3.486-20.598 1.138-30.945-2.244-9.891-7.475-19.283-18.547-20.123-7.681-.584-15.431-.86-23.131-1.321-5.619-.337-11.366-.843-16.997-.362-4.78.407-9.495 2.378-15.153 3.654zM266.608 56.696c-11.091 2.94-22.493 9.498-24.598 21.878-.823 4.84-.894 9.725-1.838 14.593-.312 1.608-.474 6.333-1.635 7.507-1.53 1.545-5.369 1.07-7.352 2.371-2.083 1.368-4.681 4.722-4.666 7.353.035 6.179 7.819 6.779 11.676 9.378 5.117 3.447 6.823 10.332 11.064 14.625 4.547 4.603 11.938 7.556 17.975 9.469 16.603 5.26 32.456 1.771 46.992-8.047 6.213-4.195 10.708-12.99 12.881-19.983 2.977-9.58-.258-16.757-3.798-25.688-4.195-10.582-12.546-22.974-22.134-29.444-4.761-3.213-11.457-6.275-17.155-7.109-5.055-.743-8.972 1.704-17.412 3.097zM353.357 288.852c-4.123 4.256-1.145 10.015 3.81 11.473 3.626 1.066 4.417.179 7.033 3.306 2.229 2.663 1.741 3.928 5.063 1.938 3.318-1.986 3.021-5.383 6.816-6.391 3.414-.906 7.236.953 9.479-2.686.653-1.059.171-3.418.837-4.76.731-1.473 2.398-2.188 3.22-3.708 1.875-3.468 1.026-8.251-.617-11.667-1.848-3.84-6.416-8.033-11.03-5.082-1.904 1.219-2.925 4.172-4.586 5.812-2.837 2.802-6.819 6.425-10.936 6.807" style="" fill="#fee2c9" data-original="#fee2c9"></path><path d="M81.642 88.701c-4.356 6.063-3.697 19.156-3.096 26.515.658 8.044 3.563 16.659 8.901 22.761 9.771 11.168 24.907 6.766 38.087 7.627 2.674.175 10.352.133 9.844 4.119-.691 5.426-13.24 6.109-16.909 6.389-15.97 1.213-37.728 2.023-49.106-11.648-5.433-6.529-8.588-17.553-9.076-26.029-.341-5.934 1.491-12.236 4.795-17.198 2.617-3.931 9.004-12.118 16.56-12.536zM291.947 72.77c-5.701 14.646-2.457 31.314-2.731 46.441-.112 6.19-1.903 14.064-6.24 18.776-4.424 4.808-10.587 2.164-15.084 5.887.941 3.384 4.076 4.036 4.721 7.579.58 3.189-1.791 6.542-.716 9.75 2.145 6.402 12.24 3.649 17.372 2.603 6.749-1.376 15.767-2.705 21.017-7.731 2.827-2.707 2.208-5.75 2.147-9.643-.122-7.875 6.311-13.781 9.262-20.928 4.085-9.891 6.792-20.668 2.378-30.957-2.735-6.373-8.973-13.635-14.069-18.296-6.068-5.55-11.196-9.052-18.057-3.481z" style="" fill="#efcaac" data-original="#efcaac"></path><path d="M67.797 27.003c1.228 2.769.261 7.806 0 11.107-.623 7.866-.465 15.741-.465 23.629 0 3.14-1.712 12.516.094 15.13 1.473 2.132 1.872 1.203 4.181 1.678 3.465.711 6.357.06 9.872-.213 6.058-.468 11.967.93 18.018 1.175 9.783.396 19.918-.543 29.643-1.377 5.76-.493 19.731.989 23.21-2.782 2.225-2.41 1.425-9.758 1.29-12.57-.324-6.786.734-13.51.486-20.271-.222-6.051.077-15.606-5.925-17.363-5.058-1.48-12.138.238-17.322.258-7.661.029-15.279-.92-22.972-.733-13.48.326-26.405 2.257-40.11 2.332zM82.198 155.69c-6.656 6.599-13.07 12.489-18.118 20.543-4.92 7.849-7.093 18.218-9.551 27.042-2.874 10.316-5.265 20.916-7.301 31.441-1.341 6.93-6.203 15.125-5.377 22.181 2.11-.022 3.526 1.102 5.469 1.476 4.488.861 9.206.498 13.754.904 13.952 1.247 27.244-.551 41.124-.926 19.963-.54 40.065.955 59.907 1.828 5.814.256 12.239 2.109 13.924-3.881 3.788-13.463-3.665-29.341-6.954-42.177-4.671-18.231-4.04-42.374-20.206-54.902-6.96-5.394-12.627-6.161-20.982-4.562-15.191 2.909-29.815-.117-45.689 1.033z" style="" fill="#db3333" data-original="#db3333"></path><path d="M96.593 24.252c2.745 8.551 1.815 18.25 5.145 27.177 4.104 11.005 12.163 11.109 22.531 11.559 5.793.251 12.739 2.298 12.079 9.563-.683 7.523-7.542 8.513-13.598 9.057-8.712.782-17.371 1.383-26.125.627-7.381-.637-15.438.58-22.696-.629-3.093-.515-6.16-1.285-6.797-4.189-.601-2.74 2.069-8.422 2.305-11.463.395-5.1.941-10.705.516-15.833-.392-4.724-4.78-16.385-2.55-20.886 1.063-2.147 5.191-3.369 7.643-3.956 3.4-.813 6.535-.349 9.931-.267 5.734.136 10.478-.655 11.616-.76zM82.506 152.547c-2.711 6.769-11.266 13.252-15.608 19.646-5.35 7.879-8.85 16.021-12.063 25.105-3.856 10.903-5.012 21.705-7.685 32.752-1.868 7.721-6.627 16.262-6.917 24.127-.313 8.5 13.554 5.389 19.424 5.995 7.898.815 6.458-3.841 6.731-11.454.725-20.191-2.261-44.607 11.821-61.246 6.504-7.684 16.687-10.898 26.188-13.504 4.781-1.313 13.236-2.756 12.889-9.617-.288-5.695-8.213-8.557-12.677-9.264-4.767-.753-15.135-3.571-22.103-2.54z" style="" fill="#bf1b1b" data-original="#bf1b1b"></path><path d="M144.29 47.06c-5.246-2.626-13.542-1.083-19.236-.533-8.392.812-17.033.617-25.546.533-9.289-.092-21.226-4.21-30.439-.464-.006 3.161-1.085 6.637-.659 9.749.604 4.405-.098 3.227 3.91 4.204 9.605 2.346 21.862 1.684 31.777 1.688 10.787.004 21.292-.536 32.077.047 5.1.276 11.153 3.129 14.299-1.763 4.046-6.292 1.98-15.75-6.183-13.461zM87.519 151.045c-2.366 1.49-9.63 8.855-10.27 11.649-1.036 4.528 3.67 5.943 7.226 7.454 7.985 3.395 17.284 4.54 18.345 14.059 2.271 20.385-.709 41.639-.687 62.153.007 6.708-1.394 10.1 4.375 12.999 5.535 2.781 14.088 4.559 15.89-1.756 2.041-7.152-.029-17.529-.029-24.848 0-9.506-.474-18.959-.562-28.441-.064-6.979-2.237-19.232.096-25.632 2.024-2.176 3.298-.941 5.781-1.497 4.251-.95 8.479-2 12.686-4.19 7.15-3.725 13.116-5.313 8.977-12.944-4.479-8.258-5.625-8.11-13.486-6.18-12.461 3.059-28.131 1.74-48.342-2.826z" style="" fill="#ffc94e" data-original="#ffc94e"></path><path d="M99.767 49.013c.994 2.463 3.448 8.539 2.964 11.057-.616 3.202-4.144 2.61-7.568 2.905-8.822.762-17.505-.033-26.276-.392-1.032-3.997-1.654-12.634-.062-16.36 3.063 1.242 6.94.787 10.278 1.021 6.331.447 12.418 1.032 20.664 1.769zM111.919 158.758c-4.101 3.999-8.203 14.82-14.013 16.479-3.894 1.11-11.661-3.443-15.568-4.971-1.582-.617-6.917-2.553-7.23-4.373-.274-1.59 4.548-5.92 5.534-7.07 2.358-2.755 2.026-2.635 5.549-2.633 6.2.003 12.676 1.369 25.728 2.568z" style="" fill="#f49d34" data-original="#f49d34"></path><path d="M150.378 261.141c-33.709 0-67.342 0-100.998.654-10.872.212-22.957 1.083-32.374 7.186-7.645 4.955-9.533 15.57-8.568 23.998 1.106 9.655.669 17.502-.277 27.381-2.397 25.05-1.619 50.271-1.153 75.39.266 14.334.618 29.857 3.256 43.898 1.962 10.447 5.896 15.875 16.393 17.416 21.147 3.105 44.467-1.861 65.723-2.822 20.583-.93 40.566-1.115 61.082.049 8.963.508 30.583 4.744 38.226-1.176 8.358-6.473 5.022-25.848 3.7-34.181-4.314-27.198-7.197-55.021-4.502-82.531.715-7.296-1.017-18.021 5.607-22.542 7.081-4.833 16.54-1.867 21.988-10.333 5.678-8.824 8.462-29.546-1.438-35.97-7.077-4.591-19.22-5.178-27.384-6.121-15.44-1.786-31.072-.83-39.281-.296z" style="" fill="#ea8d4e" data-original="#ea8d4e"></path><path d="M60.689 258.521c-11.572 25.473 8.029 31.182 29.462 32.733 28.311 2.05 56.201 3.265 84.557 2.616 11.373-.26 26.87-3.799 35.651 5.625 8.724 9.361-3.088 9.4-10.22 10.09-14.75 1.426-29.634 1.273-44.425 2.061-.188.618-.012 1.151-.196 1.771-13.388 1.658-29.527.74-42.284 5.597-23.877 9.088-38.67 47.498-38.775 71.132-.129 28.86 40.487 25.446 59.758 33.306 6.037 2.461 15.229 9.842 15.542 17.141.321 7.484-6.905 8.777-12.639 11.199-23.049 9.734-49.543 6.418-73.812 3.379-12.151-1.523-24.375-.543-36.579-1.412-4.948-.354-10.659-.196-14.107-4.396-3.153-3.842-4.176-12.574-4.967-17.344-4.428-26.714-2.029-52.997-1.958-80.183.026-9.932 0-19.864 0-29.796 0-12.035-2.169-26.863.574-38.313 5.022-20.956 32.807-29.977 54.418-25.206z" style="" fill="#cc6d3e" data-original="#cc6d3e"></path><path d="M99.969 327.262c-13.919 3.141-6.973 13.85-3.336 21.424-3.888 3.219-9.583 7.717-12.214 11.982-4.634 7.514.238 6.855 3.462 12.396 7.394 12.709-9.862 33.787-7.551 48.148 1.996 12.402 23.834 13.439 30.13 3.984 8.022-12.047 5.375-29.912 7.348-43.645 1.146-7.973 4.449-20.039-.147-27.48-1.957-3.166-4.538-3.637-7.52-5.288-4.932-2.733-5.717-.874-4.014-5.811 1.355-3.927 4.705-4.384 4.315-9.493-.334-4.379-2.748-8.502-10.473-6.217z" style="" fill="#ffc94e" data-original="#ffc94e"></path><path d="M94.077 330.535c-3.832 4.36-.748 9.058-.019 13.781.664 4.302.977 4.338-1.538 8.231-2.218 3.435-6.212 6.165-8.118 9.557-3.346 5.954-1.031 4.437 1.325 8.841 5.121 9.574-.262 22.09-2.052 32.752-.643 3.831-4.292 19.526-.725 22.285 6.411 4.96 17.356-18.17 18.502-21.979 5.1-16.951 6.342-39.29 2.973-56.771-.775-4.019-3.715-19.388-10.348-16.697z" style="" fill="#f49d34" data-original="#f49d34"></path><path d="M264.257 451.324c-10.569-3.717-28.012-1.121-39.259-1.244-15.135-.166-30.334-.184-45.419.482-22.738 1.004-45.487 5.186-68.199 5.128-21.421-.054-42.637 1.027-64.003 1.142-10.952.057-21.99-4.484-32.899-1.771-10.432 2.594-3.509 18.436.159 24.174 6.108 9.559 24.618 7.395 34.409 8.125 55.708 4.158 112.429-4.313 168.292-4.229 53.079.079 106.6-2.911 159.629-.589 18.023.789 36.121-.418 54.13.538 10.302.547 25.316 4.433 35.399 1.952 9.067-2.231 12.204-16.898 8.406-24.832-2.294-4.793-4.158-4.311-9.391-4.509-11.907-.451-23.07-2.425-34.899-3.618-31.127-3.139-62.989-2.764-94.17-1.512-12.72.51-25.463.963-38.186 1.336-11.696.343-26.357 4.792-33.999-.573z" style="" fill="#aa4130" data-original="#aa4130"></path><path d="M7.586 466.422c10.475-.546 21.422 3.035 32.158 3.022 20.065-.024 39.979.755 60.042-.058 38.855-1.574 78.314-2.509 117.19-2.366 45.403.167 90.417.612 135.781-2.411 33.095-2.207 65.65.6 98.622.604 9.774.002 23.179-1.785 20.701 12.092-1.13 6.332-6.048 6.975-11.103 7.992-16.352 3.289-31.838 2.164-48.417 1.373-43.954-2.097-87.721-5.479-131.771-5.727-20.417-.115-40.855-1.652-61.279-1.872-20.283-.219-41.126 1.712-61.429 2.595-35.761 1.553-71.778 2.464-107.594 2.285-12.422-.062-38.669 2.563-42.901-17.529z" style="" fill="#93332a" data-original="#93332a"></path><path d="M272.675 168.646c-1.017 24.637-9.89 49.563-13.315 74.006-2.023 14.436-6.845 30.529-3.906 45.061 3.159 15.621 18.883 11.889 31.699 13.102 13.026 1.232 25.532 1.438 38.483.815 14.014-.675 18.255-3.368 19.059-17.665 4.974-.318 7.678 4.043 13.029 2.967 5.196-1.044 16.293-8.109 19.364-12.383 6.672-9.285-1.802-27.506-7.769-35.736-9.676-13.348-19.296-27.624-30.153-39.97-4.349-4.944-8.731-10.61-11.606-16.565-3.406-7.057-4.8-16.615-9.83-22.905-5.404-6.759-6.878-3.804-13.53.019-8.803 5.059-20.178 3.174-31.525 9.254z" style="" fill="#118acb" data-original="#118acb"></path><path d="M295.097 163.234c1.526 25.48 26.382 38.604 40.805 57.387 8.852 11.526 16.129 24.709 20.142 38.738 1.553 5.429-1.282 18.957 3.283 22.879 4.397 3.779 16.07-3.824 19.154-7.593 5.437-6.642 1.059-16.564-2.959-23.099-11.651-18.949-22.854-38.065-38.633-53.861-9.239-9.248-8.923-17.875-14.542-28.844-8.038-15.695-14.445-12.173-27.25-5.607zM295.87 208.852c13.11 19.537 12.088 42.957 6.863 64.973-1.342 5.658-9.29 23.256-4.559 27.863 3.294 3.209 14.69 1.305 19.135 1.529 5.004.252 13.138 1.262 17.241-1.549 2.729-1.87 8.648-12.088 9.291-15.057 1.867-8.613-6.13-23.518-10.258-31.33-3.922-7.426-7.763-17.014-13.705-23.061-6.787-6.907-13.826-11.335-24.008-23.368z" style="" fill="#1372bf" data-original="#1372bf"></path><path d="M264.943 297.764c-7.203 19.133-11.626 37.521-15.558 57.235-2.678 13.43-4.589 26.184-9.741 39.237-4.142 10.493-13.487 19.074-1.933 26.646 7.793 5.107 24.482 9.793 33.783 9.112 9.347-.685 8.286-13.038 10.632-22.502 1.116-4.501 8.067-32.847 15.308-32.483 8.455.424 14.342 31.313 16.41 37.374 1.897 5.563 2.872 13.34 7.956 16.081 4.689 2.529 19.211 3.539 24.497 3.093 24.039-2.028 11.304-28.61 5.532-42.63-7.382-17.928-8.358-35.52-10.248-54.465-.672-6.746 1.212-29.548-4.339-33.641-2.01-1.482-7.908.033-10.505.13-6.54.243-13.397.151-19.956-.097-7.603-.286-40.137.203-41.838-3.09z" style="" fill="#777673" data-original="#777673"></path><path d="M250.253 426.881c8.049-17.418 19.232-33.781 28.473-50.67 9.587-17.523 16.863-36.386 24.703-54.73 4.608-10.783 14.484-26.814 28.729-19.549 9.87 5.034 6.879 18.16 7.847 27.461 1.259 12.089 4.206 24.138 7.663 35.826 4.447 15.033 8.594 30.081 10.612 45.634.694 5.353 3.67 11.661-.54 16.048-6.628 6.908-18.802 5.557-21.603-2.799-1.926-5.744-1.307-13.012-2.29-19.104-1.549-9.598-4.787-18.84-6.838-28.326-1.032-4.771-3.807-26.842-9.281-28.897-9.011-3.384-23.418 40.532-26.055 46.975-4.176 10.206-7.795 28.574-16.294 36.185-6.487 5.81-19.072-3.722-25.126-4.054z" style="" fill="#636260" data-original="#636260"></path><path d="M268.809 429.201c-10.849-3.629-22.688-3.141-33.632-7.344-7.759-2.98-20.975-8.159-24.158 4.293-3.264 12.773 39.616 23.023 50.059 22.361 5.066-.321 8.917-1.834 12.196-6.983 4.214-6.62 1.342-7.866-4.465-12.327zM358.495 429.201c-14.099 0-49.396-3.73-57.146 11.211-7.004 13.503 10.069 10.438 18.491 10.438 8.865 0 17.32.17 26.052 1.355 4.548.617 13.503 3.702 18.033 1.582 10.699-5.006 2.4-31.086-5.43-24.586z" style="" fill="#4d4b49" data-original="#4d4b49"></path><path d="M416.482 306.27c-12.533 5.238-22.777 15.557-34.317 22.741-6.803 4.235-14.783 7.13-15.165 15.876-.405 9.262 7.441 19.199 11.772 27.041 5.949 10.77 12.675 20.729 19.444 30.934 5.664 8.539 10.29 18.485 16.914 26.164 7.085 8.216 12.254 5.346 21.042.561 11.192-6.094 27.412-12.267 34.919-23.163 5.2-7.546 2.269-12.578-1.437-19.922-7.413-14.692-15.754-29.628-24.566-43.527-4.271-6.739-17.647-34.159-28.606-36.705z" style="" fill="#ffc94e" data-original="#ffc94e"></path><path d="M370.344 340.34c-.895-8.92-5.833-12.99-10.388-20.512-4.021-6.639-10.394-16.789-.108-20.441 2.242 6.166 7.582 10.102 10.842 15.381 6.257 10.131 5.677 13.375 17.989 8.715 10.431-3.949 18.119-3.267 21.424 9.201 4.602 17.359 2.943 37.41 12.946 53.162 5.601 8.82 18.386 14.27 22.66 23.253 6.866 14.43-10.989 25.077-23.042 23.197-15.545-2.423-23.681-17.724-30.171-31.36-5.422-11.393-10.162-23.559-15.485-35.149-4.191-9.124-5.789-15.28-6.631-25.067l-.036-.38zM393.67 275.969c-2.071.592-4.273 7.566-3.462 10.357.622 2.14 3.644 3.976 4.934 5.539 3.275 3.971 6.817 8.89 9.065 13.558 1.856 3.853 4.736 10.574 9.843 3.949 4.391-5.696-3.294-16.419-6.203-21.2-1.843-3.03-3.376-7.219-5.943-9.609-2.239-2.086-6.393-2.11-8.234-2.594z" style="" fill="#f49d34" data-original="#f49d34"></path><path d="M448.781 424.874c4.333 7.573 6.232 17.985-4.241 21.212-7.628 2.35-13.437-2.844-15.843-9.539 4.437-3.882 9.975-7.836 15.845-9.023 4.704-.952-.167-1.128 4.239-2.65z" style="" fill="#f49d34" data-original="#f49d34"></path><path d="M401.919 65.566c-4.469 7.455-13.485 12.943-19.396 19.244-6.007 6.403-10.696 13.796-16.204 20.668-5.981 7.463-18.634 17.949-16.287 27.346 3.099 12.411 18.623 25.811 26.94 35.331 7.87 9.009 15.463 23.538 25.854 29.685 12.244 7.242 13.586-14.609 14.955-22.981.708-4.331.21-16.409 3.348-18.882 3.775-2.975 19.357-1.768 24.403-2.674 10.863-1.949 22.015-.497 32.908-.123 5.245.18 19.662 1.449 23.692-2.317 4.9-4.58 4.049-35.96-1.392-39.581-1.939-1.29-12.396.565-15.095.565-9.024.001-17.906-.677-26.904-.711-9.153-.034-28.035 3.247-36.134-1.428-7.891-4.554-3.171-16.272-3.602-24.13-.336-6.121-3.649-23.843-17.086-20.012z" style="" fill="#7cc366" data-original="#7cc366"></path><path d="M381.983 180.198c-6.736-11.129-13.026-22.705-19.969-33.642-4.646-7.317-13.042-21.887 2.251-20.496 6.75.615 12.894 5.531 19.498 7.422 7.414 2.122 15.467 2.252 23.106 2.599 20.681.938 41.393-1.531 61.946-2.519 8.163-.393 21.889-4.326 29.605-2.519 6.994 1.638 7.542 12.831 2.5 17.86-4.261 4.251-13.039 2.311-18.156 2.105-8.47-.342-16.815-.025-25.29-.004-6.672.018-31.138-2.84-35.654 2.073-3.416 3.715-2.814 22.157-3.721 27.112-1.081 5.906-.233 11.52-4.752 15.863-3.427 3.295-7.114 3.558-11.075 2.029-4.489-1.73-5.466-4.604-8.346-8.468-2.724-3.651-8.731-7.334-11.943-9.415z" style="" fill="#5ba53f" data-original="#5ba53f"></path><path d="M94.38 118.033c1.299-.363 2.516-1.065 3.437-2.012 1.987-2.041 2.35-4.917 1.109-7.443-1.132-2.305-3.518-4.388-6.194-4.414-5.907-.058-8.739 7.988-5.4 12.311 1.766 2.287 4.685 2.703 7.048 1.558zM127.526 117.604c2.182 1.395 4.888 1.412 7.077.025a6.687 6.687 0 0 0 2.911-4.051c.193-.396.358-.807.472-1.238.587-2.242-.02-4.711-1.698-6.333-2.127-2.057-5.193-2.284-7.796-1.088-4.539 2.088-5.232 9.957-.966 12.685zM113.059 128.17c2.287.087 5.928-.941 6.43-3.539.362-1.878-1.195-3.895-3.252-3.253-1.259.394-2.419 1.38-3.59.938-1.034-.391-1.696-1.045-2.915-.954-1.067.079-2.272.847-2.286 2.035-.032 2.822 3.111 4.677 5.613 4.773zM97.959 134.686a3.476 3.476 0 0 0-.369.453c-4.832 10.772 28.611 15.694 31.112 1.151.353-2.052-1.181-3.757-3.303-3.303-1.485.317-2.089.867-3.198 1.833-2.381 2.074-4.401 3.139-7.66 3.701-5.985 1.035-8.872-1.376-13.514-4.23-.922-.567-2.323-.411-3.068.395zM82.9 432.436c7.082 3.398 15.389 5.311 22.278.94 7.984-5.064 10.378-14.522 12.34-23.294 2.498-11.162 3.383-22.602 4.282-33.967.57-7.215 2.323-17.66-2.434-23.906-1.948-2.559-4.744-4.486-7.884-5.734.403-.391.792-.783 1.162-1.165 6.494-6.711 1.891-17.218-5.69-20.548-3.251-1.428-7.469-.439-10.666.922-4.128 1.759-7.168 4.201-8.374 8.479-1.038 3.683-.697 7.48 1.378 10.845.621 1.006 1.36 2.098 2.213 3.07-6.092 3.654-11.964 9.998-11.968 16.85-.612 2.055-.589 4.107.568 6.26.705 1.31 1.809 2.021 2.713 3.103 2.25 2.692 1.689 4.837.622 8.273-1.598 5.144-3.776 10.196-4.891 15.483-.954 4.525-1.385 9.079-2.196 13.611-1.492 8.348-2.08 16.637 6.547 20.778zm12.108-96.043c.526-3.532 5.51-5.139 8.524-5.055.73.021 1.9.756 2.9 2 1.59 1.979 2.512 4.234.776 6.536-.776 1.03-3.548 3.401-4.746 3.707-1.374.351-4.069-.394-5.719-.753-1.313-1.89-2.095-4.018-1.735-6.435zm-9.27 75.671c1.089-8.324 2.87-16.255 4.442-24.505.75-3.93 1.946-8.288 1.483-12.284-.129-1.116-.386-2.214-.887-3.229-1.364-2.769-3.956-2.416-2.644-6.144.687-1.95 2.299-3.496 3.752-4.864 3.478-3.275 7.865-7.823 13.027-6.992 4.148.668 6.893 2.778 7.629 6.603.79 4.101.663 7.665.295 11.792-.878 9.866-1.41 19.758-3.111 29.539-.872 5.011-1.725 10.689-3.793 15.357-1.577 3.559-3.128 8.35-7.496 9.414-3.061.746-8.04-.889-10.723-2.123-2.452-1.127-2.493-1.374-3.026-3.774-.635-2.87.688-6.003 1.052-8.79zM256.001 88.541c-2.049 1.179-3.535 3.662-3.574 6.015-.025 1.47.698 2.806 1.797 3.698.718 1.326 1.812 2.411 3.333 2.844 4.026 1.147 7.054-2.788 7.247-6.416.099-1.861-.485-3.873-1.785-5.242-1.817-1.913-4.755-2.199-7.018-.899z" fill="#000000" opacity="1" data-original="#000000" class=""></path><path d="M472.958 447.198c-6.76-.907-13.956-.78-20.87-.854 2.85-2.53 4.252-5.625 5.273-9.916.865-3.637.042-7.994-2.112-11.234 9.195-5.695 20.088-12.477 22.734-22.895 1.818-7.159-.893-14.727-3.007-21.477-2.199-7.018-5.854-13.451-10.038-19.543-4.544-6.616-9.091-13.23-13.372-20.031-4.504-7.154-7.705-15.055-12.463-22.031-4.061-5.955-6.744-12.942-12.964-16.798-3.215-1.993-6.076-1.89-8.836-.966-.232-2.292-.958-4.616-1.809-6.977-1.03-2.861-3.055-5.322-4.674-7.911-2.412-3.855-4.561-7.883-7.435-11.428-4.609-5.687-8.21-4.826-12.962-2.412-1.513-1.87-3.351-3.371-5.415-4.231-.594-.248-1.229-.223-1.836-.053.372-1.485.617-3.026.687-4.65.275-6.336-2.979-11.852-5.5-17.422-2.811-6.21-6.021-11.295-9.819-16.938-3.388-5.032-5.815-10.621-9.581-15.432-3.143-4.016-6.673-7.664-9.786-11.848-2.899-3.896-6.296-7.598-9.899-10.992-.257-3.244-1.94-6.231-3.303-9.389-2.003-4.642-4.313-9.254-7.01-13.52-2.494-3.943-5.083-7.88-6.984-12.168-1.284-2.896-2.69-5.322-5.2-6.934.046-2.086-.168-4.201-.554-6.229a3.17 3.17 0 0 0-.161-.552c15.263-14.164 19.625-38.373 15.716-58.168-3.863-19.563-21.1-33.4-40.209-37.004-7.37-1.391-14.048-.875-20.969 1.681-6.62 2.444-12.04 6.017-17.952 9.763-3.971 2.516-6.841 5.805-8.898 9.834-2.366 2.867-4.297 6.088-5.665 9.622-1.528 3.95-2.855 8.278-3.056 12.521-.095 2.002-.025 4.09-.009 6.094.001.141-.085 1.233-.101 2.195-7.178 2.923-15.084 10.637-10.513 18.342 2.301 3.88 6.171 4.118 10.198 4.5 6.117.579 7.692 9.678 11.141 14.176 4.76 6.209 11.656 10.268 18.873 13.012 1.994.758 3.243.76 4.17 2.68.884 1.83 1.245 4.148 1.509 6.146.616 4.661-.07 8.825-1.536 13.178-1.622 4.813-1.845 10.156-3.072 15.093-2.213 8.904-4.641 17.796-6.703 26.732-3.964 17.174-6.685 34.736-9.324 52.103-1.11 7.304-2.781 17.486.241 24.424 2.426 5.571 6.72 9.686 12.145 12.019-1.34 3.003-2.859 5.902-3.87 9.138-1.822 5.837-4.275 11.409-6.616 17.052-4.664 11.244-7.442 23.346-9.872 35.262-2.491 12.217-4.99 24.753-8.669 36.666-1.398 4.526-3.73 8.979-4.718 13.584-.142.662-.2 1.232-.22 1.768-.08-.016-.154-.037-.235-.053-6.899-1.317-16.228 1.689-18.422 9.104-2.288 7.729 3.349 15.372 9.803 18.943 2.917 1.613 5.898 2.914 8.926 4.055-6.046.043-12.041-.109-18.009.492-3.569.358-7.16.381-10.757.354.06-.215.124-.426.169-.651 1.371-6.793-.365-15.184-.694-22.057-.822-17.135-2.078-34.398-.623-51.55.866-10.204.666-20.297.8-30.565.116-8.9.767-17.406-.829-25.976 9.311.014 20.075-.278 24.525-8.636 2.306-4.33 1.774-9.881 2.542-14.606 1.002-6.169 2.102-12.935 1.182-19.167-.8-5.418-3.841-9.449-8.425-12.379-6.402-4.092-14.804-2.845-21.992-3.469-4.915-.426-9.862-.686-14.822-.883 1.2-9.307-2.67-19.881-3.821-28.955-1.46-11.517-4.535-23.176-6.841-34.569-1.947-9.622-2.786-19.729-8.189-28.187-2.544-3.98-5.859-8.049-10.192-10.109-2.138-1.017-3.943-1.609-5.851-2.88 1.442-1.06 2.815-2.206 4.069-3.487 5.789-5.916 9.677-15.045 11.597-22.99 3.666-15.172 4.696-37.246-7.142-49.404.434-1.492.656-3.125.873-4.777.874-6.671.424-13.619.444-20.352.021-6.742-.139-13.519.278-20.208.271-4.342-1.282-7.436-5.404-9.347-4.625-2.145-11.086-2.371-16.121-2.361-7.074.011-14.155-.594-21.191-.545-6.388.045-13.064-.402-19.406.254-7.252.748-15.193-.739-22.312.699-11.696 2.365-8.376 19.449-8.384 27.91-.007 7.833-.005 15.667.003 23.5.004 3.31.149 6.963 2.108 9.629-.626.414-1.272.963-2.039 1.859-2.555 2.988-4.232 6.361-5.095 10.231-1.805 8.095-2.77 16.651-3.014 24.939-.196 6.681 1.987 15.472 5.044 21.425 3.638 7.083 10.414 12.65 17.462 16.248-.64.575-1.259 1.174-1.866 1.713-3.878 3.445-8.181 6.788-11.727 10.577-7.201 7.694-9.948 20.429-12.139 30.444-2.668 12.199-6.069 24.348-9.443 36.371-1.631 5.814-3.47 11.477-4.781 17.377-.364 1.639-.533 3.172-.338 4.552-1.075.175-2.153.326-3.244.396-3.797.242-7.272.545-11.036 1.313-5.395 1.101-11.18 2.736-15.006 6.955-4.277 4.715-6.04 12.021-6.828 18.15-.93 7.232-.392 14.725-.396 22.006-.005 8.668-.158 17.346-.025 26.011.225 14.7-1.261 29.345-1.268 44.075-.008 15.615-.037 30.867 1.892 46.379.788 6.334 1.024 12.313 2.526 18.509.538 2.219.763 4.442 1.143 6.588-.054 11.177-2.501 22.843 1.953 33.052 2.257 5.172 5.813 6.82 11.268 7.727 7.286 1.211 14.822 1.54 22.181 2.154 7.03.586 14.128-.083 21.136-.512 7.943-.486 16.021-.045 23.979-.02 15.975.051 32.206-.786 48.148.092 7.532.414 14.163.813 21.687.121 8.145-.75 16.599-.007 24.78.004 15.535.021 31.032-.553 46.571-.543 14.624.012 29.156-.87 43.788-.674 8.003.107 16.006.101 24.009.096 7.475-.004 14.853.779 22.317.724 16.073-.12 32.131 1.198 48.214 1.211 16.293.013 32.568-.604 48.879-.593 13.614.01 27.158 1.631 40.725 2.004 7.159.197 13.283-.559 19.225-4.881 4.586-3.335 6.343-9.638 7.413-14.955.972-4.828.933-10.247.747-15.18-.234-6.25-3.568-9.492-9.624-10.304zm-55.581-134.385c1.453-.737 2.884-1.19 4.046-.817 1.542.494 2.392 3.527 3.159 4.828 1.221 2.067 2.568 4.058 3.958 6.015 3.671 5.171 6.197 10.788 9.354 16.246 5.651 9.771 12.087 18.974 18.353 28.335 5.518 8.242 12.435 19.898 11.751 30.313-.586 8.938-12.892 14.678-19.339 19.13-4.466 3.083-9.075 6.187-13.913 8.662-3.575 1.829-11.834 6.06-15.717 3.378-3.068-2.117-5.292-8.205-7.174-11.361-3.255-5.462-6.899-10.671-10.155-16.124-9.552-16.001-16.61-31.462-24.617-48.216-1.968-4.118-5.31-8.057-1.803-12.631 1.044-1.36 2.416-2.623 3.916-3.813 3.302-1.498 5.958-3.544 9.078-5.771 2.954-2.107 7.056-4.314 10.355-6.443 4.197-2.708 8.42-6.527 12.982-8.371 1.454-.587 3.635-2.278 5.766-3.36zm27.121 128.92c-2.877 1.478-5.771 1.028-8.598-.481-1.478-.789-2.472-1.977-3.405-3.246 5.525-2.088 10.896-5.271 15.109-7.952 1.812 4.26 1.999 9.059-3.106 11.679zm-71.064-1.86c-.074-3.979-1.962-9.783-5.008-13.541.386-1.035.484-2.17.141-3.211-3.288-9.988-7.644-19.519-10.397-29.706-3.124-11.556-5.981-23.071-8.472-34.792-2.557-12.031-3.801-24.271-5.022-36.492-.522-5.227-1.518-10.346-1.699-15.597-.037-1.065-.102-2.144-.252-3.202a9.945 9.945 0 0 0 .605-1.818c2.212-1.664 4.321-3.981 5.613-6.538.013.591.077 1.183.213 1.769.642 2.759 2.151 3.669 4.108 4.197-2.834 3.688-2.588 7.334.205 12.511 2.389 4.431 5.119 8.659 7.648 13.009 1.734 2.981 3.019 6.682 5.893 8.794.173.128.352.224.528.333-1.88 2.586-3.015 5.472-3.175 9.157-.292 6.692 3.642 12.212 6.269 18.073 5.62 12.538 12.035 24.148 18.42 36.256 3.358 6.367 7.125 12.318 10.877 18.461 3.698 6.053 6.89 14.89 12.431 19.491 3.83 3.181 8.619 3.717 13.608 2.832.555 2.243 1.752 4.199 3.368 5.799-.627-.015-1.254-.036-1.881-.047-17.95-.298-35.895.161-53.836.61.233-2.078-.149-4.387-.185-6.348zm-92.761-4.839c1.378-1.078 2.56-2.64 3.466-4.862 4.099-10.05 7.756-20.438 12.172-30.368 2.23-5.017 3.973-10.275 5.709-15.542 3.768 14.78 9.645 29.145 10.328 44.475-1.561.536-2.957 1.127-4.004 1.674-6.307 3.288-10.914 9.402-11.133 16.471l-19.234-.008c-.864 0-1.73-.01-2.598-.02 3.158-3.378 6.048-7.98 5.294-11.82zm26.934-66.108a77.93 77.93 0 0 1 1.537-3.381c2.81-5.729 6.533-11.158 10.126-16.414 3.499-5.119 6.135-11.007 8.977-16.541 2.495-4.859 5.612-9.01 7.374-14.215.113-.333.246-.656.366-.986.119 3.941.394 7.908.691 11.775.891 11.577 1.588 22.781 3.633 34.248 1.977 11.088 4.614 21.983 7.531 32.851 1.236 4.607 2.813 9.113 4.468 13.585 1.253 3.385 3.437 6.631 3.795 10.295.393 4.015-4.523 5.213-7.951 5.242-6.833.056-14.046-.035-20.605.422-1.349.093-5.408.164-6.391-.656-1.215-1.014-.834-3.862-1.054-5.26a353.837 353.837 0 0 0-1.284-7.709c-.877-4.863-1.917-9.702-3.329-14.44-1.519-5.095-2.396-10.323-3.731-15.436-.64-2.448-1.205-4.894-1.82-7.352-.526-2.099-1.592-4.02-2.333-6.028zm8.537 66.703c2.846-.68 5.786-.655 9.05-.834l25.625-1.408c2.275-.125 8.979-1.461 10.988.057 1.474 1.115 1.441 6.189 1.367 8.003-.087 2.118.25 3.64.707 5.007-10.41.245-20.818.445-31.224.441l-27.445-.012c-1.045-3.955 3.193-7.385 6.091-9.223a15.652 15.652 0 0 1 4.841-2.031zm42.389-132.817c1.908 1.948 2.44 5.534 5.561 6.975.085.04.166.065.25.101.93 2.545 2.233 4.868 3.657 7.42 1.45 2.6 3.284 4.945 4.681 7.57.785 1.476 1.435 2.928 2.26 4.311-.421.217-.835.445-1.243.682-.193.05-.387.107-.58.145-4.33.828-7.158-7.717-9.225-11.106-2.607-4.283-8.242-11.047-5.361-16.098zm37.002-25.21c3.272.182 5.326 4.99 6.938 7.655 2.131 3.522 5.101 7.252 6.591 10.983.619 1.55 1.504 3.967 1.715 5.678a5.41 5.41 0 0 1-.415 2.885c-.783.404-1.573.79-2.379 1.129-.124.053-.248.12-.372.174-2.027-3.295-3.759-7.125-5.411-10.494-1.972-4.021-4.494-6.928-7.174-10.452a2.825 2.825 0 0 0-.341-.364c.013-2.258-.423-4.582-1.254-6.766.675-.282 1.366-.469 2.102-.428zm-2.945 14.474c.095-.139.162-.293.25-.435 1.079 2.198 2.34 4.253 3.352 6.504 1.604 3.569 3.398 7.638 5.479 11.138-4.836 3.014-9.497 6.848-13.558 10.318-2.633 2.249-5.272 4.309-7.8 6.484-3.341-5.126-6.15-10.626-9.597-15.711-.144-.211-.309-.47-.489-.752 1.571-.9 2.958-2.366 4.367-3.852 2.929-3.087 8.422-1.989 11.717-5.377 1.359-1.397 1.147-3.439 2.133-4.725 1.01-1.314 3.047-1.992 4.146-3.592zm-14.988-12.751a37.297 37.297 0 0 0 3.197-4.889c1.786 1.681 3.853 4.081 4.816 6.337.438 1.026.929 3.586.84 4.61-.227 2.604-1.092 2.353-2.75 3.861-1.889 1.72-1.599 3.391-2.764 5.254-2.063 3.3-5.612 1.636-8.567 3.086-2.029.996-3.799 5.606-5.976 4.104-1.633-1.127-1.799-4.172-3.889-5.459-1.841-1.132-3.653-.614-5.533-1.174-.545.01-1.091.012-1.636.005 0-1.644.425-3.118 1.273-4.421.024-.057.049-.104.074-.158 8.13-.934 16.314-5.147 20.915-11.156zm-44.154-79.693c5.984 5.995 10.46 13.287 16.442 19.101 4.867 4.729 8.104 12.828 12.305 18.686 2.529 3.527 4.733 6.947 6.441 10.938 1.875 4.382 4.837 8.769 5.586 13.526 1.495 9.496-6.723 17.898-15.513 19.494-2.042.371-5.01.895-7.151.421-2.938-.649-3.259-2.714-3.692-5.269a58.773 58.773 0 0 0-4.096-13.802c-3.277-7.572-7.448-14.726-12.847-21.009-5.481-6.379-10.696-13.252-16.365-19.447-3.099-3.385-5.506-7.495-8.393-11.135-1.392-1.755-3.195-3.301-4.861-4.936-.012-.02-.026-.037-.038-.057-.952-1.508-1.368-2.936-2.146-4.357-.337-2.537-.602-3.397.49-6.05 1.708-4.149 5.466-5.693 9.695-6.22 9.967-1.237 17.308 3.269 24.143 10.116zm-71.972-61.254c-.494-.246-.964-.505-1.436-.765.402-.074.802-.158 1.194-.257 5.896-1.487 9.664-4.753 13.449-9.175 2.056-2.399.125-6.16-3.129-5.375-1.577.381-2.492 1.203-3.678 2.254-1.806 1.602-3.505 2.91-5.706 4.021-2.341 1.181-4.722 1.991-7.396 1.726-1.447-.143-2.604-.492-3.808-.684a30.08 30.08 0 0 1-2.229-3.188c-2.461-4.065-3.364-8.67-8.2-10.611-2.136-.859-4.698-.43-6.715-1.225-4.819-1.9.058-4.965 2.438-6.291 4.438-2.475 8.176-1.87 8.441-8.084.277-6.496-.405-12.097 1.871-18.43 2.533-7.047 7.447-11.339 13.515-15.344 4.682-3.092 9.973-5.719 15.227-7.717 1.643-.625 3.395-.854 5.057-1.31-2.862 3.374-4.667 7.836-4.761 12.165-.057 2.64.684 5.298 1.711 7.708 1.02 2.394 4.765 5.161 5.091 7.484.053.376-.017.818-.166 1.304a9.88 9.88 0 0 0-1.078 2.406c-.818 1.545-1.77 3.139-1.994 4.277-.716 3.642.204 7.479 2.333 10.511 5.877 8.37 15.31-3.94 22.107-4.367 9.213-.577 10.727 13.198 2.046 14.208-3.55.412-5.672-1.199-8.783-2.406-3.057-1.186-5.692 3.457-3.225 5.539 4.619 3.897 11.099 5.441 16.834 2.8 3.299-1.521 5.541-4.582 6.647-8.014 2.091 1.198 4.122 1.028 5.845.072-.22.999-.452 1.993-.71 2.971-3.009 11.407-10.862 22.36-21.987 27.167-11.986 5.182-27.565 2.236-38.805-3.37zm14.643 13.989c10.18 2.25 21.921 1.147 31.208-3.74.069 4.67-2.781 7.291-7.962 9.038-4.72 1.592-10.205 3.019-15.108 3.886-.692.122-5.968 1.045-6.89.444-1.471-.957-.587-3.075-.603-4.307-.024-1.901-.095-3.698-.645-5.321zm-16.332 121.404c.473-7.258 1.694-14.412 2.533-21.621 1.756-15.09 4.889-30.457 8.444-45.227 2.85-11.837 5.653-24.196 6.532-36.465 3.477.385 7.347-.318 10.193-.958 7.708-1.732 17.05-3.03 23.568-7.849a13.073 13.073 0 0 0 2.571-2.522c.198.542.392 1.066.565 1.556 1.366 3.857 3.68 7.636 5.689 11.168 1.885 3.313 3.828 6.593 5.526 10.02-7.055-2.717-15.023-3.314-22.151-.961-10.793 3.564-14.787 15.256-11.75 24.344 1.267 3.791 4.675 7.628 7.85 11.059 1.368 1.479 2.605 3 3.814 4.559 2.147 3.279 4.389 6.379 6.781 9.58 3.331 4.46 6.257 9.32 9.853 13.572 4.124 4.875 8.476 9.79 11.31 15.615 3.181 6.534 5.063 12.957 6.582 20.012.643 2.986 1.966 5.49 3.973 7.348-2.245 2.27-3.382 5.289-6.589 6.826-3.262 1.564-6.815 2.495-10.368 3.111-3.049.527-5.852.065-8.881.363-7.911.78-15.829.288-23.737-.271-8.866-.626-17.817-2.107-25.912-5.936-7.066-3.342-6.848-10.391-6.396-17.323zm-23.331 137.655c1.078-1.833 2.554-3.531 3.435-5.443 1.119-2.428 1.781-5.224 2.622-7.764a500.548 500.548 0 0 0 12.427-44.26c.929-4.008 1.013-8.092 1.92-12.175 1.05-4.722 2.25-9.414 3.697-14.031 1.699-5.429 3.356-10.902 4.674-16.433.602-2.523 1.63-5.298 2.173-8.041 5.73 1.92 11.387 3.355 17.544 4.092 5.682.682 11.331 1.68 16.824.989.306.017.61.034.906.056 6.377.447 13.293.277 19.627-.526 2.582-.327 5.291-.716 7.979-1.267-.937 1.887-1.846 3.785-2.671 5.723-1.846 4.337-3.797 7.961-6.173 12.011-2.264 3.857-4.638 7.895-6.678 11.854-2.513 4.879-5.279 9.195-8.263 13.846-11.011 17.157-16.72 37.686-23.838 56.668-1.886 5.029-4.533 9.713-6.418 14.725-.462 1.229-.674 3.707-1.506 4.639-1.358 1.52-4.064.145-6.23-.175-4.805-.71-9.634-.732-14.273-2.323-4.514-1.547-8.89-3.486-13.416-4.987-1.516-.503-6.112-1.782-6.344-3.454-.15-1.068 1.458-2.833 1.982-3.724zm-13.366 22.978c-3.17-1.347-8.369-2.68-6.577-7.246 1.314-3.349 5.143-4.676 8.455-4.599 3.47.081 6.793 1.161 10.051 2.263 2.878.974 5.459 2.467 8.235 3.383 7.072 2.336 14.393 4.098 21.557 6.137 1.323.377 2.696.779 3.721 1.696 2.359 2.109.564 4.372-1.356 5.919-8.742 7.037-19.715.506-29.006-2.277-5.189-1.553-10.065-3.145-15.08-5.276zm-70.719-265.203c.07.097.142.188.21.287 5.493 8.057 6.103 18.19 7.915 27.496 2.049 10.521 4.631 21.167 6.248 31.753.815 5.337 1.889 10.64 2.678 15.97.62 4.181.684 8.521 1.513 12.676-5.521-.172-11.041-.348-16.535-.666-.79-.047-1.582-.076-2.373-.115-.625-5.303-1.77-10.793-2.708-15.949-1.035-5.682-1.699-11.344-3.338-16.867-.799-2.695-4.991-2.236-4.964.672.097 10.604 1.019 21.179 1.236 31.776-5.383-.144-10.77-.23-16.152-.392.62-4.052-.604-8.809-.662-12.618-.102-6.62-.995-13.118-.882-19.796.123-7.235-.045-14.48-.104-21.717-.047-5.845.586-12.858-.613-18.916 5.304-.585 10.424-2.01 15.57-4.291 4.901-2.172 10.277-4.796 12.961-9.303zm-45.536 78.836c-.482-3.842-.308-7.736-.323-11.607-.056-14.66-1.392-29.51.262-44.107.376-3.319.624-6.779.557-10.2 2.182.356 4.344.626 6.444.796 1.436.116 2.844.158 4.241.164-1.039 5.635-.52 12.03-.563 17.447-.061 7.631-.002 15.271-.254 22.898-.211 6.373.524 12.558.584 18.865.037 3.852-.507 8.982.354 13.235-2.746-.138-7.479.442-9.976-.694-2.159-.982-1.078-4.818-1.326-6.797zm3.995-73.012c-6.566-.844-14.485-2.643-20.503-5.42-2.821-1.303-6.688-3.287-8.837-5.334a19.232 19.232 0 0 1-.783-.793 64.381 64.381 0 0 0 2.474-2.571c.452-.5 1.054-1.097 1.616-1.751 14.14 5.226 30.474 5.934 44.741 1.708 3.101-.919 6.22-2.043 9.215-3.425.846 1.072 1.836 2.046 2.712 2.884 1.548 1.481 3.218 2.545 4.861 3.612-1.009 1.312-1.909 2.685-3.358 3.766-3.094 2.309-6.917 3.969-10.511 5.316-7.015 2.631-14.242 2.96-21.627 2.008zM73.385 29.643c1.437-1.197 6.477-.217 8.259-.224 3.098-.013 6.254.146 9.346-.023 5.125-.28 10.125-.616 15.289-.641 5.256-.024 10.292.067 15.523.463 5.491.416 11.026-.481 16.483.079 2.271.234 4.726.439 6.969.822 2.683.459 1.835-.039 2.103 1.652.558 3.512.302 7.604.081 11.523-6.739-.363-13.628.022-20.335.016-7.122-.008-14.322.855-21.39.637-6.592-.206-13.145 1.107-19.747.547-4.058-.344-8.912-1.293-13.328-1.035-.373-4.455-1.089-12.287.747-13.816zm18.611 36.515c8.203.056 16.409-.027 24.612-.042 7.591-.013 15.183-.042 22.774-.058 2.328-.004 5.242.152 7.957-.198.05 2.172.051 4.26-.277 6.424-.204 1.343-.396 2.068-.742 2.44-5.172-1.085-10.665-.637-16.052-.17-4.958.1-9.92.365-14.877.609-8.127.08-16.261.118-24.37.77-5.348.431-10.632.24-15.934-.299-2.806-.285-2.075.056-2.293-2.422-.228-2.581-.073-5.293-.012-7.929 5.868 1.893 13.359.834 19.214.875zM72.81 49.173c4.224.651 8.671.649 12.773 1.027 6.773.626 13.393-.653 20.129-.446 6.695.205 13.509-.674 20.256-.682 7.009-.008 14.222.402 21.268.027.003 3.479.004 6.958.027 10.438-3.96.122-7.969.647-11.906.649-7.122.006-14.243-.019-21.365-.031-3.314-.273-6.636-.568-9.977-.585-5.793-.029-11.446-.716-17.227-.667-4.066.034-9.503-.793-13.979-.174.002-3.185.002-6.371.001-9.556zm-7.128 77.175a40.478 40.478 0 0 1-.828-5.025c4.554-1.443 9.693-6.986 11.779-9.519 3.367-4.089 5.316-8.477 7.199-13.388 1.253-3.27 3.076-7.104 1.726-10.555 6.838 4.986 14.495 5.513 23.275 5.474 5.288-.024 10.235.24 15.374-1.116 2.682-.706 5.42-1.055 7.975-2.18 1.872-.825 3.563-1.867 5.377-2.732-.657 3.23-.405 6.57 1.083 9.535.782 3.136 2.113 6.15 3.711 8.738 2.744 4.443 5.943 9.168 11.352 10.027-.389 3.479-1.035 6.918-1.956 10.217-2.526 9.047-7.519 17.893-16.25 22.045-8.234 3.916-17.223 5.905-26.285 5.57-9.413-.348-19.268-1.758-27.677-6.208-8.923-4.719-13.596-11.225-15.855-20.883zM48.88 251.578c1.328-5.631 3.332-11.063 4.604-16.717 2.508-11.15 5.604-22.209 7.596-33.467 1.847-10.44 3.33-22.557 11.313-30.156a222.236 222.236 0 0 1 3.536-3.275c2.875 3.913 7.133 6.514 11.781 8.53 4.296 1.864 9.101 3.382 13.971 4.505-1.682 11.952-2.496 23.973-2.565 36.076-.047 8.137-.11 16.273-.138 24.412-.013 3.785-.442 8.953.774 12.99-4.065-.068-8.135-.018-12.217-.012-2.075.004-4.174-.051-6.279-.109-.145-6.02-.393-12.014.286-18.019.383-3.384 1.627-7.731.784-11.053-.368-1.448-2.85-1.615-3.102 0 .104-.673-.907 1.899-1.124 2.442-1.156 2.891-1.813 6.17-2.443 9.211-1.191 5.76-1.518 11.472-1.645 17.292-2.699.011-5.385.122-8.026.45-6.015.746-12.037 1.178-18.072 1.479.377-1.569.634-3.173.966-4.579zm-35.06 27.521c2.147-6.679 5.984-8.376 12.488-10.007 2.774-.695 5.419-1.09 8.253-1.289 3.737-.265 7.538-1.215 11.25-1.32a259.3 259.3 0 0 0 17.801-1.135c6.572-.641 12.926-.615 19.547-.605 13.701.022 27.197.517 40.841 1.435 12.816.862 25.747.792 38.593 1.145 6.102.167 12.263 1.114 18.372 1.459 6.655.375 13.385.17 20.04.404 6.177.218 14.364.556 15.063 8.107.545 5.89-1.105 12.22-1.857 18.038-.663 5.129.355 8.893-5.859 10.205-5.583 1.182-12.233.282-18.001.67-30.972 2.08-62.165.895-93.192 1.377-14.77.23-29.545-2.117-44.353-1.962-13.556.144-27.102 1.13-40.657 1.271 0-1.836.003-3.672.001-5.508-.004-7.47-.648-15.075 1.67-22.285zm-1.676 43.565.001-4.942c13.558-.14 27.101-1.128 40.66-1.271 14.806-.156 29.589 2.24 44.353 1.963 30.868-.58 61.859.64 92.678-1.389-.301 3.4-.337 6.832-.441 10.246-.169 5.563-.854 11.049-1.057 16.592-.209 5.719-.118 11.34-.618 17.039-.444 5.063-.957 10.275-.961 15.352-.008 10.166-1.134 20.291-.651 30.494.462 9.765 1.264 19.516 1.86 29.266.123 2.009.212 4.298.074 6.301-.16.828-.183 1.331-.075 1.521a7.673 7.673 0 0 1-2.356.578c-2.186.604-4.419 1.05-6.625 1.543-2.515.563-5.076 1.803-7.616 2.133-4.888.635-10.428.037-15.36-.055-4.59-.086-8.916.559-13.432.967-.991.09-1.978.184-2.965.277-6.723-.105-13.549-.402-20.237.068-6.209.436-12.442-.046-18.631.466-5.672.469-11.233 1.208-16.945 1.114-13.459-.221-26.929-.773-40.378-.914-6.075-.063-12.455.575-18.49.109-1.861-.145-6.335-.563-7.751-1.966-1.556-1.542-1.368-5.094-1.653-7.07-1.829-12.679-4.286-25.425-4.579-38.36-.604-26.749 1.181-53.366 1.195-80.062zm459.051 137.759c-.039 2.837-.318 5.381-.737 8.206-.876 5.906-2.024 11.377-8.941 12.479-6.089.969-12.973-.366-19.119-.521-6.525-.164-13.016-.904-19.529-1.201-14.467-.66-29.431-.432-43.871.486-14.989.953-30.43.173-45.419-.584-56.961-2.876-113.948.852-170.956.267-7.641-.078-15.031 1.392-22.688.616-8.42-.853-16.787-.473-25.236-.436-16.806.076-33.75-.541-50.54.163-7.384.31-14.791 1.316-22.206.826-3.794-.251-7.605-.606-11.394-.914-3.493-.282-7.51-.079-10.89-1.087-5.832-1.74-5.26-11.919-5.263-17.154 0-.799-.016-1.601-.033-2.402 3.98 1.6 8.731 2.037 12.585 2.014 8.233-.048 16.453-.506 24.692-.157 29.66 1.255 59.61-.007 89.224-.595 12.98-.258 25.961-.506 38.941-.755 14.19-.272 28.217-1.104 42.443-1.376 16.264-.311 32.582-.541 48.79-.548l23.086-.009c29.715-.012 59.34-.645 89.033-.566 7.427.02 14.805-.893 22.255-.832 7.341.062 14.691-.055 22.03.075 6.559.116 13.081.628 19.659.723 4.249.062 8.5.042 12.748.141 2.703.06 11.54-.813 11.336 3.141z" fill="#000000" opacity="1" data-original="#000000" class=""></path><path d="M511.802 123.814a3.886 3.886 0 0 0-.735-2.122 40.225 40.225 0 0 0-1.861-6.618c-2.804-7.409-12.191-7.947-20.623-7.577-10.357.455-20.471 1.027-30.882 1.024-4.878 0-9.543-.051-14.398-.403-2.557-.187-5.094-.525-7.646-.698-2.078-.141-6.605.382-8.359-.879-2.748-1.973-1.652-7.689-1.663-10.24-.019-4.471.445-9.122-.26-13.561-1.104-6.952-3.764-14.42-9.222-20.064-13.032-13.48-28.666 11.51-34.934 18.101-5.677 5.971-11.182 12.704-15.569 19.347-2.98 3.139-5.79 6.387-8.635 9.613-3.678 4.169-6.881 8.505-10.105 12.891-2.634 3.584-5.16 7.659-3.74 11.896 1.305 3.895 4.918 7.488 7.693 10.805 3.544 4.235 6.567 8.771 9.977 13.083a149.534 149.534 0 0 0 5.092 6.091c4.34 6.503 9.732 13.078 15.289 18.922 6.268 6.59 21.902 31.581 34.934 18.101 5.458-5.646 8.118-13.113 9.222-20.064.705-4.439.241-9.091.26-13.562.01-2.551-1.085-8.268 1.663-10.24 1.754-1.26 6.281-.738 8.359-.879 2.552-.173 5.089-.512 7.646-.697 4.854-.352 9.52-.404 14.398-.404 10.411-.002 20.525.569 30.882 1.025 8.432.37 17.819-.168 20.623-7.578a40.154 40.154 0 0 0 1.861-6.618 3.878 3.878 0 0 0 .735-2.122c.117-2.801.218-5.555.197-8.285.02-2.733-.082-5.487-.199-8.288zm-11.697 13.235c-.133 2.657-.411 9.16-3.688 10.358-3.348 1.223-9.755-.075-13.32-.337-4.73-.347-9.349-.588-14.105-.592-8.977-.007-17.838-.032-26.775.441-6.811.359-17.682-.08-23.041 3.773-5.641 4.057-5.397 11.754-5.257 17.205.192 7.523.675 14.867-1.782 22.238-.741 2.222-3.005 7.44-6.459 6.074-2.846-1.125-5.694-5.912-7.549-7.93a1056.984 1056.984 0 0 1-13.538-14.979c-2.274-2.571-3.849-6.113-5.774-8.969-1.869-2.77-3.843-5.469-5.996-8.024-3.512-4.171-6.681-8.545-9.874-12.862-2.351-3.18-5.333-6.057-7.287-9.418-2.315-3.981 1.464-7.143 3.941-10.658 2.142-3.039 4.382-6.021 6.662-8.991 1.938-2.177 3.705-4.481 5.486-6.718 2.109-2.648 3.474-5.44 5.844-7.966 2.228-2.375 4.363-4.896 6.404-7.372 4.58-5.557 9.195-11.041 14.13-16.406 1.855-2.017 4.703-6.805 7.549-7.93 3.454-1.366 5.718 3.854 6.459 6.074 2.458 7.371 1.975 14.715 1.782 22.238-.14 5.451-.383 13.149 5.257 17.205 5.358 3.854 16.229 3.414 23.041 3.774 8.937.473 17.798.448 26.775.44 4.756-.004 9.375-.246 14.105-.592 3.565-.262 9.972-1.559 13.32-.336 3.278 1.197 3.556 7.7 3.688 10.357.083 1.668.116 3.311.126 4.949a111.61 111.61 0 0 1-.124 4.954z" fill="#000000" opacity="1" data-original="#000000" class=""></path></g></svg>