<svg xmlns="http://www.w3.org/2000/svg" version="1.1" xmlns:xlink="http://www.w3.org/1999/xlink" width="25" height="25" x="0" y="0" viewBox="0 0 512 512" style="enable-background:new 0 0 512 512" xml:space="preserve" class=""><g><g fill-rule="evenodd" clip-rule="evenodd"><path fill="#efc7a4" d="M380.908 327.299c0 20.09 16.285 36.374 36.375 36.374 20.089 0 36.374-16.284 36.374-36.374 0-20.084-16.285-36.369-36.374-36.369-20.09.001-36.375 16.286-36.375 36.369z" opacity="1" data-original="#efc7a4"></path><path fill="#66d4f1" d="M495.98 463.333c0 43.464-157.401 43.464-157.401 0 0-43.463 35.24-78.697 78.703-78.697 43.464-.001 78.698 35.234 78.698 78.697z" opacity="1" data-original="#66d4f1" class=""></path><path fill="#fdcd56" d="M365.049 152.008c-22.989 0-34.523 27.85-18.269 44.104a7.668 7.668 0 0 1 0 10.845l-16.509 16.509a7.67 7.67 0 0 1-10.845 0c-16.255-16.254-44.105-4.72-44.105 18.268a7.667 7.667 0 0 1-7.668 7.668h-23.346a7.667 7.667 0 0 1-7.668-7.668c0-23.016-27.83-34.543-44.105-18.268a7.669 7.669 0 0 1-10.844 0l-16.509-16.509a7.67 7.67 0 0 1 0-10.845c16.254-16.254 4.72-44.104-18.268-44.104a7.667 7.667 0 0 1-7.668-7.668v-23.346a7.667 7.667 0 0 1 7.668-7.668c22.988 0 34.523-27.85 18.268-44.105a7.67 7.67 0 0 1 0-10.845l16.509-16.509a7.669 7.669 0 0 1 10.844 0c16.255 16.255 44.105 4.72 44.105-18.269a7.668 7.668 0 0 1 7.668-7.668h23.346a7.668 7.668 0 0 1 7.668 7.668c0 22.989 27.85 34.523 44.105 18.269a7.67 7.67 0 0 1 10.845 0l16.509 16.509a7.668 7.668 0 0 1 0 10.845c-16.254 16.255-4.72 44.105 18.269 44.105a7.667 7.667 0 0 1 7.668 7.668v23.346a7.668 7.668 0 0 1-7.668 7.668z" opacity="1" data-original="#fdcd56"></path><path fill="#f4f6f8" d="M255.98 75.667c-31.48 0-57 25.52-57 57s25.52 56.999 57 56.999 57.001-25.519 57.001-56.999c-.001-31.48-25.521-57-57.001-57z" opacity="1" data-original="#f4f6f8"></path><path fill="#cad0d7" d="M82.571 340.935h63.95c5.508 0 10-4.492 10-10v-30.004c0-5.508-4.492-10-10-10h-63.95c-5.508 0-10 4.492-10 10v30.004c0 5.508 4.492 10 10 10z" opacity="1" data-original="#cad0d7"></path><path fill="#a9b0bb" d="M41.094 330.281h146.904c5.508 0 10 4.492 10 10V495.93H31.094V340.281c0-5.507 4.492-10 10-10z" opacity="1" data-original="#a9b0bb"></path><g fill="#a4d4ff"><path d="M69.342 495.93h90.409v-46.383c0-5.508-4.492-10-10-10H79.342c-5.508 0-10 4.492-10 10zM79.342 401.929h70.409c5.508 0 10-4.492 10-10V374.49c0-5.508-4.492-10-10-10H79.342c-5.508 0-10 4.492-10 10v17.439c0 5.508 4.492 10 10 10z" fill="#a4d4ff" opacity="1" data-original="#a4d4ff"></path></g><path d="M288.836 109.291a6.993 6.993 0 0 1 0 9.9l-36.849 36.849a6.97 6.97 0 0 1-4.941 2.052 6.959 6.959 0 0 1-4.95-2.052l-23.514-23.504a7.004 7.004 0 0 1 0-9.896c2.743-2.734 7.171-2.734 9.901 0l18.563 18.549 31.889-31.899c2.74-2.733 7.172-2.733 9.901.001zM269.695 9.068h-27.412c-7.131.992-12.638 7.13-12.638 14.531 0 9.26-6.009 15.053-11.632 17.382-5.628 2.329-13.966 2.489-20.521-4.065a14.565 14.565 0 0 0-10.366-4.296c-3.92 0-7.599 1.525-10.371 4.296l-16.512 16.512c-5.717 5.717-5.717 15.025 0 20.742 6.55 6.55 6.39 14.893 4.061 20.521-2.329 5.623-8.117 11.632-17.378 11.632-8.093 0-14.672 6.583-14.672 14.672v23.344c0 8.089 6.578 14.667 14.672 14.667 9.26 0 15.048 6.014 17.378 11.637 2.329 5.623 2.489 13.971-4.061 20.521a14.595 14.595 0 0 0-4.301 10.371 14.58 14.58 0 0 0 4.301 10.371l16.512 16.512c2.771 2.772 6.451 4.296 10.371 4.296s7.599-1.524 10.366-4.296c6.564-6.564 14.912-6.414 20.535-4.084 5.618 2.329 11.618 8.122 11.618 17.401 0 8.089 6.578 14.667 14.667 14.667h23.353c8.089 0 14.672-6.578 14.672-14.667 0-9.26 6.009-15.053 11.627-17.382 5.628-2.329 13.97-2.485 20.521 4.061a14.548 14.548 0 0 0 10.366 4.301c3.924 0 7.604-1.524 10.385-4.296l16.497-16.507a14.577 14.577 0 0 0 4.301-10.376c0-3.915-1.52-7.599-4.301-10.371-6.55-6.55-6.39-14.898-4.061-20.521s8.121-11.637 17.382-11.637c8.089 0 14.667-6.578 14.667-14.667v-23.344c0-8.089-6.578-14.672-14.667-14.672-9.26 0-15.053-6.009-17.382-11.632-2.329-5.628-2.489-13.971 4.061-20.521 2.781-2.771 4.301-6.451 4.301-10.371s-1.52-7.604-4.301-10.371l-16.497-16.512a14.592 14.592 0 0 0-10.385-4.296 14.579 14.579 0 0 0-10.366 4.296c-6.55 6.55-14.893 6.395-20.521 4.065-5.619-2.329-11.627-8.122-11.627-17.382.001-7.401-5.509-13.54-12.642-14.532zm-13.699 173.596c27.57 0 50.001-22.431 50.001-49.996 0-27.574-22.431-50.001-50.001-50.001-27.569 0-50.001 22.427-50.001 50.001.001 27.565 22.432 49.996 50.001 49.996zm0-113.995c-35.291 0-64 28.708-64 64 0 35.287 28.708 64 64 64 35.287 0 64-28.713 64-64 0-35.292-28.713-64-64-64zm32.61 142.746c12.512-5.181 26.219-2.461 35.781 7.101a.68.68 0 0 0 .951 0l16.507-16.512a.628.628 0 0 0 .193-.471.63.63 0 0 0-.193-.471c-9.557-9.562-12.277-23.269-7.1-35.781 5.181-12.503 16.794-20.276 30.313-20.276a.67.67 0 0 0 .668-.668v-23.344a.667.667 0 0 0-.668-.668c-13.519 0-25.132-7.769-30.313-20.281-5.176-12.507-2.456-26.214 7.1-35.776.132-.127.193-.287.193-.471s-.061-.344-.193-.475l-16.507-16.507a.68.68 0 0 0-.951 0c-9.561 9.562-23.269 12.281-35.781 7.101-12.502-5.181-20.271-16.799-20.271-30.318a.667.667 0 0 0-.668-.668h-23.353a.667.667 0 0 0-.668.668c0 13.519-7.769 25.137-20.271 30.318-12.507 5.181-26.219 2.461-35.776-7.101a.678.678 0 0 0-.95 0l-16.502 16.507a.657.657 0 0 0 0 .946c9.561 9.562 12.281 23.269 7.091 35.776-5.181 12.512-16.789 20.281-30.308 20.281a.669.669 0 0 0-.673.668v23.344c0 .367.301.668.673.668 13.519 0 25.128 7.773 30.308 20.276 5.19 12.512 2.47 26.219-7.091 35.781-.127.127-.198.287-.198.471s.071.344.198.471l16.502 16.512a.678.678 0 0 0 .95 0c6.357-6.362 14.559-9.698 23.01-9.698 4.259 0 8.578.847 12.766 2.579 12.512 5.181 20.271 16.808 20.271 30.336a.67.67 0 0 0 .668.668h23.353a.67.67 0 0 0 .668-.668c-.001-13.519 7.768-25.132 20.271-30.318zM84.123 267.392a177.398 177.398 0 0 1-.047-22.201 7 7 0 0 1 7.42-6.555c3.859.235 6.79 3.557 6.559 7.416a159.688 159.688 0 0 0 .043 20.417c.259 3.854-2.664 7.19-6.522 7.444a7.005 7.005 0 0 1-7.453-6.521zm165.944 153.922c-.292 3.661-3.36 6.432-6.973 6.432-.188 0-.376-.005-.57-.023a174.635 174.635 0 0 1-17.589-2.353 156.805 156.805 0 0 1-4.357-.847c-.014 0-.014-.005-.024-.005-.132-.028-.259-.066-.391-.104-.089-.028-.188-.047-.287-.075a6.037 6.037 0 0 1-.353-.137c-.108-.037-.207-.07-.31-.113-.108-.047-.207-.103-.311-.155-.099-.052-.207-.094-.306-.151-.104-.056-.193-.118-.292-.179s-.198-.118-.292-.183c-.09-.066-.179-.137-.268-.207-.09-.071-.179-.136-.268-.207a3.458 3.458 0 0 1-.23-.221c-.089-.08-.183-.155-.259-.245-.071-.071-.141-.155-.212-.231-.08-.089-.16-.179-.24-.273-.061-.08-.118-.165-.179-.249-.071-.099-.141-.193-.212-.297-.061-.085-.108-.179-.16-.268-.061-.104-.122-.202-.179-.311-.052-.089-.089-.188-.132-.282-.047-.108-.108-.217-.151-.325-.037-.104-.071-.202-.108-.301-.042-.113-.08-.221-.122-.339-.028-.108-.047-.221-.08-.334-.028-.108-.056-.216-.08-.324a4.602 4.602 0 0 1-.047-.367 2.403 2.403 0 0 1-.052-.311c-.009-.132-.009-.268-.019-.4 0-.099-.01-.193-.01-.287 0-.146.019-.287.028-.433 0-.09 0-.179.009-.268.019-.146.043-.292.071-.437.009-.09.019-.179.043-.268V416.222c.028-.132.066-.254.099-.381.028-.099.052-.202.089-.306.028-.118.08-.23.132-.348.038-.099.066-.207.108-.311.061-.118.118-.235.179-.353.042-.089.08-.179.132-.264.08-.141.16-.268.249-.4.037-.061.071-.122.113-.179.099-.151.217-.292.325-.428.033-.038.052-.075.085-.108.127-.155.268-.297.409-.438.019-.019.038-.037.047-.056.16-.146.32-.287.48-.419.009-.009.023-.019.033-.028.169-.132.339-.254.508-.367.009-.009.019-.019.028-.023.184-.113.362-.216.541-.315a.132.132 0 0 1 .042-.024c.169-.094.348-.169.527-.245.033-.014.052-.028.08-.042.16-.066.329-.118.489-.174.052-.014.104-.037.151-.052.15-.042.301-.075.452-.113.07-.014.141-.037.212-.047.137-.028.268-.042.409-.061.09-.014.179-.033.268-.038.122-.014.24-.014.362-.019.108-.004.216-.014.339-.014.108 0 .216.014.329.019.118.005.24.009.367.019.132.014.263.042.381.061.113.019.212.028.32.052a162.85 162.85 0 0 0 15.35 2.427c.254.028.503.066.743.118 1.369.151 2.748.292 4.117.405 3.867.312 6.737 3.69 6.417 7.544zm177.836-176.123a174.77 174.77 0 0 1-.047 22.201c-.24 3.699-3.322 6.536-6.983 6.536-.146 0-.306-.005-.466-.014-3.854-.254-6.771-3.59-6.522-7.444.447-6.771.461-13.637.038-20.417-.226-3.858 2.701-7.18 6.56-7.416 3.853-.231 7.18 2.701 7.42 6.554zM296.647 416.472c.776 3.788-1.652 7.491-5.444 8.272a170.87 170.87 0 0 1-24.737 3.261 6.553 6.553 0 0 1-.409.014c-3.68 0-6.771-2.875-6.983-6.597-.231-3.859 2.72-7.167 6.583-7.392a157.729 157.729 0 0 0 22.718-2.993c3.779-.785 7.482 1.652 8.272 5.435zm89.25-250.912a7.001 7.001 0 0 1 1.736-9.745 6.991 6.991 0 0 1 9.74 1.736 171.005 171.005 0 0 1 10.442 16.992c1.83 3.402.551 7.646-2.852 9.477a7.002 7.002 0 0 1-3.308.838 7.005 7.005 0 0 1-6.169-3.689 161.917 161.917 0 0 0-9.589-15.609zm23.179 27.664c3.628-1.318 7.651.569 8.96 4.202a171.416 171.416 0 0 1 6.738 24.031 6.99 6.99 0 0 1-6.86 8.394 7.006 7.006 0 0 1-6.856-5.604 157.591 157.591 0 0 0-6.193-22.064 7 7 0 0 1 4.211-8.959zm-304.913-18.681a172.064 172.064 0 0 1 10.442-16.992 6.996 6.996 0 0 1 9.74-1.736c3.181 2.207 3.953 6.574 1.741 9.745a160.573 160.573 0 0 0-9.59 15.608 6.99 6.99 0 0 1-9.473 2.851c-3.405-1.83-4.69-6.074-2.86-9.476zm229.451 235.426a172.642 172.642 0 0 1-18.3 7.915 6.923 6.923 0 0 1-2.4.428 7.009 7.009 0 0 1-6.578-4.597c-1.322-3.633.541-7.651 4.169-8.978a158.86 158.86 0 0 0 16.817-7.275 7.006 7.006 0 0 1 9.402 3.11 7.007 7.007 0 0 1-3.11 9.397zM87.205 221.457a170.964 170.964 0 0 1 6.743-24.031c1.318-3.633 5.327-5.515 8.955-4.202a6.996 6.996 0 0 1 4.211 8.959 157.955 157.955 0 0 0-6.188 22.064 7.012 7.012 0 0 1-8.263 5.463 6.994 6.994 0 0 1-5.458-8.253zM76.354 371.488h76.413v23.443H76.354zm-6.997 37.442h90.407a7.004 7.004 0 0 0 7.002-7.002v-37.437a7.004 7.004 0 0 0-7.002-7.002H69.357a6.998 6.998 0 0 0-7.002 7.002v37.437a6.998 6.998 0 0 0 7.002 7.002zm38.199 80.003H76.354v-42.387h31.202zm13.999-42.388h31.212v42.387h-31.212zM38.107 337.279v151.654h24.248v-49.384a6.998 6.998 0 0 1 7.002-7.002h90.407a7.004 7.004 0 0 1 7.002 7.002v49.384h24.243V337.279zm41.479-39.348h69.948v25.349H79.586zm133.538 191.002h-8.117V330.281a7 7 0 0 0-7.002-7.002h-34.468v-32.35c0-3.863-3.143-7.002-7.002-7.002h-83.95a7 7 0 0 0-6.997 7.002v32.35H31.106a7 7 0 0 0-7.002 7.002v158.651h-8.108c-3.872 0-7.002 3.134-7.002 6.997a7 7 0 0 0 7.002 7.002h197.128a7.007 7.007 0 0 0 7.002-7.002c0-3.862-3.138-6.996-7.002-6.996zm275.871-25.603c0 14.356-31.499 25.602-71.698 25.602-40.213 0-71.712-11.246-71.712-25.602 0-39.531 32.172-71.693 71.712-71.693.136 0 .287-.01.428-.019a76.552 76.552 0 0 1 4.499-.136c17.199 0 33.08 6.197 45.121 17.707 14.102 13.472 21.989 33.165 21.65 54.029zm-11.98-64.268c-15.891-15.18-37.169-22.793-59.939-21.429-47.159.118-85.49 38.515-85.49 85.697 0 9.251 5.068 22.139 29.179 31.019 15.029 5.534 35.099 8.583 56.532 8.583 42.618 0 85.626-12.229 85.697-39.54.39-24.733-9.077-48.181-25.979-64.33zm-30.351-71.764c0 16.197-13.18 29.372-29.367 29.372-16.201 0-29.381-13.175-29.381-29.372 0-16.196 13.18-29.367 29.381-29.367 16.187 0 29.367 13.171 29.367 29.367zm-72.747 0c0 23.918 19.457 43.375 43.38 43.375 23.909 0 43.371-19.457 43.371-43.375 0-23.913-19.462-43.371-43.371-43.371-23.923 0-43.38 19.458-43.38 43.371z" fill="#000000" opacity="1" data-original="#000000"></path></g></g></svg>