<svg xmlns="http://www.w3.org/2000/svg" version="1.1" xmlns:xlink="http://www.w3.org/1999/xlink" width="25" height="25" x="0" y="0" viewBox="0 0 64 64" style="enable-background:new 0 0 512 512" xml:space="preserve" class=""><g><path fill="#aab2bd" d="M38 30h8v8h-8z" opacity="1" data-original="#aab2bd"></path><path fill="#e6e9ed" d="M60 22v16c0 1.1-.9 2-2 2H48c-1.1 0-2-.9-2-2v-8h4.44c.92 0 1.72-.62 1.94-1.51L54 22z" opacity="1" data-original="#e6e9ed"></path><path fill="#ccd1d9" d="M38 38v10h-4V22h4v12zM62 19v2c0 .55-.45 1-1 1H33c-.55 0-1-.45-1-1v-2c0-.55.45-1 1-1h28c.55 0 1 .45 1 1z" opacity="1" data-original="#ccd1d9"></path><path fill="#ffeaa7" d="M8 36h20v10c0 1.1-.9 2-2 2H10c-1.1 0-2-.9-2-2z" opacity="1" data-original="#ffeaa7"></path><path fill="#fcd770" d="M9.99 32H29c.55 0 1 .45 1 1v2c0 .55-.45 1-1 1H7c-.55 0-1-.45-1-1v-2c0-.55.45-1 1-1z" opacity="1" data-original="#fcd770"></path><path fill="#969faa" d="M9.49 15.8 16.53 32H9.99L3.92 18.03z" opacity="1" data-original="#969faa"></path><path fill="#aab2bd" d="m7.75 11.8 1.74 4-5.57 2.23-1.67-3.83c-.66-1.52.04-3.29 1.55-3.95.38-.17.78-.25 1.2-.25 1.19 0 2.27.71 2.75 1.8z" opacity="1" data-original="#aab2bd"></path><path fill="#b27946" d="M22 18h4v14h-4z" opacity="1" data-original="#b27946"></path><path fill="#dfb28b" d="M24 14h4.88c-.33.55-.69 1.08-1.08 1.6L26 18h-4l-1.8-2.4c-.39-.52-.75-1.05-1.08-1.6H22z" opacity="1" data-original="#dfb28b"></path><path fill="#cf9e76" d="M24 14V2h4c0 3.97-.64 7.92-1.9 11.69L26 14zM24 2v12h-2l-.1-.31C20.64 9.92 20 5.97 20 2z" opacity="1" data-original="#cf9e76"></path><path fill="#cf9e76" d="M20 2c0 3.97.64 7.92 1.9 11.69l.1.31h-2.88c-.85-1.37-1.54-2.84-2.04-4.36C16.37 7.51 16 5.27 16 3c0-.55.45-1 1-1zM32 3c0 3.89-1.08 7.7-3.12 11H26l.1-.31C27.36 9.92 28 5.97 28 2h3c.55 0 1 .45 1 1z" opacity="1" data-original="#cf9e76"></path><path fill="#fcd770" d="M44.42 12.21A6.487 6.487 0 0 1 48 18H36c0-2.45 1.39-4.69 3.58-5.79L40 12h4zM40 8h4v4h-4z" opacity="1" data-original="#fcd770"></path><path fill="#ff826e" d="M46 5v2c0 .55-.45 1-1 1h-6c-.55 0-1-.45-1-1V5c0-.55.45-1 1-1h6c.55 0 1 .45 1 1z" opacity="1" data-original="#ff826e"></path><path fill="#e6e9ed" d="M56.42 12.21A6.487 6.487 0 0 1 60 18H48c0-2.45 1.39-4.69 3.58-5.79L52 12h4z" opacity="1" data-original="#e6e9ed"></path><path fill="#ccd1d9" d="M52 8h4v4h-4z" opacity="1" data-original="#ccd1d9"></path><path fill="#4fc1e9" d="M58 5v2c0 .55-.45 1-1 1h-6c-.55 0-1-.45-1-1V5c0-.55.45-1 1-1h6c.55 0 1 .45 1 1z" opacity="1" data-original="#4fc1e9"></path><path fill="#aab2bd" d="M24 48h20c-1.25 1.67-2 3.75-2 6H3c-.55 0-1-.45-1-1v-4c0-.55.45-1 1-1h15z" opacity="1" data-original="#aab2bd"></path><path fill="#aab2bd" d="M62 54H42c0-2.25.75-4.33 2-6a9.99 9.99 0 0 1 8-4c5.52 0 10 4.48 10 10z" opacity="1" data-original="#aab2bd"></path><path fill="#ccd1d9" d="M10 54.54V56c0 .55-.22 1.05-.59 1.41-.36.37-.86.59-1.41.59-1.1 0-2-.9-2-2v-2h4zM48 54h8c0 2.21-1.79 4-4 4s-4-1.79-4-4z" opacity="1" data-original="#ccd1d9"></path><path fill="#838f9b" d="M10 54.54A3.999 3.999 0 0 1 8 62a3.999 3.999 0 0 1-2-7.46V56c0 1.1.9 2 2 2 .55 0 1.05-.22 1.41-.59.37-.36.59-.86.59-1.41zM56 54h4c0 4.42-3.58 8-8 8s-8-3.58-8-8h4c0 2.21 1.79 4 4 4s4-1.79 4-4z" opacity="1" data-original="#838f9b"></path><path d="M45.184 39A2.996 2.996 0 0 0 48 41h10c1.654 0 3-1.346 3-3V23c1.103 0 2-.897 2-2v-2c0-1.103-.897-2-2-2h-.069A7.413 7.413 0 0 0 57 11.394V9c1.103 0 2-.897 2-2V5c0-1.103-.897-2-2-2h-6c-1.103 0-2 .897-2 2v2c0 1.103.897 2 2 2v2.393a7.437 7.437 0 0 0-3 2.883 7.437 7.437 0 0 0-3-2.883V9c1.103 0 2-.897 2-2V5c0-1.103-.897-2-2-2h-6c-1.103 0-2 .897-2 2v2c0 1.103.897 2 2 2v2.393A7.416 7.416 0 0 0 35.069 17H33c-1.103 0-2 .897-2 2v2c0 1.103.897 2 2 2v24h-4.184c.112-.314.184-.648.184-1v-9c1.103 0 2-.897 2-2v-2c0-1.103-.897-2-2-2h-2V18.333l1.6-2.133A22.133 22.133 0 0 0 33 3c0-1.103-.897-2-2-2H17c-1.103 0-2 .897-2 2a22.14 22.14 0 0 0 4.4 13.2l1.6 2.133V31h-3.812l-8.52-19.596a3.998 3.998 0 0 0-7.388.131 3.972 3.972 0 0 0 .052 3.061L8.465 31H7c-1.103 0-2 .897-2 2v2c0 1.103.897 2 2 2v9c0 .352.072.686.184 1H3c-1.103 0-2 .897-2 2v4c0 1.103.897 2 2 2h1.006A5.007 5.007 0 0 0 3 58c0 2.757 2.243 5 5 5s5-2.243 5-5a5.007 5.007 0 0 0-1.006-3h31.065c.5 4.493 4.317 8 8.941 8s8.441-3.507 8.941-8H63v-1c0-6.065-4.935-11-11-11-3.409 0-6.46 1.559-8.479 4H39v-8zm7.535-16-1.31 5.242a1 1 0 0 1-.971.758H39v-6zM39 31h6v2h-6zm0 4h6v2h-6zm20 3c0 .551-.449 1-1 1H48c-.551 0-1-.449-1-1v-7h3.438a2.998 2.998 0 0 0 2.911-2.272L54.781 23H59zM51 5h6l.001 2H51zm4 4v2h-2V9zm-2.976 4.105.212-.105h3.528l.211.105A5.43 5.43 0 0 1 58.898 17h-9.796a5.432 5.432 0 0 1 2.922-3.895zM39 5h6l.001 2H39zm4 4v2h-2V9zm-2.976 4.105.212-.105h3.528l.211.105A5.43 5.43 0 0 1 46.898 17h-9.796a5.432 5.432 0 0 1 2.922-3.895zM33 19h28l.001 2H33zm-7.5-2h-3L21 15h6zm-.5-4V3h1.98a35.87 35.87 0 0 1-1.709 10zm-2 0h-.271A35.87 35.87 0 0 1 21.02 3H23zm5.299 0h-.934A37.887 37.887 0 0 0 28.98 3H31c0 3.502-.957 6.972-2.701 10zM19.02 3c.089 3.396.63 6.75 1.615 10h-.934C17.957 9.972 17 6.502 17 3zM23 19h2v12h-2zM3.141 12.267a1.99 1.99 0 0 1 1.063-1.103c.972-.427 2.202.053 2.63 1.037l1.329 3.056-3.715 1.486-1.281-2.947a1.978 1.978 0 0 1-.026-1.529zm2.104 6.312 3.715-1.486L15.007 31h-4.361zM7 33h22l.001 2H7zm2 13v-9h18v9c0 .551-.449 1-1 1h-1v-8h-2v8h-4v-8h-2v8h-4v-8h-2v8h-1c-.551 0-1-.449-1-1zm-2 9h2v1c0 .551-.449 1-1 1s-1-.449-1-1zm1 6c-1.654 0-3-1.346-3-3 0-.343.078-.67.189-.985C5.607 58.169 6.704 59 8 59s2.393-.831 2.811-1.985c.111.315.189.642.189.985 0 1.654-1.346 3-3 3zm44 0c-3.519 0-6.432-2.613-6.92-6h2.021c.465 2.279 2.484 4 4.899 4s4.434-1.721 4.899-4h2.021c-.488 3.387-3.401 6-6.92 6zm-2.816-6h5.631c-.414 1.161-1.514 2-2.816 2s-2.401-.839-2.815-2zM52 45c4.625 0 8.446 3.506 8.945 8h-17.89c.499-4.494 4.32-8 8.945-8zm-10.955 8H3v-4h39.204a10.894 10.894 0 0 0-1.159 4zM35 47V23h2v24z" fill="#000000" opacity="1" data-original="#000000" class=""></path></g></svg>