<svg xmlns="http://www.w3.org/2000/svg" version="1.1" xmlns:xlink="http://www.w3.org/1999/xlink" width="512" height="512" x="0" y="0" viewBox="0 0 64 64" style="enable-background:new 0 0 512 512" xml:space="preserve" class=""><g><g fill="none" stroke="#231f20" stroke-miterlimit="10" stroke-width="1.5"><path stroke-linecap="round" stroke-linejoin="round" d="M25.4 49.4h-11c-1 0-2-.4-2.7-1.1l-6.5-6.5c-.7-.7-1.2-1.7-1.2-2.7V4.9C4 2.7 5.8 1 7.9 1h27c2.1 0 3.9 1.7 3.9 3.9v16.7" fill="" opacity="1"></path><path stroke-linecap="round" stroke-linejoin="round" d="M13.8 46.5v-4.9c0-1.1-.9-1.9-1.9-1.9H7M11.3 23.9h6.1M11.3 20.1h20.3M11.3 16.3h20.3M11.3 12.4h20.3M11.3 8.6h20.3" fill="" opacity="1"></path><path d="M51.2 63H32.5c-1.8 0-3.2-1.4-3.2-3.2V28.4c0-1.8 1.4-3.2 3.2-3.2h18.7c1.8 0 3.2 1.4 3.2 3.2v31.5c0 1.7-1.5 3.1-3.2 3.1z" fill="" opacity="1"></path><path d="M51.6 36.9v-8.7c0-.1-.1-.2-.2-.2H32.2c-.1 0-.2.1-.2.2v8.7z" fill="" opacity="1"></path><path stroke-linecap="round" stroke-linejoin="round" d="M32 39.7h3.3V43H32zM37.5 39.7h3.3V43h-3.3zM42.9 39.7h3.3V43h-3.3zM48.3 39.7h3.3V43h-3.3zM32 45.5h3.3v3.3H32zM37.5 45.5h3.3v3.3h-3.3zM42.9 45.5h3.3v3.3h-3.3zM48.3 45.5h3.3v3.3h-3.3zM32 51.2h3.3v3.3H32zM37.5 51.2h3.3v3.3h-3.3zM42.9 51.2h3.3v3.3h-3.3zM32 57h3.3v3.3H32zM37.5 57h3.3v3.3h-3.3zM42.9 57h3.3v3.3h-3.3zM48.3 51.2h3.3v9h-3.3z" fill="" opacity="1"></path><circle cx="52.2" cy="12.4" r="7.7" stroke-linecap="round" stroke-linejoin="round" fill="" opacity="1"></circle><circle cx="52.2" cy="12.4" r="4.8" stroke-linecap="round" stroke-linejoin="round" fill="" opacity="1"></circle></g><path fill="#000000" d="M52.9 13.4c0-.2 0-.3-.1-.4s-.2-.2-.5-.3c-.2-.1-.4-.2-.6-.2s-.3-.2-.4-.3-.2-.2-.3-.4c-.1-.1-.1-.3-.1-.5 0-.3.1-.6.3-.8s.5-.3.9-.4v-.6h.5v.7c.4.1.6.2.8.4s.3.6.3 1h-.9c0-.2 0-.4-.1-.5s-.2-.2-.4-.2-.3 0-.4.1-.1.2-.1.4 0 .3.1.4.3.2.5.3l.6.3c.2.1.3.2.4.3s.2.2.2.4c.1.1.1.3.1.5 0 .3-.1.6-.3.8s-.5.3-.9.4v.6H52v-.6c-.4 0-.7-.2-1-.4s-.3-.6-.3-1h.9c0 .2.1.4.2.6s.3.2.5.2.3 0 .4-.1.2-.5.2-.7z" opacity="1" data-original="#231f20"></path></g></svg>