<svg xmlns="http://www.w3.org/2000/svg" version="1.1" xmlns:xlink="http://www.w3.org/1999/xlink" width="25" height="25" x="0" y="0" viewBox="0 0 35307 35309" style="enable-background:new 0 0 512 512" xml:space="preserve" fill-rule="evenodd" class=""><g><path fill="#27afb7" fill-rule="nonzero" d="m11173 22240-66 4-66-4H7295v10862h20718V22240h-3017l-66 4-66-4zM4412 9412v25345c0 304-248 552-552 552s-552-248-552-552V9750L832 11228c-260 156-598 70-754-190s-70-598 190-754l3137-1872c26-19 53-35 82-49L17371 77c179-108 396-100 564 1v-1l13884 8286c29 14 57 30 82 49l3137 1872c260 156 345 494 190 754-156 260-494 345-754 190l-2476-1478v25007c0 304-248 552-552 552s-552-248-552-552V9412H4411zm25169-1104L17653 1190 5725 8308h23855zm-16108 6514c0-304 245-552 546-552s546 248 546 552v5008c0 304-245 552-546 552s-546-248-546-552zm3637 0c0-304 245-552 546-552s546 248 546 552v5008c0 304-245 552-546 552s-546-248-546-552zm3637 0c0-304 245-552 546-552s546 248 546 552v5008c0 304-245 552-546 552s-546-248-546-552zm-10192 6314v-8177c0-304 248-552 552-552h13822c304 0 552 248 552 552v8176h3083c304 0 552 248 552 552v11965c0 304-248 552-552 552H6743c-304 0-552-248-552-552V21687c0-304 248-552 552-552h3812zm13823 0v-7625H11659v7625zM9829 23539c0-304 248-552 552-552s552 248 552 552v8263c0 304-248 552-552 552s-552-248-552-552zm14550 0c0-304 248-552 552-552s552 248 552 552v8263c0 304-248 552-552 552s-552-248-552-552zm-3637 0c0-304 248-552 552-552s552 248 552 552v8263c0 304-248 552-552 552s-552-248-552-552zm-3637 0c0-304 248-552 552-552s552 248 552 552v8263c0 304-248 552-552 552s-552-248-552-552zm-3637 0c0-304 248-552 552-552s552 248 552 552v8263c0 304-248 552-552 552s-552-248-552-552z" opacity="1" data-original="#27afb7"></path></g></svg>