
<svg fill="none" width="14" height="14" xmlns="http://www.w3.org/2000/svg" viewBox="0 0 14 14"><path d="M7 14c3.866 0 7-3.134 7-7s-3.134-7-7-7-7 3.134-7 7 3.134 7 7 7z" fill="#FFE17D"/><path d="M13.5 7c0 3.5899-2.9101 6.5-6.5 6.5S.5 10.5899.5 7 3.4101.5 7 .5s6.5 2.9101 6.5 6.5z" stroke="#000" stroke-opacity=".16"/><path opacity=".9" d="M11.8455 3.6197L9.4128 5.0884 7.08 2.0395A.1003.1003 0 006.9995 2a.1024.1024 0 00-.0807.0395l-2.3314 3.049-2.434-1.4688c-.0712-.0429-.1637.0147-.1525.0968l.9551 7.112a.2018.2018 0 00.2.1715h7.6894c.1 0 .1863-.0735.1988-.1715l.955-7.112c.01-.0821-.0812-.1397-.1537-.0968zM7.0001 9.2263c-.7763 0-1.4076-.6186-1.4076-1.3793 0-.7607.6313-1.3793 1.4076-1.3793s1.4076.6186 1.4076 1.3793c0 .7607-.6313 1.3793-1.4076 1.3793zm0-1.971c-.3325 0-.6026.2646-.6026.5917 0 .3258.27.5916.6026.5916.3325 0 .6025-.2645.6025-.5916 0-.3259-.27-.5917-.6025-.5917z" fill="#000" fill-opacity=".9"/></svg>