<svg xmlns="http://www.w3.org/2000/svg" version="1.1" xmlns:xlink="http://www.w3.org/1999/xlink" width="25" height="25" x="0" y="0" viewBox="0 0 512 512" style="enable-background:new 0 0 512 512" xml:space="preserve" class=""><g><path fill="#a3d4ff" d="M512 256c0 141.387-114.613 256-256 256S0 397.387 0 256 114.613 0 256 0s256 114.613 256 256zm0 0" opacity="1" data-original="#a3d4ff"></path><path fill="#65b1fc" d="m507.734 302.7-62.082-62.087-11.668 2.918-34.41-34.414-4.476 5.528-92.325-92.325-13.609 10.758-63.383-63.383L81.5 213.977l59.172 59.171-6.543 17.82 80.098 80.095-28 26.855 35.246 35.246-3.75 10.832 66.453 66.453C396.8 498.117 487.449 412.742 507.734 302.7zm0 0" opacity="1" data-original="#65b1fc" class=""></path><path fill="#555a66" d="M320 213.977v-50.063h-27.32a94.79 94.79 0 0 0-9.227-22.273l19.32-19.317-35.402-35.402-19.32 19.32a94.527 94.527 0 0 0-22.27-9.226v-27.32H175.72v27.32a94.624 94.624 0 0 0-22.274 9.226l-19.316-19.32-35.402 35.402 19.32 19.317a94.635 94.635 0 0 0-9.23 22.273H81.5v50.063h27.32a94.527 94.527 0 0 0 9.227 22.27l-19.32 19.32 35.402 35.402 19.316-19.32a94.79 94.79 0 0 0 22.274 9.226v27.32h50.062v-27.32a94.624 94.624 0 0 0 22.274-9.227l19.316 19.32 35.402-35.402-19.32-19.32a94.692 94.692 0 0 0 9.227-22.27zm-119.25 25.03c-27.648 0-50.063-22.413-50.063-50.062 0-27.648 22.415-50.062 50.063-50.062s50.063 22.414 50.063 50.062c0 27.649-22.415 50.063-50.063 50.063zm0 0" opacity="1" data-original="#555a66" class=""></path><path fill="#333940" d="M320 213.977v-50.063h-27.32a94.79 94.79 0 0 0-9.227-22.273l19.32-19.317-35.402-35.402-19.32 19.32a94.527 94.527 0 0 0-22.27-9.226v-27.32h-24.949v69.187c27.61.043 49.98 22.437 49.98 50.062 0 27.621-22.37 50.016-49.98 50.063v69.187h24.95v-27.32a94.692 94.692 0 0 0 22.269-9.227l19.32 19.317 35.402-35.399-19.32-19.32a94.76 94.76 0 0 0 9.227-22.27zm0 0" opacity="1" data-original="#333940"></path><path fill="#f24500" d="M328.96 397.918v-29.961h-16.35a56.519 56.519 0 0 0-5.52-13.328l11.562-11.563-21.187-21.183-11.563 11.558a56.519 56.519 0 0 0-13.328-5.52v-16.35h-29.96v16.35a56.519 56.519 0 0 0-13.329 5.52l-11.562-11.558-21.188 21.183 11.563 11.563a56.694 56.694 0 0 0-5.524 13.328h-16.347v29.961h16.347a56.625 56.625 0 0 0 5.524 13.328l-11.563 11.563 21.188 21.187 11.562-11.562a56.519 56.519 0 0 0 13.328 5.52v16.35h29.961v-16.35a56.587 56.587 0 0 0 13.328-5.52l11.563 11.562 21.183-21.187-11.558-11.563a56.684 56.684 0 0 0 5.52-13.328zm-71.366 14.98c-16.547 0-29.961-13.414-29.961-29.96s13.414-29.961 29.96-29.961 29.962 13.414 29.962 29.96-13.414 29.961-29.961 29.961zm0 0" opacity="1" data-original="#f24500"></path><path fill="#d13400" d="M328.96 397.918v-29.961h-16.35a56.519 56.519 0 0 0-5.52-13.328l11.562-11.563-21.187-21.183-11.563 11.558a56.519 56.519 0 0 0-13.328-5.52v-16.35h-16.98v41.48a30.894 30.894 0 0 1 2-.074c16.547 0 29.96 13.414 29.96 29.96s-13.413 29.961-29.96 29.961a28.14 28.14 0 0 1-1.996-.074v41.48h16.976v-16.35a56.45 56.45 0 0 0 13.328-5.52l11.563 11.562 21.187-21.187-11.562-11.563a56.694 56.694 0 0 0 5.523-13.328zm0 0" opacity="1" data-original="#d13400"></path><path fill="#f24500" d="M455.96 295.469v-29.961h-16.35a56.45 56.45 0 0 0-5.52-13.328l11.562-11.563-21.187-21.187-11.563 11.562a56.694 56.694 0 0 0-13.328-5.523V209.12h-29.96v16.348a56.694 56.694 0 0 0-13.329 5.523l-11.562-11.562-21.188 21.187 11.563 11.563a56.45 56.45 0 0 0-5.52 13.328h-16.351v29.96h16.351a56.587 56.587 0 0 0 5.52 13.329l-11.563 11.562 21.188 21.184 11.562-11.563a56.694 56.694 0 0 0 13.328 5.524v16.351h29.961v-16.351a56.625 56.625 0 0 0 13.328-5.524l11.563 11.563 21.187-21.184-11.562-11.562a56.587 56.587 0 0 0 5.52-13.328zm-71.366 14.98c-16.547 0-29.961-13.414-29.961-29.96s13.414-29.966 29.96-29.966 29.962 13.414 29.962 29.965c0 16.547-13.414 29.961-29.961 29.961zm0 0" opacity="1" data-original="#f24500"></path><path fill="#d13400" d="M455.96 295.469v-29.961h-16.35a56.45 56.45 0 0 0-5.52-13.328l11.562-11.563-21.187-21.187-11.563 11.562a56.694 56.694 0 0 0-13.328-5.523V209.12h-15.406v41.414c.14 0 .281-.012.426-.012 16.547 0 29.96 13.415 29.96 29.965 0 16.547-13.413 29.961-29.96 29.961-.145 0-.285-.008-.426-.012v41.418h15.406v-16.351a56.763 56.763 0 0 0 13.328-5.524l11.563 11.563 21.187-21.184-11.562-11.562a56.763 56.763 0 0 0 5.523-13.328zm0 0" opacity="1" data-original="#d13400"></path></g></svg>