<svg xmlns="http://www.w3.org/2000/svg" version="1.1" xmlns:xlink="http://www.w3.org/1999/xlink" width="25" height="25" x="0" y="0" viewBox="0 0 64 64" style="enable-background:new 0 0 512 512" xml:space="preserve" class=""><g><g data-name="Layer 2"><path d="M19.88 5.01v8.98A4.018 4.018 0 0 1 15.86 18h-7.1a4.013 4.013 0 0 1-3.65-2.36 3.943 3.943 0 0 1-.36-1.65V5.01A4.016 4.016 0 0 1 8.76 1h7.1a4.024 4.024 0 0 1 4.02 4.01Z" class="" fill="#ff0000" opacity="1" data-original="#000000"></path><path d="M19.88 27.51v8.98a4.018 4.018 0 0 1-4.02 4.01h-7.1a4.013 4.013 0 0 1-3.65-2.36 3.943 3.943 0 0 1-.36-1.65v-8.98a4.016 4.016 0 0 1 4.01-4.01h7.1a4.024 4.024 0 0 1 4.02 4.01Z" class="" fill="#ff0000" opacity="1" data-original="#000000"></path><path d="M17.88 25.51v8.98a4.018 4.018 0 0 1-4.02 4.01h-7.1a3.943 3.943 0 0 1-1.65-.36 3.943 3.943 0 0 1-.36-1.65v-8.98a4.016 4.016 0 0 1 4.01-4.01h7.1a4.023 4.023 0 0 1 1.66.36 3.943 3.943 0 0 1 .36 1.65Z" class="" fill="#ff0000" opacity="1" data-original="#000000"></path><path d="M19.88 50.01v8.98A4.018 4.018 0 0 1 15.86 63h-7.1a4.013 4.013 0 0 1-3.65-2.36 3.943 3.943 0 0 1-.36-1.65v-8.98A4.016 4.016 0 0 1 8.76 46h7.1a4.024 4.024 0 0 1 4.02 4.01Z" class="" fill="#ff0000" opacity="1" data-original="#000000"></path><path d="M59.25 5.01v8.98A4.016 4.016 0 0 1 55.24 18H26.5a4.013 4.013 0 0 1-3.65-2.36 3.943 3.943 0 0 1-.36-1.65V5.01A4.016 4.016 0 0 1 26.5 1h28.74a3.943 3.943 0 0 1 1.65.36 4.013 4.013 0 0 1 2.36 3.65Z" class="" fill="#ff0000" opacity="1" data-original="#000000"></path><path d="M17.88 3.01v8.98A4.018 4.018 0 0 1 13.86 16h-7.1a3.943 3.943 0 0 1-1.65-.36 3.943 3.943 0 0 1-.36-1.65V5.01A4.016 4.016 0 0 1 8.76 1h7.1a4.023 4.023 0 0 1 1.66.36 3.943 3.943 0 0 1 .36 1.65ZM57.25 3.01v8.98A4.016 4.016 0 0 1 53.24 16H24.5a3.943 3.943 0 0 1-1.65-.36 3.943 3.943 0 0 1-.36-1.65V5.01A4.016 4.016 0 0 1 26.5 1h28.74a3.943 3.943 0 0 1 1.65.36 3.943 3.943 0 0 1 .36 1.65Z" class="" fill="#ff0000" opacity="1" data-original="#000000"></path><path d="M59.25 27.51v8.98a4.016 4.016 0 0 1-4.01 4.01H26.5a4.013 4.013 0 0 1-3.65-2.36 3.943 3.943 0 0 1-.36-1.65v-8.98a4.016 4.016 0 0 1 4.01-4.01h28.74a3.943 3.943 0 0 1 1.65.36 4.013 4.013 0 0 1 2.36 3.65Z" class="" fill="#ff0000" opacity="1" data-original="#000000"></path><path d="M57.25 25.51v8.98a4.016 4.016 0 0 1-4.01 4.01H24.5a3.943 3.943 0 0 1-1.65-.36 3.943 3.943 0 0 1-.36-1.65v-8.98a4.016 4.016 0 0 1 4.01-4.01h28.74a3.943 3.943 0 0 1 1.65.36 3.943 3.943 0 0 1 .36 1.65Z" class="" fill="#ff0000" opacity="1" data-original="#000000"></path><path d="M59.25 50.01v8.98A4.016 4.016 0 0 1 55.24 63H26.5a4.013 4.013 0 0 1-3.65-2.36 3.943 3.943 0 0 1-.36-1.65v-8.98A4.016 4.016 0 0 1 26.5 46h28.74a3.943 3.943 0 0 1 1.65.36 4.013 4.013 0 0 1 2.36 3.65Z" class="" fill="#ff0000" opacity="1" data-original="#000000"></path><path d="M17.88 48.01v8.98A4.018 4.018 0 0 1 13.86 61h-7.1a3.943 3.943 0 0 1-1.65-.36 3.943 3.943 0 0 1-.36-1.65v-8.98A4.016 4.016 0 0 1 8.76 46h7.1a4.023 4.023 0 0 1 1.66.36 3.943 3.943 0 0 1 .36 1.65ZM57.25 48.01v8.98A4.016 4.016 0 0 1 53.24 61H24.5a3.943 3.943 0 0 1-1.65-.36 3.943 3.943 0 0 1-.36-1.65v-8.98A4.016 4.016 0 0 1 26.5 46h28.74a3.943 3.943 0 0 1 1.65.36 3.943 3.943 0 0 1 .36 1.65Z" class="" fill="#ff0000" opacity="1" data-original="#000000"></path></g><g data-name="Layer 4"><path d="M15.864 18h-7.1a4.015 4.015 0 0 1-4.014-4.011V5.011A4.015 4.015 0 0 1 8.761 1h7.1a4.015 4.015 0 0 1 4.011 4.011v8.978A4.015 4.015 0 0 1 15.864 18ZM8.761 3A2.013 2.013 0 0 0 6.75 5.011v8.978A2.013 2.013 0 0 0 8.761 16h7.1a2.013 2.013 0 0 0 2.011-2.011V5.011A2.013 2.013 0 0 0 15.864 3ZM15.864 40.5h-7.1a4.015 4.015 0 0 1-4.014-4.011v-8.978A4.015 4.015 0 0 1 8.761 23.5h7.1a4.015 4.015 0 0 1 4.011 4.011v8.978a4.015 4.015 0 0 1-4.008 4.011Zm-7.1-15a2.013 2.013 0 0 0-2.014 2.011v8.978A2.013 2.013 0 0 0 8.761 38.5h7.1a2.013 2.013 0 0 0 2.011-2.011v-8.978a2.013 2.013 0 0 0-2.008-2.011ZM15.864 63h-7.1a4.015 4.015 0 0 1-4.014-4.011v-8.978A4.015 4.015 0 0 1 8.761 46h7.1a4.015 4.015 0 0 1 4.011 4.011v8.978A4.015 4.015 0 0 1 15.864 63Zm-7.1-15a2.013 2.013 0 0 0-2.014 2.011v8.978A2.013 2.013 0 0 0 8.761 61h7.1a2.013 2.013 0 0 0 2.011-2.011v-8.978A2.013 2.013 0 0 0 15.864 48ZM55.239 18H26.5a4.015 4.015 0 0 1-4.011-4.011V5.011A4.015 4.015 0 0 1 26.5 1h28.739a4.015 4.015 0 0 1 4.011 4.011v8.978A4.015 4.015 0 0 1 55.239 18ZM26.5 3a2.014 2.014 0 0 0-2.011 2.011v8.978A2.014 2.014 0 0 0 26.5 16h28.739a2.013 2.013 0 0 0 2.011-2.011V5.011A2.013 2.013 0 0 0 55.239 3ZM55.239 40.5H26.5a4.015 4.015 0 0 1-4.011-4.011v-8.978A4.015 4.015 0 0 1 26.5 23.5h28.739a4.015 4.015 0 0 1 4.011 4.011v8.978a4.015 4.015 0 0 1-4.011 4.011ZM26.5 25.5a2.014 2.014 0 0 0-2.011 2.011v8.978A2.014 2.014 0 0 0 26.5 38.5h28.739a2.013 2.013 0 0 0 2.011-2.011v-8.978a2.013 2.013 0 0 0-2.011-2.011ZM55.239 63H26.5a4.015 4.015 0 0 1-4.011-4.011v-8.978A4.015 4.015 0 0 1 26.5 46h28.739a4.015 4.015 0 0 1 4.011 4.011v8.978A4.015 4.015 0 0 1 55.239 63ZM26.5 48a2.014 2.014 0 0 0-2.011 2.011v8.978A2.014 2.014 0 0 0 26.5 61h28.739a2.013 2.013 0 0 0 2.011-2.011v-8.978A2.013 2.013 0 0 0 55.239 48Z" fill="#ff0000" opacity="1" data-original="#000000" class=""></path></g></g></svg>