<svg xmlns="http://www.w3.org/2000/svg" version="1.1" xmlns:xlink="http://www.w3.org/1999/xlink" width="25" height="25" x="0" y="0" viewBox="0 0 511.998 511.998" style="enable-background:new 0 0 512 512" xml:space="preserve" class=""><g><path d="m477.765 286.704-43.272-17.024H280.894l-43.272 17.024c-16.592 6.528-27.234 22.843-26.52 40.658l5.79 144.57h281.604l5.79-144.57c.713-17.815-9.929-34.13-26.521-40.658z" style="" fill="#dbd9dc" data-original="#dbd9dc"></path><path d="M308.82 213.609h97.75v83.78h-97.75z" style="" fill="#b48764" data-original="#b48764" class=""></path><path d="M357.693 39.281c-34.858 1.884-54.69 20.945-54.69 20.945s-29.091 0-29.091 34.909c0 27.927 6.982 55.635 6.982 55.635h160.581c13.963-76.799-19.2-114.979-83.782-111.489z" style="" fill="#5c414b" data-original="#5c414b"></path><path d="M315.803 121.959c-25.648-32.067-12.8-61.732-12.8-61.732s-29.091 0-29.091 34.909c0 27.927 6.982 55.635 6.982 55.635h34.909v-28.812z" style="" fill="#503441" data-original="#503441"></path><path d="M434.493 143.789h-6.982l-13.695-16.55c-62.835 13.091-95.763-14.046-95.763-14.046-3.436 21.728-24.479 38.094-24.479 38.094l-12.917-7.499-.011.002a13.68 13.68 0 0 0-2.33.246c-6.801 1.308-11.386 7.807-11.386 14.732v5.056c0 6.82 4.483 13.212 11.164 14.584 1.333.274 2.631.345 3.878.245 3.434-.275 6.489 2.192 7.103 5.583 5.898 32.577 34.34 57.297 68.618 57.297 34.245 0 62.666-24.673 68.602-57.204.602-3.299 3.45-5.702 6.759-5.632h1.439c7.712 0 13.964-6.252 13.964-13.964v-6.982c0-7.71-6.252-13.962-13.964-13.962z" style="" fill="#c39772" data-original="#c39772"></path><path d="m467.708 334.211 30.376-30.376c4.238 6.914 6.543 15.032 6.202 23.528l-5.79 144.57h-43.057V363.831a41.886 41.886 0 0 1 12.269-29.62z" style="" fill="#edebed" data-original="#edebed"></path><path d="M370.679 297.707h-28.067l-7.018 174.226h42.102z" style="" fill="#5d5360" data-original="#5d5360"></path><path d="m372.207 335.659-1.528-37.952h-28.067l-1.528 37.952z" style="" fill="#4b3f4e" data-original="#4b3f4e"></path><path d="m357.693 297.607-55.854-48.872-20.945 20.945 32.443 48.664c4.888 7.332 15.261 8.359 21.492 2.128l22.864-22.865zM357.693 297.607l55.854-48.872 20.945 20.945-32.443 48.664c-4.888 7.332-15.261 8.359-21.492 2.128l-22.864-22.865z" style="" fill="#edebed" data-original="#edebed"></path><path d="M371.536 240.112c-31.806-6.515-55.733-34.662-55.733-68.396v-50.121c-6.459 17.405-22.228 29.693-22.228 29.693l-12.918-7.498-.011.002a13.68 13.68 0 0 0-2.33.246c-6.801 1.308-11.385 7.807-11.385 14.732v5.056c0 6.82 4.482 13.212 11.163 14.585a13.78 13.78 0 0 0 3.878.245c3.434-.275 6.489 2.192 7.103 5.583 5.899 32.577 34.341 57.296 68.619 57.296 4.745-.001 9.364-.519 13.842-1.423z" style="" fill="#b48764" data-original="#b48764" class=""></path><path d="m233.792 327.794-37.667-16.442H70.379l-37.667 16.442A41.89 41.89 0 0 0 7.618 367.96l4.407 103.973H254.48l4.407-103.973a41.892 41.892 0 0 0-25.095-40.166z" style="" fill="#5d5360" data-original="#5d5360"></path><path d="M98.34 262.479h69.818v69.818H98.34z" style="" fill="#fad7a5" data-original="#fad7a5"></path><circle cx="133.25" cy="80.953" r="41.891" style="" fill="#deaf73" data-original="#deaf73"></circle><ellipse cx="133.25" cy="154.259" rx="83.78" ry="80.29" style="" fill="#d59f63" data-original="#d59f63"></ellipse><path d="M105.325 164.734C77.398 136.807 73.223 112.73 73.883 97.62c-15.083 14.52-24.412 34.534-24.412 56.641 0 15.142 4.391 29.283 12.003 41.351l43.851-30.878z" style="" fill="#cd915a" data-original="#cd915a"></path><path d="M212.857 178.989c-.559-.182-4.003-.291-4.003-.291a13.962 13.962 0 0 1-9.874-4.09l-9.615-7.288s-49.433 10.354-94.19-19.372c-4.342 12.692-12.024 22.378-25.718 35.071l-13.241-4.321-.011.002c-.765.014-1.547.095-2.343.249-6.795 1.313-11.373 7.809-11.373 14.73v5.058c0 6.817 4.48 13.207 11.158 14.581 1.337.275 2.64.347 3.891.246 3.43-.277 6.482 2.19 7.095 5.577 5.895 32.58 34.339 57.303 68.619 57.303 34.215 0 62.617-24.63 68.586-57.118.628-3.415 3.674-6.05 7.132-5.734 1.463.134 2.989.037 4.543-.332 6.506-1.547 10.741-7.922 10.579-14.608-.077-3.17-.077-6.274-.077-6.274 0-6.573-4.909-11.36-11.158-13.389z" style="" fill="#ffe1b4" data-original="#ffe1b4" class=""></path><path d="m45.124 367.576-25.51-30.612c-7.931 8.109-12.497 19.205-11.997 30.996l4.407 103.973h44.428v-73.069a48.87 48.87 0 0 0-11.328-31.288zM221.38 367.576l25.51-30.612c7.931 8.109 12.497 19.205 11.997 30.996l-4.407 103.973h-44.428v-73.069a48.87 48.87 0 0 1 11.328-31.288z" style="" fill="#6f6571" data-original="#6f6571"></path><path d="M91.361 206.625v-49.857c-4.634 8.764-11.545 16.649-21.903 26.25l-13.241-4.321-.012.002c-.765.014-1.546.095-2.343.249-6.795 1.313-11.372 7.809-11.372 14.73v5.058c0 6.817 4.48 13.207 11.157 14.581a13.77 13.77 0 0 0 3.892.246c3.43-.278 6.482 2.19 7.095 5.577 5.895 32.58 34.339 57.303 68.619 57.303 4.747 0 9.365-.519 13.844-1.422-31.809-6.515-55.736-34.661-55.736-68.396z" style="" fill="#fad7a5" data-original="#fad7a5"></path><path d="m131.296 331.597-42.101-42.101-21.05 21.05 25.963 42.143c2.258 3.665 7.254 4.452 10.529 1.657l26.659-22.749zM131.296 331.597l42.101-42.101 21.05 21.05-25.963 42.143c-2.258 3.665-7.254 4.452-10.529 1.657l-26.659-22.749z" style="" fill="#6f6571" data-original="#6f6571"></path><path d="M315.046 361.686h-28.067a7.5 7.5 0 0 0 0 15h28.067a7.5 7.5 0 0 0 0-15z" fill="#000000" opacity="1" data-original="#000000" class=""></path><path d="m480.248 281.394-40.841-15.753-20.823-20.823a7.466 7.466 0 0 0-4.82-2.174v-16.569a77.346 77.346 0 0 0 19.619-38.643c1.75.079 3.517-.062 5.26-.418 9.979-2.043 17.222-11.302 17.222-22.014v-5.469a22.477 22.477 0 0 0-6.605-15.952c6.623-36.02 1.168-65.374-15.846-85.021-16.457-19.003-42.971-28.086-76.672-26.263-31.136 1.683-51.236 16.009-57.604 21.25-3.486.414-9.424 1.638-15.434 5.244-8.33 4.998-18.259 15.497-18.259 37.13 0 18.872 3.016 34.628 5.2 43.567-7.32 3.566-12.217 11.294-12.217 20.129v5.384c0 10.712 7.243 19.971 17.222 22.014 1.743.357 3.511.497 5.26.418a77.354 77.354 0 0 0 19.619 38.643v16.569a7.464 7.464 0 0 0-4.82 2.174l-20.823 20.823-40.841 15.753a49.662 49.662 0 0 0-10.03 5.25 7.5 7.5 0 0 0 8.429 12.407 34.701 34.701 0 0 1 6.999-3.663l37.903-14.62 28.98 43.471a21.455 21.455 0 0 0 15.795 9.484 21.407 21.407 0 0 0 12.701-2.688l-6.219 141.068a7.5 7.5 0 0 0 7.499 7.83 7.5 7.5 0 0 0 7.487-7.17l5.772-130.941h15.57l5.772 130.941a7.5 7.5 0 0 0 7.823 7.163 7.5 7.5 0 0 0 7.163-7.823l-6.219-141.068a21.404 21.404 0 0 0 12.701 2.688 21.457 21.457 0 0 0 15.795-9.484l28.98-43.471 37.903 14.62a34.52 34.52 0 0 1 13.49 9.402l-25.931 25.931c-9.369 9.369-14.528 21.825-14.528 35.073v106.64a7.5 7.5 0 0 0 15 0v-106.64c0-9.241 3.599-17.931 10.134-24.466l22.758-22.758a34.564 34.564 0 0 1 1.197 10.482l-5.809 143.078a7.501 7.501 0 0 0 7.499 7.805 7.5 7.5 0 0 0 7.488-7.195l5.811-143.082c.851-21.224-11.892-40.619-31.71-48.263zm-123.102 7.878-41.617-36.415v-14.354c12.1 7.695 26.416 12.1 41.617 12.1s29.518-4.405 41.618-12.1v14.354l-41.618 36.415zm-76.742-116.835a6.434 6.434 0 0 1-1.745-.119c-2.982-.61-5.231-3.757-5.231-7.318v-5.386c0-3.479 2.325-6.613 5.292-7.134 2.504-.44 4.902.479 6.419 2.458 1.377 1.795 3.214 3.079 5.311 3.711 3.072.928 6.459.383 9.063-1.455a54.45 54.45 0 0 0 12.299-12.024 7.5 7.5 0 0 0-12.037-8.95 39.814 39.814 0 0 1-5.84 6.311 21.455 21.455 0 0 0-8.133-4.343c-1.927-7.382-5.357-23.197-5.357-42.271 0-11.487 3.541-19.558 10.524-23.988 5.449-3.457 11.216-3.595 11.212-3.596a7.572 7.572 0 0 0 5.175-2.072c.183-.172 18.62-17.282 50.194-18.989 28.902-1.56 51.214 5.736 64.523 21.104 13.414 15.49 17.881 39.271 13.035 69.036-2.009-.071-4.208.081-6.397.446l-7.046-16.922a7.507 7.507 0 0 0-8.822-4.373c-.697.182-69.958 17.74-98.999-18.416a7.5 7.5 0 1 0-11.694 9.393c29.656 36.922 88.5 28.89 108.088 24.973l5.449 13.085c2.343 5.625 8.337 8.697 14.245 7.304 2.425-.571 4.742-.584 5.612-.412 3.033.604 5.32 3.629 5.32 7.039v5.47c0 3.562-2.249 6.708-5.231 7.318a6.358 6.358 0 0 1-1.745.119c-7.196-.524-13.864 4.7-15.188 11.903-5.456 29.704-31.343 51.264-61.554 51.264-30.211 0-56.098-21.56-61.554-51.264-1.323-7.201-7.991-12.435-15.188-11.902zM323.6 318.796c-1.149-.113-3.3-.639-4.792-2.877l-29.195-43.792 11.741-11.741 44.82 39.218-17.311 17.311c-1.902 1.902-4.113 1.995-5.263 1.881zm26.422 8.027.454-10.309 6.669-6.669 6.669 6.669.454 10.308-14.246.001zm45.464-10.904c-1.493 2.239-3.644 2.764-4.792 2.877-1.151.114-3.362.021-5.264-1.882l-17.311-17.311 44.82-39.218 11.741 11.741-29.194 43.793z" fill="#000000" opacity="1" data-original="#000000" class=""></path><path d="m237.845 320.699-36.622-15.985-20.019-20.019a7.456 7.456 0 0 0-4.82-2.174v-11.799c17.109-11.243 29.629-29.124 33.652-50.431a21.55 21.55 0 0 0 5.919-.564c9.597-2.271 16.562-11.468 16.562-21.868v-5.468c0-7.598-3.77-14.433-9.611-18.443a84.81 84.81 0 0 0 2.594-20.778c0-31.072-16.796-58.44-42.113-74.154-.27-25.933-22.405-46.953-49.588-46.953s-49.318 21.02-49.588 46.953C58.895 94.73 42.099 122.099 42.099 153.17c0 6.988.87 13.931 2.578 20.718-5.838 3.99-9.595 10.857-9.595 18.585v5.386c0 10.4 6.965 19.597 16.562 21.868 1.96.464 3.948.652 5.919.564 4.023 21.307 16.544 39.188 33.653 50.431v11.799a7.456 7.456 0 0 0-4.82 2.174l-20.019 20.019-36.621 15.985C11.123 328.833-.817 347.945.044 368.258l4.429 104.493a7.501 7.501 0 0 0 14.987-.635l-4.43-104.494c-.285-6.733 1.465-13.266 4.755-18.889l19.685 23.622a41.694 41.694 0 0 1 9.646 26.643v73.436a7.5 7.5 0 0 0 15 0v-73.436a56.725 56.725 0 0 0-13.123-36.245L30.066 337.64a34.006 34.006 0 0 1 5.691-3.194l31.916-13.932 22.554 36.609a14.498 14.498 0 0 0 12.366 6.903c3.429 0 6.769-1.215 9.417-3.475l14.292-12.195v124.077a7.5 7.5 0 0 0 15 0V348.358l14.291 12.195a14.497 14.497 0 0 0 11.68 3.298 14.498 14.498 0 0 0 10.103-6.726l22.554-36.61 31.916 13.932a34.045 34.045 0 0 1 5.691 3.194l-20.927 25.113a56.723 56.723 0 0 0-13.123 36.245v73.436a7.5 7.5 0 0 0 15 0v-73.436a41.7 41.7 0 0 1 9.646-26.643l19.685-23.622c3.29 5.623 5.04 12.156 4.755 18.889l-4.429 104.494a7.5 7.5 0 0 0 14.987.635l4.429-104.493c.86-20.313-11.081-39.426-29.715-47.56zM133.801 47.063c15.956 0 29.418 10.179 33.399 23.971-10.354-3.908-21.62-6.057-33.399-6.057s-23.045 2.149-33.399 6.057c3.981-13.792 17.442-23.971 33.399-23.971zM72.246 217.2c-1.322-7.203-8.001-12.435-15.187-11.903a6.48 6.48 0 0 1-1.959-.167c-2.86-.677-5.017-3.803-5.017-7.271v-5.386c0-3.479 2.325-6.613 5.292-7.134 2.504-.44 4.901.48 6.417 2.457 1.377 1.796 3.214 3.08 5.313 3.714 3.071.928 6.46.383 9.062-1.456a54.404 54.404 0 0 0 12.139-11.81 7.5 7.5 0 0 0-11.995-9.006 39.763 39.763 0 0 1-5.722 6.153 21.49 21.49 0 0 0-11.318-4.983 69.85 69.85 0 0 1-2.172-17.237c0-40.358 34.408-73.193 76.702-73.193 42.293 0 76.701 32.834 76.701 73.193 0 5.8-.731 11.565-2.163 17.204-1.974.157-3.98.48-5.837.962l-5.638-4.636c-2.833-2.33-6.399-3.496-10.008-3.281-11.024.651-67.482 2.142-96.448-32.524a7.5 7.5 0 0 0-11.51 9.618c14.286 17.097 35.239 28.658 62.276 34.362 20.701 4.367 39.103 3.943 46.313 3.532l8.796 7.233a7.485 7.485 0 0 0 8.527.694c1.272-.693 5.532-1.355 7.391-.984 3.033.603 5.319 3.629 5.319 7.04v5.468c0 3.469-2.157 6.595-5.017 7.271a6.412 6.412 0 0 1-1.959.166c-7.182-.522-13.865 4.701-15.188 11.903-5.456 29.705-31.343 51.265-61.554 51.265-30.212 0-56.1-21.56-61.556-51.264zm61.555 66.264a77.428 77.428 0 0 0 27.584-5.072v15.515l-27.584 27.584-27.584-27.584v-15.516a77.407 77.407 0 0 0 27.584 5.073zm-31.099 65.312L80.144 312.16 91.7 300.604l31.058 31.058-20.056 17.114zm62.198 0-20.056-17.114 31.058-31.058 11.556 11.556-22.558 36.616z" fill="#000000" opacity="1" data-original="#000000" class=""></path><path d="M105.734 394.766h-21.05a7.5 7.5 0 0 0 0 15h21.05a7.5 7.5 0 0 0 0-15z" fill="#000000" opacity="1" data-original="#000000" class=""></path></g></svg>