<svg xmlns="http://www.w3.org/2000/svg" version="1.1" xmlns:xlink="http://www.w3.org/1999/xlink" width="25" height="25" x="0" y="0" viewBox="0 0 511.986 511.986" style="enable-background:new 0 0 512 512" xml:space="preserve" class=""><g><path fill="#b1e4f9" d="M191.711 199.639v221.32c0 17.443 14.14 31.583 31.583 31.583H471.16c17.443 0 31.583-14.14 31.583-31.583V127.413c0-17.443-14.14-31.583-31.583-31.583H295.52a39.476 39.476 0 0 0-27.914 11.562l-64.333 64.333a39.476 39.476 0 0 0-11.562 27.914z" opacity="1" data-original="#b1e4f9"></path><path fill="#d3effb" d="M162.267 170.195v221.32c0 17.443 14.14 31.583 31.583 31.583h247.866c17.443 0 31.583-14.14 31.583-31.583V97.969c0-17.443-14.14-31.583-31.583-31.583h-175.64a39.476 39.476 0 0 0-27.914 11.562l-64.333 64.333a39.482 39.482 0 0 0-11.562 27.914z" opacity="1" data-original="#d3effb"></path><path fill="#e4f6ff" d="M132.824 140.752v221.32c0 17.443 14.14 31.583 31.583 31.583h247.866c17.443 0 31.583-14.14 31.583-31.583V68.526c0-17.443-14.14-31.583-31.583-31.583h-175.64a39.476 39.476 0 0 0-27.914 11.562l-64.333 64.333a39.476 39.476 0 0 0-11.562 27.914z" opacity="1" data-original="#e4f6ff" class=""></path><path fill="#f4fbff" d="M103.381 111.309v221.32c0 17.443 14.14 31.583 31.583 31.583H382.83c17.443 0 31.583-14.14 31.583-31.583V39.083c0-17.443-14.14-31.583-31.583-31.583H207.19a39.476 39.476 0 0 0-27.914 11.562l-64.333 64.333a39.476 39.476 0 0 0-11.562 27.914z" opacity="1" data-original="#f4fbff" class=""></path><path fill="#e4f6ff" d="M103.38 111.314v6.74c0-12.754 10.343-23.097 23.097-23.097h32.779c17.441 0 31.58-14.139 31.58-31.58V30.598c0-12.754 10.342-23.097 23.097-23.097h-6.739a39.507 39.507 0 0 0-27.92 11.563l-64.33 64.33a39.508 39.508 0 0 0-11.564 27.92z" opacity="1" data-original="#e4f6ff" class=""></path><path fill="#407093" d="m125.185 362.03 26.505 26.505-61.404 61.403-26.504-26.504z" opacity="1" data-original="#407093"></path><path fill="#365e7d" d="m125.184 362.03 13.252 13.253-61.403 61.403-13.252-13.252z" opacity="1" data-original="#365e7d"></path><circle cx="202.566" cy="311.176" r="111.107" fill="#ffe07d" opacity="1" data-original="#ffe07d"></circle><path fill="#ffd064" d="M130.91 396.093a110.6 110.6 0 0 1-6.909-6.351c-43.391-43.391-43.385-113.746 0-157.131 43.391-43.391 113.74-43.391 157.131 0a110.6 110.6 0 0 1 6.351 6.909c-43.657-36.935-109.07-34.815-150.229 6.344-41.153 41.153-43.279 106.572-6.344 150.229z" opacity="1" data-original="#ffd064"></path><circle cx="202.566" cy="311.176" r="78.546" fill="#d3effb" opacity="1" data-original="#d3effb"></circle><path fill="#b1e4f9" d="M159.201 376.678a79.001 79.001 0 0 1-12.17-9.964c-30.677-30.677-30.677-80.408-.006-111.079 30.677-30.677 80.408-30.677 111.085 0a78.906 78.906 0 0 1 9.964 12.17c-30.5-20.245-72.029-16.923-98.916 9.964-26.88 26.881-30.201 68.409-9.957 98.909z" opacity="1" data-original="#b1e4f9"></path><path fill="#a77d73" d="m36.05 499.421-21.729-21.729c-6.772-6.772-6.772-17.752 0-24.524l55.123-55.123c6.772-6.772 17.752-6.772 24.524 0l21.729 21.729c6.772 6.772 6.772 17.752 0 24.524l-55.123 55.123c-6.772 6.772-17.751 6.772-24.524 0z" opacity="1" data-original="#a77d73"></path><path fill="#98695e" d="m30.225 493.595-15.903-15.903c-6.776-6.776-6.776-17.75 0-24.526l55.122-55.122c6.776-6.776 17.75-6.776 24.526 0l15.903 15.903c-6.776-6.776-17.75-6.776-24.526 0L30.225 469.07c-6.776 6.775-6.776 17.749 0 24.525z" opacity="1" data-original="#98695e"></path><path fill="#b3e59f" d="M195.903 364.311c-4.89 0-9.536-2.256-12.559-6.155l-26.574-34.278c-5.378-6.937-4.114-16.92 2.823-22.298 6.938-5.378 16.92-4.114 22.298 2.823l11.929 15.388 23.279-41.221c4.317-7.643 14.01-10.339 21.654-6.023 7.643 4.316 10.339 14.011 6.023 21.654l-35.034 62.033a15.894 15.894 0 0 1-13.839 8.077z" opacity="1" data-original="#b3e59f"></path><path d="M479.819 89.307c-3.316-14.541-14.783-26.119-29.449-29.442-3.318-14.604-14.836-26.126-29.436-29.444C416.973 12.945 401.285 0 382.831 0h-175.65c-12.547 0-24.342 4.885-33.213 13.757a8.282 8.282 0 0 0-.225.234l-64.12 64.1c-8.868 8.881-13.752 20.683-13.752 33.23v148.047c-17.688 36.509-15.576 80.271 6.34 115.045l-12.433 12.433c-8.698-2.974-18.719-1.028-25.64 5.893L9.019 447.866c-4.691 4.691-7.275 10.928-7.275 17.563s2.584 12.873 7.274 17.563l21.73 21.73c4.843 4.843 11.202 7.263 17.563 7.263 6.359 0 12.721-2.421 17.562-7.262l25.97-25.96a7.5 7.5 0 0 0-10.605-10.608l-25.97 25.961c-3.836 3.835-10.078 3.837-13.914 0l-21.73-21.73c-1.857-1.858-2.881-4.328-2.881-6.957s1.023-5.099 2.882-6.957l55.12-55.129c3.834-3.835 10.083-3.834 13.923 0l21.727 21.726c3.838 3.844 3.84 10.091.003 13.927l-7.95 7.95a7.5 7.5 0 0 0 10.607 10.607l7.949-7.95c6.922-6.921 8.867-16.942 5.892-25.641l12.433-12.433a117.98 117.98 0 0 0 38.368 15.577 38.776 38.776 0 0 0 7.486 2.535c3.97 17.47 19.657 30.408 38.108 30.408h247.87c21.549 0 39.08-17.536 39.08-39.09V127.41c.001-18.452-12.944-34.138-30.422-38.103zM421.911 332.63V46.472c8.031 3.526 13.794 11.314 14.39 20.528.033.465.05.965.05 1.53v293.55c0 13.278-10.803 24.08-24.08 24.08H294.469a117.895 117.895 0 0 0 10.1-14.44h78.262c21.549 0 39.08-17.536 39.08-39.09zM183.839 25.108a30.655 30.655 0 0 0-.503 5.49v32.779c0 13.278-10.803 24.08-24.08 24.08h-32.779c-1.883 0-3.723.18-5.513.507zm-72.968 93.12c.001-.058.009-.115.009-.174 0-8.6 6.997-15.597 15.597-15.597h32.779c21.549 0 39.08-17.531 39.08-39.08V30.598c0-8.6 6.997-15.597 15.597-15.597l.029-.001h168.869c12.661 0 23.214 9.879 24.03 22.558.033.462.05.96.05 1.522v293.55c0 13.283-10.803 24.09-24.08 24.09h-70.758c17.827-43.023 9.286-94.486-25.639-129.412-46.247-46.245-121.492-46.244-167.737 0a119.27 119.27 0 0 0-7.826 8.635zm18.434 119.687c20.2-20.201 46.727-30.297 73.262-30.297 26.528 0 53.065 10.102 73.261 30.297 40.396 40.396 40.396 106.126 0 146.522s-106.127 40.396-146.522 0c-40.398-40.396-40.398-106.125-.001-146.522zm-11.213 173.638-15.906-15.906 8.937-8.936a119.476 119.476 0 0 0 7.574 8.333 119.204 119.204 0 0 0 8.332 7.572zm377.15 9.407c0 13.283-10.803 24.09-24.08 24.09h-247.87c-9.803 0-18.34-5.923-22.075-14.45h240.495c21.555 0 39.09-17.531 39.09-39.08V174.73c0-4.142-3.357-7.5-7.5-7.5s-7.5 3.358-7.5 7.5v216.79c0 13.278-10.807 24.08-24.09 24.08H258.817a117.87 117.87 0 0 0 21.023-14.44h132.43c21.549 0 39.08-17.531 39.08-39.08V75.903c8.527 3.734 14.451 12.267 14.451 22.067v46.82c0 4.142 3.357 7.5 7.5 7.5s7.5-3.358 7.5-7.5v-39.442c8.521 3.737 14.44 12.267 14.44 22.062v293.55z" fill="#000000" opacity="1" data-original="#000000" class=""></path><path d="M202.565 397.222c22.984 0 44.593-8.95 60.845-25.202 33.549-33.549 33.549-88.138 0-121.687-16.252-16.252-37.86-25.202-60.845-25.202-22.983 0-44.592 8.95-60.844 25.202-33.549 33.549-33.549 88.138 0 121.687 16.253 16.252 37.861 25.202 60.844 25.202zm-50.236-136.283c13.418-13.419 31.26-20.809 50.236-20.809 18.978 0 36.819 7.39 50.237 20.809 27.701 27.701 27.701 72.773 0 100.474-13.418 13.419-31.26 20.809-50.237 20.809s-36.818-7.39-50.236-20.809c-27.701-27.701-27.701-72.773 0-100.474zM140.131 179.521a7.5 7.5 0 0 0 9.679-4.339l2.824-7.415h19.736l2.791 7.394a7.503 7.503 0 0 0 7.018 4.854 7.5 7.5 0 0 0 7.015-10.15l-18.557-49.172a8.601 8.601 0 0 0-8.061-5.553h-.01a8.602 8.602 0 0 0-8.046 5.533l-18.728 49.169a7.5 7.5 0 0 0 4.339 9.679zm26.577-26.755h-8.362l4.2-11.027zM321.006 180.012a7.5 7.5 0 0 0 7.5-7.5V122.64c0-4.142-3.357-7.5-7.5-7.5s-7.5 3.358-7.5 7.5v49.872a7.5 7.5 0 0 0 7.5 7.5zM255.666 172.539a7.5 7.5 0 0 0 7.5 7.473h.028c.427-.002 10.507-.04 14.539-.111 15.7-.274 27.096-13.869 27.096-32.325 0-19.401-11.107-32.436-27.64-32.436h-14.125a7.503 7.503 0 0 0-7.5 7.514c0 .001.036 19.182.036 24.867 0 6.935.066 25.018.066 25.018zm21.523-42.399c11.729 0 12.64 13.346 12.64 17.436 0 8.517-3.821 17.178-12.358 17.327a767.55 767.55 0 0 1-6.83.069c-.019-5.793-.04-13.467-.04-17.451 0-3.343-.013-11.345-.022-17.381zM207.244 176.203c3.945 2.521 8.394 3.802 13.221 3.809h.038c4.147 0 8.044-.904 11.583-2.687 8.723-4.393 13.526-11.639 13.526-20.404V122.64c0-4.142-3.357-7.5-7.5-7.5s-7.5 3.358-7.5 7.5v34.281c0 2.152-.626 4.667-5.273 7.007-1.447.729-3.029 1.083-4.835 1.083h-.02c-1.952-.003-3.642-.477-5.164-1.449-3.633-2.321-4.362-4.248-4.362-6.605V122.64c0-4.142-3.357-7.5-7.5-7.5s-7.5 3.358-7.5 7.5v34.318c0 7.985 3.797 14.46 11.286 19.245zM347.444 130.14h6.216v42.372c0 4.142 3.357 7.5 7.5 7.5s7.5-3.358 7.5-7.5V130.14h6.327c4.143 0 7.5-3.358 7.5-7.5s-3.357-7.5-7.5-7.5h-27.543a7.5 7.5 0 0 0 0 15z" fill="#000000" opacity="1" data-original="#000000" class=""></path><path d="M195.902 371.811a23.34 23.34 0 0 0 20.371-11.89l35.033-62.033c6.344-11.231 2.367-25.529-8.865-31.873-11.228-6.34-25.527-2.366-31.872 8.866l-17.732 31.399-5.019-6.473a23.241 23.241 0 0 0-15.55-8.875c-6.199-.786-12.333.892-17.271 4.72-10.193 7.903-12.057 22.626-4.154 32.82l26.574 34.279c4.398 5.673 11.309 9.06 18.485 9.06zm-31.715-64.304a8.334 8.334 0 0 1 6.197-1.693 8.332 8.332 0 0 1 5.578 3.184l11.93 15.388a7.498 7.498 0 0 0 12.458-.907l23.279-41.22c2.276-4.029 7.407-5.457 11.436-3.181s5.456 7.405 3.181 11.435l-35.033 62.033a8.375 8.375 0 0 1-6.699 4.243 8.443 8.443 0 0 1-7.242-3.228l-26.573-34.278c-2.837-3.659-2.168-8.941 1.488-11.776z" fill="#000000" opacity="1" data-original="#000000" class=""></path></g></svg>