<svg xmlns="http://www.w3.org/2000/svg" version="1.1" xmlns:xlink="http://www.w3.org/1999/xlink" width="512" height="512" x="0" y="0" viewBox="0 0 256 256" style="enable-background:new 0 0 512 512" xml:space="preserve" class=""><g><path fill="#71c1e8" d="M158.29 233.34h-57.58l6.62-19.87 2.33-7h39.68l2.33 7z" opacity="1" data-original="#71c1e8" class=""></path><path fill="#4ba4c7" d="M151.67 213.47h-44.34l2.33-7h39.68z" opacity="1" data-original="#4ba4c7"></path><path fill="#71c1e8" d="M249.76 92.22v104.25c0 5.523-4.477 10-10 10H19.24c-5.523 0-10-4.477-10-10V92.22c0-5.523 4.477-10 10-10h36.55c-.51 4.94-.52 9.97 0 15 .3 3.05.8 6.1 1.49 9.13l-9.39 5.43a3.742 3.742 0 0 0-1.37 5.11L64.48 148a3.744 3.744 0 0 0 5.11 1.37l9.41-5.43a74.264 74.264 0 0 0 27.29 16.16v11.32a3.75 3.75 0 0 0 3.75 3.75h38.93a3.74 3.74 0 0 0 3.74-3.74V160.1A74.264 74.264 0 0 0 180 143.94l9.41 5.43c1.79 1.03 4.07.42 5.11-1.37l17.96-31.11c1.03-1.79.42-4.08-1.37-5.11l-9.39-5.43c.69-2.99 1.19-6.04 1.49-9.13.51-4.94.52-9.97 0-15h36.55c5.523 0 10 4.477 10 10zM176.95 248.446h-94.9a7.55 7.55 0 0 1-7.55-7.55v-.008a7.55 7.55 0 0 1 7.55-7.55h94.9a7.55 7.55 0 0 1 7.55 7.55v.008a7.55 7.55 0 0 1-7.55 7.55z" opacity="1" data-original="#71c1e8" class=""></path><circle cx="129.5" cy="89.72" r="47.119" fill="#eeeeee" opacity="1" data-original="#eeeeee" class=""></circle><path fill="#efbf27" d="M234.76 100.22v88.25a3 3 0 0 1-3 3H27.24a3 3 0 0 1-3-3v-88.25a3 3 0 0 1 3-3h28.55c.3 3.05.8 6.1 1.49 9.13l-9.39 5.43a3.742 3.742 0 0 0-1.37 5.11L64.48 148a3.744 3.744 0 0 0 5.11 1.37l9.41-5.43a74.264 74.264 0 0 0 27.29 16.16v11.32a3.75 3.75 0 0 0 3.75 3.75h38.93a3.74 3.74 0 0 0 3.74-3.74V160.1A74.264 74.264 0 0 0 180 143.94l9.41 5.43c1.79 1.03 4.07.42 5.11-1.37l17.96-31.11c1.03-1.79.42-4.08-1.37-5.11l-9.39-5.43c.69-2.99 1.19-6.04 1.49-9.13h28.55a3 3 0 0 1 3 3z" opacity="1" data-original="#efbf27" class=""></path><path fill="#ce9320" d="m218.55 120.38-17.97 31.12c-2.951 5.103-9.52 6.904-14.66 3.94l-5.09-2.94a82.057 82.057 0 0 1-21.12 12.49v6.43c0 5.93-4.82 10.75-10.74 10.75h-38.94c-5.92 0-10.74-4.82-10.74-10.75v-6.43a82.057 82.057 0 0 1-21.12-12.49l-5.08 2.93c-5.159 2.988-11.731 1.156-14.66-3.92l-17.97-31.12c-2.96-5.15-1.19-11.72 3.94-14.68l5.06-2.92c-.433-2.73-.68-5.113-.7-5.57h7.03c.3 3.05.8 6.1 1.49 9.13l-9.39 5.43a3.742 3.742 0 0 0-1.37 5.11L64.48 148a3.744 3.744 0 0 0 5.11 1.37l9.41-5.43a74.264 74.264 0 0 0 27.29 16.16v11.32c0 2.07 1.67 3.75 3.74 3.75h38.94c2.07 0 3.74-1.68 3.74-3.75V160.1A74.264 74.264 0 0 0 180 143.94l9.41 5.43c1.79 1.03 4.07.42 5.11-1.37l17.96-31.11c1.03-1.79.42-4.08-1.37-5.11l-9.39-5.43c.69-2.99 1.19-6.04 1.49-9.13h7.03a77.695 77.695 0 0 1-.69 5.57l5.06 2.93c5.12 2.95 6.89 9.52 3.94 14.66z" opacity="1" data-original="#ce9320" class=""></path><path fill="#4ba4c7" d="M55.79 82.22c-.51 4.94-.52 9.97 0 15h-7.03c-.48-4.95-.48-10 0-15zM210.24 97.22h-7.03c.51-4.94.52-9.97 0-15h7.03c.48 4.95.48 10 0 15z" opacity="1" data-original="#4ba4c7"></path><path fill="#fb5c3c" d="M212.48 116.89 194.52 148a3.744 3.744 0 0 1-5.11 1.37l-9.41-5.43a74.264 74.264 0 0 1-27.29 16.16v11.32c0 2.07-1.67 3.75-3.74 3.75h-38.94c-2.07 0-3.74-1.68-3.74-3.75V160.1A74.264 74.264 0 0 1 79 143.94l-9.41 5.43a3.744 3.744 0 0 1-5.11-1.37l-17.96-31.11a3.742 3.742 0 0 1 1.37-5.11l9.39-5.43c-.69-3.03-1.19-6.08-1.49-9.13-.52-5.03-.51-10.06 0-15 .3-3.09.8-6.14 1.49-9.13l-9.39-5.42a3.756 3.756 0 0 1-1.37-5.12l17.96-31.11a3.744 3.744 0 0 1 5.11-1.37L79 35.5a74.264 74.264 0 0 1 27.29-16.16V8.02c0-2.07 1.67-3.75 3.74-3.75h38.94c2.07 0 3.74 1.68 3.74 3.75v11.32A74.264 74.264 0 0 1 180 35.5l9.41-5.43a3.744 3.744 0 0 1 5.11 1.37l17.96 31.11c1.03 1.79.42 4.08-1.37 5.12l-9.39 5.42c.69 3.03 1.19 6.08 1.49 9.13.52 5.03.51 10.06 0 15-.3 3.09-.8 6.14-1.49 9.13l9.39 5.43a3.742 3.742 0 0 1 1.37 5.11z" opacity="1" data-original="#fb5c3c" class=""></path><circle cx="129.5" cy="89.72" r="47.119" fill="#eeeeee" opacity="1" data-original="#eeeeee" class=""></circle><path d="M232.324 69.244c-1.175-5.068-1.952-8.416-8.821-10.686-2.284-.754-2.279-3.995 0-4.748 3.987-1.317 6.868-2.269 8.821-10.686.597-2.566 4.272-2.573 4.871 0 2 8.617 5 9.425 8.821 10.687 2.284.754 2.279 3.994 0 4.747-3.988 1.318-6.869 2.271-8.821 10.686-.597 2.577-4.273 2.578-4.871 0z" fill="#000000" opacity="1" data-original="#000000" class=""></path><path fill="#f0c020" d="M239.14 56.207c-1.63 1.1-3.09 2.61-4.32 4.89-.99-1.76-2.41-3.42-4.57-4.85 1.72-1.13 3.24-2.69 4.52-5.1 1.3 2.45 2.81 4 4.37 5.06z" opacity="1" data-original="#f0c020"></path><path d="M21.804 69.244c-1.175-5.068-1.952-8.416-8.821-10.686-2.284-.754-2.279-3.995 0-4.748 3.987-1.317 6.868-2.269 8.821-10.686.597-2.566 4.272-2.573 4.871 0 2 8.617 5 9.425 8.821 10.687 2.284.754 2.279 3.994 0 4.747-3.988 1.318-6.869 2.271-8.821 10.686-.597 2.577-4.273 2.578-4.871 0z" fill="#000000" opacity="1" data-original="#000000" class=""></path><path fill="#f0c020" d="M28.62 56.207c-1.63 1.1-3.09 2.61-4.32 4.89-.99-1.76-2.41-3.42-4.57-4.85 1.72-1.13 3.24-2.69 4.52-5.1 1.3 2.45 2.81 4 4.37 5.06z" opacity="1" data-original="#f0c020"></path><path fill="#13bf6d" d="m151.156 83.782-22.004 21.996c-2.813 2.813-7.364 2.745-10.109 0l-11.201-11.202a7.147 7.147 0 1 1 10.109-10.109l6.147 6.147 16.95-16.941a7.147 7.147 0 1 1 10.108 10.109z" opacity="1" data-original="#13bf6d"></path><path fill="#ffcac2" d="M129.499 153.389c-12.318 0-24.261-3.506-34.535-10.139a2.5 2.5 0 0 1 2.711-4.201c9.466 6.11 20.47 9.34 31.824 9.34 52.161 0 78.357-63.317 41.506-100.174a2.498 2.498 0 0 1 0-3.535 2.498 2.498 0 0 1 3.535 0c40.12 40.12 11.367 108.709-45.041 108.709zM86.72 136.914a64.387 64.387 0 0 1-2.26-2.153 2.499 2.499 0 1 1 3.535-3.535c.679.679 1.38 1.347 2.084 1.985a2.5 2.5 0 0 1-3.359 3.703z" opacity="1" data-original="#ffcac2"></path><path d="M140.189 91.2a2.517 2.517 0 0 0 0 3.54 2.512 2.512 0 0 0 3.54 0 2.515 2.515 0 0 0 0-3.54c-.939-.94-2.589-.94-3.54 0z" fill="#000000" opacity="1" data-original="#000000" class=""></path><path d="M117.27 107.54c3.756 3.754 9.901 3.767 13.65 0l5.74-5.73a2.495 2.495 0 0 0 0-3.529c-.95-.95-2.601-.95-3.54-.011l-5.73 5.74c-1.883 1.862-4.844 1.736-6.58 0l-11.2-11.2c-1.817-1.817-1.813-4.779 0-6.569a4.634 4.634 0 0 1 6.57-.011l6.15 6.15c.939.939 2.59.939 3.54 0l16.939-16.94a4.658 4.658 0 0 1 6.58 0 4.657 4.657 0 0 1 0 6.58l-2.12 2.12c-.979.939-.994 2.556 0 3.53.94.939 2.59.939 3.53 0l2.12-2.12c3.86-3.86 3.684-9.965 0-13.65-3.758-3.756-9.874-3.766-13.64 0L124.1 87.08l-4.38-4.38c-3.713-3.715-9.819-3.832-13.65 0-3.702 3.704-3.813 9.825 0 13.64z" fill="#000000" opacity="1" data-original="#000000" class=""></path><path d="M19.24 79.72c-6.891 0-12.5 5.61-12.5 12.5v104.25c0 6.89 5.609 12.5 12.5 12.5h22.75a2.5 2.5 0 0 0 .02-5H19.24c-4.131-.01-7.49-3.37-7.5-7.5V92.22c.01-4.13 3.369-7.49 7.5-7.5h33.847c-.252 3.774-.248 6.263 0 10H27.24a5.507 5.507 0 0 0-5.5 5.5v88.25c0 3.032 2.468 5.5 5.5 5.5h204.52c3.032 0 5.5-2.468 5.5-5.5v-88.25c0-3.032-2.468-5.5-5.5-5.5h-25.853c.239-3.678.247-6.212.002-10h33.851c4.13.01 7.49 3.37 7.5 7.5v104.25c-.01 4.13-3.37 7.49-7.5 7.5H61.99a2.5 2.5 0 0 0 0 5h44.202l-7.284 21.868H82.05c-5.541 0-10.05 4.509-10.05 10.058 0 5.542 4.509 10.051 10.05 10.051h94.9c5.541 0 10.05-4.509 10.05-10.059 0-5.541-4.509-10.05-10.05-10.05h-16.858l-7.284-21.868h86.952c6.89 0 12.5-5.61 12.5-12.5V92.22c0-6.89-5.61-12.5-12.5-12.5h-34.341a79.713 79.713 0 0 0-.869-5.38l7.81-4.51a6.264 6.264 0 0 0 2.29-8.53l-17.97-31.11c-1.751-3.017-5.598-3.992-8.52-2.279l-7.83 4.51c-7.4-6.561-15.851-11.561-25.12-14.86V8.02c-.01-3.45-2.811-6.25-6.24-6.25h-38.94c-3.431 0-6.23 2.8-6.24 6.25v9.54c-1.44.51-2.891 1.07-4.3 1.681a2.488 2.488 0 0 0-1.32 3.279c.53 1.23 2.04 1.851 3.28 1.32.01 0 .01-.01.02-.01 1.87-.8 3.75-1.511 5.6-2.11a2.514 2.514 0 0 0 1.721-2.38V8.02c0-.689.56-1.25 1.24-1.25h38.939c.68 0 1.24.561 1.24 1.25v11.32c0 1.08.689 2.03 1.72 2.38 9.71 3.2 18.83 8.6 26.37 15.61.78.729 2.02.87 2.95.33l9.41-5.42a1.228 1.228 0 0 1 1.699.46l17.95 31.1a1.244 1.244 0 0 1-.46 1.71l-9.38 5.42a2.52 2.52 0 0 0-1.189 2.72c2.432 10.639 2.405 21.764 0 32.141a2.512 2.512 0 0 0 1.189 2.72l9.39 5.43c.617.364.786 1.104.45 1.71l-17.96 31.101c-.31.535-1.023.82-1.7.45l-9.399-5.431c-.931-.529-2.17-.39-2.95.34-7.54 7.011-16.66 12.41-26.37 15.61-1.03.34-1.72 1.3-1.72 2.38v11.32c0 .7-.55 1.25-1.24 1.25h-38.94c-.69 0-1.24-.55-1.24-1.25V160.1c0-1.08-.69-2.04-1.721-2.38-9.71-3.2-18.829-8.6-26.369-15.61-.78-.729-2.021-.869-2.95-.34l-9.41 5.431c-.638.367-1.368.102-1.7-.46L48.69 115.64a1.226 1.226 0 0 1 .44-1.689l9.4-5.44a2.5 2.5 0 0 0 1.189-2.72c-2.344-10.216-2.49-21.397 0-32.141a2.485 2.485 0 0 0-1.189-2.72l-9.39-5.43c-.632-.356-.779-1.169-.46-1.69l17.97-31.12c.344-.608 1.095-.785 1.69-.46l9.41 5.431c.93.54 2.17.399 2.95-.33 1.34-1.24 2.75-2.46 4.21-3.62a2.505 2.505 0 0 0 .39-3.51c-.82-1.051-2.46-1.24-3.51-.4-1.07.85-2.12 1.73-3.12 2.62L70.84 27.9c-3.033-1.724-6.818-.668-8.521 2.29L44.35 61.3a6.267 6.267 0 0 0 2.28 8.53l7.82 4.51a75.621 75.621 0 0 0-.869 5.38zM182 240.896a5.057 5.057 0 0 1-5.05 5.051h-94.9a5.058 5.058 0 0 1-5.05-5.059 5.056 5.056 0 0 1 5.05-5.05h94.9a5.058 5.058 0 0 1 5.05 5.058zm-27.178-10.058h-50.643l7.284-21.868h36.074zM46.64 109.62c-2.975 1.695-4.006 5.501-2.29 8.52l17.97 31.11c1.706 2.949 5.505 4.016 8.511 2.29l7.84-4.521c7.399 6.55 15.85 11.561 25.12 14.86v9.54c.01 3.45 2.81 6.25 6.24 6.25h38.939c3.43 0 6.23-2.8 6.24-6.25v-9.54a76.55 76.55 0 0 0 25.12-14.86l7.83 4.511c2.975 1.723 6.78.711 8.52-2.271l17.96-31.12c1.736-3.031.686-6.824-2.28-8.53l-7.81-4.51c.36-1.777.635-3.577.869-5.38h26.341c.275 0 .5.225.5.5v88.25c0 .275-.225.5-.5.5H27.24a.501.501 0 0 1-.5-.5v-88.25c0-.275.225-.5.5-.5h26.341c.233 1.786.509 3.583.869 5.38z" fill="#000000" opacity="1" data-original="#000000" class=""></path><circle cx="51.99" cy="206.47" r="2.5" fill="#000000" opacity="1" data-original="#000000" class=""></circle><path d="M92.85 28.21a2.49 2.49 0 0 0 .86-3.42c-.68-1.141-2.28-1.55-3.43-.87a2.504 2.504 0 0 0-.86 3.43c.717 1.194 2.273 1.573 3.43.86zM129.5 139.34c27.36 0 49.619-22.259 49.619-49.619S156.86 40.102 129.5 40.102 79.881 62.36 79.881 89.721 102.14 139.34 129.5 139.34zm0-94.238c24.604 0 44.619 20.016 44.619 44.619S154.104 134.34 129.5 134.34s-44.619-20.016-44.619-44.619 20.015-44.619 44.619-44.619z" fill="#000000" opacity="1" data-original="#000000" class=""></path></g></svg>