<svg xmlns="http://www.w3.org/2000/svg" version="1.1" xmlns:xlink="http://www.w3.org/1999/xlink" width="25" height="25" x="0" y="0" viewBox="0 0 511.999 511.999" style="enable-background:new 0 0 512 512" xml:space="preserve" class=""><g><path fill="#ffd064" d="M40.252 72.377a270.073 270.073 0 0 0-10.648 5.67c-2.037 1.148-3.118 3.697-3.118 6.283 0 32.828 14.814 224.478 57.229 297.248 25.251 43.323 108.458 89.465 148.46 101.202a5.336 5.336 0 0 0 3.026 0c5.397-1.584 11.587-3.799 18.309-6.544z" opacity="1" data-original="#ffd064"></path><path fill="#fff0af" d="M437.773 78.047c-63.7-35.911-189.091-66.651-202.642-70.353a5.437 5.437 0 0 0-2.886 0C219.414 11.2 106.309 38.95 40.252 72.377c3.639 85.747 19.785 240.024 55.41 301.145 22.677 38.906 95.167 81.802 157.849 102.715 26.287-10.734 60.8-29.646 88.681-51.271l94.269-274.835c3.072-31.356 4.43-55.86 4.43-65.801 0-2.586-1.081-5.134-3.118-6.283z" opacity="1" data-original="#fff0af"></path><path fill="#ffd064" d="M383.665 381.578c29.572-50.735 45.726-159.253 52.799-231.447a14.872 14.872 0 0 0-4.273-.632h-75c-8.25 0-15 6.75-15 15v260.465c17.83-13.83 32.954-28.767 41.474-43.386z" opacity="1" data-original="#ffd064"></path><path fill="#81a9c8" d="M233.691 38.332 79.232 87.519c-8.712 3.644-16.103 7.014-22.368 10.092.403 8.576 1.13 19.436 2.191 31.888 0 0 6.817 67.184 13.109 105 0 0 31.035 93.774 47.471 121.973 17.951 30.799 114.052 95.27 114.052 95.27l.003-.002.003.002c39.51-13.933 106.102-54.471 124.052-85.27 16.436-28.199 28.813-79.937 37.471-131.973 6.292-37.816 13.109-105 13.109-105 1.061-12.452 1.788-23.311 2.191-31.888-28.813-14.159-81.449-34.479-176.825-59.279z" opacity="1" data-original="#81a9c8" class=""></path><path fill="#4980ac" d="m377.19 234.499 33.326-85H357.19c-8.25 0-15 6.75-15 15v70zM233.69 425.568c-38.641-18.189-87.14-50.505-102.055-76.097-14.642-25.121-26.065-68.922-34.505-114.973H72.164c8.658 52.036 21.035 103.774 37.471 131.973 17.951 30.799 84.542 71.337 124.052 85.27z" opacity="1" data-original="#4980ac"></path><path fill="#bcd1e1" d="m233.689 234.499-.001 191.068.002.001c26.635-11.41 78.662-37.212 108.501-60.17V234.499zM233.69 38.332C159.05 57.74 110.588 74.404 79.232 87.519c1.952 33.369 7.781 91.782 17.898 146.98h136.559z" opacity="1" data-original="#bcd1e1"></path><g fill="#e9edf1"><path d="M452.19 504.499h-75c-8.25 0-15-6.75-15-15v-75c0-8.25 6.75-15 15-15h75c8.25 0 15 6.75 15 15v75c0 8.25-6.75 15-15 15zM452.19 369.499h-75c-8.25 0-15-6.75-15-15v-75c0-8.25 6.75-15 15-15h75c8.25 0 15 6.75 15 15v75c0 8.25-6.75 15-15 15zM452.19 234.499h-75c-8.25 0-15-6.75-15-15v-75c0-8.25 6.75-15 15-15h75c8.25 0 15 6.75 15 15v75c0 8.25-6.75 15-15 15z" fill="#e9edf1" opacity="1" data-original="#e9edf1" class=""></path></g><path d="M452.19 511.999h-75c-12.406 0-22.5-10.094-22.5-22.5V424.58c-11.96 9.955-24.647 18.744-35.698 25.772-27.767 17.66-59.826 33.214-81.676 39.624a12.844 12.844 0 0 1-7.254 0c-21.848-6.41-53.907-21.964-81.674-39.624-24.117-15.34-56.039-39.067-71.152-64.998-43.076-73.903-58.25-265.528-58.25-301.024 0-5.494 2.657-10.405 6.935-12.816C65.044 49.458 131.797 26.076 224.325 2.021 227.078 1.305 231.612 0 233.691 0s6.612 1.305 9.365 2.021c75.55 19.642 134.349 39.005 174.763 57.551a7.499 7.499 0 1 1-6.256 13.632c-39.617-18.18-97.581-37.245-172.281-56.667a873.044 873.044 0 0 1-5.591-1.464c-1.248.335-3.137.826-5.592 1.464C115.424 45.832 60.393 69.431 33.992 84.185a1.66 1.66 0 0 0-.006.146c0 33.427 15.309 223.299 56.209 293.472 10.608 18.201 34.135 39.472 66.243 59.894 26.424 16.806 56.649 31.555 77.252 37.712 20.604-6.158 50.83-20.907 77.252-37.712 32.108-20.422 55.634-41.692 66.243-59.894.154-.266.309-.533.463-.803h-.458a22.4 22.4 0 0 1-14.061-4.946c-20.819 33.019-88.355 73.14-126.881 86.741a7.5 7.5 0 0 1-1.883.419l-.012.001a8.287 8.287 0 0 1-.69.029h-.014a7.489 7.489 0 0 1-2.683-.508c-29.435-10.427-76.986-36.542-107.405-64.554a7.5 7.5 0 0 1 10.16-11.036c24.886 22.916 64.112 45.826 92.464 57.655l.002-198.803H81.01c8.476 48.465 20.146 95.032 35.104 120.696a7.5 7.5 0 0 1-2.703 10.256 7.498 7.498 0 0 1-10.256-2.703C66.137 306.736 51.315 139.32 49.372 97.963a7.5 7.5 0 0 1 4.185-7.083c38.571-18.954 98.485-39.062 178.085-59.765a7.521 7.521 0 0 1 1.862-.281H233.522c.111-.002.226-.002.337 0h.016a7.523 7.523 0 0 1 1.868.282c79.599 20.703 139.511 40.81 178.082 59.764a7.504 7.504 0 0 1 4.185 7.084c-.33 7.002-.857 15.195-1.546 24.035h14.944c1.453-18.85 1.987-31.672 1.987-37.669 0-.075-.005-.145-.012-.204a7.502 7.502 0 0 1 8.077-12.613c4.277 2.411 6.935 7.322 6.935 12.816 0 6.157-.526 19.05-1.952 37.773a7.501 7.501 0 0 1-1.252 14.896h-68c-4.136 0-7.5 3.364-7.5 7.5v75c0 4.136 3.364 7.5 7.5 7.5h75c4.136 0 7.5-3.364 7.5-7.5v-53.571l-37.165 37.166a7.502 7.502 0 0 1-10.607 0l-25.031-25.031a7.5 7.5 0 0 1 10.607-10.607l19.728 19.729 62.987-62.988a7.5 7.5 0 0 1 10.607 10.607l-16.126 16.125v68.571c0 12.406-10.094 22.5-22.5 22.5h-20.188a1080.84 1080.84 0 0 1-2.617 15h15.805c4.143 0 7.5 3.357 7.5 7.5s-3.357 7.5-7.5 7.5h-68c-4.136 0-7.5 3.364-7.5 7.5 0 0 .039 75.878.113 76.301.027.123.053.247.075.372.762 3.333 3.751 5.827 7.312 5.827h75c4.136 0 7.5-3.364 7.5-7.5v-53.571l-37.165 37.166a7.502 7.502 0 0 1-10.607 0l-25.031-25.031a7.5 7.5 0 0 1 10.607-10.607l19.728 19.729 62.987-62.988a7.5 7.5 0 0 1 10.607 10.607l-16.126 16.125V354.5c0 12.406-10.094 22.5-22.5 22.5h-57.532a152.737 152.737 0 0 1-4.514 8.355 96.762 96.762 0 0 1-4.261 6.645h59.307c4.143 0 7.5 3.357 7.5 7.5s-3.357 7.5-7.5 7.5h-68c-4.136 0-7.5 3.364-7.5 7.5v75c0 4.136 3.364 7.5 7.5 7.5h75c4.136 0 7.5-3.364 7.5-7.5v-53.571l-37.165 37.166a7.502 7.502 0 0 1-10.607 0l-25.031-25.031a7.5 7.5 0 0 1 10.607-10.607l19.728 19.729 62.987-62.988a7.5 7.5 0 0 1 10.607 10.607l-16.126 16.125v68.571c-.001 12.404-10.094 22.498-22.501 22.498zm-211.002-270-.002 198.833c40.715-16.82 95.226-52.652 110.08-78.138 1.165-2 2.334-4.174 3.488-6.484a22.534 22.534 0 0 1-.064-1.711v-75c0-12.406 10.094-22.5 22.5-22.5h6.401a969.178 969.178 0 0 0 2.74-15zm157.67 15h15.277c.904-4.895 1.792-9.905 2.656-15h-15.235c-.878 5.097-1.78 10.107-2.698 15zm-157.67-30h114.787a22.407 22.407 0 0 1-1.285-7.5v-75c0-12.406 10.094-22.5 22.5-22.5h24.227a864.536 864.536 0 0 0 1.353-19.794c-26.253-12.395-74.771-31.164-161.579-54.151zm-162.694 0h147.694l.002-178.945C139.383 71.041 90.862 89.812 64.609 102.206c1.635 29.665 6.235 77.194 13.885 124.793zM434.086 84.576l.007.004-.007-.004z" fill="#000000" opacity="1" data-original="#000000" class=""></path></g></svg>