<svg xmlns="http://www.w3.org/2000/svg" version="1.1" xmlns:xlink="http://www.w3.org/1999/xlink" width="25" height="25" x="0" y="0" viewBox="0 0 512 512" style="enable-background:new 0 0 512 512" xml:space="preserve" class=""><g><path fill="#004281" d="M208 357.763c0 14.224 11.531 25.755 25.755 25.755H240l-80 16-64-16h6.245c14.224 0 25.755-11.531 25.755-25.755V320h80z" opacity="1" data-original="#004281"></path><path fill="#0055a3" d="M321 336H15c-8.284 0-15-6.716-15-15V111c0-8.284 6.716-15 15-15h306c8.284 0 15 6.716 15 15v210c0 8.284-6.716 15-15 15z" opacity="1" data-original="#0055a3" class=""></path><path fill="#01c0fa" d="M32 128h272v176H32z" opacity="1" data-original="#01c0fa" class=""></path><path fill="#08a9f1" d="m98.884 128 3.269 9.806a74.036 74.036 0 0 0-5.326 12.845l-12.129 6.065A8.5 8.5 0 0 0 80 164.318v16.572a8.5 8.5 0 0 0 4.698 7.602l12.129 6.065a73.925 73.925 0 0 0 5.326 12.845l-4.291 12.871a8.499 8.499 0 0 0 2.053 8.697l11.718 11.718a8.499 8.499 0 0 0 8.697 2.053l12.871-4.291a74.036 74.036 0 0 0 12.845 5.326l6.065 12.129a8.5 8.5 0 0 0 7.602 4.698h16.572a8.5 8.5 0 0 0 7.602-4.698l6.065-12.129a73.925 73.925 0 0 0 12.845-5.326l12.871 4.291a8.499 8.499 0 0 0 8.697-2.053l11.718-11.718a8.499 8.499 0 0 0 2.053-8.697l-4.29-12.871a74.036 74.036 0 0 0 5.326-12.845l12.129-6.065a8.5 8.5 0 0 0 4.698-7.602v-16.572a8.5 8.5 0 0 0-4.698-7.602l-12.129-6.065a73.925 73.925 0 0 0-5.326-12.845l3.269-9.806z" opacity="1" data-original="#08a9f1"></path><path fill="#08a9f1" d="M256.612 128v113.729c0 23.012-18.655 41.667-41.667 41.667H32V304h272V128z" opacity="1" data-original="#08a9f1"></path><path fill="#ffc344" d="M147.5 272h-71c-6.904 0-12.5-5.596-12.5-12.5v-87c0-6.904 5.596-12.5 12.5-12.5h71c6.904 0 12.5 5.596 12.5 12.5v87c0 6.904-5.596 12.5-12.5 12.5z" opacity="1" data-original="#ffc344"></path><path fill="#fd6930" d="M259.5 272h-55c-6.904 0-12.5-5.596-12.5-12.5v-39c0-6.904 5.596-12.5 12.5-12.5h55c6.904 0 12.5 5.596 12.5 12.5v39c0 6.904-5.596 12.5-12.5 12.5z" opacity="1" data-original="#fd6930"></path><path fill="#fd5426" d="M192 220.877v22.235a73.983 73.983 0 0 0 10.798-4.662l12.871 4.291a8.499 8.499 0 0 0 8.697-2.053l11.718-11.718a8.499 8.499 0 0 0 2.053-8.697L234.047 208h-29.169c-7.113 0-12.878 5.765-12.878 12.877z" opacity="1" data-original="#fd5426"></path><path fill="#feb237" d="M147.123 160H81.179A8.487 8.487 0 0 0 80 164.318v16.572a8.5 8.5 0 0 0 4.698 7.602l12.129 6.065a73.925 73.925 0 0 0 5.326 12.845l-4.291 12.871a8.499 8.499 0 0 0 2.053 8.697l11.718 11.718a8.499 8.499 0 0 0 8.697 2.053l12.871-4.291a74.036 74.036 0 0 0 12.845 5.326l6.065 12.129a8.5 8.5 0 0 0 7.602 4.698h.2c.056-.486.085-.98.085-1.481v-86.245C160 165.765 154.235 160 147.123 160z" opacity="1" data-original="#feb237"></path><path fill="#fd5426" d="M259.123 208h-2.511v33.729c0 11.923-5.008 22.676-13.035 30.271h15.546c7.112 0 12.877-5.765 12.877-12.877v-38.245c0-7.113-5.765-12.878-12.877-12.878z" opacity="1" data-original="#fd5426"></path><path fill="#80d261" d="M256 158.715v-13.431a11.04 11.04 0 0 0-6.103-9.874l-9.774-4.887a2.529 2.529 0 0 1-1.271-1.49 73.973 73.973 0 0 0-4.514-10.887 2.524 2.524 0 0 1-.154-1.953l3.457-10.372a11.039 11.039 0 0 0-2.667-11.297l-9.497-9.497a11.04 11.04 0 0 0-11.297-2.667l-10.372 3.457a2.533 2.533 0 0 1-1.953-.154 74.063 74.063 0 0 0-10.887-4.514 2.532 2.532 0 0 1-1.49-1.271l-4.887-9.774a11.04 11.04 0 0 0-9.874-6.103h-13.431a11.04 11.04 0 0 0-9.874 6.103l-4.887 9.774a2.529 2.529 0 0 1-1.49 1.271 73.973 73.973 0 0 0-10.887 4.514c-.606.31-1.307.37-1.953.154l-10.372-3.457a11.039 11.039 0 0 0-11.297 2.667l-9.497 9.497a11.04 11.04 0 0 0-2.667 11.297l3.457 10.372a2.533 2.533 0 0 1-.154 1.953 74.063 74.063 0 0 0-4.514 10.887 2.532 2.532 0 0 1-1.271 1.49l-9.774 4.887a11.04 11.04 0 0 0-6.103 9.874v13.431a11.04 11.04 0 0 0 6.103 9.874l9.774 4.887a2.529 2.529 0 0 1 1.271 1.49 73.973 73.973 0 0 0 4.514 10.887c.31.606.37 1.307.154 1.953l-3.457 10.372a11.039 11.039 0 0 0 2.667 11.297l9.497 9.497a11.04 11.04 0 0 0 11.297 2.667l10.372-3.457a2.533 2.533 0 0 1 1.953.154 74.063 74.063 0 0 0 10.887 4.514c.647.21 1.186.663 1.49 1.271l4.887 9.774a11.04 11.04 0 0 0 9.874 6.103h13.431a11.04 11.04 0 0 0 9.874-6.103l4.887-9.774a2.529 2.529 0 0 1 1.49-1.271 73.973 73.973 0 0 0 10.887-4.514 2.524 2.524 0 0 1 1.953-.154l10.372 3.457a11.039 11.039 0 0 0 11.297-2.667l9.497-9.497a11.04 11.04 0 0 0 2.667-11.297l-3.457-10.372a2.533 2.533 0 0 1 .154-1.953 74.063 74.063 0 0 0 4.514-10.887 2.532 2.532 0 0 1 1.271-1.49l9.774-4.887a11.038 11.038 0 0 0 6.103-9.874z" opacity="1" data-original="#80d261" class=""></path><path fill="#68ca44" d="m249.897 135.41-9.774-4.887a2.529 2.529 0 0 1-1.271-1.49 73.973 73.973 0 0 0-4.514-10.887 2.524 2.524 0 0 1-.154-1.953l3.457-10.372a11.039 11.039 0 0 0-2.667-11.297l-9.497-9.497a11.04 11.04 0 0 0-11.297-2.667l-10.372 3.457a2.528 2.528 0 0 1-1.953-.154 74.053 74.053 0 0 0-6.477-2.928 21.706 21.706 0 0 1-1.033 8.752l-.001.003c-1.031 3.093-.919 6.472.415 9.447a74.733 74.733 0 0 1 1.642 3.96c1.158 3.04 3.47 5.501 6.38 6.956a21.732 21.732 0 0 1 12.013 19.437v.216a21.732 21.732 0 0 1-12.013 19.437c-2.91 1.455-5.222 3.916-6.38 6.956a73.56 73.56 0 0 1-1.642 3.96c-1.335 2.974-1.446 6.354-.415 9.446l.001.003a21.729 21.729 0 0 1-5.25 22.238l-.153.152a21.732 21.732 0 0 1-22.238 5.25l-.003-.001c-3.093-1.031-6.472-.92-9.446.416a73.889 73.889 0 0 1-3.96 1.641c-3.04 1.158-5.501 3.47-6.956 6.38a21.732 21.732 0 0 1-12.423 10.85c.078.031.156.066.231.104a74.063 74.063 0 0 0 10.887 4.514c.647.21 1.186.663 1.49 1.271l4.887 9.774a11.04 11.04 0 0 0 9.874 6.103h13.431a11.04 11.04 0 0 0 9.874-6.103l4.887-9.774a2.529 2.529 0 0 1 1.49-1.271 73.973 73.973 0 0 0 10.887-4.514 2.529 2.529 0 0 1 1.953-.155l10.372 3.458a11.039 11.039 0 0 0 11.297-2.667l9.497-9.497a11.04 11.04 0 0 0 2.667-11.297l-3.457-10.372a2.533 2.533 0 0 1 .154-1.953 74.063 74.063 0 0 0 4.514-10.887 2.532 2.532 0 0 1 1.271-1.49l9.774-4.887a11.04 11.04 0 0 0 6.103-9.874v-13.431a11.038 11.038 0 0 0-6.102-9.876z" opacity="1" data-original="#68ca44" class=""></path><path fill="#0055a3" d="M497 448H383c-8.284 0-15-6.716-15-15V287.547c0-8.284 6.716-15 15-15h114c8.284 0 15 6.716 15 15V433c0 8.284-6.716 15-15 15z" opacity="1" data-original="#0055a3" class=""></path><path fill="#004281" d="M496.547 272.547h-25.755v117.505c0 20.625-16.72 37.345-37.345 37.345H368v5.151c0 8.534 6.918 15.453 15.453 15.453h113.095c8.534 0 15.453-6.919 15.453-15.453V288c-.001-8.534-6.919-15.453-15.454-15.453z" opacity="1" data-original="#004281"></path><path fill="#f2fbff" d="m480 288-32 16-48-16V181.202c0-2.096 2.425-3.262 4.062-1.952l14.377 11.501a2.5 2.5 0 0 0 3.123 0l16.877-13.501a2.5 2.5 0 0 1 3.123 0l16.877 13.501a2.5 2.5 0 0 0 3.123 0l14.377-11.501c1.637-1.31 4.062-.144 4.062 1.952V288z" opacity="1" data-original="#f2fbff"></path><path fill="#dff6fd" d="m458.438 190.751-9.344-7.475v58.128c0 14.355-11.637 25.993-25.993 25.993H400V288l48 16 32-16V181.202c0-2.096-2.425-3.262-4.062-1.952l-14.377 11.501a2.5 2.5 0 0 1-3.123 0z" opacity="1" data-original="#dff6fd"></path><path fill="#0055a3" d="M296.5 383.517h-257a7.5 7.5 0 0 0-7.5 7.5V440.5a7.5 7.5 0 0 0 7.5 7.5h257a7.5 7.5 0 0 0 7.5-7.5v-49.483a7.5 7.5 0 0 0-7.5-7.5z" opacity="1" data-original="#0055a3" class=""></path><path fill="#004281" d="M296.274 383.517h-33.481v17.941c0 14.325-11.613 25.938-25.938 25.938H32v12.877a7.726 7.726 0 0 0 7.726 7.726h256.547a7.726 7.726 0 0 0 7.726-7.726v-49.03a7.724 7.724 0 0 0-7.725-7.726z" opacity="1" data-original="#004281"></path><path fill="#62dbfb" d="M464 352h-48c-8.837 0-16-7.163-16-16v-48h80v48c0 8.837-7.163 16-16 16z" opacity="1" data-original="#62dbfb"></path><path fill="#01d0fb" d="M449.095 288v26.913c0 9.103-7.38 16.483-16.483 16.483H400v4.121c0 9.103 7.38 16.483 16.483 16.483h47.034c9.103 0 16.483-7.38 16.483-16.483V288z" opacity="1" data-original="#01d0fb"></path><path fill="#0055a3" d="M448 231.5h-16c-4.142 0-7.5-3.357-7.5-7.5s3.358-7.5 7.5-7.5h16c4.142 0 7.5 3.357 7.5 7.5s-3.358 7.5-7.5 7.5zm7.5 24.5a7.5 7.5 0 0 0-7.5-7.5h-16c-4.142 0-7.5 3.357-7.5 7.5s3.358 7.5 7.5 7.5h16a7.5 7.5 0 0 0 7.5-7.5z" opacity="1" data-original="#0055a3" class=""></path><g fill="#004281"><path d="M449.095 231.42a7.5 7.5 0 0 0 0-14.84zM455.5 256a7.5 7.5 0 0 0-7.387-7.499c-1.784 6.298-5.882 11.623-11.317 14.999H448a7.5 7.5 0 0 0 7.5-7.5zM480 423.5h-80c-4.142 0-7.5-3.357-7.5-7.5s3.358-7.5 7.5-7.5h80c4.142 0 7.5 3.357 7.5 7.5s-3.358 7.5-7.5 7.5z" fill="#004281" opacity="1" data-original="#004281"></path></g><path fill="#00366d" d="M480 408.5h-14.075a37.508 37.508 0 0 1-15.85 15H480c4.142 0 7.5-3.357 7.5-7.5s-3.358-7.5-7.5-7.5z" opacity="1" data-original="#00366d"></path><path fill="#0055a3" d="m182.288 148.856-6.788-2.262v-29.201c5.845.87 10.344 5.922 10.344 12.005 0 4.143 3.358 7.5 7.5 7.5s7.5-3.357 7.5-7.5c0-14.361-11.213-26.152-25.344-27.079V99.2c0-4.143-3.358-7.5-7.5-7.5s-7.5 3.357-7.5 7.5v3.119c-14.131.927-25.344 12.718-25.344 27.079a27.106 27.106 0 0 0 18.557 25.746l6.788 2.262v29.201c-5.845-.87-10.344-5.922-10.344-12.005 0-4.143-3.358-7.5-7.5-7.5s-7.5 3.357-7.5 7.5c0 14.361 11.213 26.152 25.344 27.079v3.119c0 4.143 3.358 7.5 7.5 7.5s7.5-3.357 7.5-7.5v-3.119c14.131-.927 25.344-12.718 25.344-27.079a27.11 27.11 0 0 0-18.557-25.746zm-23.831-7.943a12.124 12.124 0 0 1-8.301-11.516c0-6.083 4.499-11.135 10.344-12.005v24.202zm17.043 45.694v-24.202l2.043.681a12.124 12.124 0 0 1 8.301 11.516c0 6.084-4.499 11.136-10.344 12.005z" opacity="1" data-original="#0055a3" class=""></path><path fill="#004281" d="M194.759 161.857c-1.335 2.974-1.446 6.354-.415 9.446l.001.003a21.729 21.729 0 0 1-5.25 22.238l-.153.152a21.732 21.732 0 0 1-22.238 5.25l-.003-.001c-3.093-1.031-6.472-.92-9.446.416-.94.422-1.89.825-2.85 1.208 1.949.593 3.99.973 6.096 1.111v3.119c0 4.143 3.358 7.5 7.5 7.5s7.5-3.357 7.5-7.5v-3.119c14.131-.927 25.344-12.718 25.344-27.079a27.094 27.094 0 0 0-4.893-15.557c-.38.948-.777 1.886-1.193 2.813zM192 423.5h-64c-4.142 0-7.5-3.357-7.5-7.5s3.358-7.5 7.5-7.5h64c4.142 0 7.5 3.357 7.5 7.5s-3.358 7.5-7.5 7.5z" opacity="1" data-original="#004281"></path><circle cx="224" cy="416" r="7.5" fill="#e53950" opacity="1" data-original="#e53950"></circle></g></svg>