<svg xmlns="http://www.w3.org/2000/svg" version="1.1" xmlns:xlink="http://www.w3.org/1999/xlink" width="25" height="25" x="0" y="0" viewBox="0 0 512 511" style="enable-background:new 0 0 512 512" xml:space="preserve" class=""><g><path fill="#44bfd7" d="M504.426 20.195v152.528c0 6.668-5.457 12.12-12.121 12.12H19.695c-6.664 0-12.12-5.452-12.12-12.12V20.195c0-6.664 5.456-12.12 12.12-12.12h472.61c6.664 0 12.12 5.456 12.12 12.12zm0 0" opacity="1" data-original="#44bfd7"></path><path fill="#60c8dd" d="M504.426 20.195v133H35.859c-6.668 0-12.12-5.453-12.12-12.12v-133h468.566c6.664 0 12.12 5.456 12.12 12.12zm0 0" opacity="1" data-original="#60c8dd"></path><path fill="#ffcd71" d="M361.773 318.34v29.652c0 13.688-5.468 26.149-14.343 35.317-.11.12-.227.23-.336.351-3.485 3.535-5.512 8.25-5.512 13.207v21.957c0 8.48-6.867 15.348-15.348 15.348h-98.652c-8.469 0-15.336-6.867-15.336-15.348V400.02c0-5.532-2.598-10.684-6.887-14.176-6.48-5.285-5.172-4.301-45.511-54.88-5.215-7.026-9.813-16.019-9.813-24.753 0-4.527 1.235-8.992 4.27-13.063 8.87-11.93 25.886-14.43 37.816-5.554 1.113.828 2.305 1.43 3.516 1.789 7.004 2.183 14.851-2.95 14.851-11.012V170.133c0-14.668 12.715-26.52 27.68-25.067 13.012 1.254 22.723 12.582 22.723 25.657v91.265a5.46 5.46 0 0 0 5.457 5.457h44.543c27.984 0 50.882 22.899 50.882 50.895zm0 0" opacity="1" data-original="#ffcd71"></path><path fill="#ffd993" d="M361.773 318.34v29.652c0 13.688-5.468 26.149-14.343 35.317-2.868.164-5.75.242-8.653.242-64.152 0-119.257-38.778-143.14-94.168 7.008 2.183 14.855-2.945 14.855-11.012V170.133c0-14.668 12.715-26.52 27.68-25.067 13.008 1.254 22.723 12.582 22.723 25.657v91.265a5.46 5.46 0 0 0 5.457 5.457h44.539c27.984 0 50.882 22.899 50.882 50.895zm0 0" opacity="1" data-original="#ffd993"></path><path d="M492.305.5h-24.688c-4.183 0-7.578 3.395-7.578 7.574a7.58 7.58 0 0 0 7.578 7.578h24.688c2.465 0 4.543 2.078 4.543 4.543v152.528c0 2.464-2.078 4.547-4.543 4.547H268.566v-6.66c0-17.301-13.253-31.9-30.171-33.231-19.082-1.504-35.395 13.68-35.395 32.676v7.215H19.695c-2.465 0-4.543-2.083-4.543-4.547v-33.618a7.572 7.572 0 0 0-7.578-7.574A7.579 7.579 0 0 0 0 139.105v33.618c0 10.859 8.84 19.695 19.695 19.695H203v85.879c0 3.25-3.684 5.09-6.273 3.152-28.278-21.023-75.926 9.52-42.88 53.98 0 0 36.614 45.919 36.708 46.04 15.53 19.41 14.203 3.64 14.203 37.324 0 12.637 10.281 22.918 22.918 22.918h98.668c12.644 0 22.918-10.281 22.918-22.918v-21.961c0-2.906 1.191-5.715 3.343-7.898 10.872-11.04 16.86-25.594 16.86-40.989v-29.668c0-32.242-26.235-58.472-58.477-58.472h-42.422v-67.387h223.739c10.855 0 19.695-8.836 19.695-19.695V20.195C512 9.34 503.16.5 492.305.5zM310.988 274.953c23.89 0 43.325 19.438 43.325 43.324v29.668c0 11.395-4.434 22.172-12.504 30.352-4.961 5.031-7.7 11.617-7.7 18.535v21.961c0 4.281-3.484 7.77-7.765 7.77h-98.668c-4.281 0-7.766-3.489-7.766-7.77v-18.816c0-7.73-3.527-15.043-9.687-20.051-5.739-4.672-4.524-3.781-44.293-53.637-4.082-5.516-12.586-19.121-5.477-28.68 6.406-8.613 18.617-10.402 27.234-4 12.543 9.344 30.465.399 30.465-15.312V170.055c0-9.903 8.47-18.399 19.051-17.575 9.09.715 16.211 8.676 16.211 18.13v91.718c0 6.961 5.668 12.625 12.625 12.625zm0 0" fill="#000000" opacity="1" data-original="#000000" class=""></path><path d="M7.574 116.379a7.572 7.572 0 0 0 7.578-7.574v-88.61c0-2.465 2.078-4.543 4.543-4.543h417.618a7.58 7.58 0 0 0 7.578-7.578c0-4.18-3.395-7.574-7.579-7.574H19.695C8.84.5 0 9.34 0 20.195v88.61a7.579 7.579 0 0 0 7.574 7.574zm0 0" fill="#000000" opacity="1" data-original="#000000" class=""></path><path d="M96.805 73.375c0-18.555-12.41-24.36-28.004-24.36H45.234c-3.3 0-5.464 2.505-5.464 5.352v72.403c0 7.285 17.757 7.285 17.757 0V99.332h7.516l15.594 30.281c4.586 8.758 20.347-1.851 16.281-7.968l-13.887-25.16c7.969-3.07 13.774-10.36 13.774-23.11zM57.53 85.672V64.496c12.621 0 21.516-2.012 21.516 10.586 0 12.602-8.89 10.59-21.516 10.59zM154.52 64.496c3.414 0 5.351-3.64 5.351-7.855 0-3.641-1.594-7.625-5.351-7.625h-40.528c-3.87 0-7.742 1.82-7.742 5.464v72.29c0 3.64 3.871 5.46 7.742 5.46h40.528c7.261 0 7.035-15.48 0-15.48h-30.508V97.398h17.074c3.758 0 5.351-3.644 5.351-6.718 0-3.64-1.937-6.942-5.351-6.942h-17.074V64.496zM190.719 117.434c-10.586 0-14.004-8.426-19.356-8.426-4.324 0-7.738 5.691-7.738 9.562 0 7.516 12.52 14.801 27.434 14.801 16.507 0 28.46-8.879 28.46-25.273 0-28.688-36.09-26.524-36.09-37.907 0-3.53 3.305-6.832 11.387-6.832 9.336 0 11.496 4.325 15.598 4.325 5.008 0 7.055-6.262 7.055-9.336 0-8.875-16.621-10.016-22.653-10.016-14.23 0-29.144 6.488-29.144 23.566 0 26.637 36.086 24.247 36.086 38.02.004 5.465-5.805 7.516-11.04 7.516zM276.55 64.496c7.04 0 7.255-15.48 0-15.48h-40.527c-3.87 0-7.742 1.82-7.742 5.464v72.29c0 3.64 3.871 5.46 7.742 5.46h40.528c7.261 0 7.031-15.48 0-15.48h-30.512V97.398h17.078c7.235 0 7.02-13.66 0-13.66H246.04V64.496zM346.672 73.375c0-18.555-12.41-24.36-28.004-24.36h-23.566c-3.301 0-5.465 2.505-5.465 5.352v72.403c0 7.285 17.761 7.285 17.761 0V99.332h7.512l15.598 30.281c4.586 8.762 20.32-1.902 16.277-7.968l-13.89-25.157c7.972-3.074 13.777-10.363 13.777-23.113zm-39.274 12.297V64.496c12.622 0 21.516-2.012 21.516 10.586 0 12.602-8.89 10.59-21.516 10.59zM399.375 52.316l-15.82 58.399-15.938-58.399c-1.926-6.746-18.828-2.23-16.965 5.239l21.29 69.441c2.484 7.902 20.738 7.914 23.222 0 22.285-73.082 21.402-69.906 21.402-70.695 0-6.39-15.32-10.52-17.191-3.985zM471.434 64.496c7.039 0 7.257-15.48 0-15.48h-40.528c-3.867 0-7.738 1.82-7.738 5.464v72.29c0 3.64 3.871 5.46 7.738 5.46h40.528c7.265 0 7.035-15.48 0-15.48h-30.508V97.398H458c7.238 0 7.023-13.66 0-13.66h-17.074V64.496zm0 0" fill="#000000" opacity="1" data-original="#000000" class=""></path></g></svg>