<svg xmlns="http://www.w3.org/2000/svg" version="1.1" xmlns:xlink="http://www.w3.org/1999/xlink" width="512" height="512" x="0" y="0" viewBox="0 0 64 64" style="enable-background:new 0 0 512 512" xml:space="preserve" class=""><g><path fill="#00a0c8" d="M56 20.297v23.405a4 4 0 0 1-1.985 3.455l-20 11.667a4.002 4.002 0 0 1-4.031 0l-20-11.667A4 4 0 0 1 8 43.703V20.297a4 4 0 0 1 1.985-3.455l20-11.667a4.002 4.002 0 0 1 4.031 0l20 11.667A4.002 4.002 0 0 1 56 20.297z" opacity="1" data-original="#00a0c8" class=""></path><path fill="#f0f0f0" d="M12 42.554V21.446c0-.711.378-1.369.992-1.728l18-10.5a2 2 0 0 1 2.015 0l18 10.5c.615.359.993 1.017.993 1.728v21.108c0 .711-.378 1.369-.992 1.728l-18 10.5a2 2 0 0 1-2.015 0l-18-10.5A2.001 2.001 0 0 1 12 42.554z" opacity="1" data-original="#f0f0f0" class=""></path><path fill="#d2d2d2" d="M46.242 29.013c-1.301.13-2.242 1.322-2.242 2.63V36a1 1 0 0 1-1 1H21a1 1 0 0 1-1-1v-4.357c0-1.308-.941-2.499-2.242-2.63A2.5 2.5 0 0 0 15 31.5V40a1 1 0 0 0 1 1c0 1.081.881 2 2 2h1.453c-.304 1.215-.217.866-.42 1.69-.17.67.33 1.31 1.02 1.31.4 0 .76-.23.94-.58l1.21-2.42h19.593l1.21 2.42c.18.35.54.58.94.58.69 0 1.19-.64 1.02-1.31-.203-.824-.116-.475-.42-1.69H46c1.128 0 2-.927 2-2a1 1 0 0 0 1-1v-8.5a2.5 2.5 0 0 0-2.758-2.487z" opacity="1" data-original="#d2d2d2" class=""></path><path fill="#0a5078" d="m22.703 41-1 2-.71 1.42c-.18.35-.54.58-.94.58-.69 0-1.19-.64-1.02-1.31l.17-.69.5-2z" opacity="1" data-original="#0a5078" class=""></path><path fill="#00325a" d="m22.703 41-1 2h-2.5l.5-2z" opacity="1" data-original="#00325a"></path><path fill="#0a5078" d="m41.297 41 1 2 .71 1.42c.18.35.54.58.94.58.69 0 1.19-.64 1.02-1.31l-.17-.69-.5-2z" opacity="1" data-original="#0a5078" class=""></path><path fill="#00325a" d="m41.297 41 1 2h2.5l-.5-2z" opacity="1" data-original="#00325a"></path><path fill="#d2d2d2" d="M52 21.45v1c0-.72-.38-1.37-.99-1.73l-18-10.5c-.62-.36-1.39-.36-2.02 0l-18 10.5c-.61.36-.99 1.01-.99 1.73v-1c0-.72.38-1.37.99-1.73l18-10.5c.63-.36 1.4-.36 2.02 0l18 10.5c.61.36.99 1.01.99 1.73z" opacity="1" data-original="#d2d2d2" class=""></path><path fill="#fab400" d="M48 40c0 .36-.1.71-.27 1-.35.6-.99 1-1.73 1H18c-.55 0-1.05-.22-1.41-.59-.13-.12-.23-.26-.32-.41-.17-.29-.27-.64-.27-1z" opacity="1" data-original="#fab400" class=""></path><path fill="#dc9600" d="M48 40c0 .36-.1.71-.27 1H16.27c-.17-.29-.27-.64-.27-1z" opacity="1" data-original="#dc9600" class=""></path><path fill="#c80a50" d="M18 36h28v4H18z" opacity="1" data-original="#c80a50"></path><path fill="#fab400" d="M46 25v11H18V25c0-1.66 1.34-3 3-3h22c1.66 0 3 1.34 3 3z" opacity="1" data-original="#fab400" class=""></path><path fill="#00a0c8" d="M18 34h28v3H18z" opacity="1" data-original="#00a0c8" class=""></path><path fill="#0a5078" d="M46.242 28.013c-1.301.13-2.242 1.322-2.242 2.63V35a1 1 0 0 1-1 1H21a1 1 0 0 1-1-1v-4.357c0-1.308-.941-2.499-2.242-2.63A2.5 2.5 0 0 0 15 30.5V39a1 1 0 0 0 1 1h32a1 1 0 0 0 1-1v-8.5a2.5 2.5 0 0 0-2.758-2.487z" opacity="1" data-original="#0a5078" class=""></path><circle cx="17.5" cy="30.5" r=".5" fill="#fab400" opacity="1" data-original="#fab400" class=""></circle><circle cx="46.5" cy="30.5" r=".5" fill="#fab400" opacity="1" data-original="#fab400" class=""></circle><path fill="#c80a50" d="M29 34h-6a1 1 0 0 1-1-1v-6a1 1 0 0 1 1-1h6a1 1 0 0 1 1 1v6a1 1 0 0 1-1 1z" opacity="1" data-original="#c80a50"></path><path fill="#a00028" d="M30 32v1c0 .55-.45 1-1 1h-6c-.55 0-1-.45-1-1v-1c0 .55.45 1 1 1h6c.55 0 1-.45 1-1z" opacity="1" data-original="#a00028" class=""></path><path fill="#c80a50" d="M41 34h-6a1 1 0 0 1-1-1v-6a1 1 0 0 1 1-1h6a1 1 0 0 1 1 1v6a1 1 0 0 1-1 1z" opacity="1" data-original="#c80a50"></path><g fill="#a00028"><path d="M42 32v1c0 .55-.45 1-1 1h-6c-.55 0-1-.45-1-1v-1c0 .55.45 1 1 1h6c.55 0 1-.45 1-1z" fill="#a00028" opacity="1" data-original="#a00028" class=""></path><circle cx="26" cy="28.5" r=".5" fill="#a00028" opacity="1" data-original="#a00028" class=""></circle><circle cx="26" cy="31.5" r=".5" fill="#a00028" opacity="1" data-original="#a00028" class=""></circle><circle cx="27.5" cy="30" r=".5" fill="#a00028" opacity="1" data-original="#a00028" class=""></circle><circle cx="24.5" cy="30" r=".5" fill="#a00028" opacity="1" data-original="#a00028" class=""></circle><circle cx="38" cy="28.5" r=".5" fill="#a00028" opacity="1" data-original="#a00028" class=""></circle><circle cx="38" cy="31.5" r=".5" fill="#a00028" opacity="1" data-original="#a00028" class=""></circle><circle cx="39.5" cy="30" r=".5" fill="#a00028" opacity="1" data-original="#a00028" class=""></circle><circle cx="36.5" cy="30" r=".5" fill="#a00028" opacity="1" data-original="#a00028" class=""></circle></g><circle cx="20.5" cy="24.5" r=".5" fill="#dc9600" opacity="1" data-original="#dc9600" class=""></circle><circle cx="43.5" cy="24.5" r=".5" fill="#dc9600" opacity="1" data-original="#dc9600" class=""></circle><circle cx="32" cy="29.5" r=".5" fill="#dc9600" opacity="1" data-original="#dc9600" class=""></circle></g></svg>