<svg
                                                        xmlns="http://www.w3.org/2000/svg" version="1.1"
                                                        xmlns:xlink="http://www.w3.org/1999/xlink" width="25"
                                                        height="25" x="0" y="0" viewBox="0 0 256 256"
                                                        style="enable-background:new 0 0 512 512" xml:space="preserve"
                                                        class="">
                                                        <g>
                                                            <path fill="#377de2"
                                                                d="M199.31 188.18v29.7c0 5.53-4.48 10-10 10H66.69c-5.52 0-10-4.47-10-10v-29.7c0-22.09 17.91-40 40-40h62.62c22.09 0 40 17.91 40 40z"
                                                                opacity="1" data-original="#377de2" class="">
                                                            </path>
                                                            <path fill="#2266d3"
                                                                d="M166.474 148.823c7.893 7.307 12.834 17.756 12.834 29.359v29.7c0 5.523-4.477 10-10 10H56.692c0 5.523 4.477 10 10 10h122.616c5.523 0 10-4.477 10-10v-29.7c0-19.644-14.162-35.981-32.834-39.359z"
                                                                opacity="1" data-original="#2266d3" class="">
                                                            </path>
                                                            <path fill="#f1f2f2"
                                                                d="M138.788 227.883h-21.576l-10-79.703h41.576z"
                                                                opacity="1" data-original="#f1f2f2" class="">
                                                            </path>
                                                            <path fill="#e6e7e8"
                                                                d="M112.387 148.18a17.013 17.013 0 0 0-1.487 6.954c0 9.444 7.656 17.101 17.101 17.101s17.101-7.656 17.101-17.101c0-2.479-.539-4.828-1.487-6.954z"
                                                                opacity="1" data-original="#e6e7e8" class="">
                                                            </path>
                                                            <path fill="#d1d3d4"
                                                                d="m115.958 217.883-23.196-34.957a2 2 0 0 1 .37-2.629l5.369-4.568a2 2 0 0 0-.431-3.326l-8.613-4.133a2 2 0 0 1-.839-2.85l10.588-17.24h8.007zM140.042 217.883l23.196-34.957a2 2 0 0 0-.37-2.629l-5.369-4.568a2 2 0 0 1 .431-3.326l8.613-4.133a2 2 0 0 0 .839-2.85l-10.588-17.24h-8.007z"
                                                                opacity="1" data-original="#d1d3d4" class="">
                                                            </path>
                                                            <path fill="#8c3f0a"
                                                                d="M153.789 101.832h-51.578c-8.343 0-15.106-6.763-15.106-15.106V75.841h81.79v10.885c0 8.343-6.763 15.106-15.106 15.106z"
                                                                opacity="1" data-original="#8c3f0a" class="">
                                                            </path>
                                                            <path fill="#fcc4ae"
                                                                d="M116.508 126.744v28.443c0 2.2.632 4.355 1.82 6.207 4.522 7.048 14.823 7.048 19.345 0a11.496 11.496 0 0 0 1.82-6.207v-28.442h-22.985z"
                                                                opacity="1" data-original="#fcc4ae" class="">
                                                            </path>
                                                            <path fill="#f2ad97"
                                                                d="M116.508 135.638A36.16 36.16 0 0 0 128 137.51c4.019 0 7.881-.664 11.493-1.873v-8.893h-22.985z"
                                                                opacity="1" data-original="#f2ad97" class="">
                                                            </path>
                                                            <path fill="#ffd2c0"
                                                                d="M128 132.51c-20.004 0-36.219-16.216-36.219-36.219V77.489c0-20.003 16.216-36.219 36.219-36.219s36.219 16.216 36.219 36.219V96.29c0 20.004-16.216 36.22-36.219 36.22z"
                                                                opacity="1" data-original="#ffd2c0" class="">
                                                            </path>
                                                            <path fill="#fcc4ae"
                                                                d="M150.988 49.501a36.072 36.072 0 0 1 8.231 22.988V91.29c0 20.003-16.216 36.219-36.219 36.219a36.07 36.07 0 0 1-22.988-8.231c6.643 8.078 16.713 13.231 27.988 13.231 20.003 0 36.219-16.216 36.219-36.219V77.489c0-11.275-5.153-21.345-13.231-27.988z"
                                                                opacity="1" data-original="#fcc4ae" class="">
                                                            </path>
                                                            <path fill="#ffd2c0"
                                                                d="M91.781 96.291V84.972c-6.443 0-11.667 5.223-11.667 11.667 0 6.443 5.223 11.667 11.667 11.667.679 0 1.341-.07 1.988-.181a36.166 36.166 0 0 1-1.988-11.834zM164.219 84.972v11.319c0 4.145-.706 8.124-1.988 11.833a11.73 11.73 0 0 0 1.988.181c6.443 0 11.667-5.223 11.667-11.667 0-6.443-5.224-11.666-11.667-11.666z"
                                                                opacity="1" data-original="#ffd2c0" class="">
                                                            </path>
                                                            <path fill="#fcc4ae"
                                                                d="M171.408 87.45a11.617 11.617 0 0 1 2.478 7.189c0 6.245-4.907 11.343-11.075 11.652a36.481 36.481 0 0 1-.58 1.833 11.73 11.73 0 0 0 1.988.182c6.443 0 11.667-5.223 11.667-11.667 0-3.732-1.752-7.054-4.478-9.189z"
                                                                opacity="1" data-original="#fcc4ae" class="">
                                                            </path>
                                                            <circle cx="110.979" cy="91.546" r="4.388"
                                                                fill="#995222" opacity="1" data-original="#995222"
                                                                class=""></circle>
                                                            <circle cx="145.021" cy="91.546" r="4.388"
                                                                fill="#995222" opacity="1" data-original="#995222"
                                                                class=""></circle>
                                                            <path fill="#f2ad97"
                                                                d="M91.781 96.291v-6.356a6.704 6.704 0 0 0 0 13.408c.236 0 .458-.046.688-.069a36.358 36.358 0 0 1-.688-6.983zM164.225 96.291v-6.356a6.705 6.705 0 0 1 0 13.408c-.236 0-.458-.046-.688-.069.442-2.262.688-4.593.688-6.983z"
                                                                opacity="1" data-original="#f2ad97" class="">
                                                            </path>
                                                            <path fill="#7c3108"
                                                                d="M115.014 34.034c.061 19.232-10.695 36.619-27.07 45.529-3.464 1.885-7.717-.828-7.37-4.757 1.177-13.345 7.109-25.559 16.431-34.162a47.313 47.313 0 0 1 17.86-10.424c.096 1.26.149 2.528.149 3.814z"
                                                                opacity="1" data-original="#7c3108" class="">
                                                            </path>
                                                            <path fill="#8c3f0a"
                                                                d="M172.778 76.39c-30.362 15.674-68.533-2.216-75.774-35.746 5.009-4.639 10.994-8.222 17.746-10.387 28.227-9.163 56.357 12.318 60.643 41.029a4.945 4.945 0 0 1-2.615 5.104z"
                                                                opacity="1" data-original="#8c3f0a" class="">
                                                            </path>
                                                            <path fill="#7c3108"
                                                                d="M175.393 71.286c-4.286-28.71-32.416-50.192-60.643-41.029-6.752 2.165-12.737 5.748-17.746 10.387.186.863.394 1.716.62 2.558a47.227 47.227 0 0 1 7.125-2.945c27.671-8.983 55.249 11.484 60.362 39.341a51.683 51.683 0 0 0 7.666-3.208 4.944 4.944 0 0 0 2.616-5.104z"
                                                                opacity="1" data-original="#7c3108" class="">
                                                            </path>
                                                            <path fill="#6d2e03"
                                                                d="M175.393 71.286c-4.286-28.71-32.416-50.192-60.643-41.029-6.752 2.165-12.737 5.748-17.746 10.387.06.276.121.551.185.825a47.148 47.148 0 0 1 12.561-6.212c28.227-9.163 56.357 12.318 60.643 41.029.063.42.068.839.024 1.249.792-.36 1.58-.741 2.362-1.145a4.946 4.946 0 0 0 2.614-5.104z"
                                                                opacity="1" data-original="#6d2e03"></path>
                                                            <path fill="#995222"
                                                                d="M148.979 78.13c-7.46 0-14.67-1.63-21.41-4.85-6.489-3.09-12.329-7.64-16.88-13.13a2.015 2.015 0 0 1 .261-2.82c.819-.68 2.149-.55 2.819.26 8.71 10.51 21.54 16.54 35.2 16.54 2.61 0 5.19-.22 7.68-.67a2.008 2.008 0 0 1 2.32 1.62 2 2 0 0 1-1.62 2.32c-2.74.49-5.559.73-8.37.73zm-39.311-25.819a1.989 1.989 0 1 1-3.978 0 1.989 1.989 0 0 1 3.978 0z"
                                                                opacity="1" data-original="#995222" class="">
                                                            </path>
                                                            <path fill="#e59076"
                                                                d="M134.44 109.715c.996 0 1.751.93 1.521 1.9a8.187 8.187 0 0 1-15.922 0c-.23-.969.524-1.9 1.521-1.9z"
                                                                opacity="1" data-original="#e59076" class="">
                                                            </path>
                                                            <path fill="#d1d3d4"
                                                                d="M138.788 227.883h-21.576l-1.254-10h24.084z"
                                                                opacity="1" data-original="#d1d3d4" class="">
                                                            </path>
                                                        </g>
                                                    </svg>