<svg width="14" height="14" viewBox="0 0 14 14" fill="none" xmlns="http://www.w3.org/2000/svg">
<circle cx="7" cy="7" r="7" fill="#DA8AFF"/>
<circle cx="7" cy="7" r="6.5" stroke="black" stroke-opacity="0.16"/>
<path fill-rule="evenodd" clip-rule="evenodd" d="M10.185 8.76499C9.99296 8.51007 9.77806 8.30506 9.52035 8.14343C9.12159 9.04171 8.23224 9.66665 7.2 9.66665C6.16781 9.66665 5.27837 9.04171 4.87951 8.14343C4.62357 8.30506 4.40704 8.51006 4.21508 8.76499C4.07886 8.94498 4.00484 9.30664 4 9.50004C4.00163 9.55003 4 10.3334 4 10.3334C4 10.7017 4.29376 11 4.65643 11H9.74354C10.1062 11 10.4 10.7017 10.4 10.3334C10.4 10.3334 10.3984 9.55003 10.4 9.50004C10.395 9.30664 10.3211 8.94496 10.185 8.76499ZM6.30884 7.70836C6.17116 7.72334 6.03975 7.74171 5.91509 7.76337C5.77231 7.79995 5.66396 7.93168 5.66396 8.08838C5.66396 8.1533 5.68207 8.21161 5.71316 8.26334C6.05789 8.71157 6.59601 9.00001 7.20002 9.00001C7.78909 9.00001 8.3143 8.72672 8.66062 8.29831C8.70642 8.24168 8.73272 8.16828 8.73272 8.08838C8.73272 7.92502 8.61624 7.78841 8.46183 7.76009C8.33397 7.73668 8.1994 7.71661 8.05494 7.70168C7.86958 7.66664 7.7301 7.53339 7.7301 7.33334C7.7301 7.15007 7.86463 7.01008 8.04523 6.98664C8.06314 6.98337 8.10581 6.98178 8.10581 6.98178C8.98878 6.9183 9.58947 6.73666 9.98476 6.38999C10.0389 6.33171 10.0718 6.25323 10.0718 6.16668C10.0718 5.99335 9.94218 5.85173 9.77647 5.83496C9.2891 5.73501 8.92304 5.32501 8.92304 4.83331V4.76333C8.92304 3.79003 8.15176 3 7.2 3C6.24824 3 5.47693 3.79003 5.47693 4.76333V4.83331C5.47693 5.32499 5.11092 5.73501 4.62357 5.83496C4.45787 5.85171 4.32824 5.99333 4.32824 6.16668C4.32824 6.25323 4.36109 6.33171 4.41508 6.38999C4.81237 6.73666 5.41284 6.9183 6.29744 6.98178C6.32371 6.98178 6.34838 6.98337 6.37132 6.98664C6.55495 7.01335 6.66986 7.14664 6.66986 7.33334C6.66986 7.54672 6.51251 7.68326 6.30884 7.70836Z" fill="black" fill-opacity="0.9"/>
</svg>
