<svg width="14" height="14" viewBox="0 0 14 14" fill="none" xmlns="http://www.w3.org/2000/svg">
<g clip-path="url(#clip0_18950_92955)">
<path d="M7 14C10.866 14 14 10.866 14 7C14 3.13401 10.866 0 7 0C3.13401 0 0 3.13401 0 7C0 10.866 3.13401 14 7 14Z" fill="#81F6EF"/>
<path d="M13.5 7C13.5 10.5899 10.5899 13.5 7 13.5C3.41015 13.5 0.5 10.5899 0.5 7C0.5 3.41015 3.41015 0.5 7 0.5C10.5899 0.5 13.5 3.41015 13.5 7Z" stroke="black" stroke-opacity="0.16"/>
<path fill-rule="evenodd" clip-rule="evenodd" d="M6.11596 10.1442C6.46453 10.4496 6.90531 10.6427 7.46258 10.6427H9.07895V9.32691H7.46258C7.24156 9.32691 7.10494 9.26133 6.98299 9.1545C6.83673 9.02637 6.70018 8.82804 6.52818 8.52704C6.49014 8.46047 6.45019 8.38755 6.40767 8.30994C6.11269 7.77153 5.69396 7.00725 4.93177 6.57155L4.27876 7.71386C4.69603 7.95239 4.92279 8.35649 5.23828 8.91871C5.28517 9.00227 5.33402 9.08933 5.38575 9.17985C5.56459 9.49281 5.79169 9.86016 6.11596 10.1442Z" fill="#222222"/>
<path fill-rule="evenodd" clip-rule="evenodd" d="M6.11596 4.14118C6.46453 3.83582 6.90531 3.6427 7.46258 3.6427H9.07895V4.95849H7.46258C7.24156 4.95849 7.10494 5.02407 6.98299 5.13091C6.83673 5.25903 6.70018 5.45737 6.52818 5.75837C6.49014 5.82494 6.45019 5.89786 6.40767 5.97547C6.11269 6.51388 5.69396 7.27816 4.93177 7.71386L4.27876 6.57154C4.69603 6.33301 4.92279 5.92892 5.23828 5.3667C5.28517 5.28314 5.33402 5.19608 5.38575 5.10556C5.56459 4.79259 5.79169 4.42525 6.11596 4.14118Z" fill="#222222"/>
<path fill-rule="evenodd" clip-rule="evenodd" d="M5.07895 7.80059H2.71053V6.4848H5.07895V7.80059Z" fill="#222222"/>
<path d="M11.5 4.19532L8.73684 2.60001V5.79063L11.5 4.19532Z" fill="#222222"/>
<path d="M11.5 9.98479L8.73684 8.38948V11.5801L11.5 9.98479Z" fill="#222222"/>
<path d="M1.5 7.19532C1.5 7.8348 2.01841 8.35321 2.65789 8.35321C3.29738 8.35321 3.81579 7.8348 3.81579 7.19532C3.81579 6.55583 3.29738 6.03742 2.65789 6.03742C2.01841 6.03742 1.5 6.55583 1.5 7.19532Z" fill="#222222"/>
</g>
<defs>
<clipPath id="clip0_18950_92955">
<rect width="14" height="14" fill="white"/>
</clipPath>
</defs>
</svg>
