
<svg width="14" height="14" viewBox="0 0 14 14" fill="none" xmlns="http://www.w3.org/2000/svg">
<path d="M7 14C10.866 14 14 10.866 14 7C14 3.13401 10.866 0 7 0C3.13401 0 0 3.13401 0 7C0 10.866 3.13401 14 7 14Z" fill="white"/>
<path d="M13.5 7C13.5 10.5899 10.5899 13.5 7 13.5C3.41015 13.5 0.5 10.5899 0.5 7C0.5 3.41015 3.41015 0.5 7 0.5C10.5899 0.5 13.5 3.41015 13.5 7Z" stroke="black" stroke-opacity="0.16"/>
<path d="M7 2L8.18053 5.43683H12L8.90898 7.56175L10.0895 10.9986L7 8.87508L3.91048 11L5.09102 7.56317L2 5.43683H5.81947L7 2Z" fill="#FC7D0D"/>
</svg>
