<svg width="14" height="14" viewBox="0 0 14 14" fill="none" xmlns="http://www.w3.org/2000/svg">
<circle cx="7" cy="7" r="7" fill="#F2994A"/>
<circle cx="7" cy="7" r="6.5" stroke="black" stroke-opacity="0.16"/>
<path d="M4 4.832V9.668C4 10.4 4.65466 11 5.45336 11H8.11129C8.50409 11 8.87507 10.856 9.14566 10.6L12 7.944C12 7.944 11.5417 7.532 11.5286 7.528C11.4603 7.47226 11.3744 7.43795 11.2834 7.43003C11.1923 7.42212 11.1009 7.44103 11.0224 7.484C11.0093 7.488 9.45554 8.304 9.45554 8.304V4.332C9.45554 4.19939 9.39806 4.07221 9.29575 3.97845C9.19344 3.88468 9.05467 3.832 8.90998 3.832C8.76529 3.832 8.62653 3.88468 8.52422 3.97845C8.42191 4.07221 8.36443 4.19939 8.36443 4.332L8.52422 6.668H8.00218V3.5C8.00218 3.36739 7.9447 3.24021 7.84239 3.14645C7.74008 3.05268 7.60132 3 7.45663 3C7.31194 3 7.17318 3.05268 7.07086 3.14645C6.96855 3.24021 6.91107 3.36739 6.91107 3.5V6.668H6.54446V3.832C6.54446 3.69939 6.48698 3.57221 6.38467 3.47845C6.28236 3.38468 6.1436 3.332 5.99891 3.332C5.85422 3.332 5.71546 3.38468 5.61314 3.47845C5.51083 3.57221 5.45336 3.69939 5.45336 3.832V6.668H4.93132L5.09111 4.832C5.09111 4.69939 5.03363 4.57221 4.93132 4.47845C4.82901 4.38468 4.69024 4.332 4.54555 4.332C4.40086 4.332 4.2621 4.38468 4.15979 4.47845C4.05748 4.57221 4 4.69939 4 4.832Z" fill="black" fill-opacity="0.9"/>
</svg>
