<svg xmlns="http://www.w3.org/2000/svg" version="1.1" xmlns:xlink="http://www.w3.org/1999/xlink" width="25" height="25" x="0" y="0" viewBox="0 0 64 64" style="enable-background:new 0 0 512 512" xml:space="preserve" class=""><g><path fill="#f0c8a0" d="M8 48h8v12H8zM40 48h8v12h-8z" opacity="1" data-original="#f0c8a0"></path><path fill="#00a0c8" d="M16 32h24v28H16z" opacity="1" data-original="#00a0c8" class=""></path><path fill="#0082aa" d="M8 40v8h8V32a8 8 0 0 0-8 8zM40 32v16h8v-8a8 8 0 0 0-8-8zM36 32a8 8 0 0 1-16 0z" opacity="1" data-original="#0082aa"></path><path fill="#d2aa82" d="M32 32v-6h-8v6h-2a6 6 0 1 0 12 0z" opacity="1" data-original="#d2aa82"></path><path fill="#c80a50" d="M37.573 9.775c.218-.42.36-.885.408-1.382A4 4 0 0 0 34 4a2 2 0 0 1-2 2h-8a6 6 0 0 0-6 6v6h20v-6c0-.786-.151-1.537-.427-2.225z" opacity="1" data-original="#c80a50" class=""></path><path fill="#f0c8a0" d="M30 30h-4a8 8 0 0 1-8-8v-4a2 2 0 0 0 2-2v-2a2 2 0 0 1 2-2h12a2 2 0 0 1 2 2v2a2 2 0 0 0 2 2v4a8 8 0 0 1-8 8z" opacity="1" data-original="#f0c8a0"></path><path fill="#d2aa82" d="M18 22v-6a2 2 0 0 0-2 2v2a2 2 0 0 0 2 2zM38 22v-6a2 2 0 0 1 2 2v2a2 2 0 0 1-2 2zM8 48h8v1H8zM40 48h8v1h-8z" opacity="1" data-original="#d2aa82"></path><path fill="#0082aa" d="M34 54H22a2 2 0 0 1-2-2v-4a2 2 0 0 1 2-2h12a2 2 0 0 1 2 2v4a2 2 0 0 1-2 2z" opacity="1" data-original="#0082aa"></path><path fill="#0a5078" d="M35 15.5h-4c-.827 0-1.5.673-1.5 1.5v.5h-3V17c0-.827-.673-1.5-1.5-1.5h-4c-.827 0-1.5.673-1.5 1.5v2c0 .827.673 1.5 1.5 1.5h4c.827 0 1.5-.673 1.5-1.5v-.5h3v.5c0 .827.673 1.5 1.5 1.5h4c.827 0 1.5-.673 1.5-1.5v-2c0-.827-.673-1.5-1.5-1.5zM25.5 19a.5.5 0 0 1-.5.5h-4a.5.5 0 0 1-.5-.5v-2a.5.5 0 0 1 .5-.5h4a.5.5 0 0 1 .5.5zm10 0a.5.5 0 0 1-.5.5h-4a.5.5 0 0 1-.5-.5v-2a.5.5 0 0 1 .5-.5h4a.5.5 0 0 1 .5.5z" opacity="1" data-original="#0a5078" class=""></path><path fill="#0082aa" d="M40 32v21.65c-4.73-2.25-8-7.07-8-12.65 0-3.42 1.23-6.56 3.29-9z" opacity="1" data-original="#0082aa"></path><path fill="#d2aa82" d="M48 48v6.86c-.65.09-1.32.14-2 .14-2.14 0-4.18-.48-6-1.35V48z" opacity="1" data-original="#d2aa82"></path><circle cx="46" cy="40" r="14" fill="#0a5078" opacity="1" data-original="#0a5078" class=""></circle><path fill="#00a0c8" d="m49.707 29.293-3-3A1 1 0 0 0 45 27v2.101A5.01 5.01 0 0 0 41 34c0 2.757 2.243 5 5 5v-2c-1.654 0-3-1.346-3-3 0-1.304.836-2.415 2-2.828V33a1 1 0 0 0 1.707.707l3-3a.999.999 0 0 0 0-1.414z" opacity="1" data-original="#00a0c8" class=""></path><path fill="#c80a50" d="m59.707 49.293-3-3A1.001 1.001 0 0 0 55 47v2h-9v2h9v2a1 1 0 0 0 1.707.707l3-3a.999.999 0 0 0 0-1.414z" opacity="1" data-original="#c80a50" class=""></path><path fill="#fab400" d="M46 37c-3.52 0-6.441 2.612-6.928 6H37a1 1 0 0 0-.707 1.707l3 3a.997.997 0 0 0 1.414 0l3-3A1 1 0 0 0 43 43h-1.899A5.01 5.01 0 0 1 46 39c2.757 0 5 2.243 5 5s-2.243 5-5 5H35.276a14.086 14.086 0 0 0 2.063 2H46c3.859 0 7-3.14 7-7s-3.141-7-7-7z" opacity="1" data-original="#fab400"></path></g></svg>