<svg xmlns="http://www.w3.org/2000/svg" version="1.1" xmlns:xlink="http://www.w3.org/1999/xlink" width="25" height="25" x="0" y="0" viewBox="0 0 512 512" style="enable-background:new 0 0 512 512" xml:space="preserve" class=""><g><path fill="#5b5b68" d="M409.852 92.895v359.87c0 24.731-15.227 45.91-36.82 54.65a58.596 58.596 0 0 1-22.122 4.304H58.953C26.391 511.719 0 485.316 0 452.766V92.895c0-32.563 26.39-58.95 58.953-58.95H350.91c32.55 0 58.942 26.387 58.942 58.95zm0 0" opacity="1" data-original="#5b5b68" class=""></path><path fill="#e2eff2" d="M364.508 92.895v359.87c0 7.5-6.098 13.598-13.598 13.598H58.953c-7.5 0-13.598-6.097-13.598-13.597V92.895c0-7.497 6.098-13.598 13.598-13.598H350.91c7.5 0 13.598 6.101 13.598 13.598zm0 0" opacity="1" data-original="#e2eff2" class=""></path><path fill="#fed563" d="M288.566 97.219H121.29c-13.96 0-25.277-11.317-25.277-25.278V25.277C96.012 11.317 107.328 0 121.289 0h167.277c13.961 0 25.278 11.316 25.278 25.277v46.664c0 13.961-11.317 25.278-25.278 25.278zm0 0" opacity="1" data-original="#fed563"></path><g fill="#40404c"><path d="M409.852 220.805v231.96c0 24.731-15.227 45.91-36.82 54.65a154.132 154.132 0 0 1-28.137 4.304c-3.122.187-6.254.281-9.418.281-3.164 0-6.297-.094-9.422-.281-81.258-4.867-145.66-72.32-145.66-154.801 0-85.652 69.437-155.078 155.082-155.078 26.941 0 52.3 6.87 74.375 18.965zM180.582 48.32c0 12.688-10.285 22.973-22.973 22.973-12.691 0-22.976-10.285-22.976-22.973 0-12.691 10.285-22.976 22.976-22.976 12.688 0 22.973 10.285 22.973 22.976zM275.223 48.32c0 12.688-10.286 22.973-22.973 22.973s-22.977-10.285-22.977-22.973c0-12.691 10.29-22.976 22.977-22.976s22.973 10.285 22.973 22.976zm0 0" fill="#40404c" opacity="1" data-original="#40404c"></path></g><path fill="#bbd8dd" d="M364.508 204.555v248.21c0 7.5-6.098 13.598-13.598 13.598H225.605c-27.937-28.039-45.21-66.722-45.21-109.445 0-85.652 69.425-155.078 155.082-155.078 9.921 0 19.62.926 29.03 2.715zm0 0" opacity="1" data-original="#bbd8dd" class=""></path><path fill="#55c7f3" d="M507.781 356.914c0 85.649-69.43 155.082-155.078 155.082s-155.082-69.434-155.082-155.082 69.434-155.082 155.082-155.082 155.078 69.434 155.078 155.082zm0 0" opacity="1" data-original="#55c7f3" class=""></path><path fill="#dafdfd" d="M465.91 356.914c0 62.524-50.68 113.215-113.203 113.215-5.492 0-10.902-.387-16.187-1.16-54.86-7.84-97.028-55.024-97.028-112.055 0-57.027 42.168-104.21 97.028-112.055a111.802 111.802 0 0 1 16.187-1.16c62.52 0 113.203 50.692 113.203 113.215zm0 0" opacity="1" data-original="#dafdfd" class=""></path><path fill="#56d8d8" d="M433.535 356.914c0 57.031-42.156 104.215-97.015 112.055-54.86-7.84-97.028-55.024-97.028-112.055 0-57.027 42.168-104.21 97.028-112.055 54.859 7.844 97.015 55.028 97.015 112.055zm0 0" opacity="1" data-original="#56d8d8" class=""></path><path fill="#17a3ce" d="M352.703 477.957c-66.746 0-121.043-54.3-121.043-121.043 0-66.742 54.297-121.043 121.043-121.043 66.742 0 121.043 54.3 121.043 121.043 0 66.742-54.3 121.043-121.043 121.043zm0-226.418c-58.105 0-105.379 47.27-105.379 105.375 0 58.106 47.274 105.379 105.38 105.379s105.374-47.273 105.374-105.379c0-58.105-47.27-105.375-105.375-105.375zm0 0" opacity="1" data-original="#17a3ce" class=""></path><path fill="#5b5b68" d="M393.957 372.578h-41.254c-8.652 0-15.664-7.012-15.664-15.664v-70.488c0-8.653 7.012-15.664 15.664-15.664 8.649 0 15.664 7.011 15.664 15.664v54.824h25.59c8.648 0 15.664 7.016 15.664 15.664 0 8.652-7.012 15.664-15.664 15.664zm0 0" opacity="1" data-original="#5b5b68" class=""></path><path fill="#fc315f" d="M120.871 244.488c-3.793 0-7.383-1.82-9.621-4.93l-32.406-45.05c-3.824-5.317-2.614-12.727 2.703-16.547 5.316-3.824 12.723-2.613 16.547 2.7l20.894 29.046 27.617-55.832c2.903-5.867 10.012-8.273 15.883-5.371 5.867 2.902 8.274 10.016 5.371 15.883l-36.355 73.504a11.858 11.858 0 0 1-10.633 6.597zM120.871 390.473c-3.793 0-7.383-1.82-9.621-4.934l-32.406-45.05c-3.824-5.317-2.614-12.723 2.703-16.548 5.316-3.824 12.723-2.613 16.547 2.704l20.894 29.046 27.617-55.832c2.903-5.87 10.012-8.277 15.883-5.37 5.867 2.902 8.274 10.011 5.371 15.882l-36.355 73.5a11.858 11.858 0 0 1-9.656 6.559c-.325.03-.653.043-.977.043zm0 0" opacity="1" data-original="#fc315f"></path><path fill="#5b5b68" d="M286.512 197.469h-89.285c-4.325 0-7.832-3.508-7.832-7.832s3.507-7.832 7.832-7.832h89.285a7.833 7.833 0 0 1 0 15.664zm0 0" opacity="1" data-original="#5b5b68" class=""></path></g></svg>