<svg xmlns="http://www.w3.org/2000/svg" version="1.1" xmlns:xlink="http://www.w3.org/1999/xlink"
    width="512" height="512" x="0" y="0" viewBox="0 0 510 510"
    style="enable-background:new 0 0 512 512" xml:space="preserve" class=""><g><linearGradient id="a"><stop offset="0" stop-color="#f9f7f8"></stop><stop offset="1" stop-color="#e5e1e5"></stop></linearGradient><linearGradient xlink:href="#a" id="h" x1="413.289" x2="449.852" y1="46.474" y2="96.578" gradientUnits="userSpaceOnUse"></linearGradient><linearGradient id="b"><stop offset="0" stop-color="#9b8e99" stop-opacity="0"></stop><stop offset=".346" stop-color="#978a95" stop-opacity=".347"></stop><stop offset=".714" stop-color="#8a7f88" stop-opacity=".714"></stop><stop offset="1" stop-color="#7b7179"></stop></linearGradient><linearGradient xlink:href="#b" id="i" x1="438.511" x2="379.456" y1="76.634" y2="12.211" gradientUnits="userSpaceOnUse"></linearGradient><linearGradient xlink:href="#b" id="j" x1="428.333" x2="428.333" y1="62" y2="113.157" gradientUnits="userSpaceOnUse"></linearGradient><linearGradient xlink:href="#b" id="k" x1="460" x2="519.034" y1="50.378" y2="50.378" gradientUnits="userSpaceOnUse"></linearGradient><linearGradient xlink:href="#a" id="l" x1="129.551" x2="239.056" y1="131.289" y2="240.794" gradientUnits="userSpaceOnUse"></linearGradient><linearGradient xlink:href="#b" id="m" x1="307.892" x2="429.892" y1="234.104" y2="265.104" gradientUnits="userSpaceOnUse"></linearGradient><linearGradient xlink:href="#b" id="n" x1="189.314" x2="189.314" y1="426" y2="500.813" gradientUnits="userSpaceOnUse"></linearGradient><linearGradient id="c"><stop offset="0" stop-color="#f89580"></stop><stop offset="1" stop-color="#c4573a"></stop></linearGradient><linearGradient xlink:href="#c" id="o" x1="362.723" x2="411.334" y1="215.882" y2="238.232" gradientUnits="userSpaceOnUse"></linearGradient><linearGradient id="d"><stop offset="0" stop-color="#c4573a" stop-opacity="0"></stop><stop offset=".242" stop-color="#bf5539" stop-opacity=".242"></stop><stop offset=".519" stop-color="#b15036" stop-opacity=".52"></stop><stop offset=".813" stop-color="#9b4632" stop-opacity=".813"></stop><stop offset="1" stop-color="#883f2e"></stop></linearGradient><linearGradient xlink:href="#d" id="p" x1="412.991" x2="364.379" y1="215.892" y2="246.064" gradientUnits="userSpaceOnUse"></linearGradient><linearGradient xlink:href="#d" id="q" x1="378.454" x2="415.331" y1="218.25" y2="248.423" gradientUnits="userSpaceOnUse"></linearGradient><linearGradient xlink:href="#d" id="r" x1="391.352" x2="391.352" y1="238.077" y2="271.719" gradientUnits="userSpaceOnUse"></linearGradient><linearGradient xlink:href="#c" id="s" x1="351.595" x2="384.561" y1="241.834" y2="258.038" gradientUnits="userSpaceOnUse"></linearGradient><linearGradient xlink:href="#d" id="t" x1="369.074" x2="383.601" y1="240.277" y2="272.126" gradientUnits="userSpaceOnUse"></linearGradient><linearGradient xlink:href="#d" id="u" x1="359.314" x2="386.134" y1="244.069" y2="261.39" gradientUnits="userSpaceOnUse"></linearGradient><linearGradient xlink:href="#c" id="v" x1="336.655" x2="403.705" y1="338.157" y2="436.497" gradientUnits="userSpaceOnUse"></linearGradient><linearGradient xlink:href="#d" id="w" x1="384.013" x2="384.013" y1="316.024" y2="286.883" gradientUnits="userSpaceOnUse"></linearGradient><linearGradient xlink:href="#d" id="x" x1="420.235" x2="454.319" y1="344.455" y2="285.228" gradientUnits="userSpaceOnUse"></linearGradient><linearGradient xlink:href="#d" id="y" x1="346.051" x2="309.732" y1="336.817" y2="269.209" gradientUnits="userSpaceOnUse"></linearGradient><linearGradient xlink:href="#d" id="z" x1="370.313" x2="298.234" y1="385.973" y2="332.892" gradientUnits="userSpaceOnUse"></linearGradient><linearGradient xlink:href="#d" id="A" x1="384.013" x2="384.013" y1="477.083" y2="504.754" gradientUnits="userSpaceOnUse"></linearGradient><linearGradient xlink:href="#d" id="B" x1="467.621" x2="349.621" y1="445.004" y2="417.671" gradientUnits="userSpaceOnUse"></linearGradient><linearGradient id="e"><stop offset="0" stop-color="#fef0ae"></stop><stop offset="1" stop-color="#fac600"></stop></linearGradient><linearGradient xlink:href="#e" id="C" x1="384.013" x2="384.013" y1="247.638" y2="266.058" gradientUnits="userSpaceOnUse"></linearGradient><linearGradient xlink:href="#e" id="D" x1="384.013" x2="384.013" y1="267.332" y2="285.752" gradientUnits="userSpaceOnUse"></linearGradient><linearGradient xlink:href="#e" id="E" x1="225.989" x2="396.978" y1="358.428" y2="529.417" gradientUnits="userSpaceOnUse"></linearGradient><linearGradient id="f"><stop offset="0" stop-color="#fea613" stop-opacity="0"></stop><stop offset=".203" stop-color="#fda215" stop-opacity=".203"></stop><stop offset=".405" stop-color="#fb961b" stop-opacity=".405"></stop><stop offset=".607" stop-color="#f68225" stop-opacity=".607"></stop><stop offset=".807" stop-color="#f06633" stop-opacity=".807"></stop><stop offset="1" stop-color="#e94444"></stop></linearGradient><linearGradient xlink:href="#f" id="F" x1="368.39" x2="212.524" y1="400.607" y2="400.607" gradientUnits="userSpaceOnUse"></linearGradient><linearGradient xlink:href="#f" id="G" x1="1523.162" x2="1367.296" y1="425.722" y2="425.722" gradientTransform="rotate(90 858.11 -164.221)" gradientUnits="userSpaceOnUse"></linearGradient><linearGradient xlink:href="#f" id="H" x1="120.958" x2="-34.907" y1="-131.697" y2="-131.697" gradientTransform="rotate(-45 787.09 -164.09)" gradientUnits="userSpaceOnUse"></linearGradient><linearGradient xlink:href="#f" id="I" x1="990.857" x2="834.992" y1="673.153" y2="673.153" gradientTransform="rotate(45 908.423 -214.686)" gradientUnits="userSpaceOnUse"></linearGradient><linearGradient xlink:href="#f" id="J" x1="621.37" x2="465.504" y1="555.182" y2="555.182" gradientTransform="rotate(22.28 787.562 -164.285)" gradientUnits="userSpaceOnUse"></linearGradient><linearGradient xlink:href="#f" id="K" x1="1677.736" x2="1521.871" y1="172.742" y2="172.742" gradientTransform="scale(-1) rotate(-67.72 227.326 1262.033)" gradientUnits="userSpaceOnUse"></linearGradient><linearGradient xlink:href="#f" id="L" x1="190.541" x2="34.676" y1="156.487" y2="156.487" gradientTransform="rotate(-22.7 787.205 -164.39)" gradientUnits="userSpaceOnUse"></linearGradient><linearGradient xlink:href="#f" id="M" x1="1279.041" x2="1123.176" y1="603.571" y2="603.571" gradientTransform="rotate(67.3 875.35 -182.1)" gradientUnits="userSpaceOnUse"></linearGradient><linearGradient xlink:href="#e" id="N" x1="340.222" x2="176.187" y1="472.661" y2="308.627" gradientUnits="userSpaceOnUse"></linearGradient><linearGradient xlink:href="#f" id="O" x1="457.696" x2="121.818" y1="590.136" y2="254.258" gradientUnits="userSpaceOnUse"></linearGradient><linearGradient xlink:href="#f" id="P" x1="65.846" x2="385.346" y1="238.735" y2="489.235" gradientUnits="userSpaceOnUse"></linearGradient><linearGradient xlink:href="#f" id="Q" x1="64.356" x2="383.856" y1="240.635" y2="491.135" gradientUnits="userSpaceOnUse"></linearGradient><linearGradient xlink:href="#f" id="R" x1="62.831" x2="382.331" y1="242.581" y2="493.081" gradientUnits="userSpaceOnUse"></linearGradient><linearGradient xlink:href="#f" id="S" x1="268.168" x2="268.168" y1="452.457" y2="520.006" gradientUnits="userSpaceOnUse"></linearGradient><linearGradient id="g"><stop offset="0" stop-color="#5b5555"></stop><stop offset="1" stop-color="#433f43"></stop></linearGradient><linearGradient xlink:href="#g" id="T" x1="100.868" x2="171.873" y1="99.229" y2="99.229" gradientUnits="userSpaceOnUse"></linearGradient><linearGradient xlink:href="#g" id="U" x1="164.989" x2="243.419" y1="98.823" y2="98.823" gradientUnits="userSpaceOnUse"></linearGradient><linearGradient xlink:href="#g" id="V" x1="245.037" x2="322.521" y1="99.228" y2="99.228" gradientUnits="userSpaceOnUse"></linearGradient><path fill="url(#a)" d="M498.299 100.718H346.667V1.039L460.398.038C487.792.038 510 22.246 510 49.641v39.375c0 6.463-5.239 11.702-11.701 11.702z" opacity="1" data-original="url(#a)" class=""></path><path fill="url(#b)" d="M498.299 100.718H346.667V1.039L460.398.038C487.792.038 510 22.246 510 49.641v39.375c0 6.463-5.239 11.702-11.701 11.702z" opacity="1" data-original="url(#b)" class=""></path><path fill="url(#b)" d="M498.299 100.718H346.667V1.039L460.398.038C487.792.038 510 22.246 510 49.641v39.375c0 6.463-5.239 11.702-11.701 11.702z" opacity="1" data-original="url(#b)" class=""></path><path fill="url(#b)" d="M498.299 100.718H346.667V1.039L460.398.038C487.792.038 510 22.246 510 49.641v39.375c0 6.463-5.239 11.702-11.701 11.702z" opacity="1" data-original="url(#b)" class=""></path><path fill="url(#a)" d="M58.477 94.391v290.17c0 38.368-22.982 71.363-55.928 85.985-1.536.682-2.549 2.177-2.549 3.857a4.192 4.192 0 0 0 4.192 4.192h280.045c52.131 0 94.391-42.26 94.391-94.391V94.034C378.629 42.1 420.729 0 472.663 0H152.868c-52.131 0-94.391 42.26-94.391 94.391z" opacity="1" data-original="url(#a)" class=""></path><path fill="url(#b)" d="M184 478.595h100.238c52.131 0 94.391-42.26 94.391-94.391V94.034C378.629 42.1 420.729 0 472.663 0H184z" opacity="1" data-original="url(#b)" class=""></path><path fill="url(#b)" d="M58.477 301v83.561c0 38.368-22.982 71.363-55.928 85.985-1.536.682-2.549 2.177-2.549 3.857a4.192 4.192 0 0 0 4.192 4.192h280.045c52.131 0 94.391-42.26 94.391-94.391V301z" opacity="1" data-original="url(#b)" class=""></path><path fill="url(#c)" d="M411.583 295.264h-40.462l-20.018-106.216c-2.366-12.554 7.263-24.167 20.038-24.167h40.422c12.775 0 22.404 11.613 20.038 24.167z" opacity="1" data-original="url(#c)"></path><path fill="url(#d)" d="M404.067 295.264h-25.43l-12.581-106.216c-1.487-12.554 4.565-24.167 12.594-24.167h25.405c8.029 0 14.08 11.613 12.593 24.167z" opacity="1" data-original="url(#d)" class=""></path><path fill="url(#d)" d="M404.067 295.264h-25.43l-12.581-106.216c-1.487-12.554 4.565-24.167 12.594-24.167h25.405c8.029 0 14.08 11.613 12.593 24.167z" opacity="1" data-original="url(#d)" class=""></path><path fill="url(#d)" d="m355.921 214.61 15.2 80.654h40.462l15.2-80.654z" opacity="1" data-original="url(#d)" class=""></path><path fill="url(#c)" d="M383.099 295.264h-25.846l-14.115-64.344c-2.79-12.72 6.895-24.76 19.917-24.76h14.243c13.022 0 22.707 12.04 19.917 24.76z" opacity="1" data-original="url(#c)"></path><path fill="url(#d)" d="M383.099 295.264h-25.846l-14.115-64.344c-2.79-12.72 6.895-24.76 19.917-24.76h14.243c13.022 0 22.707 12.04 19.917 24.76z" opacity="1" data-original="url(#d)" class=""></path><path fill="url(#d)" d="M378.114 295.264h-15.876l-8.67-64.344c-1.714-12.72 4.235-24.76 12.234-24.76h8.749c7.999 0 13.948 12.04 12.234 24.76z" opacity="1" data-original="url(#d)" class=""></path><path fill="url(#c)" d="m341.801 290.603-38.116 27.693c-41.283 29.994-56.728 84.313-37.401 131.54 14.893 36.39 50.31 60.164 89.629 60.164h56.199c39.319 0 74.736-23.774 89.628-60.164 19.327-47.227 3.882-101.546-37.401-131.54l-38.116-27.693c-25.169-18.287-59.252-18.287-84.422 0z" opacity="1" data-original="url(#c)"></path><path fill="url(#d)" d="m341.801 290.603-38.116 27.693a110.637 110.637 0 0 0-22.878 22.313h206.409a110.637 110.637 0 0 0-22.878-22.313l-38.116-27.693c-25.168-18.287-59.251-18.287-84.421 0z" opacity="1" data-original="url(#d)" class=""></path><path fill="url(#d)" d="m354.438 290.603-26.705 27.693c-28.924 29.994-39.746 84.313-26.204 131.54C311.962 486.226 336.776 510 364.325 510H403.7c27.549 0 52.363-23.774 62.797-60.164 13.541-47.227 2.72-101.546-26.204-131.54l-26.705-27.693c-17.635-18.287-41.515-18.287-59.15 0z" opacity="1" data-original="url(#d)" class=""></path><path fill="url(#d)" d="m354.438 290.603-26.705 27.693c-28.924 29.994-39.746 84.313-26.204 131.54C311.962 486.226 336.776 510 364.325 510H403.7c27.549 0 52.363-23.774 62.797-60.164 13.541-47.227 2.72-101.546-26.204-131.54l-26.705-27.693c-17.635-18.287-41.515-18.287-59.15 0z" opacity="1" data-original="url(#d)" class=""></path><path fill="url(#d)" d="m374.094 290.603-8.956 27.693c-9.7 29.994-13.329 84.313-8.788 131.54 3.499 36.39 11.821 60.164 21.06 60.164h13.205c9.239 0 17.561-23.774 21.06-60.164 4.541-47.227.912-101.546-8.788-131.54l-8.956-27.693c-5.914-18.287-13.923-18.287-19.837 0z" opacity="1" data-original="url(#d)" class=""></path><path fill="url(#d)" d="M266.285 449.836C281.177 486.226 316.594 510 355.913 510h56.199c39.319 0 74.736-23.774 89.628-60.164 9.063-22.147 10.48-45.853 5.171-67.879H261.114c-5.309 22.026-3.892 45.732 5.171 67.879z" opacity="1" data-original="url(#d)" class=""></path><path fill="url(#d)" d="m345.5 323.275-87.418 87.418a110.482 110.482 0 0 0 8.203 39.143C281.177 486.226 316.594 510 355.913 510h56.199c31.902 0 61.233-15.652 79.119-40.993z" opacity="1" data-original="url(#d)" class=""></path><path fill="url(#e)" d="M414.421 267.623h-60.818c-6.046 0-10.948-4.901-10.948-10.948v-2.645c0-6.046 4.901-10.948 10.948-10.948h60.818c6.046 0 10.948 4.901 10.948 10.948v2.645c0 6.047-4.901 10.948-10.948 10.948z" opacity="1" data-original="url(#e)"></path><path fill="url(#e)" d="M419.231 287.317h-70.436c-6.437 0-11.655-5.218-11.655-11.655v-1.231c0-6.437 5.218-11.655 11.655-11.655h70.436c6.437 0 11.655 5.218 11.655 11.655v1.231c0 6.437-5.219 11.655-11.655 11.655z" opacity="1" data-original="url(#e)"></path><circle cx="268.168" cy="400.607" r="109.364" fill="url(#E)" opacity="1" data-original="url(#E)"></circle><path fill="url(#f)" d="M377.531 400.607c0-60.4-48.964-109.364-109.364-109.364v218.728c60.401 0 109.364-48.964 109.364-109.364z" opacity="1" data-original="url(#f)" class=""></path><path fill="url(#f)" d="M268.168 509.971c60.4 0 109.364-48.964 109.364-109.364H158.804c0 60.4 48.964 109.364 109.364 109.364z" opacity="1" data-original="url(#f)" class=""></path><path fill="url(#f)" d="M345.5 323.275c-42.709-42.709-111.955-42.709-154.664 0L345.5 477.939c42.709-42.709 42.709-111.954 0-154.664z" opacity="1" data-original="url(#f)" class=""></path><path fill="url(#f)" d="M345.5 477.939c42.709-42.709 42.709-111.955 0-154.664L190.836 477.939c42.709 42.709 111.954 42.71 154.664 0z" opacity="1" data-original="url(#f)" class=""></path><path fill="url(#f)" d="M369.361 442.085c22.907-55.887-3.828-119.763-59.716-142.671L226.69 501.801c55.888 22.907 119.763-3.829 142.671-59.716z" opacity="1" data-original="url(#f)" class=""></path><path fill="url(#f)" d="M226.69 501.801c55.887 22.907 119.763-3.828 142.671-59.716L166.974 359.13c-22.907 55.887 3.829 119.763 59.716 142.671z" opacity="1" data-original="url(#f)" class=""></path><path fill="url(#f)" d="M369.051 358.382c-23.32-55.716-87.393-81.978-143.109-58.658l84.451 201.767c55.716-23.321 81.979-87.393 58.658-143.109z" opacity="1" data-original="url(#f)" class=""></path><path fill="url(#f)" d="M310.393 501.491c55.716-23.32 81.978-87.393 58.658-143.109l-201.767 84.451c23.321 55.716 87.393 81.978 143.109 58.658z" opacity="1" data-original="url(#f)" class=""></path><circle cx="268.168" cy="400.607" r="96.564" fill="url(#N)" opacity="1" data-original="url(#N)"></circle><circle cx="268.168" cy="400.607" r="85.759" fill="url(#O)" opacity="1" data-original="url(#O)"></circle><path fill="url(#f)" d="M305.8 393.065c-13.938 0-24.596 5.903-24.596 22.136v23.284c0 16.234 10.659 22.137 24.596 22.137 13.774 0 24.596-5.903 24.596-22.137v-23.284c0-16.233-10.822-22.136-24.596-22.136zm8.199 45.421c0 5.411-3.116 7.871-8.199 7.871s-8.034-2.459-8.034-7.871v-23.284c0-5.411 2.951-7.871 8.034-7.871s8.199 2.46 8.199 7.871z" opacity="1" data-original="url(#f)" class=""></path><path fill="url(#f)" d="M305.964 342.232c0-5.247-5.083-8.691-9.675-8.691-2.951 0-5.575 1.312-6.887 4.1l-57.555 118.226c-.492.984-.82 2.132-.82 3.115 0 4.1 3.607 8.691 9.182 8.691 3.115 0 6.231-1.639 7.379-4.099l57.719-118.226c.493-.984.657-2.131.657-3.116z" opacity="1" data-original="url(#f)" class=""></path><path fill="url(#f)" d="M255.132 385.686v-23.285c0-16.234-10.823-22.136-24.596-22.136-13.938 0-24.597 5.903-24.597 22.136v23.285c0 16.233 10.659 22.136 24.597 22.136 13.773 0 24.596-5.903 24.596-22.136zm-16.397 0c0 5.411-3.115 7.871-8.198 7.871-5.084 0-8.035-2.46-8.035-7.871v-23.285c0-5.411 2.951-7.871 8.035-7.871 5.083 0 8.198 2.46 8.198 7.871z" opacity="1" data-original="url(#f)" class=""></path><path fill="url(#f)" d="M376.761 413.596c-6.413 54.282-52.59 96.375-108.594 96.375s-102.181-42.093-108.594-96.375z" opacity="1" data-original="url(#f)" class=""></path><g fill="#aa9ea9"><path d="M188.312 206.839H229.3a6.68 6.68 0 0 0 0-13.36h-40.988a6.68 6.68 0 0 0 0 13.36zM107.548 206.839h30.282a6.68 6.68 0 0 0 0-13.36h-30.282a6.68 6.68 0 0 0 0 13.36zM160.988 206.839h7.571a6.68 6.68 0 0 0 0-13.36h-7.571a6.68 6.68 0 0 0 0 13.36zM213.615 234.254a6.68 6.68 0 0 0-6.68-6.68h-68.66a6.68 6.68 0 0 0 0 13.36h68.66a6.68 6.68 0 0 0 6.68-6.68zM331.9 200.159a6.68 6.68 0 0 0-6.68-6.68h-68.66a6.68 6.68 0 0 0 0 13.36h68.66a6.68 6.68 0 0 0 6.68-6.68zM107.548 240.934h7.571a6.68 6.68 0 1 0 0-13.36h-7.571a6.68 6.68 0 0 0 0 13.36zM229.3 266.002h-40.988a6.68 6.68 0 0 0 0 13.36H229.3a6.68 6.68 0 0 0 0-13.36zM107.548 279.362h30.282a6.68 6.68 0 0 0 0-13.36h-30.282a6.68 6.68 0 0 0 0 13.36zM160.988 266.002a6.68 6.68 0 0 0 0 13.36h7.571a6.68 6.68 0 0 0 0-13.36z" fill="#aa9ea9" opacity="1" data-original="#aa9ea9"></path></g><path fill="#aa9ea9" d="M245.535 227.574h-7.571a6.68 6.68 0 0 0 0 13.36h7.571a6.68 6.68 0 1 0 0-13.36z" opacity="1" data-original="#aa9ea9"></path><path fill="url(#g)" d="M165.529 49.889c4.454 0 6.344 4.86 6.344 9.315 0 5.129-2.294 9.584-6.344 9.584H146.9v73.299c0 4.32-5.265 6.48-10.529 6.48s-10.529-2.161-10.529-6.48V68.789h-18.629c-4.05 0-6.345-4.456-6.345-9.584 0-4.456 1.89-9.315 6.345-9.315h58.316z" opacity="1" data-original="url(#g)" class=""></path><path fill="url(#g)" d="M164.989 139.929c0-.405.135-.945.27-1.485l25.109-82.345c1.485-4.725 7.559-7.02 13.769-7.02s12.285 2.295 13.77 7.02l25.243 82.345c.135.54.27 1.08.27 1.485 0 4.994-7.694 8.639-13.499 8.639-3.375 0-6.075-1.08-6.885-3.915l-4.59-16.875h-28.483l-4.59 16.875c-.81 2.835-3.509 3.915-6.884 3.915-5.806 0-13.5-3.645-13.5-8.639zm49.001-28.348-9.854-36.178-9.854 36.178z" opacity="1" data-original="url(#g)" class=""></path><path fill="url(#g)" d="m283.779 113.74-19.709 33.478c-.945 1.485-2.835 2.159-4.995 2.159-5.804 0-14.039-4.589-14.039-10.393 0-1.216.404-2.43 1.215-3.78l23.353-36.042-22.409-35.908c-.944-1.485-1.349-2.835-1.349-4.185 0-5.67 7.694-9.99 13.634-9.99 2.97 0 4.994 1.081 6.344 3.511l17.954 31.318 17.954-31.318c1.349-2.43 3.375-3.511 6.344-3.511 5.94 0 13.634 4.32 13.634 9.99 0 1.35-.405 2.7-1.35 4.185l-22.408 35.908 23.353 36.042c.81 1.35 1.215 2.564 1.215 3.78 0 5.804-8.234 10.393-14.039 10.393-2.16 0-4.185-.674-4.995-2.159z" opacity="1" data-original="url(#g)" class=""></path></g></svg>