<svg xmlns="http://www.w3.org/2000/svg" version="1.1" xmlns:xlink="http://www.w3.org/1999/xlink" width="25" height="25" x="0" y="0" viewBox="0 0 512 512.001" style="enable-background:new 0 0 512 512" xml:space="preserve" class="hovered-paths"><g><path fill="#ddf5ff" d="M70.184 7.574h371.632v496.852H70.184zm0 0" opacity="1" data-original="#ddf5ff" class=""></path><path fill="#c1e9f4" d="M415.559 7.574v195.79c0 8.109-9.13 12.991-15.778 8.35-14.722-10.273-32.61-16.308-51.883-16.308-50.117 0-90.89 40.774-90.89 90.89 0 .63.008 1.259.023 1.884.117 5.629-4.46 10.234-10.094 10.234H70.185v206.012h286.804V385.44c0-4.82 3.407-8.988 8.14-9.898a90.42 90.42 0 0 0 34.493-14.563c6.73-4.68 15.938 0 15.938 8.2v135.246h26.254V7.574zm0 0" opacity="1" data-original="#c1e9f4" class=""></path><path fill="#ffda88" d="M256 49.988H152.996c-11.156 0-20.2 9.043-20.2 20.196v88.87c0 11.153 9.044 20.196 20.2 20.196h206.012c11.152 0 20.195-9.043 20.195-20.195V70.184c0-11.153-9.043-20.196-20.195-20.196zm0 0" opacity="1" data-original="#ffda88"></path><path fill="#ffcd69" d="M359.008 49.988H339.82c11.153 0 20.196 9.043 20.196 20.196v88.87c0 11.153-9.043 20.196-20.196 20.196h19.188c11.152 0 20.195-9.043 20.195-20.195V70.184c0-11.153-9.043-20.196-20.195-20.196zm0 0" opacity="1" data-original="#ffcd69"></path><path fill="#abde97" d="M7.574 318.61v185.816H336.79V318.609zm0 0" opacity="1" data-original="#abde97" class=""></path><path fill="#82cd64" d="M319.621 318.61v185.816h17.168V318.609zm0 0" opacity="1" data-original="#82cd64"></path><path fill="#6dc54a" d="M172.18 473.121H64.988c0-13.305-10.785-24.09-24.09-24.09v-74.015c13.305 0 24.09-10.786 24.09-24.09h214.387c0 13.304 10.785 24.09 24.09 24.09v74.015c-13.305 0-24.09 10.785-24.09 24.09zm0 0" opacity="1" data-original="#6dc54a" class=""></path><path fill="#5db33a" d="M279.375 350.926h-10.914v3.082c0 13.582 7.89 26.11 20.39 31.426.407.171.817.336 1.231.496v52.187a37.69 37.69 0 0 0-21.621 21.621H60.93a23.975 23.975 0 0 1 4.058 13.383h214.387c0-13.305 10.785-24.09 24.09-24.09v-74.015c-13.305 0-24.09-10.786-24.09-24.09zm0 0" opacity="1" data-original="#5db33a"></path><path fill="#e5646e" d="M418.586 286.297c0 39.039-31.649 70.687-70.688 70.687-39.043 0-70.691-31.648-70.691-70.687 0-39.043 31.648-70.692 70.691-70.692 39.04 0 70.688 31.649 70.688 70.692zm0 0" opacity="1" data-original="#e5646e" class=""></path><path fill="#e04955" d="M390.879 230.188c9.137 11.914 14.582 26.808 14.582 42.98 0 39.043-31.652 70.691-70.691 70.691-16.172 0-31.067-5.445-42.98-14.582 12.92 16.84 33.241 27.707 56.108 27.707 39.04 0 70.688-31.648 70.688-70.687 0-22.867-10.867-43.188-27.707-56.11zm0 0" opacity="1" data-original="#e04955"></path><path d="M441.816 102.5c4.18 0 7.57-3.39 7.57-7.574V7.574A7.573 7.573 0 0 0 441.817 0H70.184c-4.18 0-7.57 3.39-7.57 7.574V311.04H7.573A7.574 7.574 0 0 0 0 318.613v69.258a7.574 7.574 0 0 0 7.574 7.574 7.574 7.574 0 0 0 7.574-7.574v-61.684h265.45c10.582 17.786 28.004 31.036 48.617 36.102v134.563H15.148V423.05a7.574 7.574 0 0 0-7.574-7.574A7.574 7.574 0 0 0 0 423.05v81.375A7.574 7.574 0 0 0 7.574 512h434.242c4.18 0 7.57-3.39 7.57-7.574V130.398a7.573 7.573 0 1 0-15.144 0v366.454h-89.879V364.469c1.172.054 2.348.09 3.535.09 43.153 0 78.262-35.11 78.262-78.262 0-43.156-35.11-78.266-78.262-78.266-43.156 0-78.265 35.11-78.265 78.266a77.91 77.91 0 0 0 4.031 24.742H77.758V15.15h356.484v79.777a7.574 7.574 0 0 0 7.574 7.574zm-93.918 120.68c34.801 0 63.114 28.312 63.114 63.117 0 34.8-28.313 63.113-63.114 63.113-34.804 0-63.117-28.312-63.117-63.113 0-34.805 28.313-63.117 63.117-63.117zm0 0" fill="#000000" opacity="1" data-original="#000000" class="hovered-path"></path><path d="M184.3 155.52a7.574 7.574 0 0 0 7.575-7.575V88.867h12.621a7.574 7.574 0 0 0 7.574-7.574 7.574 7.574 0 0 0-7.574-7.574h-40.394c-4.18 0-7.57 3.39-7.57 7.574a7.573 7.573 0 0 0 7.57 7.574h12.625v59.078a7.574 7.574 0 0 0 7.574 7.575zM276.2 155.52c4.179 0 7.573-3.391 7.573-7.575v-56.55c0-9.747-7.93-17.676-17.675-17.676h-20.196c-9.746 0-17.675 7.93-17.675 17.676v56.55a7.576 7.576 0 0 0 7.574 7.575 7.574 7.574 0 0 0 7.574-7.575v-25.75h25.25v25.75a7.574 7.574 0 0 0 7.574 7.575zm-32.825-48.473V91.395a2.529 2.529 0 0 1 2.527-2.528h20.196a2.529 2.529 0 0 1 2.527 2.528v15.652zM303.578 154.422a7.57 7.57 0 0 0 10.402-2.55l13.72-22.638 13.722 22.637a7.561 7.561 0 0 0 6.484 3.649 7.572 7.572 0 0 0 6.469-11.5l-17.816-29.403 17.816-29.398a7.572 7.572 0 0 0-2.55-10.403 7.572 7.572 0 0 0-10.403 2.551l-13.723 22.64-13.719-22.64a7.576 7.576 0 0 0-10.402-2.55 7.572 7.572 0 0 0-2.55 10.402l17.816 29.398-17.817 29.403a7.572 7.572 0 0 0 2.551 10.402zm0 0" fill="#000000" opacity="1" data-original="#000000" class="hovered-path"></path><path d="M386.777 159.055V70.184c0-15.313-12.457-27.77-27.77-27.77h-144a7.574 7.574 0 0 0-7.573 7.574 7.574 7.574 0 0 0 7.574 7.575h144c6.96 0 12.62 5.664 12.62 12.62v88.872c0 6.96-5.663 12.62-12.62 12.62H152.996c-6.96 0-12.625-5.663-12.625-12.62V70.184c0-6.961 5.664-12.621 12.625-12.621h26.508a7.574 7.574 0 0 0 7.574-7.575 7.574 7.574 0 0 0-7.574-7.574h-26.508c-15.316 0-27.773 12.457-27.773 27.77v88.87c0 15.313 12.457 27.77 27.773 27.77h206.012c15.312 0 27.77-12.457 27.77-27.77zM57.414 473.121a7.574 7.574 0 0 0 7.574 7.574h214.387a7.574 7.574 0 0 0 7.574-7.574c0-9.11 7.406-16.516 16.516-16.516a7.574 7.574 0 0 0 7.574-7.574v-74.015a7.574 7.574 0 0 0-7.574-7.575c-9.11 0-16.516-7.41-16.516-16.515a7.574 7.574 0 0 0-7.574-7.574H64.988a7.574 7.574 0 0 0-7.574 7.574c0 9.105-7.41 16.515-16.516 16.515a7.574 7.574 0 0 0-7.574 7.575v74.015a7.574 7.574 0 0 0 7.574 7.574c9.11 0 16.516 7.41 16.516 16.516zm-8.941-91.445c11.386-2.809 20.367-11.79 23.175-23.176h201.07c2.805 11.387 11.786 20.367 23.173 23.176v60.695c-11.387 2.809-20.368 11.79-23.172 23.176H71.649c-2.805-11.387-11.79-20.367-23.176-23.176zm0 0" fill="#000000" opacity="1" data-original="#000000" class="hovered-path"></path><path d="M240.434 419.523h25.425a7.574 7.574 0 0 0 7.575-7.574 7.574 7.574 0 0 0-7.575-7.574h-25.425a7.574 7.574 0 0 0-7.575 7.574 7.574 7.574 0 0 0 7.575 7.574zM129.71 419.523h5.364c3.52 17.266 18.82 30.297 37.11 30.297 18.289 0 33.59-13.03 37.105-30.297h5.234a7.574 7.574 0 0 0 7.575-7.574 7.574 7.574 0 0 0-7.575-7.574h-5.234c-3.516-17.266-18.816-30.297-37.105-30.297-18.29 0-33.59 13.031-37.11 30.297h-5.363a7.574 7.574 0 0 0-7.574 7.574 7.574 7.574 0 0 0 7.574 7.574zm42.47-30.296c12.53 0 22.722 10.195 22.722 22.722 0 12.531-10.191 22.723-22.722 22.723-12.528 0-22.72-10.192-22.72-22.723 0-12.527 10.192-22.722 22.72-22.722zM78.504 419.523h25.426a7.574 7.574 0 0 0 7.574-7.574 7.574 7.574 0 0 0-7.574-7.574H78.504a7.574 7.574 0 0 0-7.574 7.574 7.574 7.574 0 0 0 7.574 7.574zM326.98 281.844c8.79 0 15.942-7.153 15.942-15.942v-7.324c0-8.789-7.152-15.941-15.942-15.941-8.789 0-15.94 7.152-15.94 15.941v7.324c0 8.79 7.151 15.942 15.94 15.942zM352.875 306.691v7.32c0 8.794 7.152 15.942 15.941 15.942 8.79 0 15.942-7.148 15.942-15.941v-7.32c0-8.79-7.153-15.942-15.942-15.942-8.789 0-15.941 7.152-15.941 15.941zM325.566 329.094a7.57 7.57 0 0 0 10.219-3.21l37.653-72.17a7.572 7.572 0 0 0-3.211-10.218 7.572 7.572 0 0 0-10.22 3.211l-37.652 72.172a7.572 7.572 0 0 0 3.211 10.215zM269.633 219.645a7.574 7.574 0 0 0-7.574-7.575H132.797a7.574 7.574 0 0 0-7.574 7.575 7.574 7.574 0 0 0 7.574 7.574h129.262a7.574 7.574 0 0 0 7.574-7.574zM221.664 279.73h-88.867a7.574 7.574 0 0 0-7.574 7.575 7.574 7.574 0 0 0 7.574 7.574h88.867a7.574 7.574 0 0 0 7.574-7.574 7.574 7.574 0 0 0-7.574-7.575zM221.664 245.902h-88.867a7.574 7.574 0 0 0-7.574 7.575c0 4.18 3.39 7.574 7.574 7.574h88.867a7.576 7.576 0 0 0 7.574-7.574 7.574 7.574 0 0 0-7.574-7.575zm0 0" fill="#000000" opacity="1" data-original="#000000" class="hovered-path"></path></g></svg>