<svg xmlns="http://www.w3.org/2000/svg" version="1.1" xmlns:xlink="http://www.w3.org/1999/xlink" width="25" height="25" x="0" y="0" viewBox="0 0 64 64" style="enable-background:new 0 0 512 512" xml:space="preserve" class=""><circle r="32" cx="32" cy="32" fill="#27587e" shape="circle"></circle><g transform="matrix(0.7,0,0,0.7,9.600000000000001,9.600000000000001)"><path fill="#e6e9ed" d="M45 20.23v.01c-.76.03-1.5.18-2.22.44L39 22.05V12h6zM40.93 42.29 40 46l-2 .4-3.01.6c-3.17.64-5.91 2.61-7.52 5.42-.96 1.69-1.47 3.6-1.47 5.55V62H2V2h33v8H8v16H33.29c-.19.52-.29 1.07-.29 1.64 0 .39.05.79.15 1.17l.8 3a2.993 2.993 0 0 0-.07 4.31c.54.54 1.29.88 2.12.88h1.08c.22 1.53.93 2.9 1.97 3.94z" opacity="1" data-original="#e6e9ed" class=""></path><path fill="#5cd6b3" d="M45 12H35V2z" opacity="1" data-original="#5cd6b3" class=""></path><path fill="#fcd770" d="M33.28 26H8V10h27v2h4v10.05l-2.8 1.02c-.96.35-1.76.98-2.32 1.78-.25.35-.45.74-.59 1.15z" opacity="1" data-original="#fcd770" class=""></path><path fill="#ff826e" d="M54 62H26v-4.03c0-1.95.51-3.86 1.47-5.55 1.61-2.81 4.35-4.78 7.52-5.42l3.01-.6 1 6.6 5-3 5 3 1-6.6 3.01.6c3.17.64 5.91 2.61 7.52 5.42.96 1.69 1.47 3.6 1.47 5.55V62z" opacity="1" data-original="#ff826e" class=""></path><path fill="#5cd6b3" d="M50 46.4 49 53l-5-3 4-4zM44 50l-5 3-1-6.6 2-.4z" opacity="1" data-original="#5cd6b3" class=""></path><g fill="#f0d0b4"><path d="M47.07 42.29 48 46l-4 4-4-4 .93-3.71c.92.45 1.96.71 3.07.71s2.15-.25 3.07-.71zM52 31c.8 0 1.53.31 2.06.82a2.993 2.993 0 0 1 .06 4.3c-.54.54-1.29.88-2.12.88h-1.08c.06-.33.08-.66.08-1v-4.7c0-.1 0-.2-.02-.3h.01z" fill="#f0d0b4" opacity="1" data-original="#f0d0b4"></path><path d="M51 31.3V36c0 .34-.02.67-.08 1a6.94 6.94 0 0 1-3.85 5.29c-.92.46-1.96.71-3.07.71s-2.15-.26-3.07-.71l-1.88-1.35A6.968 6.968 0 0 1 37.08 37c-.05-.33-.08-.67-.08-1.02V31c3.5-.5 5.25-1.5 6.46-2.38 1.22-.87 1.89-1.62 3.24-1.62.85 0 1.68.25 2.38.72a4.23 4.23 0 0 1 1.9 3.28c.02.1.02.2.02.3z" fill="#f0d0b4" opacity="1" data-original="#f0d0b4"></path><path d="M36 37c-.83 0-1.58-.34-2.12-.88a2.993 2.993 0 0 1 .07-4.31c.53-.5 1.25-.81 2.05-.81h1v4.98c0 .35.03.69.08 1.02h-.01z" fill="#f0d0b4" opacity="1" data-original="#f0d0b4"></path></g><path fill="#656d78" d="M55 27.23c0 .85-.18 1.85-.39 2.7s-.44 1.57-.55 1.89C53.53 31.31 52.8 31 52 31h-1.02a4.23 4.23 0 0 0-1.9-3.28A4.27 4.27 0 0 0 46.7 27c-1.35 0-2.02.75-3.24 1.62C42.25 29.5 40.5 30.5 37 31h-1c-.8 0-1.52.31-2.05.81l-.8-3c-.1-.38-.15-.78-.15-1.17 0-.57.1-1.12.29-1.64.14-.41.34-.8.59-1.15.56-.8 1.36-1.43 2.32-1.78l2.8-1.02 3.78-1.37a7.36 7.36 0 0 1 2.22-.44c.1-.01.2-.01.3-.01 1.16 0 2.3.27 3.31.78s1.91 1.25 2.61 2.18l.78 1.04c.83 0 1.58.34 2.12.88.54.55.88 1.29.88 2.12z" opacity="1" data-original="#656d78"></path><path d="M61.394 51.925a12.18 12.18 0 0 0-8.19-5.904l-4.387-.877-.591-2.363a8.018 8.018 0 0 0 3.511-4.78H52c2.206 0 4-1.794 4-4 0-.903-.312-1.727-.818-2.397.334-1.063.818-2.86.818-4.369a4.006 4.006 0 0 0-3.474-3.966l-.508-.676A8.433 8.433 0 0 0 46 19.276v-7.689L35.414 1H1v62h62v-5.029c0-2.118-.555-4.209-1.606-6.046zm-12.526-4.732-.633 4.181-2.622-1.573 2.716-2.716zm-9.197-.107 2.716 2.716-2.622 1.573-.633-4.181zm7.221-1.392L44 48.586l-2.892-2.892.515-2.06c.751.236 1.55.365 2.377.367.828 0 1.627-.127 2.379-.361zM50 36c0 3.309-2.691 6-5.997 6A6.03 6.03 0 0 1 38 35.981v-4.129c3.79-.678 5.455-1.953 6.694-2.9.862-.66 1.274-.952 2.005-.952.653 0 1.286.192 1.831.555a3.296 3.296 0 0 1 1.471 2.743zm2 0v-4c1.103 0 2 .897 2 2s-.897 2-2 2zm-1.582-12.208 1.082 1.442h.5c1.103 0 2 .897 2 2 0 .871-.234 2.016-.521 3.058A3.939 3.939 0 0 0 52 30h-.161a5.291 5.291 0 0 0-2.2-3.109 5.28 5.28 0 0 0-2.94-.891c-1.439 0-2.304.662-3.22 1.363-1.211.927-2.721 2.078-6.561 2.637H36a3.97 3.97 0 0 0-1.428.275l-.457-1.703a3.87 3.87 0 0 1 2.424-4.561l6.579-2.392a6.366 6.366 0 0 1 2.185-.385 6.417 6.417 0 0 1 5.115 2.558zm-7.984-4.053L40 20.624V13h4v6.34a8.368 8.368 0 0 0-1.566.399zM36 11V4.414L42.586 11zm2 2v8.351l-2.145.78A5.868 5.868 0 0 0 32.633 25H9V11h25v2zm-2 19v3.981l.001.019H36c-1.103 0-2-.897-2-2s.897-2 2-2zM3 3h31v6H7v18h25.05c-.023.211-.05.421-.05.636 0 .478.059.955.179 1.438l.669 2.493A3.96 3.96 0 0 0 32 34c0 2.206 1.794 4 4 4h.268a8.047 8.047 0 0 0 3.508 4.771l-.593 2.373-4.387.877a12.178 12.178 0 0 0-8.19 5.903A12.197 12.197 0 0 0 25 57.97V61H3zm58 58h-6v-4h-2v4H35v-4h-2v4h-6v-3.029a10.181 10.181 0 0 1 8.189-9.989l1.979-.396 1.067 7.039L44 51.166l5.765 3.459 1.067-7.039 1.979.396A10.192 10.192 0 0 1 61 57.971z" fill="#000000" opacity="1" data-original="#000000" class=""></path><path d="m6.23 57.4 10.005-13.005 1.586 1.22L7.816 58.62zM16 51c-1.654 0-3 1.346-3 3s1.346 3 3 3 3-1.346 3-3-1.346-3-3-3zm0 4c-.551 0-1-.449-1-1s.449-1 1-1 1 .449 1 1-.449 1-1 1zM11 49c0-1.654-1.346-3-3-3s-3 1.346-3 3 1.346 3 3 3 3-1.346 3-3zm-4 0c0-.551.449-1 1-1s1 .449 1 1-.449 1-1 1-1-.449-1-1zM9 29h19v2H9zM9 37h19v2H9zM9 33h2v2H9zM13 33h15v2H13zM9 41h15v2H9zM26 41h2v2h-2zM12 15h2v8h2v-8h2v-2h-6zM23 13c-1.654 0-3 1.346-3 3v7h2v-2h2v2h2v-7c0-1.654-1.346-3-3-3zm-1 6v-3c0-.551.449-1 1-1s1 .449 1 1v3zM32 14.697l-1 1.5-1-1.5V13h-2v2.303L29.798 18 28 20.697V23h2v-1.697l1-1.5 1 1.5V23h2v-2.303L32.202 18 34 15.303V13h-2z" fill="#000000" opacity="1" data-original="#000000" class=""></path></g></svg>