<svg xmlns="http://www.w3.org/2000/svg" version="1.1" xmlns:xlink="http://www.w3.org/1999/xlink" width="25" height="25" x="0" y="0" viewBox="0 0 256 256" style="enable-background:new 0 0 512 512" xml:space="preserve" class=""><g><path fill="#70d6f9" d="m212.729 120.532-25.078 43.436a4.433 4.433 0 0 1-7.678-4.433l25.083-43.445a51.278 51.278 0 0 0-21.815-4.847c-28.443 0-51.5 23.057-51.5 51.5s23.057 51.5 51.5 51.5 51.5-23.057 51.5-51.5c0-17.471-8.708-32.899-22.012-42.211z" opacity="1" data-original="#70d6f9" class=""></path><path fill="#edf4fc" d="m206.443 131.418-18.792 32.549a4.433 4.433 0 0 1-7.678-4.433l18.797-32.557a38.764 38.764 0 0 0-15.53-3.234c-21.505 0-39 17.495-39 39s17.495 39 39 39 39-17.495 39-39c.001-12.819-6.219-24.212-15.797-31.325z" opacity="1" data-original="#edf4fc" class=""></path><path fill="#f5c84c" d="m200.135 142.344-12.485 21.624a4.433 4.433 0 0 1-7.678-4.433l12.49-21.634a26.38 26.38 0 0 0-9.223-1.658c-14.612 0-26.5 11.888-26.5 26.5s11.888 26.5 26.5 26.5 26.5-11.888 26.5-26.5c.002-8.196-3.74-15.534-9.604-20.399z" opacity="1" data-original="#f5c84c"></path><path fill="#fc657e" d="m193.711 153.471-6.06 10.497a4.433 4.433 0 0 1-7.678-4.433l6.06-10.497c-5.738-1.165-11.835 1.365-14.92 6.708-3.86 6.686-1.561 15.264 5.125 19.124s15.264 1.561 19.124-5.124c3.085-5.343 2.227-11.889-1.651-16.275z" opacity="1" data-original="#fc657e"></path><path fill="#fcdd86" d="M222.38 94.951a4.433 4.433 0 0 0-6.055 1.622l-36.351 62.962a4.433 4.433 0 1 0 7.677 4.432l36.351-62.962a4.431 4.431 0 0 0-1.622-6.054z" opacity="1" data-original="#fcdd86"></path><path fill="#fc657e" d="m235.535 104.831-12.185-2.696-9.308 16.122 13.16 2.912a1.58 1.58 0 0 0 1.71-.753l7.651-13.251a1.582 1.582 0 0 0-1.028-2.334zM207.246 88.498a1.58 1.58 0 0 0-2.534.277l-7.651 13.251a1.58 1.58 0 0 0 .203 1.857l9.101 9.941 9.308-16.122zM255.895 176.21c-3.157-.561-5.613-3.017-6.245-6.104 0-.14-.281-.14-.281 0-.631 3.087-3.087 5.543-6.245 6.104-.14 0-.14.21 0 .281 3.157.562 5.613 3.017 6.245 6.104 0 .14.281.14.281 0 .632-3.087 3.087-5.543 6.245-6.104.14-.071.14-.281 0-.281z" opacity="1" data-original="#fc657e"></path><path fill="#f5c84c" d="M180.8 43.85c-4.5-.8-8-4.3-8.9-8.7 0-.2-.4-.2-.4 0-.9 4.4-4.4 7.9-8.9 8.7-.2 0-.2.3 0 .4 4.5.8 8 4.3 8.9 8.7 0 .2.4.2.4 0 .9-4.4 4.4-7.9 8.9-8.7.2-.1.2-.4 0-.4z" opacity="1" data-original="#f5c84c"></path><path fill="#87d147" d="M178.8 67a3.4 3.4 0 1 0 0 6.8 3.4 3.4 0 0 0 0-6.8z" opacity="1" data-original="#87d147"></path><path fill="#70d6f9" d="M14.2 155.1h-2.3v-2.3c0-1.7-1.4-3.2-3.2-3.2s-3.2 1.4-3.2 3.2v2.3H3.2c-1.7 0-3.2 1.4-3.2 3.2s1.4 3.2 3.2 3.2h2.3v2.3c0 1.7 1.4 3.2 3.2 3.2s3.2-1.4 3.2-3.2v-2.3h2.3c1.7 0 3.2-1.4 3.2-3.2s-1.4-3.2-3.2-3.2z" opacity="1" data-original="#70d6f9" class=""></path><path fill="#f5c84c" d="M24.8 130a3.4 3.4 0 1 0 0 6.8 3.4 3.4 0 0 0 0-6.8z" opacity="1" data-original="#f5c84c"></path><path fill="#edf4fc" d="m170.248 224.138-.681-11.744c-21.803-5.992-37.826-25.944-37.826-49.65 0-.836.023-1.667.063-2.494a72.185 72.185 0 0 1-6.562-2.43 2.745 2.745 0 0 1-.792 1.731l-14.667 14.667a2.777 2.777 0 0 1-3.928 0l-6.563-6.563a2.759 2.759 0 0 1-.787-2.24h-7.529c.08.8-.174 1.627-.787 2.24l-6.563 6.563a2.777 2.777 0 0 1-3.928 0l-14.667-14.667a2.754 2.754 0 0 1-.79-1.721 71.4 71.4 0 0 1-10.657 3.601l-20.936 5.27a14.375 14.375 0 0 0-10.844 13.142l-2.569 44.297a5.299 5.299 0 0 0 5.29 5.605H164.96a5.3 5.3 0 0 0 5.288-5.607z" opacity="1" data-original="#edf4fc" class=""></path><path fill="#fc657e" d="M99.292 167.654a2.759 2.759 0 0 1-.787-2.24h-7.529c.08.8-.174 1.627-.787 2.24l-3.991 3.991 3.042 7.099h11l3.042-7.099zM100.241 178.744h-11l-4.989 51h20.978z" opacity="1" data-original="#fc657e"></path><path fill="#edf4fc" d="M90.189 163.727 75.522 149.06a2.779 2.779 0 0 0-3.928 0l-6.563 6.563a2.777 2.777 0 0 0 0 3.928l14.667 14.667a2.777 2.777 0 0 0 3.928 0l6.563-6.563a2.777 2.777 0 0 0 0-3.928zM124.451 155.623l-6.563-6.563a2.779 2.779 0 0 0-3.928 0l-14.667 14.667a2.777 2.777 0 0 0 0 3.928l6.563 6.563a2.777 2.777 0 0 0 3.928 0l14.667-14.667a2.779 2.779 0 0 0 0-3.928z" opacity="1" data-original="#edf4fc" class=""></path><path fill="#f9d0b4" d="M111.524 143.361v-5.929a36.085 36.085 0 0 1-16.783 4.134c-6.044 0-11.752-1.5-16.783-4.134v5.929c0 2.293-.625 4.488-1.747 6.387l13.978 13.978c.472.472.725 1.072.787 1.688h7.529a2.754 2.754 0 0 1 .787-1.688l13.991-13.991a12.525 12.525 0 0 1-1.759-6.374z" opacity="1" data-original="#f9d0b4" class=""></path><path fill="#f9d0b4" d="M131.165 72.116a1.953 1.953 0 0 0-1.881-1.915c-15.134-.444-23.108-6.442-26.172-9.445a1.962 1.962 0 0 0-2.916.183C86.89 77.672 67.262 75.311 60.662 73.929c-1.199-.251-2.35.653-2.351 1.878v29.329c0 20.036 16.393 36.43 36.429 36.43s36.429-16.393 36.429-36.43v-32.45c.001-.191-.001-.381-.004-.57z" opacity="1" data-original="#f9d0b4" class=""></path><path fill="#754e34" d="M123.248 33.474c-3.882 0-7.511 1.097-10.63 2.967-3.643-6.08-10.28-10.185-17.846-10.185H84.087c-20.682 0-37.603 16.921-37.603 37.603v16.849a15.138 15.138 0 0 1 11.828-3.15v-1.75c.001-1.225 1.152-2.129 2.351-1.878 6.6 1.381 26.228 3.743 39.534-12.99a1.961 1.961 0 0 1 2.916-.183c3.064 3.004 11.038 9.001 26.172 9.445 1.033.03 1.86.882 1.881 1.915.004.19.006.379.006.57v4.873a15.146 15.146 0 0 1 12.887 4.083v-27.36c-.002-11.445-9.366-20.809-20.811-20.809z" opacity="1" data-original="#754e34"></path><path fill="#f9d0b4" d="M133.508 77.373c-.796 0-1.575.067-2.338.185v27.579c0 .822-.038 1.635-.092 2.443.793.127 1.6.212 2.429.212 8.4 0 15.209-6.81 15.209-15.209s-6.808-15.21-15.208-15.21zM58.311 105.137V77.558a15.27 15.27 0 0 0-2.338-.185c-8.4 0-15.209 6.81-15.209 15.21s6.809 15.209 15.209 15.209c.829 0 1.636-.084 2.429-.212v-.001a37.253 37.253 0 0 1-.091-2.442z" opacity="1" data-original="#f9d0b4" class=""></path><path d="M107.24 111.863a2.501 2.501 0 0 0-3.521.31c-1.75 2.088-4.724 3.335-7.954 3.335-3.229 0-6.203-1.247-7.954-3.336a2.5 2.5 0 1 0-3.832 3.213c2.69 3.208 7.096 5.123 11.786 5.123 4.691 0 9.098-1.916 11.786-5.124a2.498 2.498 0 0 0-.311-3.521zM110.88 89.861a4.648 4.648 0 1 0-.001 9.297 4.648 4.648 0 0 0 .001-9.297z" fill="#000000" opacity="1" data-original="#000000" class=""></path><circle cx="79.661" cy="94.51" r="4.649" fill="#000000" opacity="1" data-original="#000000" class=""></circle><path d="M145.463 195.588a2.5 2.5 0 0 0-2.5 2.5v29.285a2.5 2.5 0 1 0 5 0v-29.285a2.5 2.5 0 0 0-2.5-2.5zM44.549 189.41a2.5 2.5 0 0 0-2.5 2.5v35.462a2.5 2.5 0 1 0 5 0V191.91a2.5 2.5 0 0 0-2.5-2.5zM91.957 161.959 77.29 147.292a5.284 5.284 0 0 0-7.463 0l-6.563 6.563c-.997.997-1.546 2.322-1.546 3.732s.549 2.735 1.546 3.731l14.666 14.667a5.243 5.243 0 0 0 3.732 1.546 5.242 5.242 0 0 0 3.731-1.546l6.563-6.563c.997-.997 1.546-2.322 1.546-3.732s-.548-2.734-1.545-3.731zm-3.535 3.928-6.563 6.563a.279.279 0 0 1-.393 0l-14.667-14.667c-.054-.054-.081-.12-.081-.196s.027-.142.081-.196l6.563-6.563a.276.276 0 0 1 .392 0l14.667 14.667c.054.054.081.12.081.196s-.026.142-.08.196zM126.218 153.855l-6.563-6.563a5.243 5.243 0 0 0-3.732-1.546 5.242 5.242 0 0 0-3.731 1.546l-14.667 14.667h-.001a5.285 5.285 0 0 0 .001 7.463l6.563 6.564a5.241 5.241 0 0 0 3.731 1.545c1.41 0 2.735-.549 3.731-1.546l14.667-14.667c.997-.997 1.546-2.322 1.546-3.732s-.548-2.734-1.545-3.731zm-3.535 3.928-14.668 14.667a.28.28 0 0 1-.392 0l-6.563-6.563a.28.28 0 0 1-.001-.393l14.667-14.667a.279.279 0 0 1 .393 0l6.563 6.564c.054.054.081.12.081.196s-.027.142-.08.196z" fill="#000000" opacity="1" data-original="#000000" class=""></path><path d="M115.226 148.092a10.063 10.063 0 0 1-1.202-4.731v-5.326a2.5 2.5 0 1 0-5 0v5.326c0 2.449.621 4.902 1.796 7.093a2.497 2.497 0 0 0 3.385 1.022 2.5 2.5 0 0 0 1.021-3.384zM97.653 162.914h-6.185a2.5 2.5 0 1 0 0 5h6.185a2.5 2.5 0 1 0 0-5zM77.958 135.854a2.5 2.5 0 0 0-2.5 2.5v5.007c0 1.61-.394 3.217-1.139 4.646a2.5 2.5 0 1 0 4.434 2.312 15.12 15.12 0 0 0 1.705-6.958v-5.007a2.5 2.5 0 0 0-2.5-2.5zM131.919 157.674a69.606 69.606 0 0 1-4.799-1.777 2.5 2.5 0 1 0-1.907 4.622 74.853 74.853 0 0 0 5.143 1.905 2.5 2.5 0 0 0 1.563-4.75zM172.744 223.994l-.656-11.313c-.08-1.379-1.289-2.428-2.641-2.351a2.5 2.5 0 0 0-2.352 2.64l.656 11.313c.045.777-.225 1.517-.759 2.083s-1.257.877-2.035.877H24.523c-.778 0-1.501-.312-2.035-.878s-.804-1.306-.758-2.083l2.568-44.302a11.822 11.822 0 0 1 8.959-10.856l20.936-5.27a74 74 0 0 0 10.504-3.504 2.5 2.5 0 0 0-1.931-4.611 69.018 69.018 0 0 1-9.793 3.267l-20.936 5.27c-7.202 1.813-12.317 8.013-12.73 15.421l-2.568 44.296c-.124 2.134.646 4.25 2.113 5.804s3.534 2.446 5.672 2.446h140.435a7.83 7.83 0 0 0 5.671-2.446 7.828 7.828 0 0 0 2.114-5.803z" fill="#000000" opacity="1" data-original="#000000" class=""></path><path d="M133.664 72.064a4.443 4.443 0 0 0-4.307-4.362c-14.504-.425-21.962-6.248-24.495-8.731a4.45 4.45 0 0 0-3.399-1.27 4.48 4.48 0 0 0-3.223 1.682h-.001c-12.217 15.365-29.992 13.578-37.065 12.1a4.442 4.442 0 0 0-3.728.904 4.404 4.404 0 0 0-1.635 3.446v29.304c0 21.466 17.464 38.93 38.93 38.93s38.929-17.464 38.929-38.93V72.686zm-4.994 33.073c0 18.709-15.221 33.93-33.929 33.93-18.709 0-33.93-15.221-33.93-33.93V76.509c6.904 1.323 27.112 3.392 40.976-13.561 3.833 3.588 12.115 9.173 26.883 9.733z" fill="#000000" opacity="1" data-original="#000000" class=""></path><path d="M123.248 30.974c-3.383 0-6.733.756-9.813 2.203-4.384-5.862-11.337-9.42-18.662-9.42H84.087c-22.112 0-40.103 17.99-40.103 40.103v16.068a2.5 2.5 0 1 0 5 0V63.859c0-19.355 15.747-35.103 35.103-35.103h10.686c6.369 0 12.386 3.437 15.701 8.97a2.5 2.5 0 0 0 3.431.859 18.185 18.185 0 0 1 9.344-2.611c10.096 0 18.31 8.213 18.31 18.309v26.642a2.5 2.5 0 1 0 5 0V54.283c-.001-12.852-10.458-23.309-23.311-23.309z" fill="#000000" opacity="1" data-original="#000000" class=""></path><path d="M133.508 74.873c-.493 0-.979.021-1.461.063a2.5 2.5 0 1 0 .426 4.982c.341-.029.687-.044 1.035-.044 7.008 0 12.71 5.702 12.71 12.709s-5.702 12.709-12.71 12.709c-.365 0-.753-.021-1.152-.063a2.493 2.493 0 0 0-2.745 2.227 2.5 2.5 0 0 0 2.228 2.746c.57.06 1.133.09 1.67.09 9.766 0 17.71-7.944 17.71-17.709s-7.946-17.71-17.711-17.71zM56.946 105.247c-.32.029-.645.045-.973.045-7.008 0-12.71-5.702-12.71-12.709s5.702-12.709 12.71-12.709c.334 0 .664.014.992.041a2.5 2.5 0 1 0 .406-4.983 17.028 17.028 0 0 0-1.398-.058c-9.766 0-17.71 7.944-17.71 17.709s7.944 17.709 17.71 17.709c.479 0 .951-.023 1.418-.065a2.5 2.5 0 1 0-.445-4.98zM105.051 169.877l-3.99-3.99c-.068-.068-.074-.161-.067-.227a2.503 2.503 0 0 0-2.489-2.746h-7.528a2.5 2.5 0 0 0-2.488 2.749c.009.094-.014.169-.067.223l-3.991 3.991a2.5 2.5 0 0 0-.53 2.753l3.043 7.099a2.502 2.502 0 0 0 2.298 1.515h11a2.5 2.5 0 0 0 2.298-1.515l3.042-7.099c.401-.94.191-2.03-.531-2.753zm-6.458 6.367H90.89l-1.727-4.028 2.793-2.793a5.231 5.231 0 0 0 1.053-1.509h3.465a5.2 5.2 0 0 0 1.051 1.508l2.794 2.794z" fill="#000000" opacity="1" data-original="#000000" class=""></path><path d="M102.729 178.5a2.5 2.5 0 0 0-2.488-2.256h-11a2.5 2.5 0 0 0-2.488 2.256l-4.989 51a2.498 2.498 0 0 0 2.489 2.743h20.979a2.503 2.503 0 0 0 2.489-2.743zm-15.72 48.744 4.5-46h6.465l4.5 46zM214.741 118.895a2.5 2.5 0 1 0-2.92 4.059c12.786 9.201 20.42 24.076 20.42 39.79 0 27.019-21.981 49-49 49s-49-21.981-49-49 21.981-49 49-49a48.6 48.6 0 0 1 20.092 4.307 2.5 2.5 0 0 0 2.053-4.558 53.567 53.567 0 0 0-22.145-4.748c-29.775 0-54 24.224-54 54s24.225 54 54 54 54-24.224 54-54c0-17.32-8.411-33.712-22.5-43.85z" fill="#000000" opacity="1" data-original="#000000" class=""></path><path d="M208.688 129.985a2.5 2.5 0 1 0-3.07 3.945c8.976 6.987 14.123 17.489 14.123 28.813 0 20.126-16.374 36.5-36.5 36.5s-36.5-16.374-36.5-36.5 16.374-36.5 36.5-36.5c4.73 0 9.344.902 13.71 2.68a2.5 2.5 0 1 0 1.887-4.631 41.17 41.17 0 0 0-15.597-3.049c-22.883 0-41.5 18.617-41.5 41.5s18.617 41.5 41.5 41.5 41.5-18.617 41.5-41.5c-.001-12.877-5.851-24.817-16.053-32.758z" fill="#000000" opacity="1" data-original="#000000" class=""></path><path d="M202.454 141.04a2.5 2.5 0 0 0-3.316 3.742 24.026 24.026 0 0 1 8.103 17.962c0 13.234-10.767 24-24 24s-24-10.766-24-24 10.767-24 24-24c2.636 0 5.231.429 7.715 1.274a2.499 2.499 0 0 0 3.172-1.561 2.499 2.499 0 0 0-1.561-3.172 28.887 28.887 0 0 0-9.326-1.541c-15.99 0-29 13.009-29 29s13.01 29 29 29 29-13.009 29-29a29.033 29.033 0 0 0-9.787-21.704z" fill="#000000" opacity="1" data-original="#000000" class=""></path><path d="M196.136 152.473a2.5 2.5 0 1 0-3.914 3.112c2.967 3.732 3.35 8.8.976 12.913-3.171 5.491-10.216 7.38-15.709 4.209-5.491-3.17-7.38-10.218-4.21-15.709 2.378-4.118 6.968-6.316 11.684-5.609a2.5 2.5 0 1 0 .744-4.944c-6.773-1.02-13.345 2.144-16.758 8.054-4.549 7.879-1.839 17.99 6.04 22.539a16.383 16.383 0 0 0 8.222 2.207c5.707 0 11.265-2.959 14.317-8.246 3.408-5.905 2.861-13.176-1.392-18.526z" fill="#000000" opacity="1" data-original="#000000" class=""></path><path d="M226.86 96.995a6.884 6.884 0 0 0-3.23-4.209 6.893 6.893 0 0 0-5.261-.692 6.883 6.883 0 0 0-4.209 3.23l-36.352 62.962c-1.911 3.311-.773 7.559 2.537 9.47a6.943 6.943 0 0 0 9.471-2.538l36.351-62.962a6.89 6.89 0 0 0 .693-5.261zm-5.023 2.76-36.351 62.962a1.937 1.937 0 0 1-2.641.708 1.935 1.935 0 0 1-.707-2.64l36.352-62.963a1.918 1.918 0 0 1 1.173-.9c.501-.134 1.02-.065 1.467.193s.767.675.9 1.173.066 1.02-.193 1.467z" fill="#000000" opacity="1" data-original="#000000" class=""></path><path d="M238.928 104.729a4.09 4.09 0 0 0-2.853-2.339l-10.938-2.42a2.501 2.501 0 0 0-1.08 4.882l9.714 2.149-6.688 11.582-11.678-2.584a2.499 2.499 0 1 0-1.08 4.882l12.338 2.73a4.064 4.064 0 0 0 4.413-1.945l7.651-13.251c.648-1.123.723-2.5.201-3.686zM216.914 95.356l-7.824-8.547a4.1 4.1 0 0 0-3.453-1.301 4.096 4.096 0 0 0-3.091 2.017l-7.65 13.251a4.062 4.062 0 0 0 .524 4.795l8.457 9.238a2.493 2.493 0 0 0 1.845.812 2.5 2.5 0 0 0 1.843-4.188l-8.002-8.741 6.687-11.582 6.978 7.621a2.499 2.499 0 1 0 3.686-3.375z" fill="#000000" opacity="1" data-original="#000000" class=""></path></g></svg>