<svg xmlns="http://www.w3.org/2000/svg" version="1.1" xmlns:xlink="http://www.w3.org/1999/xlink" width="25" height="25" x="0" y="0" viewBox="0 0 64 64" style="enable-background:new 0 0 512 512" xml:space="preserve" class=""><g><path fill="#505050" d="M8 46h6v14H8z" opacity="1" data-original="#505050"></path><path fill="#3c3c3c" d="M8 46h2v14H8z" opacity="1" data-original="#3c3c3c"></path><path fill="#f0c8a0" d="m50.876 52.141-14.505 1.813a5.984 5.984 0 0 1-.745.046H30a2 2 0 0 1-2-2l8.392-1.678A2 2 0 0 0 38 48.361V48H14v8l15.964 3.547a7.996 7.996 0 0 0 4.034-.147l17.289-5.187a.998.998 0 0 0 .713-.957v-.123a1 1 0 0 0-1.124-.992z" opacity="1" data-original="#f0c8a0" class=""></path><path fill="#fab400" d="M40 24H24a2 2 0 0 1-2-2V6a2 2 0 0 1 2-2h16a2 2 0 0 1 2 2v16a2 2 0 0 1-2 2z" opacity="1" data-original="#fab400"></path><path fill="#fa6450" d="M20 22v-2H6a2 2 0 0 0-2 2v16a2 2 0 0 0 2 2h16a2 2 0 0 0 2-2V26c-2.206 0-4-1.794-4-4z" opacity="1" data-original="#fa6450"></path><path fill="#64c8f0" d="M58 20H44v2c0 2.206-1.794 4-4 4v12a2 2 0 0 0 2 2h16a2 2 0 0 0 2-2V22a2 2 0 0 0-2-2z" opacity="1" data-original="#64c8f0" class=""></path><path fill="#dc9600" d="M24 22V6a2 2 0 0 1 2-2h-2a2 2 0 0 0-2 2v16a2 2 0 0 0 2 2h2a2 2 0 0 1-2-2z" opacity="1" data-original="#dc9600"></path><path fill="#dc4632" d="M6 38V22a2 2 0 0 1 2-2H6a2 2 0 0 0-2 2v16a2 2 0 0 0 2 2h2a2 2 0 0 1-2-2z" opacity="1" data-original="#dc4632"></path><path fill="#46aad2" d="M42 38V26c2.206 0 4-1.794 4-4v-2h-2v2c0 2.206-1.794 4-4 4v12a2 2 0 0 0 2 2h2a2 2 0 0 1-2-2z" opacity="1" data-original="#46aad2"></path><path fill="#f0f0f0" d="m55 30 2.4 3.2a3 3 0 1 1-4.8 0zM51 22l2.4 3.2a3 3 0 1 1-4.8 0zM47 30l2.4 3.2a3 3 0 1 1-4.8 0zM32 6v6h4l-4 10v-6h-4zM16.895 27.811c-.615.615-1.04 1.374-1.295 2.189v-1.622a6.397 6.397 0 0 0-1.075-3.55L14 24.04l-.525.788a6.397 6.397 0 0 0-1.075 3.55V30c-.255-.815-.68-1.574-1.295-2.189L10 26.707V32a4 4 0 0 0 8 0v-5.293z" opacity="1" data-original="#f0f0f0"></path><path fill="#f0c8a0" d="M32 40a6 6 0 1 1 0-12 6 6 0 0 1 0 12z" opacity="1" data-original="#f0c8a0" class=""></path><path fill="#fab400" d="M26 34a6 6 0 1 1 12 0z" opacity="1" data-original="#fab400"></path><path fill="#d2aa82" d="M30 34a5.996 5.996 0 0 1 4-5.651A5.97 5.97 0 0 0 32 28a6 6 0 1 0 0 12 5.97 5.97 0 0 0 2-.349A5.996 5.996 0 0 1 30 34z" opacity="1" data-original="#d2aa82"></path><path fill="#dc9600" d="M34 28.349A5.97 5.97 0 0 0 32 28a6 6 0 0 0-6 6h4a5.996 5.996 0 0 1 4-5.651z" opacity="1" data-original="#dc9600"></path><path fill="#3cc8b4" d="M32 40a6 6 0 0 0-6 6h12a6 6 0 0 0-6-6z" opacity="1" data-original="#3cc8b4"></path><path fill="#1eaa96" d="M34 40.349A5.97 5.97 0 0 0 32 40a6 6 0 0 0-6 6h4a5.996 5.996 0 0 1 4-5.651z" opacity="1" data-original="#1eaa96"></path></g></svg>