<svg xmlns="http://www.w3.org/2000/svg" version="1.1" xmlns:xlink="http://www.w3.org/1999/xlink" width="512" height="512" x="0" y="0" viewBox="0 0 256 256" style="enable-background:new 0 0 512 512" xml:space="preserve" class=""><g><path fill="#70d6f9" d="m167.347 34.562-9.224 11.385a3.126 3.126 0 0 0 .461 4.397l16.676 13.511c.626.507.267 1.52-.538 1.52h-157a3.126 3.126 0 0 0-3.126 3.126v48.997c0 1.727 1.4 3.126 3.126 3.126h157c.806 0 1.165 1.013.538 1.52l-16.676 13.511a3.126 3.126 0 0 0-.461 4.397l9.224 11.385a3.126 3.126 0 0 0 4.397.461l67.749-54.892c2.548-2.064 2.548-5.951 0-8.015L171.744 34.1a3.127 3.127 0 0 0-4.397.462z" opacity="1" data-original="#70d6f9"></path><path fill="#c18e6b" d="M96.423 65.375h33.879l-5.107-44.945a6.393 6.393 0 0 0-6.352-5.671H97.121c-3.858 0-6.837 3.391-6.34 7.217zM63.089 65.375c-5.771-14.049-8.83-26.531-10.194-33.099a6.138 6.138 0 0 0-6.014-4.896h-6.52c-3.497 0-6.271 2.918-6.139 6.413.435 11.559 2.038 22.05 4.471 31.583h24.396zM171.13 169.937l-15.21-18.252a4.508 4.508 0 0 0-4.79-1.423l-5.611 1.726a4.51 4.51 0 0 1-5.807-3.801l-3.132-27.563H67.475c10.736 12.748 21.444 21.519 27.627 27.703 15.776 15.776 8.414 105.172 8.414 105.172h49.431s-5.259-35.759-5.259-52.586c0-12.013 13.937-20.275 21.911-24.018 2.669-1.252 3.418-4.693 1.531-6.958z" opacity="1" data-original="#c18e6b" class=""></path><path fill="#fc657e" d="M220.013 171.175c-3.1-.6-5.6-3-6.2-6.1 0-.1-.3-.1-.3 0-.6 3.1-3.1 5.5-6.2 6.1-.1 0-.1.2 0 .3 3.1.6 5.6 3 6.2 6.1 0 .1.3.1.3 0 .6-3.1 3.1-5.5 6.2-6.1.1-.1.1-.3 0-.3z" opacity="1" data-original="#fc657e"></path><path fill="#87d147" d="M193.013 21.5h2.3v2.3c0 1.8 1.4 3.2 3.2 3.2 1.7 0 3.2-1.4 3.2-3.1v-2.4h2.3c1.8 0 3.2-1.4 3.2-3.2 0-1.7-1.4-3.2-3.1-3.2h-2.4v-2.3c0-1.8-1.4-3.2-3.2-3.2-1.7 0-3.2 1.4-3.2 3.1v2.4h-2.3c-1.8 0-3.2 1.4-3.2 3.2-.1 1.7 1.3 3.2 3.2 3.2-.1 0-.1 0 0 0z" opacity="1" data-original="#87d147"></path><circle cx="63.413" cy="222.9" r="3.4" fill="#70d6f9" opacity="1" data-original="#70d6f9"></circle><circle cx="149.413" cy="3.4" r="3.4" fill="#f5c84c" opacity="1" data-original="#f5c84c"></circle><path fill="#f5c84c" d="M38.813 187.2c4.5-.8 8-4.3 8.9-8.7 0-.2.4-.2.4 0 .9 4.4 4.4 7.9 8.9 8.7.2 0 .2.3 0 .4-4.5.8-8 4.3-8.9 8.7 0 .2-.4.2-.4 0-.9-4.4-4.4-7.9-8.9-8.7-.2-.1-.2-.4 0-.4z" opacity="1" data-original="#f5c84c"></path><path d="M174.634 106.844h-7.854a2.5 2.5 0 0 1-2.5-2.5V81.656a2.5 2.5 0 0 1 2.5-2.5h7.854a6.87 6.87 0 0 1 6.862 6.863v13.962a6.87 6.87 0 0 1-6.862 6.863zm-5.354-5h5.354a1.864 1.864 0 0 0 1.862-1.863V86.019a1.865 1.865 0 0 0-1.862-1.863h-5.354zM79.68 106.844H67.463a2.5 2.5 0 0 1-2.5-2.5V81.656a2.5 2.5 0 0 1 2.5-2.5H79.68a2.5 2.5 0 1 1 0 5h-9.717v17.688h9.717a2.5 2.5 0 1 1 0 5z" fill="#000000" opacity="1" data-original="#000000"></path><path d="M75.316 94.882h-7.854a2.5 2.5 0 1 1 0-5h7.854a2.5 2.5 0 1 1 0 5zM99.375 106.844H87.158a2.5 2.5 0 0 1-2.5-2.5V81.656a2.5 2.5 0 0 1 2.5-2.5h12.217a2.5 2.5 0 1 1 0 5h-9.717v17.688h9.717a2.5 2.5 0 1 1 0 5z" fill="#000000" opacity="1" data-original="#000000"></path><path d="M95.012 94.882h-7.854a2.5 2.5 0 1 1 0-5h7.854a2.5 2.5 0 1 1 0 5zM138.766 106.844H126.55a2.5 2.5 0 0 1-2.5-2.5V81.656a2.5 2.5 0 0 1 2.5-2.5h12.216a2.5 2.5 0 1 1 0 5h-9.716v17.688h9.716a2.5 2.5 0 1 1 0 5z" fill="#000000" opacity="1" data-original="#000000"></path><path d="M134.403 94.882h-7.854a2.5 2.5 0 1 1 0-5h7.854a2.5 2.5 0 1 1 0 5zM106.854 106.844a2.5 2.5 0 0 1-2.5-2.5V81.656a2.5 2.5 0 1 1 5 0v22.688a2.5 2.5 0 0 1-2.5 2.5z" fill="#000000" opacity="1" data-original="#000000"></path><path d="M119.07 106.844a2.5 2.5 0 0 1-2.5-2.5v-4.363a1.865 1.865 0 0 0-1.862-1.863h-7.854a2.5 2.5 0 0 1-1.881-4.146l12.216-13.961a2.499 2.499 0 0 1 3.528-.235 2.498 2.498 0 0 1 .235 3.527l-8.588 9.815h2.344a6.87 6.87 0 0 1 6.862 6.863v4.363a2.5 2.5 0 0 1-2.5 2.5zM158.461 106.844a2.5 2.5 0 0 1-2.201-1.315l-7.515-13.956v12.771a2.5 2.5 0 1 1-5 0V81.656a2.499 2.499 0 0 1 4.702-1.185l7.515 13.956V81.656a2.5 2.5 0 1 1 5 0v22.688a2.499 2.499 0 0 1-2.501 2.5zM58.305 106.844a2.501 2.501 0 0 1-2.048-1.066l-4.061-5.8-4.06 5.8a2.5 2.5 0 0 1-4.54-1.242L41.85 81.848a2.5 2.5 0 0 1 2.301-2.685c1.354-.101 2.578.924 2.684 2.301l1.211 15.724 2.103-3.004a2.5 2.5 0 0 1 4.096 0l2.104 3.004 1.21-15.724a2.5 2.5 0 1 1 4.985.384l-1.745 22.688a2.499 2.499 0 0 1-2.494 2.308z" fill="#000000" opacity="1" data-original="#000000"></path><path d="M169.787 155.097a5.587 5.587 0 0 1-4.383-2.085l-9.224-11.385a5.59 5.59 0 0 1-1.225-4.128 5.59 5.59 0 0 1 2.055-3.785l13.068-10.589H17.722a5.632 5.632 0 0 1-5.626-5.626V68.501a5.631 5.631 0 0 1 5.626-5.626h152.357L157.01 52.286a5.597 5.597 0 0 1-2.054-3.785 5.588 5.588 0 0 1 1.225-4.128l9.224-11.385a5.632 5.632 0 0 1 7.913-.83l67.75 54.891c1.803 1.461 2.837 3.629 2.837 5.95s-1.034 4.489-2.837 5.95l-67.749 54.893a5.586 5.586 0 0 1-3.532 1.255zM17.722 67.875a.627.627 0 0 0-.626.626v48.997c0 .345.281.626.626.626h157c1.418 0 2.688.898 3.162 2.234a3.36 3.36 0 0 1-1.05 3.728l-16.676 13.511a.613.613 0 0 0-.229.421.615.615 0 0 0 .137.459l9.224 11.385a.626.626 0 0 0 .882.092l67.748-54.892c.626-.507.985-1.26.985-2.065s-.359-1.558-.985-2.065l-67.75-54.889a.628.628 0 0 0-.881.092l-9.224 11.385a.621.621 0 0 0 .092.88l16.677 13.511a3.362 3.362 0 0 1 1.05 3.728 3.361 3.361 0 0 1-3.162 2.234h-157zm155.964-2.078h.01z" fill="#000000" opacity="1" data-original="#000000"></path><path d="M130.302 67.875H96.424a2.5 2.5 0 0 1-2.479-2.178l-5.643-43.399a8.896 8.896 0 0 1 8.82-10.039h21.722a8.888 8.888 0 0 1 8.836 7.889l5.107 44.945a2.505 2.505 0 0 1-.619 1.947 2.506 2.506 0 0 1-1.866.835zm-31.682-5h28.882l-4.792-42.163a3.89 3.89 0 0 0-3.867-3.453H97.121c-1.137 0-2.175.47-2.925 1.324s-1.082 1.944-.936 3.071zM63.089 67.875H38.692a2.5 2.5 0 0 1-2.422-1.882c-2.6-10.183-4.129-20.985-4.547-32.107a8.628 8.628 0 0 1 2.423-6.363 8.558 8.558 0 0 1 6.215-2.644h6.52c4.075 0 7.634 2.897 8.462 6.889 1.281 6.172 4.293 18.624 10.059 32.657a2.5 2.5 0 0 1-2.313 3.45zm-22.441-5h18.751c-5.028-12.977-7.741-24.26-8.953-30.091a3.657 3.657 0 0 0-3.565-2.905h-6.52c-.994 0-1.923.395-2.613 1.112a3.673 3.673 0 0 0-1.028 2.707c.379 10.085 1.7 19.889 3.928 29.177zM152.943 256a2.501 2.501 0 0 1-2.471-2.137c-.216-1.467-5.285-36.133-5.285-52.95 0-13.33 14.629-22.188 23.35-26.282a1.95 1.95 0 0 0 1.093-1.367 2 2 0 0 0-.421-1.728l-15.21-18.252a2 2 0 0 0-2.134-.634l-5.61 1.726c-1.999.613-4.151.311-5.901-.835s-2.889-2.995-3.125-5.074l-2.881-25.344H72.965c6.302 7.009 12.406 12.659 17.47 17.344 2.479 2.294 4.619 4.274 6.435 6.091 7.025 7.024 10.678 27.298 10.855 60.256.131 24.151-1.699 46.664-1.718 46.889a2.509 2.509 0 0 1-2.696 2.287 2.5 2.5 0 0 1-2.286-2.697c2.021-24.545 4.577-90.932-7.69-103.2-1.748-1.748-3.855-3.698-6.296-5.956-6.118-5.663-13.733-12.71-21.476-21.904a2.5 2.5 0 0 1 1.913-4.11h69.105a2.5 2.5 0 0 1 2.484 2.218l3.133 27.563c.092.816.601 1.261.896 1.455.295.193.909.481 1.691.239l5.61-1.726a6.992 6.992 0 0 1 7.445 2.212l15.211 18.252a6.971 6.971 0 0 1 1.46 6.013 6.937 6.937 0 0 1-3.849 4.809c-17.814 8.363-20.475 17.221-20.475 21.756 0 16.455 5.18 51.866 5.232 52.222a2.5 2.5 0 0 1-2.476 2.864z" fill="#000000" opacity="1" data-original="#000000"></path></g></svg>