<svg xmlns="http://www.w3.org/2000/svg" version="1.1" xmlns:xlink="http://www.w3.org/1999/xlink" width="25" height="25" x="0" y="0" viewBox="0 0 256 256" style="enable-background:new 0 0 512 512" xml:space="preserve" class=""><g><path fill="#ffe2e2" d="M248.8 43.816v188.9c0 8.2-6.7 14.9-15 14.9H22.2c-8.3 0-15-6.7-15-15v-188.8c0-8.3 6.7-15 15-15h211.6c8.3 0 15 6.7 15 15z" opacity="1" data-original="#ffe2e2"></path><path fill="#ffefee" d="M37.2 247.616h-15c-8.3 0-15-6.7-15-15v-188.8c0-8.3 6.7-15 15-15h15c-8.3 0-15 6.7-15 15v188.8c0 8.3 6.7 15 15 15z" opacity="1" data-original="#ffefee"></path><path fill="#ffcfcf" d="M248.8 43.816v188.9c0 8.2-6.7 14.9-15 14.9h-15c8.3 0 15-6.7 15-14.9v-188.9c0-8.3-6.7-15-15-15h15c8.3 0 15 6.7 15 15z" opacity="1" data-original="#ffcfcf"></path><path fill="#ff4a73" d="M248.8 43.816v29.53H7.2v-29.53c0-8.3 6.7-15 15-15h211.6c8.3 0 15 6.7 15 15z" opacity="1" data-original="#ff4a73" class=""></path><path fill="#f973a3" d="M37.2 28.816c-8.3 0-15 6.7-15 15v29.53h-15v-29.53c0-8.3 6.7-15 15-15z" opacity="1" data-original="#f973a3"></path><path fill="#ea2a6a" d="M248.8 43.816v29.53h-15v-29.53c0-8.3-6.7-15-15-15h15c8.3 0 15 6.7 15 15z" opacity="1" data-original="#ea2a6a"></path><circle cx="50.839" cy="124.782" r="20.998" fill="#ff4a73" opacity="1" data-original="#ff4a73" class=""></circle><circle cx="124.641" cy="124.782" r="20.998" fill="#44c7b6" opacity="1" data-original="#44c7b6"></circle><circle cx="199.351" cy="124.782" r="20.998" fill="#44c7b6" opacity="1" data-original="#44c7b6"></circle><circle cx="50.839" cy="190.282" r="20.998" fill="#44c7b6" opacity="1" data-original="#44c7b6"></circle><circle cx="124.641" cy="190.282" r="20.998" fill="#44c7b6" opacity="1" data-original="#44c7b6"></circle><circle cx="199.351" cy="190.282" r="20.998" fill="#ff4a73" opacity="1" data-original="#ff4a73" class=""></circle><g fill="#5f266d"><path d="M233.8 24.816h-31.565V8.384a4 4 0 0 0-8 0v16.433H61.766V8.384a4 4 0 0 0-8 0v16.433H22.2c-10.477 0-19 8.523-19 19v188.8c0 10.477 8.523 19 19 19h211.6c10.477 0 19-8.479 19-18.9v-188.9c0-10.477-8.524-19.001-19-19.001zm11 207.9c0 6.01-4.935 10.9-11 10.9H22.2c-6.065 0-11-4.935-11-11V77.346h233.6zm0-163.37H11.2v-25.53c0-6.065 4.935-11 11-11h31.565v16.432a4 4 0 0 0 8 0V32.816h132.469v16.432a4 4 0 0 0 8 0V32.816H233.8c6.065 0 11 4.935 11 11z" fill="#5f266d" opacity="1" data-original="#5f266d"></path><path d="M124.641 149.78c13.784 0 24.998-11.214 24.998-24.998s-11.214-24.998-24.998-24.998-24.998 11.214-24.998 24.998 11.213 24.998 24.998 24.998zm0-41.996c9.373 0 16.998 7.625 16.998 16.998s-7.625 16.998-16.998 16.998-16.998-7.625-16.998-16.998 7.625-16.998 16.998-16.998zM199.351 149.78c13.784 0 24.999-11.214 24.999-24.998s-11.214-24.998-24.999-24.998-24.998 11.214-24.998 24.998 11.213 24.998 24.998 24.998zm0-41.996c9.373 0 16.999 7.625 16.999 16.998s-7.625 16.998-16.999 16.998c-9.373 0-16.998-7.625-16.998-16.998s7.625-16.998 16.998-16.998zM50.839 149.78c19.947 0 31.851-22.347 20.782-38.873l7.517-7.532a4 4 0 0 0-5.662-5.652l-7.314 7.328c-16.318-12.702-40.321-1.056-40.321 19.73 0 13.785 11.214 24.999 24.998 24.999zm9.61-39.004-12.184 12.208-2.162-2.637a4 4 0 1 0-6.186 5.072l4.964 6.054a4 4 0 0 0 5.924.29l15-15.029c6.082 11.265-2.121 25.046-14.966 25.046-9.373 0-16.998-7.625-16.998-16.998 0-13.669 15.395-21.726 26.608-14.006zM50.839 215.28c13.784 0 24.998-11.214 24.998-24.998s-11.214-24.998-24.998-24.998-24.998 11.214-24.998 24.998 11.214 24.998 24.998 24.998zm0-41.996c9.373 0 16.998 7.625 16.998 16.998s-7.625 16.998-16.998 16.998-16.998-7.625-16.998-16.998 7.625-16.998 16.998-16.998zM124.641 215.28c13.784 0 24.998-11.214 24.998-24.998s-11.214-24.998-24.998-24.998-24.998 11.214-24.998 24.998 11.213 24.998 24.998 24.998zm0-41.996c9.373 0 16.998 7.625 16.998 16.998s-7.625 16.998-16.998 16.998-16.998-7.625-16.998-16.998 7.625-16.998 16.998-16.998zM199.351 215.28c19.535 0 31.485-21.509 21.307-38.056l8.333-8.349a4 4 0 0 0-5.662-5.652l-7.911 7.926c-16.157-13.59-41.064-2.103-41.064 19.132-.001 13.785 11.212 24.999 24.997 24.999zm10.377-38.431-11.611 11.633-2.162-2.636a4 4 0 1 0-6.186 5.072l4.964 6.054a4 4 0 0 0 5.924.29l14.097-14.124c5.259 11.292-3.066 24.141-15.403 24.141-9.373 0-16.998-7.625-16.998-16.998 0-14.066 16.223-22.067 27.375-13.432zM108.85 52.167h-5.7a4 4 0 0 0 0 8h5.7a4 4 0 0 0 0-8zM152.85 52.167h-29a4 4 0 0 0 0 8h29a4 4 0 0 0 0-8z" fill="#5f266d" opacity="1" data-original="#5f266d"></path></g></g></svg>