<svg xmlns="http://www.w3.org/2000/svg" width="100" height="90" viewBox="0 0 100 90"><rect width="100%" height="100%" fill="#DDDDDD"/><path fill="#999999" d="M23.03 45.25h3.91l-1.49-4.09q-.11-.27-.23-.65-.12-.37-.24-.8-.11.43-.23.81t-.23.66zm3.12-7.65 4.83 12.29h-1.77q-.29 0-.48-.15t-.28-.37l-.92-2.51h-5.09l-.92 2.51q-.07.2-.26.36-.2.16-.49.16h-1.78l4.84-12.29zm7.6 3.95.14.69q.26-.26.56-.49.29-.22.62-.38.32-.16.7-.25.37-.09.81-.09.72 0 1.27.25.55.24.92.68.37.43.56 1.04.2.61.2 1.34v5.55h-2.1v-5.55q0-.8-.37-1.24t-1.11-.44q-.55 0-1.02.25-.48.25-.9.67v6.31h-2.1v-8.72h1.28q.41 0 .54.38m12.37 6.09v-1.47q-.91.04-1.53.15-.62.12-.99.3-.38.18-.54.41-.16.24-.16.52 0 .55.33.79.32.24.85.24.65 0 1.12-.23.47-.24.92-.71m-4.44-4.58-.37-.68q1.5-1.37 3.62-1.37.77 0 1.37.25t1.02.7q.42.44.63 1.06.22.62.22 1.36v5.51h-.95q-.3 0-.46-.09t-.26-.36l-.18-.63q-.33.3-.65.52-.31.23-.65.38t-.73.24q-.39.08-.85.08-.56 0-1.02-.15-.47-.15-.81-.45t-.53-.74-.19-1.03q0-.33.11-.66.11-.32.37-.62.25-.3.65-.56t.98-.46 1.35-.32q.78-.12 1.77-.15v-.51q0-.87-.37-1.29-.38-.43-1.08-.43-.51 0-.85.12-.33.12-.59.27-.25.15-.46.27t-.47.12q-.22 0-.37-.12-.15-.11-.25-.26m8.49-5.8h2.1v12.63h-2.1zm10.44 3.91h1.68l-4.75 11.12q-.1.22-.25.33-.14.12-.45.12h-1.56l1.63-3.5-3.53-8.07h1.84q.25 0 .39.12t.21.27l1.85 4.52q.1.23.16.46t.12.47q.08-.24.16-.47.07-.24.17-.47l1.75-4.51q.07-.17.22-.28.16-.11.36-.11m8.52.94-.48.76q-.08.13-.17.19-.1.06-.24.06-.15 0-.33-.09l-.4-.19q-.23-.11-.53-.19-.29-.09-.69-.09-.62 0-.97.27-.35.26-.35.68 0 .29.18.48t.48.33q.3.15.69.26.38.12.77.25.4.14.78.31.39.18.69.44.3.27.48.65.18.37.18.9 0 .63-.22 1.16-.23.53-.67.92-.44.38-1.09.6t-1.5.22q-.45 0-.88-.08-.43-.09-.83-.23-.39-.14-.73-.34-.33-.2-.59-.43l.49-.79q.09-.15.22-.23.13-.07.32-.07.2 0 .37.11.18.11.41.24.22.12.53.23.32.12.79.12.38 0 .64-.09.27-.09.44-.24.18-.14.26-.33t.08-.4q0-.3-.18-.5t-.49-.34q-.3-.14-.69-.26-.38-.11-.79-.25-.4-.14-.79-.32-.38-.18-.68-.46-.31-.28-.49-.69t-.18-.99q0-.53.21-1.02.21-.48.63-.84.41-.36 1.02-.58.62-.22 1.43-.22.9 0 1.64.3t1.23.78m1.74-.94h2.11v8.72h-2.11zm2.4-2.54q0 .27-.11.51t-.29.41q-.19.18-.43.29-.25.1-.53.1-.27 0-.51-.1-.25-.11-.42-.29-.18-.17-.29-.41t-.11-.51q0-.28.11-.53t.29-.42q.17-.18.42-.29.24-.11.51-.11.28 0 .53.11.24.11.43.29.18.17.29.42t.11.53m7.65 3.48-.48.76q-.08.13-.17.19-.1.06-.24.06-.16 0-.33-.09l-.4-.19q-.23-.11-.53-.19-.29-.09-.69-.09-.62 0-.97.27-.35.26-.35.68 0 .29.18.48t.48.33q.3.15.69.26.38.12.77.25.4.14.78.31.38.18.69.44.3.27.48.65.18.37.18.9 0 .63-.22 1.16-.23.53-.67.92-.44.38-1.09.6t-1.5.22q-.45 0-.88-.08-.43-.09-.83-.23-.39-.14-.73-.34-.33-.2-.59-.43l.49-.79q.09-.15.22-.23.13-.07.32-.07.2 0 .37.11.18.11.4.24.23.12.54.23.31.12.79.12.37 0 .64-.09t.44-.24q.18-.14.26-.33t.08-.4q0-.3-.18-.5-.19-.2-.49-.34t-.69-.26q-.38-.11-.79-.25-.4-.14-.79-.32-.38-.18-.69-.46-.3-.28-.48-.69t-.18-.99q0-.53.21-1.02.21-.48.62-.84.42-.36 1.03-.58.62-.22 1.43-.22.9 0 1.64.3t1.23.78"/></svg>